<svg xmlns="http://www.w3.org/2000/svg" viewBox="0 0 500 500"><g id="freepik--background-simple--inject-123"><path d="M440,125.83c-7.07-8.24-14.47-16.07-21.75-23.49-25.44-25.92-52.15-53.84-86.86-66.69-86-31.83-201-1.4-260.09,68.67C38.5,143.26,17.66,199.11,31.19,249.89a134.38,134.38,0,0,0,13,31.87c4.74,8.29,10.8,15.85,13.48,25.13,2.93,10.11,2.69,20.89,3.56,31.3,3.48,41.62,25.73,81,58.74,106.44,25.49,19.62,55.32,35.72,87.53,40.23,69,9.65,168.11-11.5,208.62-73.82,9.2-14.16,14.44-30.58,16.84-47.22,2.12-14.71-1.94-29.74,1.6-44.32,4.06-16.71,18-27,28.22-39.68s17-30.61,19.19-46.86C487.47,192.25,465.5,155.51,440,125.83Z" style="fill:#263238"></path><path d="M482,233c-2.2,16.25-8.81,34-19.19,46.86s-24.16,23-28.22,39.68c-3.54,14.58.52,29.61-1.6,44.32-2.4,16.64-7.64,33.06-16.84,47.22a128,128,0,0,1-24.66,27.71c-48,40.79-126.43,54.16-184,46.11-32.21-4.51-62-20.61-87.53-40.23-1.55-1.2-3.09-2.42-4.59-3.68-30.47-25.45-50.83-63.1-54.15-102.76-.87-10.41-.63-21.19-3.56-31.3-2.68-9.28-8.74-16.84-13.48-25.13a134.38,134.38,0,0,1-13-31.87C17.66,199.11,38.5,143.26,71.34,104.32c59.1-70.07,174.09-100.5,260.09-68.67,34.71,12.85,61.42,40.77,86.86,66.69,7.28,7.42,14.68,15.25,21.75,23.49C465.5,155.51,487.47,192.25,482,233Z" style="fill:#fff;opacity:0.5"></path></g><g id="freepik--Lights--inject-123"><path d="M330.85,95.36c0,.59-3.62,1.07-8.08,1.07s-8.08-.48-8.08-1.07,3.62-1.07,8.08-1.07S330.85,94.77,330.85,95.36Z" style="fill:#FFC100"></path><path d="M376.64,95.36c0,.73-4.45,1.32-9.94,1.32s-9.94-.59-9.94-1.32,4.45-1.31,9.94-1.31S376.64,94.64,376.64,95.36Z" style="fill:#d9d9d9"></path><path d="M422.44,95.36c0,.87-5.29,1.57-11.81,1.57s-11.81-.7-11.81-1.57,5.29-1.56,11.81-1.56S422.44,94.5,422.44,95.36Z" style="fill:#FFC100"></path><path d="M326.31,84.59c.54.55-2.4,1.52-6.56,2.16s-8,.71-8.5.16,2.4-1.52,6.56-2.16S325.78,84,326.31,84.59Z" style="fill:#d9d9d9"></path><path d="M369,78c.66.68-3,1.86-8.08,2.65s-9.81.88-10.47.2,3-1.87,8.08-2.65S368.35,77.34,369,78Z" style="fill:#d9d9d9"></path><path d="M411.72,71.44c.78.81-3.51,2.22-9.59,3.16s-11.65,1-12.43.23,3.5-2.21,9.58-3.15S410.93,70.64,411.72,71.44Z" style="fill:#FFC100"></path><path d="M312.29,75.19c1,.44-.86,1.76-4.16,3s-6.78,1.81-7.78,1.37.86-1.76,4.16-3S311.29,74.76,312.29,75.19Z" style="fill:#d9d9d9"></path><path d="M346.13,62.94c1.23.53-1.06,2.16-5.11,3.63s-8.35,2.23-9.58,1.69,1.05-2.17,5.11-3.64S344.9,62.4,346.13,62.94Z" style="fill:#d9d9d9"></path><path d="M380,50.68c1.47.64-1.25,2.57-6.07,4.31s-9.91,2.65-11.38,2,1.26-2.57,6.08-4.32S378.51,50,380,50.68Z" style="fill:#FFC100"></path><path d="M290.67,68.45c1.33.26.8,1.76-1.19,3.35s-4.68,2.66-6,2.39-.8-1.76,1.19-3.35S289.34,68.18,290.67,68.45Z" style="fill:#d9d9d9"></path><path d="M311.08,52.16c1.64.32,1,2.17-1.46,4.12s-5.76,3.28-7.4,2.95-1-2.17,1.46-4.12S309.44,51.83,311.08,52.16Z" style="fill:#FFC100"></path><path d="M331.49,35.87c1.95.39,1.17,2.58-1.73,4.9s-6.84,3.88-8.79,3.5-1.17-2.58,1.74-4.9S329.55,35.49,331.49,35.87Z" style="fill:#d9d9d9"></path><path d="M264.38,65.26c1.48,0,2.35,1.53,1.93,3.29a3.81,3.81,0,0,1-3.42,3.1c-1.48-.06-2.35-1.53-1.94-3.3A3.81,3.81,0,0,1,264.38,65.26Z" style="fill:#d9d9d9"></path><path d="M268.6,47.14c1.83.07,2.89,1.88,2.39,4s-2.4,3.88-4.22,3.82-2.89-1.89-2.38-4.06S266.78,47.07,268.6,47.14Z" style="fill:#d9d9d9"></path><path d="M272.83,29c2.16.08,3.43,2.24,2.83,4.82s-2.85,4.6-5,4.52-3.43-2.23-2.83-4.81S270.66,28.94,272.83,29Z" style="fill:#d9d9d9"></path><path d="M277.05,10.9c2.51.1,4,2.59,3.28,5.58s-3.29,5.33-5.8,5.24-4-2.59-3.28-5.57S274.55,10.81,277.05,10.9Z" style="fill:#FFC100"></path><path d="M237,66.06c1.43-.16,3.58,1.09,4.8,2.79s1.05,3.22-.38,3.38-3.58-1.09-4.8-2.79S235.53,66.22,237,66.06Z" style="fill:#d9d9d9"></path><path d="M224.43,48.56c1.76-.2,4.4,1.34,5.91,3.44s1.29,4-.47,4.16-4.41-1.34-5.91-3.44S222.67,48.76,224.43,48.56Z" style="fill:#d9d9d9"></path><ellipse cx="215.13" cy="35.57" rx="3.09" ry="5.98" transform="translate(48.69 176.43) rotate(-49.63)" style="fill:#FFC100"></ellipse><path d="M199.36,13.56c2.43-.28,6.06,1.84,8.13,4.72s1.78,5.45-.64,5.73-6.06-1.85-8.13-4.73S196.94,13.83,199.36,13.56Z" style="fill:#d9d9d9"></path><path d="M212.12,70.74c1.19-.36,4.33.5,7,1.92s3.9,2.85,2.72,3.2-4.33-.5-7-1.91S210.93,71.1,212.12,70.74Z" style="fill:#d9d9d9"></path><path d="M184.52,56.22c1.47-.44,5.33.62,8.64,2.36s4.81,3.51,3.35,3.94-5.33-.61-8.64-2.35S183.06,56.66,184.52,56.22Z" style="fill:#FFC100"></path><path d="M156.93,41.7c1.73-.52,6.32.73,10.25,2.8s5.71,4.17,4,4.69-6.33-.74-10.26-2.8S155.19,42.22,156.93,41.7Z" style="fill:#d9d9d9"></path><path d="M193.22,78.67c.78-.5,4.49-.15,8.28.78s6.23,2.1,5.45,2.6-4.49.15-8.28-.78S192.43,79.17,193.22,78.67Z" style="fill:#d9d9d9"></path><path d="M154.28,69.09c1-.62,5.53-.19,10.2,1s7.67,2.58,6.71,3.2-5.53.19-10.2-1S153.32,69.71,154.28,69.09Z" style="fill:#d9d9d9"></path><path d="M115.35,59.51c1.14-.73,6.56-.22,12.11,1.14s9.11,3.07,8,3.8-6.57.23-12.12-1.14S114.2,60.25,115.35,59.51Z" style="fill:#d9d9d9"></path><path d="M182.8,88.78c.27-.58,4-.79,8.43-.46S199,89.38,198.68,90s-4.05.79-8.44.46S182.53,89.36,182.8,88.78Z" style="fill:#d9d9d9"></path><ellipse cx="147.56" cy="86.16" rx="1.33" ry="9.81" transform="translate(51.72 227.63) rotate(-86.17)" style="fill:#FFC100"></ellipse><path d="M92.77,82.09c.4-.85,5.92-1.15,12.33-.67S116.38,83,116,83.82s-5.92,1.15-12.33.67S92.37,82.94,92.77,82.09Z" style="fill:#d9d9d9"></path><path d="M182.27,99.7c-.27-.58,3.06-1.32,7.45-1.64s8.16-.12,8.43.46-3.06,1.32-7.44,1.64S182.55,100.28,182.27,99.7Z" style="fill:#FFC100"></path><path d="M137.26,103c-.34-.71,3.77-1.62,9.17-2s10-.14,10.38.57-3.77,1.62-9.17,2S137.6,103.76,137.26,103Z" style="fill:#d9d9d9"></path><path d="M92.25,106.39c-.4-.85,4.47-1.93,10.88-2.4s11.93-.18,12.33.67-4.47,1.93-10.88,2.4S92.65,107.24,92.25,106.39Z" style="fill:#FFC100"></path><path d="M47.23,109.73c-.46-1,5.18-2.23,12.61-2.78s13.81-.2,14.27.78-5.18,2.23-12.6,2.78S47.7,110.71,47.23,109.73Z" style="fill:#d9d9d9"></path><path d="M191.71,110c-.78-.5,1.66-1.67,5.46-2.6s7.5-1.28,8.28-.78-1.66,1.67-5.45,2.6S192.5,110.46,191.71,110Z" style="fill:#d9d9d9"></path><path d="M152.78,119.54c-1-.62,2-2.05,6.71-3.2s9.23-1.58,10.2-1-2,2.05-6.71,3.2S153.74,120.16,152.78,119.54Z" style="fill:#d9d9d9"></path><path d="M113.85,129.12c-1.15-.74,2.42-2.44,8-3.8s11-1.88,12.11-1.14-2.42,2.43-8,3.8S115,129.85,113.85,129.12Z" style="fill:#FFC100"></path><path d="M74.91,138.7c-1.32-.85,2.81-2.82,9.23-4.4s12.7-2.17,14-1.32-2.81,2.82-9.22,4.4S76.24,139.55,74.91,138.7Z" style="fill:#d9d9d9"></path><path d="M36,148.27c-1.51-1,3.19-3.2,10.48-5s14.43-2.47,15.94-1.51-3.19,3.21-10.49,5S37.48,149.24,36,148.27Z" style="fill:#d9d9d9"></path><path d="M209.85,118.17c-1.19-.35,0-1.79,2.71-3.2s5.83-2.28,7-1.92,0,1.79-2.72,3.2S211,118.53,209.85,118.17Z" style="fill:#d9d9d9"></path><path d="M182.25,132.69c-1.46-.44,0-2.2,3.35-3.94s7.17-2.8,8.63-2.36,0,2.2-3.35,3.94S183.71,133.13,182.25,132.69Z" style="fill:#FFC100"></path><path d="M154.65,147.21c-1.73-.52,0-2.62,4-4.68s8.52-3.33,10.25-2.81,0,2.62-4,4.69S156.39,147.73,154.65,147.21Z" style="fill:#d9d9d9"></path><path d="M127.06,161.73c-2-.6,0-3,4.6-5.42s9.86-3.85,11.87-3.25-.05,3-4.6,5.43S129.06,162.33,127.06,161.73Z" style="fill:#FFC100"></path><path d="M99.46,176.25c-2.28-.68.06-3.44,5.23-6.16s11.21-4.38,13.49-3.69-.06,3.45-5.23,6.17S101.74,176.94,99.46,176.25Z" style="fill:#d9d9d9"></path><path d="M71.86,190.77c-2.55-.76.07-3.86,5.86-6.9s12.56-4.9,15.11-4.13-.06,3.86-5.85,6.9S74.42,191.54,71.86,190.77Z" style="fill:#FFC100"></path><path d="M44.27,205.29c-2.83-.85.07-4.27,6.48-7.64s13.91-5.42,16.74-4.57-.08,4.27-6.49,7.64S47.1,206.14,44.27,205.29Z" style="fill:#d9d9d9"></path><path d="M234.22,123.23c-1.43-.17-1.6-1.68-.38-3.38s3.37-3,4.8-2.8,1.6,1.68.38,3.38S235.65,123.39,234.22,123.23Z" style="fill:#d9d9d9"></path><path d="M221.68,140.73c-1.76-.2-2-2.07-.46-4.16s4.15-3.64,5.91-3.44,2,2.06.46,4.16S223.44,140.93,221.68,140.73Z" style="fill:#d9d9d9"></path><ellipse cx="212.38" cy="153.72" rx="5.98" ry="3.09" transform="matrix(0.76, -0.65, 0.65, 0.76, -48.99, 174.17)" style="fill:#d9d9d9"></ellipse><ellipse cx="200.36" cy="170.5" rx="6.93" ry="3.57" transform="translate(-62.73 170.38) rotate(-40.37)" style="fill:#FFC100"></ellipse><path d="M184.09,193.23c-2.75-.31-3.08-3.22-.73-6.5s6.48-5.69,9.23-5.38,3.08,3.23.73,6.5S186.84,193.54,184.09,193.23Z" style="fill:#d9d9d9"></path><path d="M171.56,210.73c-3.08-.35-3.45-3.61-.82-7.28s7.26-6.37,10.34-6,3.45,3.61.82,7.28S174.64,211.08,171.56,210.73Z" style="fill:#d9d9d9"></path><path d="M159,228.23c-3.41-.38-3.81-4-.9-8.06s8-7,11.45-6.66,3.82,4,.9,8.06S162.44,228.62,159,228.23Z" style="fill:#FFC100"></path><path d="M261.54,124.44a3.81,3.81,0,0,1-3.43-3.1c-.41-1.76.46-3.24,1.94-3.29a3.8,3.8,0,0,1,3.42,3.1C263.88,122.91,263,124.39,261.54,124.44Z" style="fill:#d9d9d9"></path><ellipse cx="264.85" cy="138.63" rx="3.15" ry="4.16" transform="translate(-33.87 150.07) rotate(-29.82)" style="fill:#d9d9d9"></ellipse><path d="M270,160.68c-2.17.08-4.41-2-5-4.53s.66-4.74,2.83-4.82,4.41,1.95,5,4.53S272.15,160.6,270,160.68Z" style="fill:#d9d9d9"></path><path d="M274.21,178.79c-2.5.1-5.1-2.25-5.8-5.24s.77-5.48,3.28-5.57,5.1,2.25,5.8,5.24S276.72,178.7,274.21,178.79Z" style="fill:#FFC100"></path><path d="M278.44,196.91c-2.85.11-5.8-2.56-6.59-5.95s.87-6.24,3.72-6.34,5.8,2.56,6.59,6S281.29,196.81,278.44,196.91Z" style="fill:#d9d9d9"></path><path d="M282.66,215c-3.19.12-6.49-2.87-7.38-6.67s1-7,4.17-7.1,6.5,2.87,7.38,6.67S285.85,214.91,282.66,215Z" style="fill:#FFC100"></path><path d="M286.89,233.15c-3.53.13-7.19-3.18-8.17-7.39s1.08-7.73,4.61-7.86,7.19,3.18,8.18,7.39S290.42,233,286.89,233.15Z" style="fill:#d9d9d9"></path><path d="M288.12,121.65c-1.33.27-4-.81-6-2.39s-2.52-3.09-1.19-3.35,4,.81,6,2.39S289.45,121.39,288.12,121.65Z" style="fill:#d9d9d9"></path><path d="M308.53,137.94c-1.64.32-4.95-1-7.4-2.95s-3.1-3.8-1.46-4.12,4.95,1,7.39,2.95S310.17,137.62,308.53,137.94Z" style="fill:#d9d9d9"></path><path d="M328.94,154.23c-1.94.38-5.88-1.19-8.78-3.5s-3.69-4.52-1.74-4.9,5.88,1.18,8.78,3.5S330.89,153.84,328.94,154.23Z" style="fill:#FFC100"></path><path d="M349.35,170.52c-2.25.44-6.8-1.37-10.17-4.06s-4.27-5.22-2-5.67,6.8,1.37,10.17,4.06S351.61,170.07,349.35,170.52Z" style="fill:#d9d9d9"></path><path d="M369.76,186.8c-2.56.51-7.73-1.55-11.56-4.6s-4.85-5.94-2.29-6.45,7.74,1.56,11.57,4.61S372.33,186.3,369.76,186.8Z" style="fill:#FFC100"></path><path d="M390.18,203.09c-2.87.57-8.67-1.74-12.95-5.16s-5.43-6.65-2.57-7.22,8.67,1.75,12.95,5.17S393,202.52,390.18,203.09Z" style="fill:#d9d9d9"></path><path d="M410.59,219.38c-3.18.63-9.59-1.93-14.34-5.72s-6-7.36-2.84-8,9.6,1.94,14.34,5.72S413.76,218.75,410.59,219.38Z" style="fill:#FFC100"></path><path d="M310.37,115.24c-1,.43-4.49-.18-7.79-1.37s-5.15-2.52-4.15-3,4.49.18,7.78,1.37S311.37,114.8,310.37,115.24Z" style="fill:#d9d9d9"></path><path d="M344.21,127.49c-1.23.54-5.52-.21-9.58-1.68s-6.35-3.1-5.12-3.64,5.53.22,9.59,1.69S345.44,127,344.21,127.49Z" style="fill:#d9d9d9"></path><path d="M378.05,139.75c-1.46.64-6.56-.26-11.38-2s-7.53-3.68-6.07-4.32,6.56.26,11.38,2S379.52,139.11,378.05,139.75Z" style="fill:#FFC100"></path><path d="M411.89,152c-1.69.74-7.59-.3-13.17-2.32s-8.73-4.26-7-5,7.59.3,13.17,2.32S413.59,151.27,411.89,152Z" style="fill:#d9d9d9"></path><path d="M445.73,164.27c-1.92.84-8.62-.34-15-2.64s-9.91-4.84-8-5.68,8.63.34,15,2.64S447.66,163.43,445.73,164.27Z" style="fill:#d9d9d9"></path><path d="M479.58,176.53c-2.16.94-9.67-.38-16.77-3s-11.11-5.42-8.95-6.36,9.66.38,16.76,3S481.73,175.59,479.58,176.53Z" style="fill:#FFC100"></path><path d="M325.28,106.06c-.53.55-4.34.48-8.5-.16s-7.1-1.61-6.56-2.16,4.34-.48,8.5.16S325.82,105.51,325.28,106.06Z" style="fill:#d9d9d9"></path><path d="M368,112.63c-.66.68-5.34.59-10.46-.2s-8.74-2-8.08-2.65,5.35-.59,10.47.2S368.65,112,368,112.63Z" style="fill:#d9d9d9"></path><path d="M410.69,119.21c-.79.8-6.36.7-12.44-.24s-10.37-2.35-9.58-3.15,6.35-.7,12.43.23S411.47,118.4,410.69,119.21Z" style="fill:#FFC100"></path><path d="M453.39,125.78c-.91.93-7.36.81-14.4-.27s-12-2.72-11.1-3.66,7.35-.8,14.39.28S454.3,124.85,453.39,125.78Z" style="fill:#d9d9d9"></path></g><g id="freepik--Floor--inject-123"><path d="M391.46,438.75c-48,40.79-126.43,54.16-184,46.11-32.21-4.51-62-20.61-87.53-40.23-1.55-1.2-3.09-2.42-4.59-3.68,22.42-13,76.71-22.17,140.13-22.17C315.28,418.78,367,426.93,391.46,438.75Z" style="fill:#fff;opacity:0.41000000000000003"></path></g><g id="freepik--character-1--inject-123"><path d="M175.34,308.74s-2.81,9.82-2.81,15.29S188,336.1,194.7,338.2s9.68,2.11,9.68,2.11l3.5-12.35s-4.06-12.9-3.22-23.85,7.71-20.2,7.57-25.53-1.54-5.05-5.61-2.24-4.91,2-12.62,9S176.46,303.41,175.34,308.74Z" style="fill:#c7c7c7;stroke:#263238;stroke-linecap:round;stroke-linejoin:round"></path><path d="M196.8,449s-5.19,4.63-6.45,6.45,0,4.49.28,4.91,2.66,1.41,6.73,1.13,8.84-5,9.68-6.18.56,2.25.56,2.25,2.39-.14,3.37-1.12l1-1s-.14-4.06-.28-7.29a30.16,30.16,0,0,0-1-6.17S198.34,448.89,196.8,449Z" style="fill:#263238"></path><path d="M294.41,445.33s2.8,8.84,5.89,11.5,9.26,3.79,10.94,2.95,2.39-2.95,1.4-5.89-3.22-4.77-5.05-6.32a33.2,33.2,0,0,1-3.64-3.79Z" style="fill:#263238"></path><path d="M204.24,331.75s-6.74,13.47-6.32,15,2.39,4.63,2.53,5.19-5.19,14.45-6.88,22.17-1.82,26.93-1.82,26.93-3.93,5.89-3.79,7.86,3.65,16.27,4.35,20.34,2.95,18.52,2.95,19.92,0,3.65,1.26,3.09,6.73-1,10.1-3.23,6.17-7.58,6.31-8-2-14.59-2.24-19.08-.7-9.39-.7-9.39a16.64,16.64,0,0,0,1.4-5.48,12.54,12.54,0,0,0-.84-5.47c-.28-.56,4.35-14,7.15-20.06s6.74-10.1,8.7-10.94,5.61-.84,7.44-.7,18.34,16.78,20.3,20,27.64,48.26,28.76,50.23,1.83,4.63,2.67,5.19,6.87,2.24,10.8,2.38a42.89,42.89,0,0,0,7.19-.36s3.61-7.49,3.47-11.7-2.1-6.17-6.73-12.49-18-24.83-21.05-30.44-22.37-40.41-22.37-40.41-10.42-11.16-11.54-15.93-1.4-6.59-1.4-6.59S232.15,332.73,223,333A115.91,115.91,0,0,1,204.24,331.75Z" style="fill:#fff;stroke:#263238;stroke-linecap:round;stroke-linejoin:round"></path><path d="M223.46,342s3.36,3.51,3.22,4.07-5.47,3.09-3.36,4.21a34.24,34.24,0,0,1,4.63,3.22" style="fill:none;stroke:#263238;stroke-linecap:round;stroke-linejoin:round"></path><path d="M234.85,348.62a21.61,21.61,0,0,0,2.63-.74" style="fill:none;stroke:#263238;stroke-linecap:round;stroke-linejoin:round"></path><path d="M210.83,347.6s11.14,2.71,20.94,1.54" style="fill:none;stroke:#263238;stroke-linecap:round;stroke-linejoin:round"></path><path d="M222.07,366.29c-1.75-.27-3.1-.45-3.1-.45" style="fill:none;stroke:#263238;stroke-linecap:round;stroke-linejoin:round"></path><path d="M233.84,369.91a24.51,24.51,0,0,0-6.46-2.67c-.68-.15-1.45-.3-2.25-.44" style="fill:none;stroke:#263238;stroke-linecap:round;stroke-linejoin:round"></path><line x1="191.75" y1="401.05" x2="194.98" y2="395.16" style="fill:none;stroke:#263238;stroke-linecap:round;stroke-linejoin:round"></line><line x1="209.99" y1="412.56" x2="209.57" y2="406.52" style="fill:none;stroke:#263238;stroke-linecap:round;stroke-linejoin:round"></line><path d="M196,408.7a12.21,12.21,0,0,1,.39-3.16" style="fill:none;stroke:#263238;stroke-linecap:round;stroke-linejoin:round"></path><path d="M196.38,447.35s.42-12.91.14-23.71c-.12-4.81-.33-8.34-.45-11" style="fill:none;stroke:#263238;stroke-linecap:round;stroke-linejoin:round"></path><path d="M270.74,403.89c-.65-1.11-1.24-2.17-1.75-3.17" style="fill:none;stroke:#263238;stroke-linecap:round;stroke-linejoin:round"></path><path d="M300.39,443.09c-5.93-7.09-20.33-24.3-28.26-36.93" style="fill:none;stroke:#263238;stroke-linecap:round;stroke-linejoin:round"></path><path d="M303.56,447.35l-1.82-2.15" style="fill:none;stroke:#263238;stroke-linecap:round;stroke-linejoin:round"></path><path d="M207.46,337.36a41.5,41.5,0,0,0,13.89,2.95c6.88,0,11.37-1,11.79-1.55s-1.27-4.06-6.88-8.41-7.71-4.91-10.94-2.53a109.36,109.36,0,0,0-8.7,7.86Z" style="fill:#FFC100;stroke:#263238;stroke-linecap:round;stroke-linejoin:round"></path><path d="M198.34,282.93a98.5,98.5,0,0,1,.43,15.71c-.57,6.88.56,18.66,1.4,25.11s7.29,13.61,7.29,13.61l12.07-8.28L232,339.89a60.13,60.13,0,0,0,7.44-5.48c3.51-3.08,4.21-4.06,4.49-4.62s-1.83-7.72-2.11-18-.7-15.29,2.25-23.57.42-8.56-2.11-11.64-14.87-6.18-21-6.6-9.68-3.22-14.31,1.12S198.62,280.12,198.34,282.93Z" style="fill:#fff;stroke:#263238;stroke-linecap:round;stroke-linejoin:round"></path><path d="M205.22,272.69s.42,1.4,0,10.1S201.71,297,201,297.94a14.08,14.08,0,0,1-2.39,2.24s.15-6.73.29-9a89.33,89.33,0,0,0-.71-9.26S202.69,273.67,205.22,272.69Z" style="fill:#FFC100;stroke:#263238;stroke-linecap:round;stroke-linejoin:round"></path><path d="M301.22,330.66l3.1.11s1-2.74,2-2.86a14.14,14.14,0,0,0,4.48-1.13,16.13,16.13,0,0,0,4.07-3.74,1.27,1.27,0,0,1,2.12,1.19,7.33,7.33,0,0,1-2.15,4.06,8.28,8.28,0,0,0-1.52,1.73l5.06,1.23,8.58,2.49a.9.9,0,0,1,.63,1.08h0a.91.91,0,0,1-1.06.67L318,333.73l-.19,1.28,9.78,3a.9.9,0,0,1,.6,1.11h0a.89.89,0,0,1-1.08.62l-10.41-2.6-.42,1.21,8.66,3.06a.82.82,0,0,1,.48,1.12h0a.83.83,0,0,1-1,.47l-9.05-2.31,3.37,2.63a.81.81,0,0,1-.06,1.32h0a.83.83,0,0,1-.75.08c-2.2-.88-11.35-4.6-12.32-5.63s-1.83-2-1.83-2l-4.33-.79Z" style="fill:#fff;stroke:#263238;stroke-linecap:round;stroke-linejoin:round"></path><path d="M313.28,330s-1.54,3.24-2.71,3.92-3.2-.43-3.2-.43" style="fill:none;stroke:#263238;stroke-linecap:round;stroke-linejoin:round"></path><path d="M314.52,341.26s3.47-6.82,3.23-8.8" style="fill:none;stroke:#263238;stroke-linecap:round;stroke-linejoin:round"></path><polygon points="295.36 336.55 300.26 337.61 303.04 328.42 298.41 327.34 295.36 336.55" style="fill:#FFC100;stroke:#263238;stroke-linecap:round;stroke-linejoin:round"></polygon><path d="M236.78,280.4s1.27,32,3.23,42.23,9.82,25.11,12.35,27.5,12.06,9,12.06,9-8.14-11.37-11.22-19.36-6.18-15.44-6.32-20.07,1.55-15.57,1.55-15.57,10.83,22.72,12.09,24,34.76,11.13,34.76,11.13l4.82-12.94s-29.62-11.8-30-11.94-12.79-30.71-13.64-33.09-.7-5.62-2.24-6.46a26.83,26.83,0,0,0-6.59-1.68c-1.13-.14-10.11-1.12-10.11-1.12Z" style="fill:#fff;stroke:#263238;stroke-linecap:round;stroke-linejoin:round"></path><line x1="251.12" y1="290.67" x2="251.7" y2="287.82" style="fill:none;stroke:#263238;stroke-linecap:round;stroke-linejoin:round"></line><line x1="248.43" y1="304.11" x2="250.45" y2="294.04" style="fill:none;stroke:#263238;stroke-linecap:round;stroke-linejoin:round"></line><path d="M160.52,199.73l-.25-3.23s2.81-1.15,2.89-2.14a14.59,14.59,0,0,1,1-4.72,17.31,17.31,0,0,1,3.72-4.38,1.31,1.31,0,0,0-1.32-2.14,7.57,7.57,0,0,0-4.13,2.39,8.82,8.82,0,0,1-1.74,1.66L159.19,182l-2.93-8.82a.93.93,0,0,0-1.15-.6h0a.93.93,0,0,0-.66,1.12l2.18,8.79-1.32.25-3.5-10a.92.92,0,0,0-1.18-.58h0a.93.93,0,0,0-.6,1.15l3.13,10.7-1.24.5-3.54-8.88a.85.85,0,0,0-1.18-.45h0a.84.84,0,0,0-.44,1l2.76,9.31L146.66,182a.85.85,0,0,0-1.38.12h0a.84.84,0,0,0,0,.77c1,2.26,5.24,11.62,6.35,12.58s2.15,1.82,2.15,1.82l1,4.46Z" style="fill:#fff;stroke:#263238;stroke-linecap:round;stroke-linejoin:round"></path><path d="M160.68,187.17s-3.3,1.73-4,3,.57,3.31.57,3.31" style="fill:none;stroke:#263238;stroke-linecap:round;stroke-linejoin:round"></path><path d="M149,186.34s6.94-3.89,9-3.72" style="fill:none;stroke:#263238;stroke-linecap:round;stroke-linejoin:round"></path><polygon points="154.49 206.12 153.23 201.27 162.31 198.12 163.57 202.71 154.49 206.12" style="fill:#FFC100;stroke:#263238;stroke-linecap:round;stroke-linejoin:round"></polygon><path d="M211.25,264s-6-.84-9.26-3.37-6.87-4.77-7.57-4.63-3.79.14-3.79.14l-15.71-15.71L163.36,200.9l-11.64,3.93s9,43.59,10.43,47.94,23.15,29.6,23.15,29.6-5.75,12.48-7.72,17.95a39.3,39.3,0,0,0-2.24,8.42s13.89-16.83,23.57-21,14.16-11.5,14.73-14.73,2.38-9.26,2.38-9.26Z" style="fill:#fff;stroke:#263238;stroke-linecap:round;stroke-linejoin:round"></path><path d="M193.49,264.43c.74-2.19,1.07-3.53,1.07-3.53" style="fill:none;stroke:#263238;stroke-linecap:round;stroke-linejoin:round"></path><path d="M185.3,282.37s4.21-8.14,6.31-13.05q.3-.7.57-1.38" style="fill:none;stroke:#263238;stroke-linecap:round;stroke-linejoin:round"></path><path d="M245,249.64a9.38,9.38,0,0,0,4.67-6.1c.91-4.28-2.47-5.32-3-7.14s1.95-6.1-1.16-9.6-17.92-5.46-24.28-2.47-11.55,7-12.07,13.11,3.76,12.33,2.85,13.37-6.1.65-7,4.15,3.5,10.13,7.65,10.78a24.08,24.08,0,0,0,7.14.13,7.61,7.61,0,0,0,4-2.08c2.2-2,4.8-3,5.19-6.23s-.13-4.28,3-7.14,5.45-10.25,8.43-8.7S243.22,250.16,245,249.64Z" style="fill:#263238;stroke:#263238;stroke-linecap:round;stroke-linejoin:round"></path><path d="M213.92,263.57A41,41,0,0,1,210,265c-.42,0-4.35-.28-6.17-1.26s-2.95-1.68-2.81-.14,4.07,5.89,5.61,7.57,4.91,6.74,8.14,10.25a115.22,115.22,0,0,1,8,10.66s14.59-9.4,16.28-10.66,8.42-4.77,10.38-5.76,2.24-1.82,1.26-2.38-1,.28-4.35-1.26-7.85-3.65-9.54-5.05a32.12,32.12,0,0,0-5.19-3.09S220.79,261.46,213.92,263.57Z" style="fill:#FFC100;stroke:#263238;stroke-linecap:round;stroke-linejoin:round"></path><path d="M241.27,237.44s3.12,2.6,3.38,5.45-.13,4.93.39,6.75,3.89,4.93,3.24,5.84-4.15,1.69-4.15,1.69-.39,9.61-1.43,10.13S234,266,234,266l-2.46,11.16c-.78,3.51-8.18,14.54-8.18,14.54s-4.42-17.39-4.29-21.29.26-5.71.26-5.71a11,11,0,0,0,3.9-3,12.56,12.56,0,0,0,2.21-5.06s-5.2-1.3-5.2-2.34v-1a7,7,0,0,0,5.32-1.69c2.08-2.08-.77-5.79,1.17-5.84,3.47-.1,11.48-2.82,7.27-6.23-1.4-1.14-3,.65-2.33-2S238.81,234.45,241.27,237.44Z" style="fill:#fff;stroke:#263238;stroke-linecap:round;stroke-linejoin:round"></path><path d="M242.18,249.06c0,.82-.32,1.49-.71,1.49s-.72-.67-.72-1.49.32-1.5.72-1.5S242.18,248.23,242.18,249.06Z" style="fill:#263238"></path><path d="M237.9,257.43a9.48,9.48,0,0,0,4.41,2.21" style="fill:none;stroke:#263238;stroke-linecap:round;stroke-linejoin:round"></path><path d="M239.84,245.36a2.28,2.28,0,0,1,3.12,1" style="fill:none;stroke:#263238;stroke-linecap:round;stroke-linejoin:round"></path><path d="M225.44,256.65s1.42,3.9,3.11,5.19" style="fill:none;stroke:#263238;stroke-linecap:round;stroke-linejoin:round"></path><polygon points="234 266 231.54 265.61 232.44 271.97 234 266" style="fill:#263238;stroke:#263238;stroke-linecap:round;stroke-linejoin:round"></polygon></g><g id="freepik--character-2--inject-123"><path d="M279.14,262s-3.17,5.51-4.67,8.35.5,7.51,7.17,8,9.35-4.67,9.35-6.18-.84-2.17-3.51-3-2.67,0-5.17-2.67S280.47,260.29,279.14,262Z" style="fill:#263238;stroke:#263238;stroke-linecap:round;stroke-linejoin:round"></path><path d="M313,180.35a44.42,44.42,0,0,0,1.34-8c.16-3.67-.5-6.34.16-6.17a2,2,0,0,1,1.67,2c.17,1.5.84,5.84.5,8" style="fill:#fff;stroke:#263238;stroke-linecap:round;stroke-linejoin:round"></path><path d="M284,244.1s-3.17,6-3.34,7.51.67,2.83.17,4.34-3.84,2.83-3.67,3.83,2.33,3.34,2.33,3.34,0,8,1.67,8.51,6.68,0,6.68,0,1.83,3,1.16,4.34-2.5,2.34-4,3.17a55.14,55.14,0,0,1-6.18,2.34,33.54,33.54,0,0,0,18.69,16.35c13.35,4.51,20.53.17,20.53.17s0-4.67.33-5.34,8.35-21.53,9.85-25.87,2.5-12.51,2.5-16.35-4.17-26.2-5.34-31-5.34-19.35-7-22.36-3.5-6.67-2.67-7.51,2.34-3.34,4.51-4.34,4.67-4.67,5-6.67-.33-2.34-1.5-.5-2.33,3.5-3.33,2.84-2-1.67-1.51-4.34,2.17-4,2.67-6.51-.16-4-1-2.67-4.34,5.84-5.67,9.18-4.84,10.34-4.67,12.85,4,19.69,4,19.69,1.84,16.85,2.17,22.19,2.34,17.19,2.34,17.19l-2.34,12.68s-6.67,12.52-7.18,13-5,.5-5,.5-1.67-3.17-2.5-5.34a9.57,9.57,0,0,1,1.66-8.85c2.34-3,4.51-6.67,2.34-12.18s-9.34-6.67-12.68-6.67S285.31,242.76,284,244.1Z" style="fill:#fff;stroke:#263238;stroke-linecap:round;stroke-linejoin:round"></path><path d="M318,179.85s.67-2.33.83-3.33,2.67-1.51,4.18-3.34,2.16-3.67,1-2.67-5,3.17-6.18,4-2.83,4.68-2.83,4.68" style="fill:#fff;stroke:#263238;stroke-linecap:round;stroke-linejoin:round"></path><path d="M318.35,292.66s-2.33-8.85-1.67-12.85" style="fill:#fff;stroke:#263238;stroke-linecap:round;stroke-linejoin:round"></path><path d="M308.67,280s-5,3-7.34,4" style="fill:none;stroke:#263238;stroke-linecap:round;stroke-linejoin:round"></path><path d="M289.15,274.47a36.77,36.77,0,0,1,.33,5.67" style="fill:none;stroke:#263238;stroke-linecap:round;stroke-linejoin:round"></path><path d="M281.64,263.62s3.17-.33,4.34-1.33" style="fill:none;stroke:#263238;stroke-linecap:round;stroke-linejoin:round"></path><path d="M285.93,255.74c0,.93-.4,1.69-.89,1.69s-.9-.76-.9-1.69.41-1.7.9-1.7S285.93,254.8,285.93,255.74Z" style="fill:#263238"></path><path d="M283.14,252.44s2.15-2.14,4.05-.24" style="fill:none;stroke:#263238;stroke-linecap:round;stroke-linejoin:round"></path><path d="M287,242.76a6.62,6.62,0,0,1,3.67,4c1.17,3.17-.33,6.17,2.51,9.51s5.34,7.34,5.5,10-2.83,4.68-2.17,7.68,7.85,8,13.52,7.17,8.68-4.67,10.51-9.34,3.17-6.34-.33-11.68-7.34-7.84-7.51-12.18.17-5.51-4.51-11-13-4.67-16-3.67a32,32,0,0,0-7,4s-8.18-2.84-10.85,1.5-1,9.51,2.34,10.51,5.17.17,5.17.17S285.65,243.43,287,242.76Z" style="fill:#263238;stroke:#263238;stroke-linecap:round;stroke-linejoin:round"></path><path d="M256.47,412.21a9.43,9.43,0,0,0,5.7,4.07c3.95,1,8.3.68,11.56,2.72s7.74,7.34,11.14,7.48,8.16-1,10.6.41,6.8,4.48,10.74,4.35,4.76-2.72,7.75-3.81,6.66-.27,9.92-1.9,4.35-4.9,6-6.26a44.72,44.72,0,0,1,4.35-3l-2.45-8.83s-2.58,1.49-11.14,3.67-12,4.62-26,1.36-18.08-3.94-23.92-6.39-13.19-6.25-13.19-6.25Z" style="fill:#FFC100;stroke:#263238;stroke-linecap:round;stroke-linejoin:round"></path><path d="M249.13,406.09s-3.95,13.05-5.71,19.71-4.62,16.31-5,17.67-2.58,5.84-4.49,9.92-2.58,7.61.14,7.34,4.89-3,6.66-7.88a61.32,61.32,0,0,0,2.58-9c.41-1.77,3.94-9,8.29-13.6s11-17.8,11-17.8Z" style="fill:#fff;stroke:#263238;stroke-linecap:round;stroke-linejoin:round"></path><path d="M243.65,442.79,239,441.37c-.3,1-.53,1.79-.62,2.1,0,.09-.06.19-.1.3l4.59,1.9c.16-.68.28-1.26.4-1.79A8.24,8.24,0,0,1,243.65,442.79Z" style="fill:#263238;stroke:#263238;stroke-linecap:round;stroke-linejoin:round"></path><path d="M238.57,457.36a18.26,18.26,0,0,0,1.25-2.35l-5.92-1.62c-.27.59-.52,1.17-.74,1.72Z" style="fill:#263238;stroke:#263238;stroke-linecap:round;stroke-linejoin:round"></path><path d="M324.7,410.85s-13.32,30-14.41,32.21-1.63,4.76-1.36,5.71,3.53,6.25,5.16,7.34,5.31,3.12,4.35,3.53-5.57.41-7.2.14a7,7,0,0,1-3.94-2.31,14.72,14.72,0,0,0-3.13-2.31l-.13,4.07-2.31-.13s-1.36-5.44-1.23-7.61,0-3.27,1.77-5,3-8.56,3.53-12,3.4-20.12,3.4-20.12S318.31,408.26,324.7,410.85Z" style="fill:#fff;stroke:#263238;stroke-linecap:round;stroke-linejoin:round"></path><path d="M301.73,459.1l2.31.13.13-4.07a14.72,14.72,0,0,1,3.13,2.31,7,7,0,0,0,3.94,2.31c1.63.27,6.25.27,7.2-.14s-2.71-2.44-4.35-3.53a6.49,6.49,0,0,1-1.2-1.18,14.62,14.62,0,0,0-3.69,2.54s-3.8-2.31-3.53-3.26,1.9-4.76,1.9-4.76.75,0,1.59-.15a3.09,3.09,0,0,1-.23-.53,3.59,3.59,0,0,1,0-1.25,18,18,0,0,1-6.64-1.06c-1.77,1.76-1.63,2.85-1.77,5S301.73,459.1,301.73,459.1Z" style="fill:#263238;stroke:#263238;stroke-linecap:round;stroke-linejoin:round"></path><path d="M274.13,325.53s-5.15,11.82-10.85,24.58-7.29,34.17-8.43,38.27-7.06,19.14-7.06,19.14,7.52,3.19,10.71,5,3.87,2.51,8.2,2.05,9.8.23,11.62,2.74a8.69,8.69,0,0,0,8.89,3.87c4.32-.68,8.2-.23,10,1.37s7.06,3.19,9.34.68,1.14-4.78,5-5,5,.45,7.29-1.82,4.56-3.88,6.16-3.88,6.37-.45,7.74-2.73l1.37-2.28s-12.3-41.24-16.86-53.31-6.38-18.91-6.15-19.82-1.79-5.85-1.79-5.85Z" style="fill:#FFC100;stroke:#263238;stroke-linecap:round;stroke-linejoin:round"></path><path d="M317,308.34a22.54,22.54,0,0,1-2,5.51c-1.34,2.34-4,3.17-4.51,6.84s.33,6-1.17,7.85-14.85,3.33-22.86,1.16-11.51-2.5-12.35-4.17-3.67-24.86-3.17-30.2-.5-7.34,1.17-9.35a5.9,5.9,0,0,1,5-2.5c1.83,0,4.5,8.51,14.35,12.35s17.18,6.51,19.35,6.34S317.85,304.67,317,308.34Z" style="fill:#FFC100;stroke:#263238;stroke-linecap:round;stroke-linejoin:round"></path><path d="M283.64,279.81s13,13.18,22.2,15.52A113,113,0,0,0,318,298l4.84,10s.17.5-2,.83a14.12,14.12,0,0,0-4.68,1.51c-1.33.66-2.17,1.5-3.33,1.16s-3.51-2-6.18-1.66-6.17,2.83-9.34,1.16-2.17-2.83-5.34-4-6.34-.33-7-2.84,0-5.17-3.51-7.51a10.05,10.05,0,0,1-4.83-6.67c-.67-2.34-.17-3.51-1.51-5.17a8,8,0,0,0-3.17-2.34Z" style="fill:#FFC100;stroke:#263238;stroke-linecap:round;stroke-linejoin:round"></path><path d="M274.47,373.92a31.17,31.17,0,0,0,.5,4.18,21.13,21.13,0,0,0,1.33,3.33s-1.17,1.5-2.17.17a13.91,13.91,0,0,1-1.67-3.34Z" style="fill:none;stroke:#263238;stroke-linecap:round;stroke-linejoin:round"></path><path d="M273.8,282.31s-4.51.17-6,9.18,0,22.53.33,29.37,1.51,31,1.84,34.54a83.31,83.31,0,0,1,0,11.35c-.17.83-6.34,6.17-6.51,7.67s-.66,6.35.5,5.85,1.34-3,1.34-3l1.17-2s-.34,5.34-.34,6.17,2.17,2.34,2.17,2.34-.83,1.83.17,1.67a4.81,4.81,0,0,0,3-3c.67-1.66,2-3.83,2.51-6.5s.66-7.85,1-12,2-20,2.33-25.53.5-15.85.67-19.69-.17-9.68-.17-9.68,3-9,3-14.35S280,281.64,273.8,282.31Z" style="fill:#fff;stroke:#263238;stroke-linecap:round;stroke-linejoin:round"></path><line x1="277.8" y1="309.01" x2="277.14" y2="298.67" style="fill:#fff;stroke:#263238;stroke-linecap:round;stroke-linejoin:round"></line><path d="M268.29,383.77s2.18-4,2.3-7.22" style="fill:none;stroke:#263238;stroke-linecap:round;stroke-linejoin:round"></path><path d="M267.46,382.63s.69-4.82.81-7.84" style="fill:none;stroke:#263238;stroke-linecap:round;stroke-linejoin:round"></path></g><g id="freepik--disco-ball--inject-123"><path d="M256.84,48h0Zm-1.32,0h0Zm.07,101.61h0Zm1.42,0h0Z" style="fill:#FFC100;stroke:#263238;stroke-linecap:round;stroke-linejoin:round"></path><path d="M277.53,52.67h-3.11a37.87,37.87,0,0,0-17-4.62A50.41,50.41,0,0,1,277.53,52.67Z" style="fill:#FFC100;stroke:#263238;stroke-linecap:round;stroke-linejoin:round"></path><path d="M255.16,48.05a37.83,37.83,0,0,0-17,4.62H235A50.41,50.41,0,0,1,255.16,48.05Z" style="fill:#FFC100;stroke:#263238;stroke-linecap:round;stroke-linejoin:round"></path><path d="M255.28,48.05a26.73,26.73,0,0,0-13.79,4.62h-3.34a37.83,37.83,0,0,1,17-4.62Z" style="fill:#FFC100;stroke:#263238;stroke-linecap:round;stroke-linejoin:round"></path><path d="M238.15,52.67a42.55,42.55,0,0,0-9.22,6.73h-4.69A50.85,50.85,0,0,1,235,52.67Z" style="fill:#FFC100;stroke:#263238;stroke-linecap:round;stroke-linejoin:round"></path><path d="M288.32,59.4h-4.69a42.49,42.49,0,0,0-9.21-6.73h3.11A50.85,50.85,0,0,1,288.32,59.4Z" style="fill:#FFC100;stroke:#263238;stroke-linecap:round;stroke-linejoin:round"></path><path d="M296.14,67.31h-5.83a48.78,48.78,0,0,0-6.68-7.91h4.69A51.31,51.31,0,0,1,296.14,67.31Z" style="fill:#FFC100;stroke:#263238;stroke-linecap:round;stroke-linejoin:round"></path><path d="M228.93,59.4a48.28,48.28,0,0,0-6.68,7.91h-5.82a50.8,50.8,0,0,1,7.81-7.91Z" style="fill:#FFC100;stroke:#263238;stroke-linecap:round;stroke-linejoin:round"></path><path d="M222.25,67.31A53.52,53.52,0,0,0,216.7,78h-6.78a50.59,50.59,0,0,1,6.51-10.69Z" style="fill:#fff;stroke:#263238;stroke-linecap:round;stroke-linejoin:round"></path><path d="M255.16,149.65a50.57,50.57,0,0,1-24.64-7h3.77A38.65,38.65,0,0,0,255.16,149.65Z" style="fill:#FFC100;stroke:#263238;stroke-linecap:round;stroke-linejoin:round"></path><path d="M282,142.66a50.5,50.5,0,0,1-24.63,7,38.68,38.68,0,0,0,20.88-7Z" style="fill:#FFC100;stroke:#263238;stroke-linecap:round;stroke-linejoin:round"></path><path d="M291,135.93a50.68,50.68,0,0,1-9,6.73h-3.75a45.47,45.47,0,0,0,7.67-6.73Z" style="fill:#FFC100;stroke:#263238;stroke-linecap:round;stroke-linejoin:round"></path><path d="M234.29,142.66h-3.77a50.61,50.61,0,0,1-9-6.73h5.08A44.71,44.71,0,0,0,234.29,142.66Z" style="fill:#FFC100;stroke:#263238;stroke-linecap:round;stroke-linejoin:round"></path><path d="M226.62,135.93h-5.08a50.39,50.39,0,0,1-6.88-7.92h6.09A49,49,0,0,0,226.62,135.93Z" style="fill:#FFC100;stroke:#263238;stroke-linecap:round;stroke-linejoin:round"></path><path d="M297.9,128a50.39,50.39,0,0,1-6.88,7.92H286a50.16,50.16,0,0,0,5.87-7.92Z" style="fill:#FFC100;stroke:#263238;stroke-linecap:round;stroke-linejoin:round"></path><path d="M303.63,117.33A49.84,49.84,0,0,1,297.9,128h-6.08a53.51,53.51,0,0,0,4.89-10.68Z" style="fill:#263238;stroke:#263238;stroke-linecap:round;stroke-linejoin:round"></path><path d="M220.75,128h-6.09a50.33,50.33,0,0,1-5.74-10.68h6.93A53,53,0,0,0,220.75,128Z" style="fill:#FFC100;stroke:#263238;stroke-linecap:round;stroke-linejoin:round"></path><path d="M215.85,117.33h-6.93a51,51,0,0,1-3.19-13.22h7.4A57.45,57.45,0,0,0,215.85,117.33Z" style="fill:#FFC100;stroke:#263238;stroke-linecap:round;stroke-linejoin:round"></path><path d="M306.83,104.11a50.23,50.23,0,0,1-3.2,13.22h-6.92a56.94,56.94,0,0,0,2.73-13.22Z" style="fill:#FFC100;stroke:#263238;stroke-linecap:round;stroke-linejoin:round"></path><path d="M307.1,98.85a50.75,50.75,0,0,1-.27,5.26h-7.39c.15-1.73.23-3.48.23-5.26a59,59,0,0,0-.62-8.59h7.32A49.54,49.54,0,0,1,307.1,98.85Z" style="fill:#fff;stroke:#263238;stroke-linecap:round;stroke-linejoin:round"></path><path d="M212.9,98.85c0,1.78.07,3.53.23,5.26h-7.4a50.75,50.75,0,0,1-.27-5.26,49.54,49.54,0,0,1,.73-8.59h7.33A59,59,0,0,0,212.9,98.85Z" style="fill:#263238;stroke:#263238;stroke-linecap:round;stroke-linejoin:round"></path><path d="M306.37,90.26h-7.32A56.73,56.73,0,0,0,295.87,78h6.77A50.09,50.09,0,0,1,306.37,90.26Z" style="fill:#fff;stroke:#263238;stroke-linecap:round;stroke-linejoin:round"></path><path d="M216.7,78a56.16,56.16,0,0,0-3.18,12.26h-7.33A49.66,49.66,0,0,1,209.92,78Z" style="fill:#263238;stroke:#263238;stroke-linecap:round;stroke-linejoin:round"></path><path d="M302.64,78h-6.77a53,53,0,0,0-5.56-10.69h5.83A51,51,0,0,1,302.64,78Z" style="fill:#FFC100;stroke:#263238;stroke-linecap:round;stroke-linejoin:round"></path><path d="M295.87,78h-7.33A58.51,58.51,0,0,0,284,67.31h6.3A53,53,0,0,1,295.87,78Z" style="fill:#fff;stroke:#263238;stroke-linecap:round;stroke-linejoin:round"></path><path d="M224,78a66.58,66.58,0,0,0-2.6,12.26h-7.91A56.16,56.16,0,0,1,216.7,78Z" style="fill:#FFC100;stroke:#263238;stroke-linecap:round;stroke-linejoin:round"></path><path d="M228.56,67.31A57.82,57.82,0,0,0,224,78H216.7a53.52,53.52,0,0,1,5.55-10.69Z" style="fill:#fff;stroke:#263238;stroke-linecap:round;stroke-linejoin:round"></path><path d="M290.31,67.31H284a47.78,47.78,0,0,0-5.44-7.91h5.06A48.78,48.78,0,0,1,290.31,67.31Z" style="fill:#FFC100;stroke:#263238;stroke-linecap:round;stroke-linejoin:round"></path><path d="M241.49,52.67A36.55,36.55,0,0,0,234,59.4h-5.07a42.55,42.55,0,0,1,9.22-6.73Z" style="fill:#FFC100;stroke:#263238;stroke-linecap:round;stroke-linejoin:round"></path><path d="M274.42,52.67h-3.36a26.67,26.67,0,0,0-13.78-4.62h.12A37.87,37.87,0,0,1,274.42,52.67Z" style="fill:#FFC100;stroke:#263238;stroke-linecap:round;stroke-linejoin:round"></path><path d="M299.05,90.26h-7.91A68.26,68.26,0,0,0,288.54,78h7.33A56.73,56.73,0,0,1,299.05,90.26Z" style="fill:#FFC100;stroke:#263238;stroke-linecap:round;stroke-linejoin:round"></path><path d="M299.67,98.85c0,1.78-.08,3.53-.23,5.26h-8c.12-1.73.19-3.48.19-5.26a73,73,0,0,0-.5-8.59h7.91A59,59,0,0,1,299.67,98.85Z" style="fill:#fff;stroke:#263238;stroke-linecap:round;stroke-linejoin:round"></path><path d="M223.34,117.33h-7.49a57.45,57.45,0,0,1-2.72-13.22h8A68,68,0,0,0,223.34,117.33Z" style="fill:#fff;stroke:#263238;stroke-linecap:round;stroke-linejoin:round"></path><path d="M296.71,117.33A53.51,53.51,0,0,1,291.82,128h-6.58a59.85,59.85,0,0,0,4-10.68Z" style="fill:#FFC100;stroke:#263238;stroke-linecap:round;stroke-linejoin:round"></path><path d="M232.11,135.93h-5.49a49,49,0,0,1-5.87-7.92h6.57A49.88,49.88,0,0,0,232.11,135.93Z" style="fill:#FFC100;stroke:#263238;stroke-linecap:round;stroke-linejoin:round"></path><path d="M286,135.93a45.47,45.47,0,0,1-7.67,6.73H274.2a40.4,40.4,0,0,0,6.26-6.73Z" style="fill:#FFC100;stroke:#263238;stroke-linecap:round;stroke-linejoin:round"></path><path d="M278.28,142.66a38.68,38.68,0,0,1-20.88,7h-.12a27.94,27.94,0,0,0,16.92-7Z" style="fill:#FFC100;stroke:#263238;stroke-linecap:round;stroke-linejoin:round"></path><path d="M255.28,149.65h-.12a38.65,38.65,0,0,1-20.87-7h4.07A27.89,27.89,0,0,0,255.28,149.65Z" style="fill:#FFC100;stroke:#263238;stroke-linecap:round;stroke-linejoin:round"></path><path d="M231.78,78a86.48,86.48,0,0,0-2,12.26h-8.37A66.58,66.58,0,0,1,224,78Z" style="fill:#263238;stroke:#263238;stroke-linecap:round;stroke-linejoin:round"></path><path d="M235.22,67.31A68.35,68.35,0,0,0,231.78,78H224a57.82,57.82,0,0,1,4.53-10.69Z" style="fill:#263238;stroke:#263238;stroke-linecap:round;stroke-linejoin:round"></path><path d="M284,67.31h-6.66a50.15,50.15,0,0,0-4.13-7.91h5.35A47.78,47.78,0,0,1,284,67.31Z" style="fill:#263238;stroke:#263238;stroke-linecap:round;stroke-linejoin:round"></path><path d="M245.05,52.67a32,32,0,0,0-5.71,6.73H234a36.55,36.55,0,0,1,7.49-6.73Z" style="fill:#FFC100;stroke:#263238;stroke-linecap:round;stroke-linejoin:round"></path><path d="M255.55,48.05a17.24,17.24,0,0,0-10.5,4.62h-3.56a26.73,26.73,0,0,1,13.79-4.62h.27Z" style="fill:#FFC100;stroke:#263238;stroke-linecap:round;stroke-linejoin:round"></path><path d="M271.06,52.67h-3.55A17.24,17.24,0,0,0,257,48.05h.27A26.67,26.67,0,0,1,271.06,52.67Z" style="fill:#FFC100;stroke:#263238;stroke-linecap:round;stroke-linejoin:round"></path><path d="M291.14,90.26h-8.38a86.5,86.5,0,0,0-2-12.26h7.75A68.26,68.26,0,0,1,291.14,90.26Z" style="fill:#263238;stroke:#263238;stroke-linecap:round;stroke-linejoin:round"></path><path d="M291.64,98.85c0,1.78-.07,3.53-.19,5.26H283c.09-1.73.13-3.48.13-5.26,0-2.93-.12-5.81-.38-8.59h8.38A73,73,0,0,1,291.64,98.85Z" style="fill:#FFC100;stroke:#263238;stroke-linecap:round;stroke-linejoin:round"></path><path d="M231.25,117.33h-7.91a68,68,0,0,1-2.22-13.22h8.44A90.86,90.86,0,0,0,231.25,117.33Z" style="fill:#263238;stroke:#263238;stroke-linecap:round;stroke-linejoin:round"></path><path d="M289.23,117.33a59.85,59.85,0,0,1-4,10.68h-6.95a74,74,0,0,0,3-10.68Z" style="fill:#FFC100;stroke:#263238;stroke-linecap:round;stroke-linejoin:round"></path><path d="M237.92,135.93h-5.81a49.88,49.88,0,0,1-4.79-7.92h7A55.72,55.72,0,0,0,237.92,135.93Z" style="fill:#FFC100;stroke:#263238;stroke-linecap:round;stroke-linejoin:round"></path><path d="M280.46,135.93a40.4,40.4,0,0,1-6.26,6.73h-4.3a38.06,38.06,0,0,0,4.75-6.73Z" style="fill:#263238;stroke:#263238;stroke-linecap:round;stroke-linejoin:round"></path><path d="M274.2,142.66a27.94,27.94,0,0,1-16.92,7H257c4.7-.24,9.09-2.76,12.89-7Z" style="fill:#FFC100;stroke:#263238;stroke-linecap:round;stroke-linejoin:round"></path><path d="M255.55,149.65h-.27a27.89,27.89,0,0,1-16.92-7h4.3C246.46,146.89,250.85,149.41,255.55,149.65Z" style="fill:#FFC100;stroke:#263238;stroke-linecap:round;stroke-linejoin:round"></path><path d="M240.71,78c-.58,3.85-1,8-1.25,12.26H229.8a86.48,86.48,0,0,1,2-12.26Z" style="fill:#FFC100;stroke:#263238;stroke-linecap:round;stroke-linejoin:round"></path><path d="M242.9,67.31A99.06,99.06,0,0,0,240.71,78h-8.93a68.35,68.35,0,0,1,3.44-10.69Z" style="fill:#FFC100;stroke:#263238;stroke-linecap:round;stroke-linejoin:round"></path><path d="M277.35,67.31h-7.68A64.26,64.26,0,0,0,267,59.4h6.18A50.15,50.15,0,0,1,277.35,67.31Z" style="fill:#FFC100;stroke:#263238;stroke-linecap:round;stroke-linejoin:round"></path><path d="M249.14,52.67a32.79,32.79,0,0,0-3.62,6.73h-6.18a32,32,0,0,1,5.71-6.73Z" style="fill:#FFC100;stroke:#263238;stroke-linecap:round;stroke-linejoin:round"></path><path d="M256.28,48c-2.55,0-5,1.66-7.14,4.64h-4.09a17.24,17.24,0,0,1,10.5-4.62h.73Z" style="fill:#FFC100;stroke:#263238;stroke-linecap:round;stroke-linejoin:round"></path><path d="M267.51,52.67h-4.1c-2.17-3-4.58-4.64-7.13-4.64H257A17.24,17.24,0,0,1,267.51,52.67Z" style="fill:#FFC100;stroke:#263238;stroke-linecap:round;stroke-linejoin:round"></path><path d="M282.76,90.26h-9.65c-.24-4.3-.67-8.41-1.26-12.26h8.94A86.5,86.5,0,0,1,282.76,90.26Z" style="fill:#263238;stroke:#263238;stroke-linecap:round;stroke-linejoin:round"></path><path d="M283.14,98.85c0,1.78,0,3.53-.13,5.26h-9.75c.06-1.73.09-3.48.09-5.26,0-2.93-.09-5.81-.24-8.59h9.65C283,93,283.14,95.92,283.14,98.85Z" style="fill:#FFC100;stroke:#263238;stroke-linecap:round;stroke-linejoin:round"></path><path d="M240.37,117.33h-9.12a90.86,90.86,0,0,1-1.69-13.22h9.74C239.47,108.73,239.83,113.16,240.37,117.33Z" style="fill:#fff;stroke:#263238;stroke-linecap:round;stroke-linejoin:round"></path><path d="M281.31,117.33a74,74,0,0,1-3,10.68h-8a101.32,101.32,0,0,0,1.92-10.68Z" style="fill:#FFC100;stroke:#263238;stroke-linecap:round;stroke-linejoin:round"></path><path d="M244.61,135.93h-6.69a55.72,55.72,0,0,1-3.64-7.92h8A73.81,73.81,0,0,0,244.61,135.93Z" style="fill:#fff;stroke:#263238;stroke-linecap:round;stroke-linejoin:round"></path><path d="M274.65,135.93a38.06,38.06,0,0,1-4.75,6.73h-5a42.11,42.11,0,0,0,3-6.73Z" style="fill:#FFC100;stroke:#263238;stroke-linecap:round;stroke-linejoin:round"></path><path d="M269.9,142.66c-3.8,4.23-8.19,6.75-12.89,7h-.73c3.15,0,6.11-2.56,8.65-7Z" style="fill:#FFC100;stroke:#263238;stroke-linecap:round;stroke-linejoin:round"></path><path d="M256.28,149.67h-.73c-4.7-.24-9.09-2.76-12.89-7h5C250.17,147.11,253.13,149.67,256.28,149.67Z" style="fill:#FFC100;stroke:#263238;stroke-linecap:round;stroke-linejoin:round"></path><path d="M250.52,78c-.22,3.85-.37,8-.47,12.26H239.46c.24-4.3.67-8.41,1.25-12.26Z" style="fill:#fff;stroke:#263238;stroke-linecap:round;stroke-linejoin:round"></path><path d="M251.32,67.31c-.32,3.26-.59,6.85-.8,10.69h-9.81a99.06,99.06,0,0,1,2.19-10.69Z" style="fill:#FFC100;stroke:#263238;stroke-linecap:round;stroke-linejoin:round"></path><path d="M269.67,67.31h-8.43c-.29-2.91-.61-5.57-1-7.91H267A64.26,64.26,0,0,1,269.67,67.31Z" style="fill:#FFC100;stroke:#263238;stroke-linecap:round;stroke-linejoin:round"></path><path d="M253.64,52.67a62.22,62.22,0,0,0-1.34,6.73h-6.78a32.79,32.79,0,0,1,3.62-6.73Z" style="fill:#fff;stroke:#263238;stroke-linecap:round;stroke-linejoin:round"></path><path d="M256.28,48c-.95,0-1.84,1.66-2.64,4.64h-4.5C251.31,49.69,253.73,48,256.28,48Z" style="fill:#FFC100;stroke:#263238;stroke-linecap:round;stroke-linejoin:round"></path><path d="M263.41,52.67h-4.48c-.81-3-1.71-4.64-2.65-4.64C258.83,48,261.24,49.69,263.41,52.67Z" style="fill:#FFC100;stroke:#263238;stroke-linecap:round;stroke-linejoin:round"></path><path d="M273.11,90.26H262.52c-.1-4.3-.25-8.41-.47-12.26h9.8C272.44,81.85,272.87,86,273.11,90.26Z" style="fill:#fff;stroke:#263238;stroke-linecap:round;stroke-linejoin:round"></path><path d="M273.35,98.85c0,1.78,0,3.53-.09,5.26H262.58c0-1.73,0-3.48,0-5.26,0-2.93,0-5.81-.09-8.59h10.59C273.26,93,273.35,95.92,273.35,98.85Z" style="fill:#FFC100;stroke:#263238;stroke-linecap:round;stroke-linejoin:round"></path><path d="M250.39,117.33h-10c-.54-4.17-.9-8.6-1.07-13.22H250C250.06,108.73,250.2,113.16,250.39,117.33Z" style="fill:#263238;stroke:#263238;stroke-linecap:round;stroke-linejoin:round"></path><path d="M272.18,117.33A101.32,101.32,0,0,1,270.26,128h-8.8c.29-3.29.53-6.87.72-10.68Z" style="fill:#FFC100;stroke:#263238;stroke-linecap:round;stroke-linejoin:round"></path><path d="M252,135.93h-7.35A73.81,73.81,0,0,1,242.3,128h8.81C251.35,130.88,251.65,133.54,252,135.93Z" style="fill:#FFC100;stroke:#263238;stroke-linecap:round;stroke-linejoin:round"></path><path d="M268,135.93a42.11,42.11,0,0,1-3,6.73h-5.44c.4-1.91.78-4.17,1.12-6.73Z" style="fill:#FFC100;stroke:#263238;stroke-linecap:round;stroke-linejoin:round"></path><path d="M264.93,142.66c-2.54,4.45-5.5,7-8.65,7,1.18,0,2.27-2.56,3.21-7Z" style="fill:#FFC100;stroke:#263238;stroke-linecap:round;stroke-linejoin:round"></path><path d="M256.28,149.67c-3.15,0-6.11-2.56-8.65-7h5.45C254,147.11,255.11,149.67,256.28,149.67Z" style="fill:#FFC100;stroke:#263238;stroke-linecap:round;stroke-linejoin:round"></path><path d="M258.93,52.67h-5.29c.8-3,1.69-4.64,2.64-4.64S258.12,49.69,258.93,52.67Z" style="fill:#FFC100;stroke:#263238;stroke-linecap:round;stroke-linejoin:round"></path><path d="M262.52,90.26H250.05c.1-4.3.25-8.41.47-12.26h11.53C262.27,81.85,262.42,86,262.52,90.26Z" style="fill:#fff;stroke:#263238;stroke-linecap:round;stroke-linejoin:round"></path><path d="M262.05,78H250.52c.21-3.84.48-7.43.8-10.69h9.92C261.56,70.57,261.84,74.16,262.05,78Z" style="fill:#FFC100;stroke:#263238;stroke-linecap:round;stroke-linejoin:round"></path><path d="M261.24,67.31h-9.92c.3-2.91.62-5.57,1-7.91h8C260.63,61.74,261,64.4,261.24,67.31Z" style="fill:#fff;stroke:#263238;stroke-linecap:round;stroke-linejoin:round"></path><path d="M260.27,59.4h-8a62.22,62.22,0,0,1,1.34-6.73h5.29A64.75,64.75,0,0,1,260.27,59.4Z" style="fill:#263238;stroke:#263238;stroke-linecap:round;stroke-linejoin:round"></path><path d="M262.61,98.85c0,1.78,0,3.53,0,5.26H250c0-1.73,0-3.48,0-5.26,0-2.93,0-5.81.09-8.59h12.47C262.58,93,262.61,95.92,262.61,98.85Z" style="fill:#fff;stroke:#263238;stroke-linecap:round;stroke-linejoin:round"></path><path d="M262.58,104.11c-.07,4.62-.21,9-.4,13.22H250.39c-.19-4.17-.33-8.6-.4-13.22Z" style="fill:#FFC100;stroke:#263238;stroke-linecap:round;stroke-linejoin:round"></path><path d="M262.18,117.33c-.19,3.81-.43,7.39-.72,10.68H251.11c-.29-3.29-.53-6.87-.72-10.68Z" style="fill:#263238;stroke:#263238;stroke-linecap:round;stroke-linejoin:round"></path><path d="M261.46,128c-.25,2.87-.54,5.53-.85,7.92H252c-.31-2.39-.61-5.05-.85-7.92Z" style="fill:#FFC100;stroke:#263238;stroke-linecap:round;stroke-linejoin:round"></path><path d="M260.61,135.93c-.34,2.56-.72,4.82-1.12,6.73h-6.41c-.4-1.91-.78-4.17-1.12-6.73Z" style="fill:#FFC100;stroke:#263238;stroke-linecap:round;stroke-linejoin:round"></path><path d="M259.49,142.66c-.94,4.45-2,7-3.21,7s-2.26-2.56-3.2-7Z" style="fill:#FFC100;stroke:#263238;stroke-linecap:round;stroke-linejoin:round"></path><path d="M283.63,59.4h-5.06a36.13,36.13,0,0,0-7.51-6.73h3.36A42.49,42.49,0,0,1,283.63,59.4Z" style="fill:#FFC100;stroke:#263238;stroke-linecap:round;stroke-linejoin:round"></path><path d="M278.57,59.4h-5.35a32,32,0,0,0-5.71-6.73h3.55A36.13,36.13,0,0,1,278.57,59.4Z" style="fill:#FFC100;stroke:#263238;stroke-linecap:round;stroke-linejoin:round"></path><path d="M273.22,59.4H267a32.32,32.32,0,0,0-3.63-6.73h4.1A32,32,0,0,1,273.22,59.4Z" style="fill:#fff;stroke:#263238;stroke-linecap:round;stroke-linejoin:round"></path><path d="M267,59.4h-6.77a64.75,64.75,0,0,0-1.34-6.73h4.48A32.32,32.32,0,0,1,267,59.4Z" style="fill:#FFC100;stroke:#263238;stroke-linecap:round;stroke-linejoin:round"></path><path d="M234,59.4a46,46,0,0,0-5.44,7.91h-6.31a48.28,48.28,0,0,1,6.68-7.91Z" style="fill:#fff;stroke:#263238;stroke-linecap:round;stroke-linejoin:round"></path><path d="M239.34,59.4a50.14,50.14,0,0,0-4.12,7.91h-6.66A46,46,0,0,1,234,59.4Z" style="fill:#FFC100;stroke:#263238;stroke-linecap:round;stroke-linejoin:round"></path><path d="M245.52,59.4a62.66,62.66,0,0,0-2.62,7.91h-7.68a50.14,50.14,0,0,1,4.12-7.91Z" style="fill:#263238;stroke:#263238;stroke-linecap:round;stroke-linejoin:round"></path><path d="M252.3,59.4c-.36,2.34-.68,5-1,7.91H242.9a62.66,62.66,0,0,1,2.62-7.91Z" style="fill:#FFC100;stroke:#263238;stroke-linecap:round;stroke-linejoin:round"></path><path d="M288.54,78h-7.75a69.42,69.42,0,0,0-3.44-10.69H284A58.51,58.51,0,0,1,288.54,78Z" style="fill:#FFC100;stroke:#263238;stroke-linecap:round;stroke-linejoin:round"></path><path d="M280.79,78h-8.94a96.77,96.77,0,0,0-2.18-10.69h7.68A69.42,69.42,0,0,1,280.79,78Z" style="fill:#FFC100;stroke:#263238;stroke-linecap:round;stroke-linejoin:round"></path><path d="M271.85,78h-9.8c-.21-3.84-.49-7.43-.81-10.69h8.43A96.77,96.77,0,0,1,271.85,78Z" style="fill:#263238;stroke:#263238;stroke-linecap:round;stroke-linejoin:round"></path><path d="M238.36,142.66h-4.07a44.71,44.71,0,0,1-7.67-6.73h5.49A39.94,39.94,0,0,0,238.36,142.66Z" style="fill:#263238;stroke:#263238;stroke-linecap:round;stroke-linejoin:round"></path><path d="M242.66,142.66h-4.3a39.94,39.94,0,0,1-6.25-6.73h5.81A38,38,0,0,0,242.66,142.66Z" style="fill:#FFC100;stroke:#263238;stroke-linecap:round;stroke-linejoin:round"></path><path d="M247.63,142.66h-5a38,38,0,0,1-4.74-6.73h6.69A44,44,0,0,0,247.63,142.66Z" style="fill:#263238;stroke:#263238;stroke-linecap:round;stroke-linejoin:round"></path><path d="M253.08,142.66h-5.45a44,44,0,0,1-3-6.73H252C252.3,138.49,252.68,140.75,253.08,142.66Z" style="fill:#fff;stroke:#263238;stroke-linecap:round;stroke-linejoin:round"></path><path d="M291.82,128a50.16,50.16,0,0,1-5.87,7.92h-5.49a50.59,50.59,0,0,0,4.78-7.92Z" style="fill:#FFC100;stroke:#263238;stroke-linecap:round;stroke-linejoin:round"></path><path d="M285.24,128a50.59,50.59,0,0,1-4.78,7.92h-5.81a55.72,55.72,0,0,0,3.64-7.92Z" style="fill:#FFC100;stroke:#263238;stroke-linecap:round;stroke-linejoin:round"></path><path d="M278.29,128a55.72,55.72,0,0,1-3.64,7.92H268a71.58,71.58,0,0,0,2.31-7.92Z" style="fill:#fff;stroke:#263238;stroke-linecap:round;stroke-linejoin:round"></path><path d="M270.26,128a71.58,71.58,0,0,1-2.31,7.92h-7.34c.31-2.39.6-5.05.85-7.92Z" style="fill:#FFC100;stroke:#263238;stroke-linecap:round;stroke-linejoin:round"></path><path d="M227.32,128h-6.57a53,53,0,0,1-4.9-10.68h7.49A59.83,59.83,0,0,0,227.32,128Z" style="fill:#263238;stroke:#263238;stroke-linecap:round;stroke-linejoin:round"></path><path d="M234.28,128h-7a59.83,59.83,0,0,1-4-10.68h7.91A74,74,0,0,0,234.28,128Z" style="fill:#263238;stroke:#263238;stroke-linecap:round;stroke-linejoin:round"></path><path d="M242.3,128h-8a74,74,0,0,1-3-10.68h9.12C240.88,121.14,241.52,124.72,242.3,128Z" style="fill:#FFC100;stroke:#263238;stroke-linecap:round;stroke-linejoin:round"></path><path d="M251.11,128H242.3c-.78-3.29-1.42-6.87-1.93-10.68h10C250.58,121.14,250.82,124.72,251.11,128Z" style="fill:#FFC100;stroke:#263238;stroke-linecap:round;stroke-linejoin:round"></path><path d="M299.44,104.11a56.94,56.94,0,0,1-2.73,13.22h-7.48a68,68,0,0,0,2.22-13.22Z" style="fill:#fff;stroke:#263238;stroke-linecap:round;stroke-linejoin:round"></path><path d="M291.45,104.11a68,68,0,0,1-2.22,13.22h-7.92a89.49,89.49,0,0,0,1.7-13.22Z" style="fill:#263238;stroke:#263238;stroke-linecap:round;stroke-linejoin:round"></path><path d="M283,104.11a89.49,89.49,0,0,1-1.7,13.22h-9.13c.56-4.17.92-8.6,1.08-13.22Z" style="fill:#FFC100;stroke:#263238;stroke-linecap:round;stroke-linejoin:round"></path><path d="M273.26,104.11c-.16,4.62-.52,9-1.08,13.22h-10c.19-4.17.33-8.6.4-13.22Z" style="fill:#fff;stroke:#263238;stroke-linecap:round;stroke-linejoin:round"></path><path d="M220.93,98.85c0,1.78.06,3.53.19,5.26h-8c-.16-1.73-.23-3.48-.23-5.26a59,59,0,0,1,.62-8.59h7.91A73,73,0,0,0,220.93,98.85Z" style="fill:#fff;stroke:#263238;stroke-linecap:round;stroke-linejoin:round"></path><path d="M229.42,98.85c0,1.78.05,3.53.14,5.26h-8.44c-.13-1.73-.19-3.48-.19-5.26a73,73,0,0,1,.5-8.59h8.37C229.55,93,229.42,95.92,229.42,98.85Z" style="fill:#FFC100;stroke:#263238;stroke-linecap:round;stroke-linejoin:round"></path><path d="M239.22,98.85c0,1.78,0,3.53.08,5.26h-9.74c-.09-1.73-.14-3.48-.14-5.26,0-2.93.13-5.81.38-8.59h9.66C239.3,93,239.22,95.92,239.22,98.85Z" style="fill:#263238;stroke:#263238;stroke-linecap:round;stroke-linejoin:round"></path><path d="M250,98.85c0,1.78,0,3.53,0,5.26H239.3c-.06-1.73-.08-3.48-.08-5.26,0-2.93.08-5.81.24-8.59h10.59C250,93,250,95.92,250,98.85Z" style="fill:#fff;stroke:#263238;stroke-linecap:round;stroke-linejoin:round"></path><circle cx="210.76" cy="123.16" r="17.42" style="fill:#fff"></circle><circle cx="267.52" cy="74.59" r="17.42" style="fill:#fff"></circle><circle cx="309.07" cy="124.34" r="8.86" transform="translate(117.3 396.75) rotate(-76.77)" style="fill:#fff"></circle><circle cx="315.22" cy="126.8" r="8.86" transform="translate(2.67 260.03) rotate(-45)" style="fill:#fff"></circle><circle cx="232.28" cy="54.51" r="8.86" transform="translate(141.37 275.09) rotate(-80.81)" style="fill:#fff"></circle></g></svg>