<svg xmlns="http://www.w3.org/2000/svg" viewBox="0 0 500 500"><g id="freepik--background-complete--inject-184"><circle cx="428.48" cy="410.72" r="17.28" transform="translate(-116 647.01) rotate(-67.25)" style="fill:#e0e0e0"></circle><circle cx="462.2" cy="410.44" r="17.28" transform="translate(-82.45 118.13) rotate(-13.38)" style="fill:#ebebeb"></circle><circle cx="394.76" cy="410.44" r="17.28" transform="translate(-174.6 399.35) rotate(-45)" style="fill:#ebebeb"></circle><path d="M371.79,414.16H484.68s-1.16,46.55-31.47,52.25l-.47,9.88H401.9V466.23S371.79,458.52,371.79,414.16Z" style="fill:#e0e0e0"></path><path d="M453.21,466.41c0,.16-11.52.29-25.74.29s-25.73-.13-25.73-.29,11.52-.3,25.73-.3S453.21,466.24,453.21,466.41Z" style="fill:#fff"></path><path d="M480.31,438.15s-.25,0-.72.08l-2.13.19a28.69,28.69,0,0,1-8.2-.4,16.37,16.37,0,0,1-5.52-2.21,12.61,12.61,0,0,1-4.68-5.27,9.33,9.33,0,0,1-.79-3.89,6.94,6.94,0,0,1,1.43-4,4.89,4.89,0,0,1,1.76-1.41,4.2,4.2,0,0,1,2.3-.3,5.49,5.49,0,0,1,3.78,2.78,7.27,7.27,0,0,1,.65,4.89,13.9,13.9,0,0,1-1.94,4.79,17,17,0,0,1-8.41,6.79,16.31,16.31,0,0,1-11.53-.12,16.92,16.92,0,0,1-5.24-3.2,11.68,11.68,0,0,1-3.56-5.21,5.76,5.76,0,0,1,0-3.29,4.35,4.35,0,0,1,2.07-2.62,5.38,5.38,0,0,1,6.27,1.42,11.92,11.92,0,0,1,2.64,6.22,19,19,0,0,1-.21,6.88,20.13,20.13,0,0,1-7.3,11.82,18.33,18.33,0,0,1-6.48,3.18,20.59,20.59,0,0,1-7.3.49,19.3,19.3,0,0,1-12.68-6.57,13.71,13.71,0,0,1-3.11-6.4,9.23,9.23,0,0,1,1.44-6.83,7,7,0,0,1,6-3.29,6.56,6.56,0,0,1,5.55,3.69,5,5,0,0,1,.23,3.4,6.48,6.48,0,0,1-1.79,2.85,12.88,12.88,0,0,1-5.72,3A23.55,23.55,0,0,1,394.65,440a12.81,12.81,0,0,1-3-4.68,9.2,9.2,0,0,1-.3-5.36,7.56,7.56,0,0,1,2.77-4.35,6.53,6.53,0,0,1,4.79-1.17,6.38,6.38,0,0,1,4.12,2.27,6.88,6.88,0,0,1,1.53,4.2,6.74,6.74,0,0,1-1.32,4,10,10,0,0,1-3,2.63,23.47,23.47,0,0,1-6.62,2.49,42.2,42.2,0,0,1-5.86,1,41,41,0,0,1-8.22,0,26.59,26.59,0,0,1-2.83-.44l.73.08c.47.07,1.18.15,2.12.24a43.74,43.74,0,0,0,8.17-.06,43.09,43.09,0,0,0,5.82-1,23.29,23.29,0,0,0,6.52-2.5,9.65,9.65,0,0,0,2.86-2.56,6.29,6.29,0,0,0,1.23-3.79,6.45,6.45,0,0,0-1.46-4,5.94,5.94,0,0,0-3.87-2.11,6.11,6.11,0,0,0-4.47,1.11,7.1,7.1,0,0,0-2.59,4.1,8.73,8.73,0,0,0,.3,5.1,12.61,12.61,0,0,0,2.95,4.5,23.13,23.13,0,0,0,22,5.43,12.51,12.51,0,0,0,5.48-2.88,6,6,0,0,0,1.63-2.61,4.31,4.31,0,0,0-.21-3,6,6,0,0,0-5.06-3.35,5.66,5.66,0,0,0-3.09.79,7.45,7.45,0,0,0-2.36,2.25,8.66,8.66,0,0,0-1.35,6.41,13.15,13.15,0,0,0,3,6.13,18.76,18.76,0,0,0,12.29,6.36,20.1,20.1,0,0,0,7.09-.48,17.64,17.64,0,0,0,6.27-3.07,19.6,19.6,0,0,0,7.1-11.48,18.5,18.5,0,0,0,.21-6.67,11.26,11.26,0,0,0-2.49-5.92,4.82,4.82,0,0,0-5.6-1.32,3.78,3.78,0,0,0-1.81,2.3,5.3,5.3,0,0,0,0,3,11.24,11.24,0,0,0,3.39,5,16.53,16.53,0,0,0,5.07,3.1,15.74,15.74,0,0,0,11.18.15,16.54,16.54,0,0,0,8.2-6.57,13.67,13.67,0,0,0,1.9-4.63,7,7,0,0,0-.59-4.61,5.12,5.12,0,0,0-3.48-2.59,3.78,3.78,0,0,0-2.08.27A4.47,4.47,0,0,0,460,422.9a6.54,6.54,0,0,0-1.37,3.76,8.88,8.88,0,0,0,.74,3.75,12.32,12.32,0,0,0,4.53,5.17,16.33,16.33,0,0,0,5.42,2.22,29.42,29.42,0,0,0,8.14.5l2.13-.13Z" style="fill:#fff"></path><rect x="361.65" y="120.48" width="99.38" height="103.59" style="fill:#e0e0e0"></rect><rect x="354.92" y="120.48" width="99.38" height="103.59" style="fill:#fafafa"></rect><path d="M454.33,224.11H354.89V120.45h99.44ZM355,224.05h99.32V120.51H355Z" style="fill:#e0e0e0"></path><rect x="368.28" y="134.41" width="72.66" height="75.74" style="fill:#fff"></rect><path d="M368.28,210.65a11.66,11.66,0,0,1-1.79,2.09c-1.16,1.22-2.79,2.88-4.62,4.68s-3.51,3.41-4.75,4.54a10.59,10.59,0,0,1-2.1,1.75,12.05,12.05,0,0,1,1.79-2.07c1.16-1.23,2.79-2.89,4.63-4.69s3.51-3.42,4.75-4.56A12.7,12.7,0,0,1,368.28,210.65Z" style="fill:#e0e0e0"></path><path d="M440.94,210.47a11.66,11.66,0,0,1,2.09,1.79c1.22,1.16,2.88,2.79,4.68,4.62s3.4,3.51,4.54,4.75a10.94,10.94,0,0,1,1.75,2.1,12.05,12.05,0,0,1-2.07-1.79c-1.23-1.16-2.89-2.79-4.7-4.63s-3.41-3.51-4.55-4.75A11.11,11.11,0,0,1,440.94,210.47Z" style="fill:#e0e0e0"></path><path d="M440.74,134.61a12.39,12.39,0,0,1,1.8-2.08c1.16-1.23,2.79-2.89,4.62-4.69s3.5-3.4,4.74-4.54a11.85,11.85,0,0,1,2.1-1.75,11.89,11.89,0,0,1-1.78,2.08c-1.16,1.22-2.8,2.88-4.63,4.69s-3.52,3.41-4.76,4.55A10.75,10.75,0,0,1,440.74,134.61Z" style="fill:#e0e0e0"></path><path d="M368.08,134.8A12.87,12.87,0,0,1,366,133c-1.22-1.16-2.88-2.79-4.68-4.61s-3.41-3.51-4.55-4.75a11.85,11.85,0,0,1-1.75-2.1,11.08,11.08,0,0,1,2.08,1.78c1.23,1.16,2.89,2.8,4.69,4.63s3.42,3.52,4.55,4.76A11.11,11.11,0,0,1,368.08,134.8Z" style="fill:#e0e0e0"></path><path d="M440.74,210.15s0-.13,0-.37,0-.6,0-1.05c0-.95,0-2.32,0-4.09,0-3.59,0-8.81-.07-15.44,0-13.27-.09-32.16-.15-54.79l.28.28-72.45,0h0l.32-.32c0,27.8,0,53.81,0,75.74l-.28-.28,52.47.15,14.74.07,3.9,0h1l.35,0a1.7,1.7,0,0,1-.32,0h-1l-3.85,0-14.67.08-52.65.14H368v-.28c0-21.93,0-47.94-.05-75.74v-.32h.33l72.45,0H441v.28c0,22.7-.1,41.66-.14,55,0,6.6-.05,11.8-.07,15.37,0,1.75,0,3.1,0,4,0,.44,0,.77,0,1A2,2,0,0,1,440.74,210.15Z" style="fill:#e0e0e0"></path><circle cx="405.41" cy="172.51" r="13.41" style="fill:#ebebeb"></circle><rect x="61.44" y="140.5" width="98.41" height="102.59" style="fill:#e0e0e0"></rect><rect x="54.78" y="140.5" width="98.41" height="102.59" style="fill:#fafafa"></rect><path d="M153.22,243.12H54.75V140.47h98.47Zm-98.41-.06h98.35V140.53H54.81Z" style="fill:#e0e0e0"></path><rect x="68.01" y="154.29" width="71.95" height="75.01" style="fill:#fff"></rect><path d="M68,229.8a12.58,12.58,0,0,1-1.78,2.06c-1.15,1.21-2.76,2.85-4.57,4.64s-3.48,3.37-4.7,4.5a12.16,12.16,0,0,1-2.08,1.73,11.62,11.62,0,0,1,1.76-2.06c1.15-1.21,2.77-2.85,4.59-4.64s3.48-3.38,4.71-4.51A10.5,10.5,0,0,1,68,229.8Z" style="fill:#e0e0e0"></path><path d="M140,229.61a12.36,12.36,0,0,1,2.07,1.78c1.21,1.15,2.85,2.76,4.63,4.57s3.38,3.48,4.5,4.7a11.05,11.05,0,0,1,1.73,2.08,12,12,0,0,1-2-1.76c-1.21-1.15-2.86-2.77-4.65-4.59s-3.38-3.48-4.5-4.71A10.85,10.85,0,0,1,140,229.61Z" style="fill:#e0e0e0"></path><path d="M139.76,154.49a12.11,12.11,0,0,1,1.78-2.06c1.15-1.22,2.76-2.86,4.57-4.64s3.48-3.37,4.71-4.5a11.36,11.36,0,0,1,2.07-1.73,10.88,10.88,0,0,1-1.76,2.05c-1.15,1.22-2.77,2.86-4.59,4.65s-3.48,3.38-4.7,4.51A10.7,10.7,0,0,1,139.76,154.49Z" style="fill:#e0e0e0"></path><path d="M67.81,154.68a12.11,12.11,0,0,1-2.06-1.78c-1.22-1.15-2.86-2.76-4.64-4.57s-3.37-3.48-4.5-4.71a10.85,10.85,0,0,1-1.73-2.07,10.88,10.88,0,0,1,2,1.76c1.22,1.15,2.86,2.77,4.65,4.59s3.38,3.48,4.51,4.71A11,11,0,0,1,67.81,154.68Z" style="fill:#e0e0e0"></path><path d="M139.76,229.3s0-.13,0-.37,0-.6,0-1c0-.94,0-2.3,0-4,0-3.56,0-8.73-.07-15.29,0-13.14-.08-31.85-.14-54.26l.27.28-71.75,0h0l.32-.32c0,27.53,0,53.29,0,75L68,229l51.95.14,14.6.07,3.86,0h1a2.3,2.3,0,0,1,.34,0h-.31l-1,0-3.81,0-14.53.07L68,229.57h-.28v-.27c0-21.72,0-47.48,0-75V154H68l71.75,0H140v.28c-.06,22.48-.1,41.26-.14,54.44,0,6.54-.05,11.68-.07,15.22,0,1.74,0,3.07,0,4,0,.43,0,.77,0,1A1.23,1.23,0,0,1,139.76,229.3Z" style="fill:#e0e0e0"></path><path d="M101.69,179.73h0a1.82,1.82,0,0,1-1.18,3h0a15.61,15.61,0,0,1-7.56-1l-.41-.16a2.55,2.55,0,0,1-1.44-3.3l.67-1.7a2.55,2.55,0,0,1,3.3-1.44l.41.16A15.8,15.8,0,0,1,101.69,179.73Z" style="fill:#e0e0e0"></path><path d="M107.8,179.73h0a1.82,1.82,0,0,0,1.18,3h0a15.61,15.61,0,0,0,7.56-1l.41-.16a2.55,2.55,0,0,0,1.44-3.3l-.67-1.7a2.55,2.55,0,0,0-3.3-1.44l-.41.16A15.8,15.8,0,0,0,107.8,179.73Z" style="fill:#e0e0e0"></path><rect x="102.89" y="178.62" width="3.7" height="3.7" rx="1.18" style="fill:#e0e0e0"></rect><path d="M98.53,183.94S92.89,182,87,188.32a.52.52,0,0,0,.29.88l3.62.62.92,2.79a.52.52,0,0,0,1,0A24.82,24.82,0,0,1,98.53,183.94Z" style="fill:#e0e0e0"></path><path d="M111,183.94s5.64-1.94,11.51,4.38a.52.52,0,0,1-.29.88l-3.62.62-.92,2.79a.52.52,0,0,1-1,0A24.82,24.82,0,0,0,111,183.94Z" style="fill:#e0e0e0"></path><path d="M117,204.83a15.67,15.67,0,0,1-2.89-5.71,15.36,15.36,0,0,1-.47-4v-2.57a9.11,9.11,0,0,0-8.52-9.19,9,9,0,0,0-9.38,8.94v2.81a14.87,14.87,0,0,1-3.37,9.72c-.21.27-.44.53-.67.79v2.43c0,1,5.82,1.78,13,1.78s13-.79,13-1.78v-2.43C117.41,205.36,117.18,205.1,117,204.83Z" style="fill:#ebebeb"></path><rect x="52.93" y="391.84" width="98.58" height="84.74" transform="translate(4.4 -1.01) rotate(0.58)" style="fill:#e0e0e0"></rect><polygon points="111.67 477.27 28.97 476.72 29.84 391.1 112.53 391.94 111.67 477.27" style="fill:#f5f5f5"></polygon><path d="M61.51,390.82c.1.09-7.1,9.16-16.08,20.27s-16.36,20-16.46,20,7.09-9.15,16.08-20.26S61.4,390.74,61.51,390.82Z" style="fill:#fafafa"></path><path d="M85.1,391.13c.11.08-12.37,16.69-27.87,37.08S29.08,465.08,29,465s12.37-16.68,27.87-37.09S85,391.05,85.1,391.13Z" style="fill:#fafafa"></path><path d="M109.41,391.31c.11.08-14.23,19.13-32,42.55S45.07,476.2,45,476.11,59.2,457,77,433.56,109.31,391.23,109.41,391.31Z" style="fill:#fafafa"></path><path d="M132.86,391.55c.1.08-14,19.11-31.38,42.49S69.81,476.33,69.7,476.25s13.94-19.11,31.38-42.5S132.75,391.47,132.86,391.55Z" style="fill:#fafafa"></path><path d="M151.31,400c.1.08-12.88,17.35-29,38.56S93,476.87,92.93,476.78s12.87-17.34,29-38.56S151.2,399.88,151.31,400Z" style="fill:#fafafa"></path><path d="M151,433.91c.1.08-7.56,9.83-17.12,21.77s-17.4,21.56-17.5,21.48,7.56-9.83,17.12-21.78S150.87,433.82,151,433.91Z" style="fill:#fafafa"></path><path d="M80.63,389.84a3,3,0,0,1-.55-.46L78.57,388c-1.3-1.24-3.18-3-5.32-5.42a42,42,0,0,1-6.47-9.23,25.5,25.5,0,0,1-2.2-6.32,6.55,6.55,0,0,1,.27-3.6A3.77,3.77,0,0,1,67.69,361a4.09,4.09,0,0,1,3.42,1.41,11.71,11.71,0,0,1,2,2.93c1.1,2,2.07,4.05,2.91,6A82.13,82.13,0,0,1,79.81,382a74.35,74.35,0,0,1,1.66,7.41c.16.89.25,1.58.31,2a3.75,3.75,0,0,1,.07.71,4,4,0,0,1-.17-.7c-.1-.51-.23-1.18-.39-2-.36-1.75-.92-4.28-1.81-7.35a85.78,85.78,0,0,0-3.84-10.54c-.84-1.94-1.82-3.93-2.91-5.95a11.88,11.88,0,0,0-2-2.82,3.6,3.6,0,0,0-3-1.26,3.27,3.27,0,0,0-2.46,2.08,5.94,5.94,0,0,0-.24,3.32,25.61,25.61,0,0,0,2.12,6.2,43,43,0,0,0,6.33,9.2c2.1,2.4,3.94,4.23,5.19,5.51l1.45,1.47A4.22,4.22,0,0,1,80.63,389.84Z" style="fill:#e0e0e0"></path><path d="M81,394.35a5.56,5.56,0,0,1-.13-.77c0-.51-.19-1.27-.24-2.25a44.08,44.08,0,0,1,.15-8.3,47.7,47.7,0,0,1,3-11.95,44.8,44.8,0,0,1,3.18-6.56c.62-1.1,1.35-2.17,2.09-3.25q.57-.79,1.17-1.59a6.65,6.65,0,0,1,1.46-1.44,2.77,2.77,0,0,1,2-.61,2.1,2.1,0,0,1,1.59,1.4,10.18,10.18,0,0,1,.15,3.91,39.34,39.34,0,0,1-1.28,7.19,38.09,38.09,0,0,1-2.28,6.19,39.09,39.09,0,0,1-8,11.45c-.69.7-1.28,1.18-1.67,1.52a6.35,6.35,0,0,1-.62.49,4.31,4.31,0,0,1,.55-.57c.37-.35.94-.86,1.6-1.58a39.75,39.75,0,0,0,5.11-6.47,38.2,38.2,0,0,0,2.71-5A38.76,38.76,0,0,0,93.69,370a39.38,39.38,0,0,0,1.24-7.1,10,10,0,0,0-.13-3.71,1.61,1.61,0,0,0-1.21-1.09,2.32,2.32,0,0,0-1.68.53,12.64,12.64,0,0,0-2.52,2.91c-.73,1.07-1.45,2.12-2.07,3.21a45.48,45.48,0,0,0-3.17,6.48,48.5,48.5,0,0,0-3.05,11.83,47,47,0,0,0-.3,8.25c0,1,.13,1.73.15,2.25A3.83,3.83,0,0,1,81,394.35Z" style="fill:#e0e0e0"></path><path d="M150.46,433.57c0,.13-26.94.35-60.16.48s-60.17.13-60.17,0,26.93-.35,60.17-.48S150.46,433.43,150.46,433.57Z" style="fill:#e0e0e0"></path><path d="M71.91,474.86c-.14,0-.25-18.78-.25-41.94s.11-41.94.25-41.94.24,18.77.24,41.94S72,474.86,71.91,474.86Z" style="fill:#e0e0e0"></path><path d="M413,64.12s-5.12,24-9.27,36.62c-8.07-9.71-17.9-20.83-24.46-31.62A275.49,275.49,0,0,0,413,64.12Z" style="fill:#ebebeb"></path><path d="M451.08,51.45s-3.24,28.31-7.39,40.94c-8.07-9.71-17.11-19.55-23.67-30.33C420,62.06,434.64,57.8,451.08,51.45Z" style="fill:#ebebeb"></path><path d="M481.08,25.71S490.24,52.76,491.54,66c-11.3-5.64-23.54-11-33.89-18.23C457.65,47.76,473.15,40.77,481.08,25.71Z" style="fill:#ebebeb"></path><path d="M254.26,32s-25,9.12-37.68,13.29A265.49,265.49,0,0,1,228.34,8.72S242.52,24,254.26,32Z" style="fill:#ebebeb"></path><path d="M289.12,52.46s-20,13.59-30.65,21.5a275.9,275.9,0,0,1-.39-39.21A246.62,246.62,0,0,0,289.12,52.46Z" style="fill:#ebebeb"></path><path d="M330.19,66.16s-18,17.59-26.93,27.43c-3.41-12.16-5.62-26.19-7.22-38.72C296,54.87,302.48,59.2,330.19,66.16Z" style="fill:#ebebeb"></path><path d="M371.4,69.43s-7.86,17.09-12,29.72c-8.08-9.71-15.81-21.63-22.37-32.42A178,178,0,0,0,371.4,69.43Z" style="fill:#ebebeb"></path><path d="M482.38,23.25s-.14.32-.44.91-.75,1.49-1.43,2.6a48.79,48.79,0,0,1-7,8.93c-6.82,7.05-18.84,15.3-35.38,20.51h0c-5.6,2.1-11.62,4.31-18.14,6.06l-2.44.7-2.51.61c-1.68.41-3.37.85-5.1,1.24-3.46.71-7,1.48-10.65,2a194.09,194.09,0,0,1-47,1.94A187.55,187.55,0,0,1,297.85,56a200.52,200.52,0,0,1-22.11-10.47,193.59,193.59,0,0,1-18.05-11.33,191.92,191.92,0,0,1-23.64-19.81c-1.28-1.3-2.46-2.41-3.41-3.44l-2.41-2.6c-.64-.7-1.14-1.23-1.48-1.61s-.49-.56-.49-.56.19.17.53.53.86.88,1.51,1.57,1.49,1.55,2.45,2.56,2.15,2.12,3.44,3.4A196.49,196.49,0,0,0,257.9,33.92,192.92,192.92,0,0,0,276,45.18,200.84,200.84,0,0,0,298,55.59a188.29,188.29,0,0,0,54.3,12.67,194.18,194.18,0,0,0,46.92-1.91c3.64-.54,7.17-1.3,10.63-2,1.72-.38,3.41-.82,5.09-1.22l2.5-.61,2.44-.69c6.51-1.74,12.51-3.92,18.11-6h0a97.4,97.4,0,0,0,21.28-9.45,71.27,71.27,0,0,0,14-10.82,50.17,50.17,0,0,0,7-8.83c.7-1.1,1.17-2,1.48-2.57Z" style="fill:#e0e0e0"></path><path d="M237.47,27l-4.93,6.15-1.17-.93L231.3,26l-3,3.73-1.41-1.13,4.93-6.15,1.18,1,.06,6.18,3-3.73Z" style="fill:#fff"></path><path d="M268.41,59l-.65,1.31-5.47-2.7,3.49-7.07,5.34,2.64-.65,1.31-3.71-1.83L266,54.18l3.28,1.62-.63,1.27-3.28-1.62-.81,1.64Z" style="fill:#fff"></path><path d="M316.61,71.51l-5,6.63-1.85-.64.08-5.61-3.42,4.48-1.84-.63.09-8.3,1.79.61-.1,5.82,3.54-4.65,1.6.55-.1,5.87,3.54-4.7Z" style="fill:#fff"></path><path d="M355.77,82.58v2.73H355V82.58l-3.16-5.15h.89l2.71,4.42,2.69-4.43h.84Z" style="fill:#fff"></path><path d="M403,83.54l.17.7-5.44,1.25-1.76-7.68,5.26-1.22.17.71-4.46,1,.63,2.73,4-.91.16.69-4,.92.65,2.85Z" style="fill:#fff"></path><path d="M441.7,72l-4.13,1.47-.18,2.3-.82.3.74-8.64.77-.28,6.05,6.21-.83.3Zm-.51-.54L438,68.11l-.35,4.63Z" style="fill:#fff"></path><path d="M483.71,51.49l-3-.64a6.16,6.16,0,0,1-.44.45l-1.56,1.43,1.69,1.84-.61.57-5.34-5.81,2.18-2c1.47-1.36,3.05-1.44,4.2-.19a2.46,2.46,0,0,1,.35,3l3.24.69Zm-3.54-3.78c-.85-.93-1.95-.9-3.11.17l-1.54,1.42,2.67,2.91,1.54-1.42C480.89,49.73,481,48.62,480.17,47.71Z" style="fill:#fff"></path><path d="M47.91,91.46s-13.71,21-20.86,31.29A250.51,250.51,0,0,1,15.24,88.57S34.53,92.05,47.91,91.46Z" style="fill:#ebebeb"></path><path d="M85.71,87.18s-7.36,21.51-10.93,33.5A261.16,261.16,0,0,1,52.33,91.37,231.33,231.33,0,0,0,85.71,87.18Z" style="fill:#ebebeb"></path><path d="M124.38,74.29s-3.62,23.41-4.79,35.87c-9.43-7.23-19-16.55-27.3-25.08C92.29,85.08,99.58,84.7,124.38,74.29Z" style="fill:#ebebeb"></path><path d="M157.25,53.47S161,70.78,165,82.63c-11.56-2.75-24.12-7.36-35.16-11.77A167.46,167.46,0,0,0,157.25,53.47Z" style="fill:#ebebeb"></path><path d="M186.27,24.78s7.51,16.78,13.67,27.67a253.75,253.75,0,0,1-36.21-4.61A153.77,153.77,0,0,0,186.27,24.78Z" style="fill:#ebebeb"></path><path d="M5.85,85.71l.55.17L8,86.44a39.38,39.38,0,0,0,6.3,1.7,189.55,189.55,0,0,0,23.88,2.58c5.07.27,10.64.21,16.6,0s12.31-.9,18.94-1.9a198.31,198.31,0,0,0,20.58-4.37,179.41,179.41,0,0,0,21.35-7.34,172.71,172.71,0,0,0,20.27-10,192.88,192.88,0,0,0,17.62-11.5A186.26,186.26,0,0,0,180,31.79c3.41-3.76,6.35-7.29,8.84-10.46l3.42-4.46c1-1.41,1.91-2.7,2.73-3.86l1.16-1.64c.34-.53.67-1,1-1.48.59-.91,1.1-1.68,1.52-2.31s.72-1.08.94-1.41.34-.48.34-.48-.1.18-.3.5-.51.83-.9,1.45L197.22,10l-.95,1.49-1.15,1.65L192.43,17,189,21.51c-2.47,3.19-5.4,6.74-8.8,10.52a183,183,0,0,1-26.41,24,190.08,190.08,0,0,1-17.64,11.56,172.21,172.21,0,0,1-20.33,10,176.35,176.35,0,0,1-21.42,7.35,193.84,193.84,0,0,1-20.63,4.35c-6.66,1-13,1.55-19,1.86s-11.55.24-16.63,0a182.24,182.24,0,0,1-23.91-2.75A37.45,37.45,0,0,1,8,86.53l-1.59-.6Z" style="fill:#e0e0e0"></path><path d="M34.36,97.67l-1.24,10-2.31-.29.51-4.08-4.52-.57-.51,4.09L24,106.49l1.25-10,2.3.29L27,100.74l4.53.57.49-3.93Z" style="fill:#fff"></path><path d="M73.48,102.16l-4.63.53-.64,2.24-2.37.27,3.31-10.49,2.28-.26,5.6,9.47-2.42.28Zm-.93-1.67-2-3.64-1.14,4Z" style="fill:#fff"></path><path d="M116,87.47c.84,2.07-.19,4-2.67,5l-1.87.76,1,2.57-2.15.88-3.79-9.3,4-1.64C113.08,84.73,115.16,85.38,116,87.47Zm-2.18.88c-.42-1-1.32-1.35-2.64-.81l-1.75.71,1.31,3.23,1.76-.71C113.82,90.23,114.24,89.36,113.83,88.35Z" style="fill:#fff"></path><path d="M154.9,65.38c1.38,1.77.91,3.9-1.2,5.55l-1.59,1.24,1.7,2.18L152,75.78l-6.18-7.91,3.42-2.67C151.34,63.55,153.51,63.61,154.9,65.38Zm-1.85,1.45c-.68-.87-1.65-.94-2.76-.06l-1.5,1.16,2.15,2.75,1.49-1.16C153.55,68.64,153.72,67.69,153.05,66.83Z" style="fill:#fff"></path><path d="M185.55,41.64l2.59,2.44-1.58,1.69-2.62-2.45-7.37-1.57,1.69-1.8L183.35,41l-1.43-5,1.56-1.66Z" style="fill:#fff"></path></g><g id="freepik--Characters--inject-184"><path d="M184.62,240.78s-47,18.31-56,28.42,12.46,128.27,12.46,128.27l-23.72,79.86h153l-1.94-63.86,9.88-89.78-2.62-67.4-18.4-8.63Z" style="fill:#455a64"></path><path d="M251.51,98.5c-.46,3.38-11.17,23.76-11.17,23.76l7.82,6s11.37-20.57,15.13-27.8c2.65-5.08,9.54-11,9.54-11,3.71-3.69,12.52-6.53,15.82-9.68,3.61-3.45,5.73-5.64,6.09-11s-.32-10.46-2.39-13.06-4.42-3.3-6.58-1.7.16,5.23.34,9-.47,7.79-3.41,9.95-3.62-4.46-3.62-4.46-.15-6.69.05-8.92,0-4.37-3.46-5.35-4.73,3-4.73,3-.76-1.64-5.08-1.52-4.44,2.7-4.81,5.69,2.45,11.77,2.79,15.51.09,3.43-2.42,3.85-3.29-7-4-10.82-1.55-7.14-3.84-7.05c-1.37.05-2.27,0-3,.7a5.53,5.53,0,0,0-1.31,5.5c1.32,4.47,4.35,15.19,4.49,19.54C253.92,95.1,251.51,98.5,251.51,98.5Z" style="fill:#455a64"></path><circle cx="272.8" cy="79.13" r="5.82" style="fill:#FF725E"></circle><g style="opacity:0.30000000000000004"><path d="M278.44,80.54l.16-.74a.67.67,0,0,0-.1-.63,1.67,1.67,0,0,0-.56-.39A9.31,9.31,0,0,0,273,78a18,18,0,0,0-5,1.33,3.17,3.17,0,0,0-.79.42c-.23.19-.06.24-.1.55a2.55,2.55,0,0,0,.21.87,10.61,10.61,0,0,1,1.13-.28c.79-.14,3.88-1.21,5.44-1.26A17.88,17.88,0,0,1,278.44,80.54Z"></path></g><g style="opacity:0.4"><path d="M273.31,80.78A1.28,1.28,0,0,0,272,82.26a1.26,1.26,0,0,0,1.24,1.38c0,.06-.17,1.31-.17,1.31l.59-.06.13-1.27a1.44,1.44,0,0,0,1-1.57C274.73,80.72,273.31,80.78,273.31,80.78Z"></path></g><path d="M272.8,74.2c-.06,0,.08-.38.16-1a4,4,0,0,0,0-1,1.42,1.42,0,0,0-.13-.52.61.61,0,0,0-.15-.17.31.31,0,0,0-.18-.07.22.22,0,0,0-.15.06.57.57,0,0,0-.12.18,1.56,1.56,0,0,0,0,.54,8.39,8.39,0,0,0,.1,1c.09.57.26.89.21.93s-.33-.25-.52-.85a5.77,5.77,0,0,1-.19-1.06,1.81,1.81,0,0,1,0-.69.8.8,0,0,1,.23-.38.66.66,0,0,1,.46-.18.82.82,0,0,1,.7.49,1.61,1.61,0,0,1,.15.68,3.08,3.08,0,0,1-.11,1.09C273.1,73.92,272.85,74.22,272.8,74.2Z" style="fill:#FF725E"></path><path d="M279,79.1a1.72,1.72,0,0,0-.62-.41,10.73,10.73,0,0,0-5.31-.9,19.8,19.8,0,0,0-5.3,1.21,3,3,0,0,0-.84.4,1.15,1.15,0,0,0-.47.76.65.65,0,0,0,.54.73,3.56,3.56,0,0,0,1.3-.3,20.76,20.76,0,0,1,5.91-1.46,19.1,19.1,0,0,1,4.45,1c.34.06.47-.06.54-.3A.78.78,0,0,0,279,79.1Z" style="fill:#FF725E"></path><g style="opacity:0.30000000000000004"><path d="M272.33,74.48c0,.12-.34.22-.82.41a5.46,5.46,0,0,0-2.94,2.52c-.26.45-.41.77-.54.75s-.18-.39,0-1a4,4,0,0,1,3.38-2.91C272,74.23,272.33,74.36,272.33,74.48Z" style="fill:#fff"></path></g><g style="opacity:0.30000000000000004"><path d="M270.54,83.46c-.06.11-.23.15-.45.11a1.86,1.86,0,0,1-.76-.36,1.89,1.89,0,0,1-.55-.65c-.1-.2-.1-.37,0-.45s.64,0,1.09.4S270.65,83.25,270.54,83.46Z" style="fill:#fff"></path></g><g style="opacity:0.35000000000000003"><path d="M277.55,77.93c-.12,0-.4-.76-1-1.57s-1.21-1.36-1.13-1.47.24,0,.53.23a4.14,4.14,0,0,1,1.55,2.23C277.61,77.69,277.61,77.91,277.55,77.93Z"></path></g><path d="M279.18,79.69a.93.93,0,0,1,0,.13.35.35,0,0,1-.28.26c-.35.09-.81-.15-1.4-.28s-1.28-.34-2-.52a6.71,6.71,0,0,0-2.57,0,15.11,15.11,0,0,0-2.5.68c-.76.26-1.44.5-2,.67a4.23,4.23,0,0,1-1.4.29.63.63,0,0,1-.34-.19.3.3,0,0,1-.07-.12.63.63,0,0,0,.08.11.57.57,0,0,0,.33.17,4.1,4.1,0,0,0,1.39-.31c.57-.17,1.25-.42,2-.69a15.51,15.51,0,0,1,2.51-.68,6.65,6.65,0,0,1,2.6,0c.78.18,1.47.38,2.06.53a4.31,4.31,0,0,0,1.38.31.39.39,0,0,0,.27-.24C279.16,79.74,279.17,79.69,279.18,79.69Z" style="fill:#263238"></path><path d="M278.34,78.69l-.11,0-.3-.16-.5-.21c-.2-.07-.43-.16-.69-.23a12,12,0,0,0-4.13-.4,10.89,10.89,0,0,0-1.18.14,10.44,10.44,0,0,0-1.07.27c-.68.21-1.28.43-1.78.63l-1.17.47-.32.13-.12,0,.11,0,.32-.14c.27-.13.67-.3,1.17-.5s1.09-.43,1.77-.64a10,10,0,0,1,1.08-.28,9.06,9.06,0,0,1,1.18-.14,11.89,11.89,0,0,1,4.16.42c.26.07.48.17.68.24s.37.16.5.23l.3.17C278.31,78.66,278.35,78.69,278.34,78.69Z" style="fill:#263238"></path><path d="M274.46,73.56s-.24-.06-.62-.13a5.4,5.4,0,0,0-1.5-.06,7.36,7.36,0,0,0-1.48.3l-.44.14-.16,0,.15-.07c.1-.05.25-.1.43-.17a7.11,7.11,0,0,1,1.49-.33,4.73,4.73,0,0,1,1.52.09,3.06,3.06,0,0,1,.45.12Z" style="fill:#263238"></path><path d="M174.54,167.67l6.7,88.21c1.14,15,5.88,36.8,29.51,33.92h0c20.32-4.05,24-23.95,23-38-.51-6.64-.92-12.18-.93-12.86,0,0,22.3-3.82,22.23-26.17,0-10.8-1.91-33-3.84-53.14a41.64,41.64,0,0,0-42.09-37.62l-2.16,0C183.7,123.81,172.18,144.49,174.54,167.67Z" style="fill:#ffd4bd"></path><path d="M232.81,238.66s-14.1,1.37-29.25-7.83c0,0,7.13,16,29.4,13.62Z" style="fill:#fdb094"></path><path d="M248,170.86c-.37.47-3.54-.2-7.52.94s-6.55,3.35-7.07,3.13c-.25-.09.07-.83,1.18-1.84a14.22,14.22,0,0,1,5.56-2.93,13,13,0,0,1,6.09-.32C247.62,170.15,248.19,170.64,248,170.86Z" style="fill:#263238"></path><path d="M213.62,175.1c-.54.24-3.07-1.72-7.12-2.47s-7.33.08-7.69-.34c-.19-.19.42-.7,1.86-1.1a14.34,14.34,0,0,1,6.25-.14,13.06,13.06,0,0,1,5.58,2.38C213.6,174.31,213.88,175,213.62,175.1Z" style="fill:#263238"></path><path d="M208.66,177.72a2.47,2.47,0,0,1-2.34,2.53,2.36,2.36,0,0,1-2.57-2.19,2.46,2.46,0,0,1,2.33-2.52A2.35,2.35,0,0,1,208.66,177.72Z" style="fill:#263238"></path><path d="M241.78,177.19a2.46,2.46,0,0,1-2.34,2.52,2.36,2.36,0,0,1-2.58-2.18A2.47,2.47,0,0,1,239.2,175,2.36,2.36,0,0,1,241.78,177.19Z" style="fill:#263238"></path><path d="M225.65,197.15c0-.19,2.11-.6,5.56-1.09.87-.1,1.7-.29,1.84-.89a4.44,4.44,0,0,0-.63-2.59q-1.28-3.17-2.69-6.64c-3.75-9.45-6.47-17.23-6.09-17.37s3.73,7.39,7.47,16.84c.91,2.33,1.77,4.55,2.59,6.68a5.09,5.09,0,0,1,.51,3.43,2.21,2.21,0,0,1-1.42,1.31,6.38,6.38,0,0,1-1.49.23C227.82,197.3,225.66,197.35,225.65,197.15Z" style="fill:#263238"></path><path d="M211.23,158.29c-.28.86-3.31.5-6.86,1s-6.4,1.54-6.89.78c-.21-.36.27-1.17,1.42-2a11.71,11.71,0,0,1,10.48-1.36C210.69,157.23,211.35,157.88,211.23,158.29Z" style="fill:#263238"></path><path d="M247.14,162.05c-.33.71-3.3.22-6.82.42s-6.4.91-6.84.25c-.19-.33.34-1,1.51-1.62a12.31,12.31,0,0,1,5.13-1.32,12.65,12.65,0,0,1,5.28.82C246.66,161.12,247.28,161.72,247.14,162.05Z" style="fill:#263238"></path><path d="M176.61,184.18c-.38-.16-15.42-4.3-14.7,11s15.91,11.39,15.91,10.95S176.61,184.18,176.61,184.18Z" style="fill:#ffd4bd"></path><path d="M172.88,200.54c-.07,0-.25.2-.69.42a2.68,2.68,0,0,1-2,.14c-1.64-.52-3.12-3-3.32-5.76a8.75,8.75,0,0,1,.56-3.85,3.06,3.06,0,0,1,1.9-2.13A1.36,1.36,0,0,1,171,190c.22.42.14.73.22.75s.32-.27.17-.9a1.7,1.7,0,0,0-.65-.92,2,2,0,0,0-1.49-.32,3.75,3.75,0,0,0-2.67,2.5,9.23,9.23,0,0,0-.72,4.3c.25,3.07,2,5.87,4.2,6.41a2.86,2.86,0,0,0,2.41-.52C172.87,200.91,172.94,200.56,172.88,200.54Z" style="fill:#fdb094"></path><path d="M223,208c.13-.4-2.93-1-5.27-3.64a17.14,17.14,0,0,1-2.46-3.78c-.54-1.07-.94-1.73-1.1-1.67s0,.81.31,2a11.32,11.32,0,0,0,2.35,4.28,9.19,9.19,0,0,0,4.15,2.63C222.17,208.18,223,208.14,223,208Z" style="fill:#263238"></path><path d="M278.86,137.16a3.6,3.6,0,0,0-1.87-1.95c-1.83-.87-3.82-.56-5.75-.42a32.12,32.12,0,0,1-17.13-3.59,75.35,75.35,0,0,0-8.6-8.72c-7.33-6.34-13.28-10.57-19.21-12.37-7.67-2.32-20.15-2.43-27.69.27S184.69,120,184.32,128c-4.65-3.28-11.15-2.67-16.23-.09l-.14,0c-5.68,2.61-8.47,9.11-9.67,15.25s-1.38,12.61-4.07,18.25c-.57,1.18-1.24,2.6-.55,3.71a2.46,2.46,0,0,0,2.69.9,7.13,7.13,0,0,0,2.62-1.48q-.76,2.44-1.55,4.88a13.94,13.94,0,0,0,6.35-1,137.87,137.87,0,0,0,5.57,15.42c2.46-.23,4.72-.25,6.35,1,2.22,1.66,3.45,5.06,6.75,3.44,1.68-.83,2.94-4.62,3.37-6.44a87,87,0,0,0,.51-37,28.1,28.1,0,0,1,8-7l-.24.26c6-2.7,12.83-5.44,19-3.05,4.76,1.86,7.86,6.35,11.61,9.83a35,35,0,0,0,25.84,9.27c.88,6.21,1.13,15.09,2,21.31L256.92,165V165a24,24,0,0,0,.94-2.32l.09-.23v0c.44-1.23.86-2.47,1.44-3.71l.07.05c3.65,2.69,8.23-2.32,5.24-5.72a9,9,0,0,0-2.06-1.73,6.2,6.2,0,0,0,6,1,4.86,4.86,0,0,0,3-5.09,4.15,4.15,0,0,0-2.75-3.09,13.93,13.93,0,0,0,7.76-2.44C278.16,140.68,279.57,139.08,278.86,137.16Z" style="fill:#263238"></path><path d="M191.53,129.9a19.06,19.06,0,0,0-2.05,2.23,16.06,16.06,0,0,0-2.75,7.67,28.15,28.15,0,0,0-.07,5.69c.17,2,.53,4.22.89,6.51a59.88,59.88,0,0,1,.81,7.26,25.4,25.4,0,0,1-.16,3.88A8,8,0,0,1,187,167a3.33,3.33,0,0,1-3,1.33,4.94,4.94,0,0,1-3-1.34c-1.58-1.54-2.12-3.62-2.64-5.45h.47a18.45,18.45,0,0,1-2.29,4.89,6.61,6.61,0,0,1-4.11,2.73,4.24,4.24,0,0,1-2.32-.19,3.72,3.72,0,0,1-1.69-1.4,3.84,3.84,0,0,1-.65-1.92,2.83,2.83,0,0,1,.56-1.79l.26.19a14.36,14.36,0,0,1-4.45,4,14.58,14.58,0,0,1-1.43.7,2.84,2.84,0,0,1-.52.18,2.55,2.55,0,0,1,.49-.26c.31-.16.79-.41,1.37-.77a14.84,14.84,0,0,0,4.28-4l.25.19a2.87,2.87,0,0,0,.15,3.31,3.3,3.3,0,0,0,1.52,1.23,3.85,3.85,0,0,0,2.11.16,6.24,6.24,0,0,0,3.81-2.59,18.37,18.37,0,0,0,2.19-4.78l.26-.74.21.76c.52,1.83,1.08,3.82,2.52,5.21a4.56,4.56,0,0,0,2.65,1.2,2.84,2.84,0,0,0,2.58-1.13,7.57,7.57,0,0,0,1.14-3.61,27.11,27.11,0,0,0,.16-3.81,60.14,60.14,0,0,0-.77-7.2c-.35-2.29-.7-4.48-.85-6.55a28,28,0,0,1,.13-5.77,15.71,15.71,0,0,1,3-7.74A9.09,9.09,0,0,1,191.53,129.9Z" style="fill:#455a64"></path><path d="M262.08,145.41s-.05.07-.16.17l-.52.46a7.8,7.8,0,0,1-.89.68,10.75,10.75,0,0,1-1.29.83,19.72,19.72,0,0,1-9.34,2.55,25.21,25.21,0,0,1-13.83-3.76,43.83,43.83,0,0,1-12.68-12.24c-1.85-2.55-3.41-5.18-5.09-7.6a29.44,29.44,0,0,0-5.55-6.32,15.15,15.15,0,0,0-6.74-3.31,10.83,10.83,0,0,0-3.4-.09,12.17,12.17,0,0,0-3,.86,13.13,13.13,0,0,0-4.38,3.2,12.66,12.66,0,0,0-2.21,3.47,16.35,16.35,0,0,0-.86,3.43,1.44,1.44,0,0,1,0-.24c0-.18,0-.41.05-.69a10.74,10.74,0,0,1,.62-2.58,12.54,12.54,0,0,1,2.18-3.58,13.07,13.07,0,0,1,4.45-3.34,12.26,12.26,0,0,1,3.13-.93,11.4,11.4,0,0,1,3.54.06,15.56,15.56,0,0,1,7,3.37,29.77,29.77,0,0,1,5.67,6.4c1.7,2.43,3.26,5.06,5.09,7.58a43.8,43.8,0,0,0,12.51,12.14,25.1,25.1,0,0,0,13.57,3.8,19.89,19.89,0,0,0,9.25-2.36A28.15,28.15,0,0,0,262.08,145.41Z" style="fill:#455a64"></path><path d="M263.24,135.49a3.55,3.55,0,0,1-.75.62,17.74,17.74,0,0,1-2.25,1.41,23,23,0,0,1-3.62,1.55,23.94,23.94,0,0,1-9.55,1.15,23.35,23.35,0,0,1-3.89-.64,19.46,19.46,0,0,1-2.52-.83,4.07,4.07,0,0,1-.87-.43c0-.09,1.32.43,3.48.9a27.61,27.61,0,0,0,3.84.53,29.47,29.47,0,0,0,4.73-.14,28.3,28.3,0,0,0,4.63-1,25.74,25.74,0,0,0,3.6-1.42C262.06,136.22,263.18,135.41,263.24,135.49Z" style="fill:#455a64"></path><path d="M169.42,102.33c1.17,3.76,11.86,24.13,11.18,23.76l-7.83,6s-11.37-20.57-15.13-27.8c-2.65-5.08-9.53-11-9.53-11-3.72-3.69-12.53-6.53-15.83-9.68-3.61-3.45-5.73-5.64-6.08-11s.32-10.46,2.39-13.06,4.41-3.3,6.57-1.7-.16,5.23-.34,9,.48,7.79,3.41,9.95,3.63-4.46,3.63-4.46.14-6.69-.05-8.92-.05-4.37,3.45-5.35,4.74,3,4.74,3,.75-1.64,5.07-1.52,4.44,2.7,4.81,5.69S157.44,77,157.09,80.75s-.09,3.43,2.43,3.84,3.28-7,4-10.81,1.56-7.14,3.85-7c1.36,0,2.26,0,3,.7a5.53,5.53,0,0,1,1.31,5.5c-1.31,4.47-4.34,15.19-4.49,19.53C167,98.93,169.42,102.33,169.42,102.33Z" style="fill:#455a64"></path><circle cx="148.15" cy="84.49" r="5.82" style="fill:#FF725E"></circle><g style="opacity:0.30000000000000004"><path d="M153.79,85.91l.16-.75a.64.64,0,0,0-.1-.63,1.68,1.68,0,0,0-.56-.38,9.22,9.22,0,0,0-4.93-.76,18.31,18.31,0,0,0-5,1.33,3.17,3.17,0,0,0-.79.42c-.23.19-.06.24-.1.55a2.56,2.56,0,0,0,.21.88s.61-.19,1.14-.29A38.9,38.9,0,0,1,149.28,85,18.21,18.21,0,0,1,153.79,85.91Z"></path></g><g style="opacity:0.4"><path d="M148.66,86.14a1.28,1.28,0,0,0-1.32,1.48c.06,1.5,1.26,1.33,1.24,1.38s-.17,1.31-.17,1.31l.59-.06.13-1.27a1.44,1.44,0,0,0,1-1.57C150.08,86.08,148.66,86.14,148.66,86.14Z"></path></g><path d="M148.15,79.56c-.06,0,.08-.37.16-.94a4.13,4.13,0,0,0,0-1,1.37,1.37,0,0,0-.13-.51.4.4,0,0,0-.14-.17.3.3,0,0,0-.19-.07.18.18,0,0,0-.15.06.37.37,0,0,0-.11.18,1.51,1.51,0,0,0,0,.53,8.8,8.8,0,0,0,.1,1c.09.56.27.89.21.92s-.33-.25-.51-.85a5,5,0,0,1-.2-1.06,1.81,1.81,0,0,1,0-.69.77.77,0,0,1,.23-.37.63.63,0,0,1,.46-.18.81.81,0,0,1,.7.48,1.81,1.81,0,0,1,.16.68,3.59,3.59,0,0,1-.11,1.09C148.45,79.28,148.2,79.59,148.15,79.56Z" style="fill:#FF725E"></path><path d="M154.31,84.46a2.11,2.11,0,0,0-.61-.41,10.9,10.9,0,0,0-5.32-.9,19.8,19.8,0,0,0-5.3,1.21,3,3,0,0,0-.83.4,1.14,1.14,0,0,0-.48.77.64.64,0,0,0,.54.72,3.52,3.52,0,0,0,1.3-.3,20.56,20.56,0,0,1,5.91-1.45,18.75,18.75,0,0,1,4.45.94c.35.06.48-.06.54-.3A.72.72,0,0,0,154.31,84.46Z" style="fill:#FF725E"></path><g style="opacity:0.30000000000000004"><path d="M147.68,79.84c0,.13-.34.22-.82.42a5.58,5.58,0,0,0-1.7,1,5.78,5.78,0,0,0-1.24,1.53c-.26.45-.41.77-.54.74s-.18-.39,0-1a3.92,3.92,0,0,1,1.24-2,4,4,0,0,1,2.14-.93C147.32,79.6,147.68,79.73,147.68,79.84Z" style="fill:#fff"></path></g><g style="opacity:0.30000000000000004"><path d="M145.89,88.83c-.06.1-.22.14-.45.1a1.86,1.86,0,0,1-.76-.36,2,2,0,0,1-.55-.64c-.1-.21-.1-.38,0-.46s.64,0,1.1.4S146,88.61,145.89,88.83Z" style="fill:#fff"></path></g><g style="opacity:0.35000000000000003"><path d="M152.9,83.29c-.12,0-.4-.75-1-1.57s-1.2-1.36-1.13-1.47.24,0,.53.23a4,4,0,0,1,1,1,3.81,3.81,0,0,1,.59,1.24C153,83.05,153,83.27,152.9,83.29Z"></path></g><path d="M154.53,85.05l0,.14a.42.42,0,0,1-.29.26c-.35.09-.81-.16-1.39-.29l-2.06-.52a6.91,6.91,0,0,0-2.57,0,16.16,16.16,0,0,0-2.5.68c-.76.26-1.44.51-2,.68a4.17,4.17,0,0,1-1.4.28.58.58,0,0,1-.34-.19.32.32,0,0,1-.07-.11,1.24,1.24,0,0,0,.08.1.57.57,0,0,0,.34.17,4.3,4.3,0,0,0,1.38-.3c.58-.18,1.25-.43,2-.69a14.41,14.41,0,0,1,2.52-.69,6.6,6.6,0,0,1,2.59,0c.78.19,1.47.38,2.06.53s1,.39,1.38.31a.39.39,0,0,0,.27-.24C154.51,85.1,154.52,85.05,154.53,85.05Z" style="fill:#263238"></path><path d="M153.7,84.05l-.11,0-.31-.15-.5-.22c-.2-.07-.43-.16-.69-.23A12.51,12.51,0,0,0,148,83a10.89,10.89,0,0,0-1.18.14,10.42,10.42,0,0,0-1.07.28,18.58,18.58,0,0,0-1.77.62l-1.18.47-.32.13-.11,0,.1-.05.32-.14c.27-.12.67-.3,1.17-.5s1.09-.43,1.77-.64a10.62,10.62,0,0,1,1.08-.28,11.08,11.08,0,0,1,1.19-.14,11.83,11.83,0,0,1,4.15.42c.26.07.48.17.68.24s.37.16.5.23l.3.17Z" style="fill:#263238"></path><path d="M149.81,78.93s-.24-.07-.62-.14a5.4,5.4,0,0,0-1.5-.06,7.29,7.29,0,0,0-1.48.31l-.44.14c-.1,0-.16,0-.16,0l.15-.07.43-.16a6.14,6.14,0,0,1,1.49-.33,5.08,5.08,0,0,1,1.52.08c.19,0,.35.09.45.12A.65.65,0,0,1,149.81,78.93Z" style="fill:#263238"></path><path d="M175.69,184.76s-16.11-46.43,8.63-56.79l.87-4.52s-13.85,3.07-17.57,16.6,3.07,43.5,3.07,43.5Z" style="fill:#FF725E"></path><polygon points="165.25 248.82 174.18 245.03 179.45 232.36 214.62 276.21 232.91 242.38 232.78 238.99 234.69 238.53 242.44 247.41 236.86 282.39 211.25 306.12 190.26 297.7 172.9 280.67 165.25 248.82" style="fill:#455a64"></polygon><path d="M215.05,280.86a7,7,0,0,1-.42-.8c-.28-.54-.68-1.32-1.27-2.29a32.23,32.23,0,0,0-6.05-7.37l.31-.09a59.53,59.53,0,0,1-8.53,18l-.24.35-.19-.38c-1.19-2.34-2.42-4.76-3.67-7.24-5.2-10.13-10.15-19.17-13.8-25.68l-4.35-7.69-1.17-2.09a3.88,3.88,0,0,1-.38-.75,6.65,6.65,0,0,1,.47.7l1.26,2c1.08,1.79,2.63,4.38,4.49,7.61,3.73,6.46,8.74,15.48,13.94,25.62,1.26,2.48,2.48,4.91,3.66,7.25l-.43,0a60.81,60.81,0,0,0,8.57-17.84l.09-.3.22.21a31.06,31.06,0,0,1,6,7.55c.55,1,.93,1.79,1.17,2.34.11.25.19.46.26.63S215.06,280.86,215.05,280.86Z" style="fill:#263238"></path><path d="M240.18,246.61a2.36,2.36,0,0,1,0,.62c0,.4,0,1-.06,1.76-.08,1.53-.24,3.74-.6,6.45a88.84,88.84,0,0,1-5.38,20.66c-.34.9-.72,1.76-1.08,2.62a4.06,4.06,0,0,1-1.83,2.22,1.77,1.77,0,0,1-1.51-.05,3.81,3.81,0,0,1-1.08-.89L227,278.09l-6-6.71.32-.05c-1.23,2.9-2.24,5.28-3,7-.35.78-.63,1.41-.84,1.9a4,4,0,0,1-.33.65,3.46,3.46,0,0,1,.22-.7l.74-1.93c.69-1.74,1.65-4.14,2.81-7.07l.12-.29.21.23,6.07,6.65,1.72,1.89a3.43,3.43,0,0,0,.94.78,1.31,1.31,0,0,0,1.08,0,3.67,3.67,0,0,0,1.56-2c.35-.85.73-1.71,1.06-2.6a94.15,94.15,0,0,0,5.5-20.52c.41-2.7.63-4.89.77-6.41.06-.72.12-1.3.16-1.76A2.3,2.3,0,0,1,240.18,246.61Z" style="fill:#263238"></path><path d="M219.51,477.27s0-.17,0-.51,0-.84,0-1.47c0-1.31.06-3.21.11-5.64.12-4.93.3-12,.51-20.78.49-17.56,1.15-41.78,1.89-68.54.39-13.38.76-26.13,1.1-37.73.2-5.8.34-11.3.18-16.46s-.46-9.94-.88-14.3c-.87-8.73-2.11-15.72-3.07-20.53-.49-2.4-.89-4.27-1.18-5.52-.13-.62-.24-1.09-.31-1.44s-.09-.49-.09-.49.05.16.14.48.21.81.36,1.42c.33,1.25.76,3.11,1.28,5.51a195.91,195.91,0,0,1,3.23,20.53c.45,4.37.8,9.17,1,14.33s.06,10.69-.13,16.49c-.33,11.6-.69,24.34-1.06,37.73-.8,26.75-1.52,51-2,68.53-.29,8.75-.52,15.84-.68,20.77-.09,2.44-.16,4.33-.21,5.65,0,.63-.05,1.11-.07,1.47A3.89,3.89,0,0,1,219.51,477.27Z" style="fill:#263238"></path><path d="M128.61,269.62s-22,7.72-23.62,58.69-14.59,74.74-5.52,96.78,48.54,35.32,75.75,33.16l10.65-41.37S155.2,400,152.61,396.14c0,0,7.34-46.66,7.77-60.48S148.4,268.73,128.61,269.62Z" style="fill:#455a64"></path><path d="M137.12,384.2s.29,0,.79.13A17.41,17.41,0,0,1,140,385a24.62,24.62,0,0,1,11.19,8.69,18.2,18.2,0,0,1,1.16,1.83c.24.46.36.71.32.73s-.66-.92-1.77-2.34a29.51,29.51,0,0,0-5-5,29.17,29.17,0,0,0-6-3.6C138.18,384.61,137.1,384.28,137.12,384.2Z" style="fill:#263238"></path><path d="M131.45,266.33a1.36,1.36,0,0,1,.35.07l1,.25a16,16,0,0,1,1.65.51,20,20,0,0,1,2.19.88,31.15,31.15,0,0,1,11.57,9.42,40.36,40.36,0,0,1,5.25,9,53.47,53.47,0,0,1,3.33,11.44c1.51,8.28,1.47,17.56,1.26,27.21a449.48,449.48,0,0,1-3.81,49.34c-.84,6.28-1.64,11.34-2.24,14.83-.31,1.72-.55,3.07-.72,4-.09.43-.15.78-.21,1a1.5,1.5,0,0,1-.08.35,1.64,1.64,0,0,1,0-.36q.06-.39.15-1.05l.63-4c.53-3.5,1.29-8.57,2.08-14.85a481.44,481.44,0,0,0,3.65-49.3c.21-9.65.26-18.89-1.21-27.12a54.05,54.05,0,0,0-3.25-11.36,40.87,40.87,0,0,0-5.15-8.89,31.57,31.57,0,0,0-11.36-9.47,20.46,20.46,0,0,0-2.16-.91,15.24,15.24,0,0,0-1.63-.56l-1-.3A1.38,1.38,0,0,1,131.45,266.33Z" style="fill:#263238"></path><path d="M128,395.84s.33-.24,1-.63a13.22,13.22,0,0,1,3.18-1.23c2.9-.78,7.39-.7,12.71.65a87.56,87.56,0,0,1,39,21l.1.09,0,.13c-2.27,11.26-4.77,23.64-7.38,36.6-.38,1.86-.75,3.7-1.1,5.42l0,.14-.13.05a20.2,20.2,0,0,1-4.87.87c-1.62.12-3.23.16-4.83.15a38.27,38.27,0,0,1-9.36-1c-6-1.35-11.82-2.41-17.27-3.88a65.33,65.33,0,0,1-26.34-13.62,56.17,56.17,0,0,1-7.86-8.28A48.29,48.29,0,0,1,100.2,425a42.67,42.67,0,0,1-2.09-5l-.42-1.34a4.33,4.33,0,0,1-.13-.47s.07.15.18.45.27.76.47,1.32a45.57,45.57,0,0,0,2.17,4.95,51.85,51.85,0,0,0,12.5,15.36,65.3,65.3,0,0,0,26.23,13.45c5.43,1.45,11.26,2.49,17.26,3.84a37.35,37.35,0,0,0,9.26,1c1.58,0,3.18,0,4.78-.15a19.07,19.07,0,0,0,4.72-.84l-.16.2c.35-1.72.72-3.57,1.1-5.42,2.62-13,5.13-25.33,7.42-36.59l.07.22a87.9,87.9,0,0,0-38.76-21.07c-5.29-1.39-9.72-1.51-12.6-.79a14.63,14.63,0,0,0-3.18,1.15c-.34.18-.59.34-.76.43A1.13,1.13,0,0,1,128,395.84Z" style="fill:#263238"></path><path d="M231,342.92s2.93,33.09,4.27,48.33a13.8,13.8,0,0,1-5.3,12.14l-6.82,5.28,1.53,48.71,16.79,8.76-37.8,1,16.21-10.31L218.43,409l-7.16-4.76a13.82,13.82,0,0,1-6.09-12.79l4.55-48.65Z" style="fill:#f5f5f5"></path><path d="M231,342.92s-.49,0-1.42,0H209.73l.12-.11c-.74,8.06-1.68,18.4-2.79,30.56-.28,3-.58,6.19-.88,9.45-.15,1.63-.3,3.29-.45,5l-.24,2.54a22.11,22.11,0,0,0-.15,2.56,13.64,13.64,0,0,0,4,9.48,29.87,29.87,0,0,0,4.45,3.27l4.75,3.16.1.07V409c.46,14.62,1,30.78,1.49,47.8V457l-.12.08-16.21,10.31-.14-.48,7.88-.21,29.91-.79-.11.48-16.78-8.76-.13-.07v-.14c-.54-17.72-1-34.13-1.49-48.71v-.11l.08-.07,6.24-4.82A14,14,0,0,0,234,398a13.6,13.6,0,0,0,1.14-6.86c-.2-2.29-.39-4.52-.58-6.67-.73-8.62-1.37-16.1-1.9-22.25s-.92-11-1.2-14.27c-.14-1.63-.24-2.89-.31-3.75s-.09-1.31-.09-1.31.05.42.13,1.26.2,2.09.35,3.71c.31,3.28.75,8.09,1.32,14.22s1.25,13.68,2,22.32c.2,2.17.4,4.4.61,6.71a14,14,0,0,1-1.16,7.05,14.46,14.46,0,0,1-4.78,5.81l-6.23,4.84.08-.18c.47,14.59,1,31,1.57,48.71l-.13-.21,16.79,8.75.87.46-1,0-29.91.8-7.88.21-.94,0,.79-.5,16.22-10.3-.12.22c-.52-17-1-33.19-1.44-47.81l.1.19-4.75-3.17a29.39,29.39,0,0,1-4.51-3.34,14.07,14.07,0,0,1-4.13-9.78,24.71,24.71,0,0,1,.16-2.61l.24-2.54c.16-1.68.32-3.34.47-5l.9-9.45c1.16-12.15,2.15-22.48,2.92-30.55v-.11h.12l15.8.14,4.1.05C230.55,342.9,231,342.92,231,342.92Z" style="fill:#263238"></path><path d="M230.94,370.27c.32.59,2.41,21.64.84,25.24s-6.6,11-11.87,10.76c-2.81-.13-6.45-2.93-9.22-5.5a10.77,10.77,0,0,1-3.34-9.54l1-11.46s12.34-2,13.93-4.82,6-9.34,7.4-9.21S230.94,370.27,230.94,370.27Z" style="fill:#FF725E"></path><path d="M225.71,357.66a1.69,1.69,0,1,0,.08,0" style="fill:#FF725E"></path><path d="M209.73,342.82a27.88,27.88,0,0,1,3,1.51,16.31,16.31,0,0,0,7.57,2.06,20.58,20.58,0,0,0,7.64-2,25.86,25.86,0,0,1,3.06-1.36,11.33,11.33,0,0,1-2.85,1.8,18.41,18.41,0,0,1-7.85,2.22,15.18,15.18,0,0,1-7.8-2.32A11.58,11.58,0,0,1,209.73,342.82Z" style="fill:#263238"></path><path d="M183.07,419l9-2.68s3-4.58,4.92-5.43,19.62.92,19.62.92l22,11.46s1.68,4.42-2.74,5a5.85,5.85,0,0,1,4,5.89s-1.26,2.95-2.32,3.37c0,0,1.9,3.79-1.47,6.1s-8.84,3.16-8.84,3.16-1.89,5.89-4,6.1-20,3-20,3-13.66-1.9-15.56-4.21l-6.54-4.84-3.85,1.06Z" style="fill:#ffd4bd"></path><path d="M237,428.6a6.61,6.61,0,0,1-1.37-.32l-3.7-1c-3.12-.84-7.45-1.92-12.29-2.89s-9.26-1.64-12.46-2.07l-3.8-.49a6.57,6.57,0,0,1-1.39-.23,8.38,8.38,0,0,1,1.41,0c.9.05,2.21.16,3.82.33,3.23.33,7.67.95,12.52,1.92s9.19,2.11,12.29,3.05c1.56.46,2.8.86,3.66,1.17A7.89,7.89,0,0,1,237,428.6Z" style="fill:#eb996e"></path><path d="M237,438a8.77,8.77,0,0,1-1.61.15c-1,.07-2.54.13-4.4.16a144.44,144.44,0,0,1-14.51-.51,142.68,142.68,0,0,1-14.39-1.95c-1.83-.34-3.3-.65-4.31-.9a8.22,8.22,0,0,1-1.56-.42,10.5,10.5,0,0,1,1.6.23l4.33.73c3.66.6,8.74,1.31,14.37,1.79s10.76.64,14.47.66h4.39A9.37,9.37,0,0,1,237,438Z" style="fill:#eb996e"></path><path d="M228.59,446.73a5.25,5.25,0,0,1-1.18.36c-.77.21-1.9.45-3.3.7a61.11,61.11,0,0,1-11.1.88,61.85,61.85,0,0,1-11.07-1.17c-1.39-.29-2.52-.56-3.28-.79a4.58,4.58,0,0,1-1.17-.39,6.37,6.37,0,0,1,1.22.2c.77.16,1.9.38,3.3.61a73.53,73.53,0,0,0,11,1,72.18,72.18,0,0,0,11-.73c1.4-.2,2.54-.38,3.32-.53A6.77,6.77,0,0,1,228.59,446.73Z" style="fill:#eb996e"></path><path d="M189.53,431.66a5.28,5.28,0,0,1-.66-2.09,11.29,11.29,0,0,1,3.28-9.77,5.26,5.26,0,0,1,1.79-1.27c.05.08-.63.55-1.53,1.53a12.45,12.45,0,0,0-3.18,9.46C189.36,430.84,189.62,431.63,189.53,431.66Z" style="fill:#eb996e"></path><path d="M188.67,442.26s-.3-.25-.51-.82a4.69,4.69,0,0,1-.17-2.34,4.55,4.55,0,0,1,1-2.13c.39-.46.73-.65.77-.6a9.53,9.53,0,0,0-1.24,2.82A9.76,9.76,0,0,0,188.67,442.26Z" style="fill:#eb996e"></path><path d="M187.69,450.34c-.11.08-.68-.78-.55-2s.86-1.93,1-1.83-.33.85-.43,1.89S187.83,450.28,187.69,450.34Z" style="fill:#eb996e"></path><path d="M213.34,413.47a15.37,15.37,0,0,0-1.12,2.67,13.62,13.62,0,0,0-.11,2.88,3.51,3.51,0,0,1-.4-3A3.56,3.56,0,0,1,213.34,413.47Z" style="fill:#eb996e"></path><path d="M220.21,334.79c-.13.06-3.48-7.12-7.48-16.05s-7.14-16.2-7-16.26,3.48,7.13,7.48,16S220.34,334.73,220.21,334.79Z" style="fill:#fff"></path><path d="M212,335.14a14.93,14.93,0,0,1-2-1.84c-1.21-1.17-2.89-2.78-4.81-4.48s-3.7-3.18-5-4.25a17,17,0,0,1-2.07-1.78,13.22,13.22,0,0,1,2.3,1.49c1.36,1,3.2,2.44,5.13,4.15s3.58,3.37,4.72,4.61A12.77,12.77,0,0,1,212,335.14Z" style="fill:#fff"></path><path d="M227.13,331.06a82.9,82.9,0,0,1-1.35-9.35,88.38,88.38,0,0,1-.82-9.41,87.87,87.87,0,0,1,1.34,9.35A87.2,87.2,0,0,1,227.13,331.06Z" style="fill:#fff"></path><path d="M349.45,293.06s26.64,15.38,30,40.61c2,15.09-12,103.07-12,103.07l13.42,40.59H270.4s-6.52-85.38,0-111.59c2.09-8.43,67.27-66.79,67.27-66.79Z" style="fill:#263238"></path><path d="M325.17,345c-2.27,19.17-5.26,74.28-5.26,74.28l-32.4-27-19.05,24.27s24.45,39.18,47,48.56c17.42,7.24,24.93,4.77,33.71-.91s18.48-22,18.3-30.65,13.42-86.43,12-99.84" style="fill:#263238"></path><path d="M379.48,333.67s0,.34,0,1,.13,1.65.06,2.95-.08,2.9-.23,4.78-.29,4.07-.57,6.52c-1,9.79-2.85,23.9-5.37,41.31-1.25,8.7-2.67,18.23-4.08,28.47q-.54,3.84-1,7.81c-.18,1.33-.29,2.67-.44,4s-.15,2.67-.23,4.09a26.9,26.9,0,0,1-2.09,8.15,56.9,56.9,0,0,1-3.9,7.71,58.17,58.17,0,0,1-5.14,7.21,35.8,35.8,0,0,1-6.58,6.24,37.6,37.6,0,0,1-8.15,4.39,23.16,23.16,0,0,1-9.32,1.44A38.89,38.89,0,0,1,323,468a71,71,0,0,1-9.14-3.41c-5.95-2.84-11.22-7-16.15-11.58a163.54,163.54,0,0,1-16.09-17.69c-4.85-6.15-9.34-12.39-13.39-18.72l-.09-.15.11-.14,19.06-24.25.15-.2.19.16,32.38,27-.34.15c1.29-22.76,2.54-41.34,3.55-54.22.51-6.44,1-11.46,1.31-14.86.17-1.7.34-3,.44-3.87s.17-1.32.17-1.32,0,.45-.11,1.32-.23,2.18-.38,3.88c-.31,3.41-.72,8.43-1.2,14.87-.94,12.88-2.13,31.46-3.37,54.22l0,.4-.32-.26-32.42-26.95.34,0-19,24.28v-.29c4,6.29,8.52,12.53,13.37,18.66a161.64,161.64,0,0,0,16,17.63c4.9,4.53,10.14,8.69,16,11.49a68.9,68.9,0,0,0,9.07,3.39,38.09,38.09,0,0,0,9.33,1.69,22.7,22.7,0,0,0,9.12-1.4,37.12,37.12,0,0,0,8.05-4.33,35,35,0,0,0,6.48-6.15,56.48,56.48,0,0,0,5.11-7.14,55.35,55.35,0,0,0,3.87-7.64,26.35,26.35,0,0,0,2.08-8c.07-1.33.1-2.75.23-4.1s.27-2.69.44-4c.34-2.65.68-5.26,1-7.82,1.43-10.24,2.87-19.77,4.14-28.47,2.57-17.39,4.5-31.49,5.54-41.27.29-2.44.43-4.62.61-6.51s.2-3.48.29-4.78,0-2.27,0-2.94S379.48,333.67,379.48,333.67Z" style="fill:#455a64"></path><path d="M371.85,401s5.3.92,6,5.86-.37,10.79-6,7.68c0,0,8.78,15.73,7.5,19.39s-2.56,4.76-2.56,4.76,2.19,6-2.75,9.15c0,0,2.93,3.11-2.19,7.86,0,0,1.46,5.49-1.65,7s-11.16-.19-9.88-5.31c0,0-8.05-3.29-7.68-7.13a4.6,4.6,0,0,1,3.47-4.4s-3.11-3.11-2-6.22,5.86-2.92,5.86-2.92-4.94-6.41,1.46-7.87,7.87-.18,7.87-.18Z" style="fill:#ffd4bd"></path><path d="M330.41,438.85c-.09,0-.31-1.25-.88-3.25a35.08,35.08,0,0,0-7.82-14c-1.4-1.53-2.36-2.39-2.3-2.45a3.18,3.18,0,0,1,.74.52,20.6,20.6,0,0,1,1.83,1.68,30.69,30.69,0,0,1,7.9,14.14,21.5,21.5,0,0,1,.47,2.43A3.47,3.47,0,0,1,330.41,438.85Z" style="fill:#455a64"></path><path d="M343.16,432.83c-.08.06-1-1.24-2.81-3.13a41.84,41.84,0,0,0-16.83-10.88c-2.46-.85-4-1.19-4-1.28a5.77,5.77,0,0,1,1.12.16,28.43,28.43,0,0,1,3,.77,37.65,37.65,0,0,1,17,11,28.83,28.83,0,0,1,1.93,2.42A4.84,4.84,0,0,1,343.16,432.83Z" style="fill:#455a64"></path><path d="M372.38,321.89s-.62-.4-1.73-1.11a30.26,30.26,0,0,0-5-2.51,28.67,28.67,0,0,0-8-1.87,27.08,27.08,0,0,0-19,5.42,28.63,28.63,0,0,0-5.83,5.83,29.19,29.19,0,0,0-2.92,4.76c-.57,1.19-.85,1.87-.89,1.86a2.1,2.1,0,0,1,.15-.52c.13-.32.27-.82.56-1.43a25.63,25.63,0,0,1,2.8-4.89,27.43,27.43,0,0,1,25.2-11.51,28.45,28.45,0,0,1,8.12,2,26.15,26.15,0,0,1,5,2.68c.56.37.94.71,1.22.92A1.93,1.93,0,0,1,372.38,321.89Z" style="fill:#455a64"></path><path d="M253.46,315.13s7.41,32.38,10.83,47.28a13.83,13.83,0,0,1-3.6,12.76l-6,6.16,8.17,48,17.82,6.39-37.3,6.15L258,429.49l-8-47.16-7.74-3.75a13.86,13.86,0,0,1-7.79-11.84l-2.13-48.81Z" style="fill:#f5f5f5"></path><path d="M253.46,315.13l-1.41.21-4.07.57-15.6,2.15.1-.13c.38,8.09.85,18.46,1.41,30.66q.21,4.57.43,9.48c.07,1.63.14,3.29.22,5,0,.85.08,1.7.11,2.55a24.09,24.09,0,0,0,.2,2.56,13.66,13.66,0,0,0,5.28,8.84,28.84,28.84,0,0,0,4.85,2.63l5.14,2.49.11.05,0,.12c2.45,14.42,5.15,30.36,8,47.15l0,.15-.12.09-14.64,12.43-.22-.46,7.78-1.28,29.53-4.87-.05.5-17.82-6.39-.13-.05,0-.14c-3-17.48-5.7-33.67-8.13-48.06l0-.1.08-.08,5.52-5.63a14.06,14.06,0,0,0,3.86-6.24,13.65,13.65,0,0,0,.2-6.94q-.76-3.37-1.48-6.53l-4.93-21.79c-1.35-6-2.41-10.74-3.14-14-.35-1.61-.63-2.84-.81-3.68s-.27-1.28-.27-1.28l.3,1.22c.2.83.48,2,.86,3.63.75,3.21,1.84,7.91,3.24,13.91s3.11,13.38,5.07,21.83c.49,2.12,1,4.31,1.52,6.56a14.08,14.08,0,0,1-.18,7.14,14.48,14.48,0,0,1-3.95,6.41l-5.51,5.65.06-.19c2.45,14.39,5.22,30.57,8.2,48l-.16-.19,17.83,6.38.93.33-1,.16-29.52,4.87-7.78,1.29-.93.15.72-.61,14.65-12.42-.09.24c-2.83-16.8-5.52-32.74-8-47.17l.13.18-5.14-2.5a28.94,28.94,0,0,1-4.92-2.68,14.12,14.12,0,0,1-5.43-9.14,23.07,23.07,0,0,1-.19-2.6c0-.86-.08-1.71-.11-2.55-.07-1.69-.15-3.35-.22-5-.13-3.27-.27-6.44-.4-9.49-.51-12.19-.94-22.57-1.28-30.66v-.12h.11l15.68-2,4.06-.51Z" style="fill:#263238"></path><path d="M257.12,342.23c.4.53,5.34,21.1,4.28,24.89s-5,11.8-10.29,12.28c-2.81.25-6.79-2-9.88-4.19a10.78,10.78,0,0,1-4.62-9l-.53-11.5S248,351,249.22,348s4.7-10.07,6.07-10.13S257.12,342.23,257.12,342.23Z" style="fill:#FF725E"></path><path d="M250.22,330.45a1.75,1.75,0,1,0,.08,0" style="fill:#FF725E"></path><path d="M232.36,317.93a26.43,26.43,0,0,1,3.16,1.09,16.3,16.3,0,0,0,7.78,1,20.35,20.35,0,0,0,7.3-3,29.14,29.14,0,0,1,2.84-1.76,11.27,11.27,0,0,1-2.57,2.17,18.5,18.5,0,0,1-7.47,3.27,15.26,15.26,0,0,1-8.05-1.23A11.78,11.78,0,0,1,232.36,317.93Z" style="fill:#263238"></path><path d="M251.36,357.6,271,360.83s11.37,10.65,12.33,12.77,0,6.55,0,6.55,4.63.2,3.67,8.1a7.09,7.09,0,0,1-1.16,7.51s.39,5.91-1.54,9.22l-3.66,8.37s-4.63,3.84-10,3-9.25-10.12-9.25-10.12-3.09-3.19-3.09-5.51a8.31,8.31,0,0,1,.58-3.46s-3.08-4.44-1.35-8.87l-5,2.7a12.06,12.06,0,0,1-1.73,2.79,2.58,2.58,0,0,1-4.51-2l2.47-7.67,10.49-7.64,12.95-1-4.44-6.24S248.86,366.66,251.36,357.6Z" style="fill:#ffbe9d"></path><path d="M278.34,384.86a3.59,3.59,0,0,1-.94,0c-.6,0-1.47-.13-2.54-.26a78,78,0,0,0-8.34-.81,18.64,18.64,0,0,0-4.54.4,5.27,5.27,0,0,0-2.9,2.06c-1.23,1.73-1.7,3-1.8,3a3.1,3.1,0,0,1,.3-.9,11.79,11.79,0,0,1,1.21-2.27,5.43,5.43,0,0,1,3.07-2.31,17.89,17.89,0,0,1,4.67-.46,59.49,59.49,0,0,1,8.38,1A30.27,30.27,0,0,1,278.34,384.86Z" style="fill:#eb996e"></path><path d="M280.61,395.92a21.94,21.94,0,0,1-3.4-.1c-2.09-.12-5-.33-8.17-.6-1.59-.11-3.12-.31-4.48-.33a7.63,7.63,0,0,0-3.47.79,5.21,5.21,0,0,0-1.94,1.4c-.34.45-.42.77-.47.76A1.56,1.56,0,0,1,259,397a4.81,4.81,0,0,1,1.94-1.61,10.12,10.12,0,0,1,1.62-.66,7.23,7.23,0,0,1,2-.28c1.42,0,2.92.18,4.52.29,3.19.27,6.08.53,8.16.75A21.47,21.47,0,0,1,280.61,395.92Z" style="fill:#eb996e"></path><path d="M281,407a3.26,3.26,0,0,1-1,.15,18.85,18.85,0,0,1-2.65,0,22.38,22.38,0,0,1-8.43-2.24,23,23,0,0,1-3.07-1.81l.39-.19a3.93,3.93,0,0,1-1.72,3.16,3,3,0,0,1-2.85,0,5.29,5.29,0,0,1-1.45-1.16c-.29-.32-.41-.52-.39-.53s.19.13.51.41a6.14,6.14,0,0,0,1.47,1,2.66,2.66,0,0,0,2.49-.09,3.55,3.55,0,0,0,1.45-2.82l0-.44.37.25a25.1,25.1,0,0,0,3,1.75,24.7,24.7,0,0,0,8.23,2.35C279.58,407,281,406.89,281,407Z" style="fill:#eb996e"></path><path d="M317.79,319.22a1067.65,1067.65,0,0,1-2.13-130.71l-19.53,4.18L277,216.48c-5,10.16,1.39,30.42-2.09,41.19-1.8,5.55-6,10-8.2,15.44a23.33,23.33,0,0,0,.27,18c1.68,3.82,4.45,7.35,4.62,11.51.26,6.26-5.41,11.4-5.9,17.65-.55,6.84,5.15,12.6,6.44,19.34.81,4.22-.15,8.58,0,12.87s2,9.11,6.11,10.46,8.47-1.42,12-4.08l15.35-11.63c4.1-3.11,8.36-6.4,10.58-11.05C318.67,331,318.23,325,317.79,319.22Z" style="fill:#FF725E"></path><path d="M317.82,331.18c-14.29-4.16-18.36-11.57-17.88-24.3l.62-16.2s-16-1.65-18.47-25.69c-1.25-12-1.87-31.2,0-47,1.67-14.24,17.82-38.69,32-36.42l38.14,21.05a8.39,8.39,0,0,1,7.05,8.9h0l-7.8,92.27" style="fill:#ffbe9d"></path><path d="M290.38,235a3.05,3.05,0,0,0,2.78,3.24,2.93,2.93,0,0,0,3.3-2.59,3.07,3.07,0,0,0-2.78-3.24A2.93,2.93,0,0,0,290.38,235Z" style="fill:#263238"></path><path d="M285.73,229.09c.24.53,3-.71,6.18.16s5,3.27,5.48,2.93c.22-.14.06-1-.72-2.12a7.77,7.77,0,0,0-4.23-2.88,7.58,7.58,0,0,0-5.07.41C286.15,228.16,285.6,228.85,285.73,229.09Z" style="fill:#263238"></path><path d="M322,236.25a3.06,3.06,0,0,0,2.78,3.24,2.92,2.92,0,0,0,3.3-2.58,3.07,3.07,0,0,0-2.78-3.25A2.93,2.93,0,0,0,322,236.25Z" style="fill:#263238"></path><path d="M318.14,234.15c.5.35,2.52-2.13,6-2.94s6.46.41,6.74-.13c.13-.24-.45-.94-1.77-1.52a8.81,8.81,0,0,0-5.52-.45A8.53,8.53,0,0,0,319,232C318.08,233.12,317.9,234,318.14,234.15Z" style="fill:#263238"></path><path d="M304.79,254.4c0-.19-2-.65-5.29-1.25-.83-.14-1.62-.34-1.73-.93a4.21,4.21,0,0,1,.69-2.45l2.83-6.27c3.94-8.92,6.84-16.27,6.48-16.42S303.92,234,300,242.94c-1,2.21-1.86,4.3-2.72,6.31a4.81,4.81,0,0,0-.61,3.27,2.09,2.09,0,0,0,1.31,1.3,5.54,5.54,0,0,0,1.42.28C302.7,254.46,304.77,254.58,304.79,254.4Z" style="fill:#263238"></path><path d="M300.55,290.92a60.76,60.76,0,0,0,32.37-6.8s-8.88,16.6-32.61,13.09Z" style="fill:#eb996e"></path><path d="M304.91,262.42c1.75-2.36,4.3-3.86,6.53-3.85a3.78,3.78,0,0,1,3.6,2.26,6,6,0,0,1-.81,5.44,5.05,5.05,0,0,1-5.11,2.15,8.48,8.48,0,0,1-4-2.89,3,3,0,0,1-.77-1.23,2,2,0,0,1,.35-1.71" style="fill:#eb996e"></path><path d="M314.35,257.19c-.54-.06-.73,3.51-3.93,5.88s-7,1.77-7,2.27c-.06.22.81.74,2.41.87a8.9,8.9,0,0,0,5.86-1.69,7.81,7.81,0,0,0,3.06-4.94C314.94,258.09,314.59,257.18,314.35,257.19Z" style="fill:#263238"></path><path d="M316.05,218.83c.36.88,3.63.3,7.51.58s7.05,1.19,7.53.37c.21-.4-.37-1.21-1.67-2A13.12,13.12,0,0,0,318,217C316.57,217.67,315.89,218.41,316.05,218.83Z" style="fill:#FF725E"></path><path d="M285.09,221.82c.68.78,3.54.15,6.92.28s6.23.81,6.93.06c.31-.36-.11-1.13-1.33-1.9a12,12,0,0,0-11.15-.28C285.22,220.69,284.79,221.44,285.09,221.82Z" style="fill:#FF725E"></path><path d="M306.05,356.27c-4.12,5-9.69,10-16.1,9.2a21.77,21.77,0,0,1,.88-24.23c2.64-3.51,6.38-6.22,8.38-10.14,1.85-3.63,2-7.86,2.69-11.87a39.77,39.77,0,0,1,11.15-21.18c6-5.95,13.93-9.9,19.3-16.46,6.59-8.06,8.48-18.93,9.25-29.32s.71-21,4.27-30.83l16.07,34.27c1.28,6.59,2.57,13.27,2,20s2,21.75-3.31,25.84c0,0-24.34,13.75-37.2,32.16Z" style="fill:#FF725E"></path><path d="M338.37,270.36a1.09,1.09,0,0,1-.06.29c-.05.21-.12.49-.21.83a18.9,18.9,0,0,1-1.12,3.13,34.28,34.28,0,0,1-7.09,9.87,40.67,40.67,0,0,1-6.48,5.4,70.09,70.09,0,0,0-7.62,5.86,46.07,46.07,0,0,0-7.08,7.87,35.29,35.29,0,0,0-2.87,4.79,30.59,30.59,0,0,0-1.94,5.42c-1,3.77-1.52,7.58-2.42,11.18a25.51,25.51,0,0,1-4.3,9.78c-2.1,2.73-4.54,4.88-6.38,7.24a17.21,17.21,0,0,0-2.27,3.67,19,19,0,0,0-1.12,3.82,24.06,24.06,0,0,0,.62,12,17.19,17.19,0,0,0,1.33,3l.45.73c.1.16.15.25.14.26a1.64,1.64,0,0,1-.18-.23l-.5-.71a15.46,15.46,0,0,1-1.43-3,23.84,23.84,0,0,1-.8-12.09,19.44,19.44,0,0,1,1.12-3.91,17.1,17.1,0,0,1,2.3-3.77c1.86-2.42,4.29-4.59,6.33-7.27a25,25,0,0,0,4.19-9.61c.89-3.57,1.41-7.38,2.42-11.2a32.09,32.09,0,0,1,2-5.5,35.32,35.32,0,0,1,2.93-4.87,46.19,46.19,0,0,1,7.17-7.93,69.17,69.17,0,0,1,7.7-5.86,41,41,0,0,0,6.46-5.3,35,35,0,0,0,7.17-9.7,21.46,21.46,0,0,0,1.2-3.07c.11-.33.19-.6.26-.82A1,1,0,0,1,338.37,270.36Z" style="fill:#263238"></path><path d="M349.77,239.36a2.41,2.41,0,0,1,.07.38l.16,1.11c.13,1,.3,2.43.46,4.31a114.11,114.11,0,0,1,.25,15.92c-.17,3.36-.52,7-1.1,10.94a42.43,42.43,0,0,1-3.28,12.2,20.49,20.49,0,0,1-3.92,5.65,30.58,30.58,0,0,1-5.66,4.37c-4.09,2.6-8.72,4.68-12.46,8.14a17.66,17.66,0,0,0-4.29,6.06,33.28,33.28,0,0,0-1.92,7c-.86,4.72-1.36,9.49-3.52,13.5a18.87,18.87,0,0,1-4.09,5.1c-1.56,1.44-3.22,2.65-4.78,3.85a52.64,52.64,0,0,0-4.39,3.63,40.56,40.56,0,0,0-3.54,3.87,38.46,38.46,0,0,0-7,14.07,42.11,42.11,0,0,0-.87,4.23q-.09.7-.15,1.11a2.41,2.41,0,0,1-.07.38,1.56,1.56,0,0,1,0-.38c0-.28.06-.65.11-1.12a34.92,34.92,0,0,1,.77-4.27,38,38,0,0,1,7-14.25,39.88,39.88,0,0,1,3.55-3.93,50.79,50.79,0,0,1,4.39-3.68c1.57-1.21,3.21-2.43,4.74-3.85a18.51,18.51,0,0,0,4-5c2.09-3.91,2.59-8.62,3.44-13.37a33.18,33.18,0,0,1,1.95-7.15,17.86,17.86,0,0,1,4.41-6.24c3.83-3.54,8.49-5.62,12.54-8.19a30.6,30.6,0,0,0,5.58-4.29A20.19,20.19,0,0,0,345.9,284,42.9,42.9,0,0,0,349.19,272c.59-3.9,1-7.56,1.15-10.9a122.44,122.44,0,0,0-.08-15.89c-.13-1.87-.27-3.32-.37-4.3l-.1-1.12A2.29,2.29,0,0,1,349.77,239.36Z" style="fill:#fff"></path><path d="M296.13,184.67a72.93,72.93,0,0,1,41.56-21.91,41.24,41.24,0,0,1,19.39,2.13c10.4,3.47,17.87,8.31,21.34,13.66,8,12.39,11.46,23.94,16.19,37.93s1.87,31.1-4.16,44.58q-6.85-21.23-13.73-42.44c-2.37,3.95-2.06,14.56-6,17.45" style="fill:#FF725E"></path><g style="opacity:0.30000000000000004"><path d="M305.85,202.78c10.49,2.78,19.69,9,28.67,15.08,3.83,2.61,7.73,5.27,10.59,8.92,7.47,9.51.75,27.7,17.05,30.21.9-7.37-3.48-12.77-7.09-19.26-5.2-9.35-10.54-18.89-18.5-26s-19.17-11.59-29.5-8.8"></path></g><path d="M366.94,182.76A10,10,0,0,1,368,184c.67.83,1.62,2.07,2.7,3.65a46.28,46.28,0,0,1,6.54,13.47,31,31,0,0,1,.22,14.93,29,29,0,0,1-1.31,4.36c-.18.5-.37.88-.48,1.14a2.5,2.5,0,0,1-.2.38,11.53,11.53,0,0,1,.49-1.59,35.49,35.49,0,0,0,1.14-4.37,32,32,0,0,0-.36-14.71,49.8,49.8,0,0,0-6.34-13.4c-1-1.6-1.94-2.87-2.56-3.74A11.1,11.1,0,0,1,366.94,182.76Z" style="fill:#263238"></path><g style="opacity:0.30000000000000004"><path d="M381.16,203.19a25.77,25.77,0,0,0-6.86-15.46c-.66-.7-1.62-1.42-2.5-1a1.73,1.73,0,0,0-.83,1.93,5.63,5.63,0,0,0,1,2c5.77,8.54,8.13,18.84,4.66,28.54A24.82,24.82,0,0,0,381.16,203.19Z"></path></g><path d="M390.08,247.34c-3.32-.8-6.9.76-9.21,3.28a19.39,19.39,0,0,0-4.25,9.2c-.68,3.21-.92,6.71.61,9.61s5.36,4.76,8.23,3.19c-.19,1-.37,2-.56,3a4.79,4.79,0,0,0,4.54-2.18l1.36,1.81c1.85-2.21,4.79-3.18,7-5,4.22-3.51,5.15-10.12,2.64-15s-7.94-7.9-13.42-8.17" style="fill:#ebebeb"></path><path d="M387,247.05a12.46,12.46,0,0,1,3.19.37,16.51,16.51,0,0,1,7.71,4.13,13.33,13.33,0,0,1,1.91,2.26,12.1,12.1,0,0,1,1.46,2.87,13.38,13.38,0,0,1,.49,7.07,11.6,11.6,0,0,1-4,6.77c-2.16,1.76-5,2.7-6.83,4.89l-.21.25-.19-.26c-.44-.57-.9-1.19-1.37-1.81l.43,0a5,5,0,0,1-1.78,1.68,5.08,5.08,0,0,1-3,.62l-.27,0,.05-.27c.19-1,.39-2,.57-3l.38.28a5.46,5.46,0,0,1-4.26.29,7.67,7.67,0,0,1-3.42-2.3,10.4,10.4,0,0,1-2-7.31,27.69,27.69,0,0,1,1.34-6.73,18.25,18.25,0,0,1,2.68-5.29,11,11,0,0,1,7.11-4.38,8.08,8.08,0,0,1,2.3,0,4,4,0,0,1,.58.13c.13,0,.19.05.19.06a10.21,10.21,0,0,0-3,0,11,11,0,0,0-6.87,4.4,23.26,23.26,0,0,0-3.83,11.83,10,10,0,0,0,1.94,7,7.14,7.14,0,0,0,3.2,2.15,4.94,4.94,0,0,0,3.86-.27l.48-.26-.1.54c-.19,1-.38,2-.57,3l-.22-.31a4.54,4.54,0,0,0,4.29-2.06l.2-.32.22.3,1.37,1.82h-.41c2-2.33,4.86-3.25,6.91-4.95a11.09,11.09,0,0,0,3.82-6.48,12.92,12.92,0,0,0-.42-6.83,11.37,11.37,0,0,0-1.39-2.79,13.62,13.62,0,0,0-1.83-2.23,16.72,16.72,0,0,0-7.52-4.2,22.34,22.34,0,0,0-2.32-.44C387.32,247.1,387,247.06,387,247.05Z" style="fill:#263238"></path><path d="M374,210.12h0l-.06,0c-.2-.15-.74-.46-2-1.22l-.48-.28.84-.32c.53-.2.55-.21.52-.31s-.06-.09-.6.09l-1,.36,0-.08,0,.07-1.83-1.07,1.54-.48.55-.18c.23-.08.28-.1.26-.19s-.08-.07-.32,0l-.56.16-1.72.51,0-.08,0,.08L367,206l2.16-1.21h0l.09-.06,1.69.47.56.15.24,0a.07.07,0,0,0,.08-.06c0-.09,0-.11-.26-.19L371,205l-1.43-.41,2-1.12,0,.05,0-.07,0,0,1.1.3a3.47,3.47,0,0,0,.54.12c.05,0,.06,0,.08-.07s0-.1-.55-.27l-.86-.25c1.14-.65,1.63-.92,1.82-1.06l.06,0h0c.08-.06.07-.08.05-.11s0-.06-.13,0h0l-.06,0c-.22.1-.74.38-2,1.08.1-.4.18-.76.24-1,.13-.56.13-.58,0-.6s-.1,0-.25.54c-.07.27-.17.64-.27,1.05l-.09,0,.07.11v0l0,.06-2.11,1.17c.2-.65.38-1.25.5-1.69l.16-.56c.06-.23.08-.29,0-.32s-.1,0-.18.26l-.18.56c-.14.44-.33,1-.53,1.71l-.09,0,.06.11v0l0,.1-2.12,1.18v-2.3h.12l-.07-.06c.51-.5.95-1,1.28-1.3l.41-.42c.17-.19.2-.22.14-.29h0c-.06-.07-.1,0-.28.14L368,202l-1.17,1.15v-2.36l0,0H367l-.07-.06c.32-.33.61-.62.81-.84.4-.42.42-.43.35-.51s-.09-.05-.51.35l-.74.72v-.28c0-1.47,0-2.08,0-2.32v-.07h0c0-.11,0-.11-.07-.11s-.06,0-.08.11h0v.07c0,.24,0,.85,0,2.32v.26l-.67-.62c-.43-.37-.44-.39-.51-.31s-.06.09.35.48c.2.2.48.46.79.75l-.06.07h.1c0,.71,0,1.51,0,2.38-.43-.45-.83-.85-1.13-1.15l-.41-.41c-.18-.17-.22-.21-.28-.14s0,.1.13.29l.4.42,1.24,1.3-.06.06h.11v2.26l-2-1.17,0-.09v0l.07-.11-.09,0c-.14-.7-.27-1.32-.37-1.78L364,202c-.06-.24-.07-.28-.16-.27h0c-.09,0-.09.07,0,.32l.1.57.35,1.77-2-1.14.06-.09-.09,0c-.09-.44-.18-.84-.24-1.13-.13-.57-.13-.59-.24-.57h0c-.1,0-.09,0,0,.61.05.26.11.6.19,1l-.33-.2c-1.31-.74-1.84-1.05-2.07-1.16l-.06,0h0c-.1,0-.11,0-.13,0s0,.05,0,.11h0l.06,0c.21.14.74.45,2,1.22l.34.2-.92.23c-.55.14-.57.14-.54.25s0,.07.08.07a4.83,4.83,0,0,0,.52-.1l1.06-.24v.09l.07-.11h0l1.73,1-1.4.27-.57.12c-.24.05-.29.06-.27.16s0,.07.1.07l.21,0,.58-.09,1.69-.3.09.05v0h0l2.14,1.24-2.07,1.16h0l-.06-.11,0,.09-1.75-.51-.56-.15c-.24-.07-.29-.08-.32,0h0c0,.09,0,.11.26.19l.56.17,1.6.49-1.79,1-.14,0-.06-.11,0,.09L361,208c-.56-.15-.59-.16-.61-.06s0,.11.54.28l1.1.34-.36.2c-1.27.71-1.79,1-2,1.15l-.06,0h0c-.09.07-.08.09-.06.12s0,0,.05,0l.08,0h0l.05,0c.23-.1.75-.39,2-1.09l.2-.11c-.08.3-.14.56-.19.77-.13.56-.14.58,0,.6h0c.06,0,.09-.08.22-.55.07-.26.17-.61.27-1l.07,0h0v0l1.83-1-.46,1.5-.17.56c-.06.24-.08.28,0,.32h0c.06,0,.08-.06.15-.26l.19-.55c.14-.44.34-1,.55-1.7l.09,0-.05-.1,2.06-1.14v2.24h0v0h-.13l.07.06-1.24,1.34-.39.43c-.16.19-.2.23-.13.29l0,0h0s.06,0,.22-.17l.41-.42,1.15-1.22c0,.78,0,1.51,0,2.16h-.13l.07.06-.79.85c-.38.43-.4.45-.33.52h0s0,0,.06,0,.15-.1.44-.4l.68-.71v.38c0,1.48,0,2.08,0,2.33v.07h0c0,.1,0,.1.08.1s.06,0,.07-.1h0v-.07c0-.25,0-.85,0-2.33v-.42l.73.62c.43.36.45.37.52.3s.05-.1-.37-.48l-.81-.72.06-.07h-.12v-2.11L368,210l.43.39c.18.17.22.2.29.14s0-.11-.15-.29l-.41-.41c-.33-.33-.77-.77-1.28-1.26l.06-.06h-.08v-2.3l2,1.15h0l-.06.11.08,0c.22.67.42,1.28.58,1.73l.19.55c.07.2.09.26.15.26h0c.09,0,.07-.08,0-.32l-.16-.56c-.13-.4-.3-.95-.5-1.56l1.81,1v0h0l-.07.14.09,0c.14.43.27.82.37,1.1.16.46.19.55.25.55h0c.1,0,.1-.05-.07-.61l-.31-1,.51.29c1.3.75,1.84,1.06,2.07,1.16l.06,0h0a.17.17,0,0,0,.08,0,0,0,0,0,0,.05,0h0S374.07,210.19,374,210.12Z" style="fill:#fff"></path><path d="M371.25,184h0l-.06,0c-.21-.15-.74-.46-2-1.22l-.49-.29.85-.31c.52-.21.55-.21.51-.31s0-.09-.59.09l-1,.36,0-.09,0,.07-1.84-1.06,1.54-.48.55-.18c.24-.08.28-.1.26-.19s-.08-.08-.32,0l-.56.16c-.44.12-1.05.3-1.72.51l0-.09-.05.09-1.94-1.13,2.17-1.21h0l.1,0c.65.18,1.24.35,1.68.46l.57.15.23.05c.05,0,.07,0,.09-.07s0-.1-.27-.18l-.56-.17c-.37-.11-.87-.26-1.43-.41l2-1.12,0,0,0-.07h0l1.11.3a3.46,3.46,0,0,0,.53.12c.06,0,.07,0,.08-.07s0-.1-.55-.27l-.86-.25c1.14-.65,1.63-.93,1.83-1.06l.06,0h0c.08-.06.07-.08.06-.12s0-.05-.13,0h0l-.05,0c-.23.1-.75.39-2,1.08.1-.39.18-.75.24-1,.12-.55.13-.57,0-.6s-.11,0-.26.55c-.07.27-.16.64-.27,1.05l-.08,0,.06.11v.1l-2.11,1.17c.19-.66.37-1.25.5-1.69l.15-.56c.07-.24.08-.29,0-.32s-.11,0-.19.26l-.18.55c-.14.44-.32,1.05-.53,1.72l-.08,0,.06.11v0l0,.1-2.12,1.18v-2.3h.11l-.06-.06,1.28-1.3.4-.43c.17-.18.21-.22.14-.28h0c-.07-.07-.11,0-.29.14l-.42.4-1.16,1.16c0-.86,0-1.66,0-2.36l0,0h.13l-.06-.06.81-.83c.4-.42.41-.44.34-.51s-.09-.06-.51.35l-.73.72v-.28c0-1.48,0-2.08,0-2.33v-.06h0c0-.1,0-.1-.08-.1s-.06,0-.07.1h0a.22.22,0,0,1,0,.06c0,.25,0,.85,0,2.33v.25c-.25-.24-.49-.45-.67-.61-.42-.38-.44-.39-.51-.32s-.05.1.35.49l.79.75-.06.06h.1v2.38l-1.13-1.15-.42-.41c-.17-.17-.21-.21-.28-.14s0,.1.14.28l.39.43,1.24,1.3-.06.06h.12c0,.71,0,1.47,0,2.26l-2-1.17,0-.1v0l.07-.1-.08,0c-.15-.7-.28-1.33-.38-1.79l-.13-.57c-.05-.24-.06-.28-.15-.27h0c-.09,0-.08.07,0,.31l.11.58c.08.45.2,1.07.34,1.77l-2-1.15.05-.08-.08,0c-.1-.44-.18-.84-.25-1.14-.13-.56-.13-.58-.23-.56h0c-.1,0-.1,0,0,.61.05.26.12.59.19,1l-.33-.19c-1.3-.75-1.84-1-2.07-1.16l-.06,0h0c-.09,0-.11,0-.12,0s0,.06.05.12h0l.07,0c.2.15.73.46,2,1.22l.35.2-.92.23c-.55.15-.57.15-.55.25s0,.07.09.07a4.13,4.13,0,0,0,.51-.09l1.06-.24,0,.08.07-.1h0l1.74,1-1.4.27-.57.12c-.24.05-.29.06-.28.15s0,.08.1.08l.22,0,.57-.09c.44-.08,1-.18,1.69-.31l.09,0v0l0,0,2.14,1.25-2.07,1.16h0l-.06-.11,0,.09-1.75-.51-.57-.16c-.24-.06-.29-.07-.32,0h0c0,.09,0,.11.26.18l.56.18,1.61.49-1.8,1-.13,0-.07-.11,0,.08c-.44-.12-.83-.24-1.12-.31-.56-.16-.58-.16-.61-.06s0,.1.55.28c.28.09.66.21,1.09.33l-.36.2c-1.26.72-1.78,1-2,1.15l0,0h0c-.08.07-.07.09-.05.12a0,0,0,0,0,.05,0l.08,0h0l.06,0c.22-.1.74-.39,2-1.09l.19-.11c-.07.3-.14.56-.19.77-.13.55-.14.58,0,.6h0c.07,0,.09-.09.22-.55.08-.26.17-.61.28-1l.06,0h0v0l1.83-1L361,183l-.16.56c-.07.23-.08.28,0,.31h0s.08-.06.15-.26l.18-.55c.15-.44.34-1,.55-1.7l.09,0-.05-.1,2.06-1.15c0,.78,0,1.54,0,2.25h-.15l.06.06-1.24,1.34-.39.43c-.16.18-.2.23-.13.29l0,0h0s.05,0,.22-.18l.4-.42c.31-.31.71-.73,1.16-1.21v2.16h-.13l.07.06c-.31.33-.58.64-.78.86-.39.43-.41.45-.33.52h0a.09.09,0,0,0,.06,0s.14-.09.44-.39l.67-.71c0,.13,0,.26,0,.38,0,1.47,0,2.08,0,2.33a.35.35,0,0,1,0,.06h0c0,.11,0,.11.07.11s.06,0,.08-.11h0V188c0-.25,0-.86,0-2.33v-.43l.72.62c.44.37.45.38.52.3s.05-.09-.37-.47l-.81-.73.07-.06h-.13c0-.64,0-1.35,0-2.11.44.43.83.81,1.14,1.09l.42.4c.19.16.22.2.29.13s0-.1-.14-.28l-.41-.41-1.28-1.26.06-.07h-.08v-2.3l2,1.14v0l-.06.11.09,0c.22.68.42,1.29.57,1.73l.19.56c.07.19.1.26.15.26h.05c.08,0,.07-.08,0-.32l-.17-.56-.5-1.57,1.81,1.05,0,0h0l-.06.14.08,0c.14.43.27.81.37,1.1.16.45.19.55.25.55h.05c.1,0,.09-.06-.08-.61l-.31-1,.51.3c1.31.75,1.84,1.05,2.07,1.16l.06,0h0l.08,0s0,0,.05,0h0S371.34,184.11,371.25,184Z" style="fill:#fff"></path><path d="M395.75,228h0l-.06,0c-.21-.15-.74-.46-2-1.22l-.49-.29.85-.31c.53-.21.55-.21.51-.31s0-.09-.59.09l-1,.36,0-.09,0,.07L391,225.19l1.54-.48.55-.18c.24-.08.28-.1.26-.19s-.08-.08-.32,0l-.56.16c-.44.12-1.05.3-1.72.51l0-.09-.05.09-1.94-1.13,2.17-1.21h0l.1-.05c.65.18,1.24.35,1.68.46l.57.15.23,0c.05,0,.07,0,.09-.07s0-.1-.27-.18l-.56-.17c-.37-.11-.87-.26-1.43-.41l2-1.12,0,0,0-.07h0l1.11.3a3.46,3.46,0,0,0,.53.12c.06,0,.07,0,.08-.07s0-.11-.55-.27l-.86-.26c1.14-.64,1.63-.92,1.83-1.05l.06,0h0c.08-.06.07-.09.06-.12s0,0-.13,0h0l-.05,0c-.23.1-.75.39-2,1.08.1-.39.18-.75.24-1,.12-.55.13-.57,0-.6s-.11,0-.26.55c-.07.27-.16.64-.27,1l-.08,0,.06.11v.1L391,222.31c.19-.66.37-1.25.5-1.69l.15-.56c.07-.24.08-.29,0-.32s-.11,0-.19.26l-.18.55c-.14.44-.32,1-.53,1.72l-.08,0,.06.11v0l0,.1-2.12,1.18v-2.3h.11l-.06-.06,1.28-1.3.4-.43c.17-.18.21-.22.14-.28h0c-.07-.06-.11,0-.29.15l-.42.4L388.59,221c0-.86,0-1.66,0-2.36l0,0h.13l-.06-.06.81-.83c.4-.42.41-.44.34-.51s-.09-.06-.51.35l-.73.72V218c0-1.48,0-2.08,0-2.33v-.06h0c0-.1,0-.1-.08-.1s-.06,0-.07.1h0a.22.22,0,0,1,0,.06c0,.25,0,.85,0,2.33v.25c-.25-.24-.49-.45-.67-.61-.42-.38-.44-.39-.51-.32s-.05.1.35.49l.79.75-.06.06h.1V221l-1.13-1.15-.42-.41c-.17-.17-.21-.21-.28-.14s0,.1.14.28l.39.43,1.24,1.3-.06.06h.12c0,.71,0,1.47,0,2.26l-2-1.17,0-.1v0l.07-.1-.08,0c-.15-.7-.28-1.33-.38-1.79l-.13-.57c-.05-.24-.06-.28-.15-.27h0c-.09,0-.08.07,0,.31l.11.58c.08.45.2,1.07.34,1.77l-2-1.15.05-.08-.08,0c-.1-.44-.18-.84-.25-1.14-.13-.56-.13-.58-.23-.56h0c-.1,0-.1,0,0,.61.05.26.12.59.19,1l-.33-.19c-1.3-.75-1.84-1.05-2.07-1.16l-.06,0h0c-.09,0-.11,0-.12,0s0,0,.05.12h0l.07,0c.2.15.73.46,2,1.22l.35.2-.92.23c-.55.15-.57.15-.55.25s0,.07.09.07a4.13,4.13,0,0,0,.51-.09l1.06-.24,0,.08.07-.1h0l1.74,1-1.4.27-.57.12c-.24.05-.29.06-.28.15s0,.08.1.08l.22,0,.57-.09c.44-.08,1-.18,1.69-.31l.09.05v0l0,0,2.14,1.25L386.17,225h0l-.06-.11,0,.09-1.75-.51-.57-.16c-.24-.06-.29-.07-.32,0h0c0,.09,0,.1.26.18l.56.18,1.61.49-1.8,1-.13,0-.07-.11,0,.08c-.44-.12-.83-.24-1.12-.31-.56-.16-.58-.16-.61-.06s0,.1.55.28c.28.09.66.21,1.09.33l-.36.2c-1.26.72-1.78,1-2,1.15l0,0h0c-.08.07-.07.09-.05.12a0,0,0,0,0,.05,0l.08,0h0l.06,0c.22-.1.74-.39,2-1.09l.19-.11c-.07.3-.14.56-.19.77-.13.55-.14.58,0,.6h0c.07,0,.09-.09.22-.55.08-.26.17-.61.28-1l.06,0h0v0l1.83-1-.46,1.5-.16.56c-.07.23-.08.28,0,.31h0s.08-.06.15-.26l.18-.55c.15-.44.34-1,.55-1.7l.09,0-.05-.1,2.06-1.15c0,.78,0,1.54,0,2.25h-.15l.06.06L387,227.78l-.39.43c-.16.18-.2.23-.13.29l0,0h0s.05,0,.22-.18l.4-.42c.31-.31.71-.73,1.16-1.21v2.16h-.13l.07.06c-.31.33-.58.64-.78.86-.39.43-.41.45-.33.52h0a.09.09,0,0,0,.06,0s.14-.09.44-.39l.67-.71c0,.13,0,.26,0,.38,0,1.47,0,2.08,0,2.33a.35.35,0,0,1,0,.06h0c0,.11,0,.11.07.11s.06,0,.08-.11h0V232c0-.25,0-.86,0-2.33v-.43l.72.62c.44.37.45.38.52.3s.05-.09-.37-.47l-.81-.73.07-.06h-.13c0-.64,0-1.35,0-2.11.44.43.83.81,1.14,1.09l.42.4c.19.16.22.2.29.13s0-.1-.14-.28l-.41-.41-1.28-1.26.06-.07h-.08v-2.3l2,1.14v0l-.06.11.09,0c.22.68.42,1.29.57,1.73l.19.56c.07.19.1.26.15.26h.05c.08,0,.07-.08,0-.32l-.17-.56-.5-1.57,1.81,1,0,0h0l-.06.14.08,0c.14.43.27.81.37,1.1.16.45.19.54.25.54h.05c.1,0,.09-.06-.08-.61-.08-.27-.19-.61-.31-1l.51.3c1.31.75,1.84,1,2.07,1.16l.06,0h0l.08,0s0,0,.05,0h0S395.84,228.05,395.75,228Z" style="fill:#fff"></path><path d="M340.41,185h0l-.07-.06c-.24-.28-.87-.89-2.41-2.39l-.57-.56,1.28-.15c.8-.1.83-.1.81-.25s0-.14-.85-.08c-.4,0-.94.08-1.54.15v-.13l-.07.08-2.17-2.11,2.29-.13.82-.06c.35,0,.43,0,.42-.17s-.08-.13-.43-.13l-.83,0c-.66,0-1.56.06-2.56.12V179l-.09.1-2.3-2.23,3.42-.93h0l.15,0,2.17,1.22.74.4a1.19,1.19,0,0,0,.31.14.1.1,0,0,0,.13-.06c.07-.11,0-.15-.3-.34l-.72-.43-1.84-1.07,3.14-.86,0,.07.05-.09h0l1.43.79a4.12,4.12,0,0,0,.69.35.11.11,0,0,0,.14-.06c.07-.13,0-.15-.67-.57l-1.1-.65c1.8-.49,2.57-.71,2.89-.83l.09,0h0c.14-.07.13-.1.11-.15s0-.08-.17-.06v0l-.08,0c-.35.06-1.16.28-3.14.81.27-.52.51-1,.68-1.33.37-.72.38-.75.25-.82s-.14,0-.54.66l-.74,1.37-.11-.07,0,.18,0,.05-.05.08-3.32.9,1.28-2.17.41-.72c.16-.31.2-.38.08-.45s-.15,0-.34.3l-.44.7c-.35.56-.81,1.33-1.32,2.19l-.11-.06,0,.17,0,0-.08.13-3.34.91c.27-1.11.54-2.18.79-3.18l.16,0-.07-.11,2.22-1.36.7-.45c.3-.19.36-.23.3-.35h0c-.07-.11-.13-.08-.44.1l-.72.41c-.53.31-1.23.73-2,1.21.29-1.2.56-2.3.8-3.27l0,0,.18,0-.07-.11,1.41-.87c.7-.44.72-.46.65-.59s-.11-.11-.82.31c-.34.19-.78.45-1.27.75l.1-.4c.49-2,.7-2.87.75-3.22a.33.33,0,0,0,0-.1h0c0-.15,0-.16-.07-.17s-.09,0-.14.12h0a.84.84,0,0,1,0,.1c-.12.33-.33,1.17-.84,3.21l-.09.35-.72-1.08c-.46-.67-.48-.69-.6-.61s-.11.1.32.79c.21.34.5.8.83,1.31l-.11.07.15,0c-.25,1-.53,2.08-.83,3.28l-1.17-2-.43-.7c-.18-.3-.22-.37-.34-.3s-.08.13.09.45l.4.72c.32.58.77,1.36,1.27,2.22l-.1.07.15,0c-.25,1-.51,2-.78,3.13l-2.4-2.32v-.17l.13-.12h-.13c.05-1,.08-1.92.1-2.59l0-.84c0-.35,0-.42-.12-.43h0c-.14,0-.14.06-.17.42l-.05.83c0,.66-.08,1.56-.13,2.57l-2.35-2.27.1-.09h-.12c0-.64,0-1.22.05-1.65,0-.83,0-.86-.13-.87h0c-.15,0-.15,0-.2.85,0,.37-.05.86-.08,1.41l-.39-.37c-1.55-1.49-2.18-2.1-2.46-2.33a.43.43,0,0,1-.07-.07h0c-.12-.09-.14-.06-.18,0s-.06.06,0,.18h0l.08.07c.23.27.86.88,2.4,2.38l.41.4h-1.36c-.8,0-.84,0-.84.16s0,.1.1.12a3.88,3.88,0,0,0,.74.05l1.55,0v.13l.14-.13h.05l2.05,2-2-.11-.83,0c-.35,0-.42,0-.43.12s0,.11.11.14l.31,0,.82.06,2.45.17.1.1v0l0,0,2.54,2.46-3.27.89h0l0-.17-.07.11c-.87-.52-1.66-1-2.25-1.31l-.72-.41c-.32-.17-.38-.2-.45-.09h0c-.07.11,0,.15.3.34l.71.44,2.05,1.23-2.83.77-.17-.1-.05-.17-.06.11-1.44-.83c-.73-.4-.76-.42-.83-.29s0,.15.66.58l1.4.84-.56.16c-2,.55-2.82.78-3.15.9l-.09,0v0c-.14.06-.13.09-.11.14s0,.05.05.06h.12v0l.09,0c.35-.06,1.17-.28,3.17-.81l.31-.09c-.21.39-.39.73-.53,1-.37.72-.39.74-.25.81l.05,0c.09,0,.15-.08.49-.68l.72-1.28.1,0,0,0v0l2.89-.78c-.45.74-.86,1.41-1.16,1.92l-.41.72c-.18.3-.21.36-.1.44l.05,0c.08,0,.14-.06.3-.31l.45-.7c.35-.55.82-1.32,1.34-2.16l.12.07,0-.15,3.25-.88c-.27,1.08-.53,2.12-.77,3.11h0l0,0-.18,0,.07.1-2.17,1.43-.69.47c-.29.2-.36.24-.29.35l0,.05h.06c.05,0,.08,0,.36-.16l.71-.44,2-1.29c-.27,1.09-.51,2.09-.73,3h0l-.19,0,.08.11c-.54.35-1,.68-1.38.92-.69.46-.71.48-.63.6h0a.17.17,0,0,0,.06.06c.08,0,.24-.08.75-.39.31-.2.73-.46,1.18-.76l-.13.54c-.5,2-.7,2.87-.75,3.23a.23.23,0,0,0,0,.09h0c0,.15,0,.16.07.17s.09,0,.14-.12h0a.84.84,0,0,1,0-.1c.11-.33.33-1.17.84-3.2l.15-.6c.3.44.58.82.79,1.11.48.65.49.68.62.6s.1-.12-.35-.79l-.87-1.28.11-.07-.18,0c.22-.88.47-1.86.73-2.91.46.74.89,1.4,1.21,1.9l.45.7c.19.29.24.35.35.28s.08-.14-.1-.44l-.42-.71-1.34-2.19.1-.07-.11,0c.25-1,.52-2.07.79-3.18l2.35,2.27v0l-.12.13h.13c.07,1,.14,1.92.19,2.59l.08.83c0,.3,0,.39.12.41h.06c.13,0,.13-.09.11-.44l0-.84c0-.6-.08-1.42-.15-2.34l2.15,2.07v.07h0l-.14.17.12,0c0,.65.1,1.23.14,1.66.06.68.07.82.16.84h.06c.15,0,.15,0,.11-.87,0-.39-.05-.9-.09-1.48l.6.59c1.55,1.48,2.19,2.09,2.47,2.32l.07.07h0l.1.06a.08.08,0,0,0,.08,0h0S340.5,185.08,340.41,185Z" style="fill:#fff"></path><path d="M274.57,230.8a52.2,52.2,0,0,1,19.24-45.08c13.45-10.76,33.5-13.15,48.41-4.52,9.51,5.5,16.29,14.67,22.17,24,3.6,5.68,7.05,11.75,7.72,18.44.54,5.39-.77,10.79-2.45,15.93a107.3,107.3,0,0,1-7.5,17.46c-9-12.6-10.35-30.23-21.87-40.58-5-4.49-11.34-7.06-17.57-9.55-5.47-2.18-11.19-4.41-17.05-3.88-6.4.58-12,4.35-17.1,8.28-6.51,5-13.1,11.34-14,19.54" style="fill:#ebebeb"></path><path d="M274.57,230.8s0-.22.08-.64a12.89,12.89,0,0,1,.34-1.84,20.65,20.65,0,0,1,3-6.58,40.58,40.58,0,0,1,7.86-8.43c1.72-1.46,3.63-2.95,5.72-4.45a41.24,41.24,0,0,1,7.05-4.13,21.8,21.8,0,0,1,8.79-2,30.24,30.24,0,0,1,9.66,1.79c3.23,1.09,6.49,2.44,9.86,3.82a58.14,58.14,0,0,1,10,5.17,27.4,27.4,0,0,1,4.55,3.75l1.07,1.06,1,1.16c.32.39.67.76,1,1.17l.89,1.25a59.24,59.24,0,0,1,5.86,11c1.66,3.92,3.13,8,4.85,12.07a62,62,0,0,0,6.28,11.83l-.43,0a109.08,109.08,0,0,0,6.31-14.06c1.75-4.9,3.41-10,3.69-15.34.34-5.49-1.42-10.8-3.87-15.51-1.23-2.37-2.61-4.64-4-6.87s-2.85-4.41-4.36-6.52a71.72,71.72,0,0,0-9.94-11.5,44.54,44.54,0,0,0-5.81-4.53,32,32,0,0,0-3.14-1.82l-1.59-.82-1.64-.69a43,43,0,0,0-26.46-1.7A45.3,45.3,0,0,0,299.75,182a46.14,46.14,0,0,0-9,6.7c-.64.64-1.31,1.22-1.9,1.88l-1.75,1.92c-1.07,1.33-2.15,2.61-3.05,4s-1.75,2.68-2.56,4-1.46,2.63-2,3.94a51.83,51.83,0,0,0-4.32,14,56.77,56.77,0,0,0-.67,9.25c.05,1.05.09,1.85.11,2.41s0,.83,0,.83,0-.28-.07-.82-.09-1.37-.16-2.42a53.83,53.83,0,0,1,.57-9.28,51.46,51.46,0,0,1,4.26-14.06c.56-1.33,1.31-2.61,2-4s1.59-2.7,2.56-4,2-2.65,3.05-4l1.76-1.94c.59-.66,1.26-1.25,1.9-1.89A45,45,0,0,1,311,177.1a43.29,43.29,0,0,1,26.75,1.67l1.67.69,1.61.84a32.63,32.63,0,0,1,3.18,1.83,45.41,45.41,0,0,1,5.87,4.57,71.83,71.83,0,0,1,10,11.58c1.51,2.11,3,4.3,4.38,6.54s2.81,4.51,4,6.9a39.14,39.14,0,0,1,3,7.56,25.78,25.78,0,0,1,.9,8.21c-.28,5.44-2,10.58-3.73,15.5a107.34,107.34,0,0,1-6.34,14.12l-.2.37-.23-.34a61.72,61.72,0,0,1-6.33-11.94c-1.72-4.08-3.19-8.16-4.84-12.07a57.8,57.8,0,0,0-5.8-11l-.87-1.23c-.29-.4-.64-.77-.95-1.16l-1-1.14-1-1a27.17,27.17,0,0,0-4.48-3.71,57.3,57.3,0,0,0-9.94-5.15c-3.35-1.38-6.61-2.74-9.82-3.83a29.33,29.33,0,0,0-9.53-1.8,21.46,21.46,0,0,0-8.66,1.93,41.21,41.21,0,0,0-7,4.08c-2.08,1.48-4,3-5.73,4.4a41,41,0,0,0-7.87,8.33,21.19,21.19,0,0,0-3,6.5,16.85,16.85,0,0,0-.39,1.83C274.62,230.59,274.57,230.8,274.57,230.8Z" style="fill:#263238"></path></g><g id="freepik--Table--inject-184"><path d="M478.67,477.27c0,.14-100.6.26-224.66.26s-224.68-.12-224.68-.26S129.91,477,254,477,478.67,477.12,478.67,477.27Z" style="fill:#263238"></path></g></svg>