<svg xmlns="http://www.w3.org/2000/svg" viewBox="0 0 500 500"><g id="freepik--background-complete--inject-132"><rect x="26.81" y="68.3" width="69.01" height="71.94" style="fill:#e0e0e0"></rect><rect x="22.13" y="68.3" width="69.01" height="71.94" style="fill:#ebebeb"></rect><rect x="31.41" y="77.97" width="50.46" height="52.6" style="fill:#fff"></rect><path d="M31.41,130.92a10.13,10.13,0,0,1-1.26,1.43c-.81.85-1.95,2-3.22,3.25s-2.43,2.36-3.29,3.16A9,9,0,0,1,22.2,140a9.8,9.8,0,0,1,1.26-1.42c.81-.85,1.94-2,3.22-3.25s2.44-2.38,3.29-3.17A9.42,9.42,0,0,1,31.41,130.92Z" style="fill:#e0e0e0"></path><path d="M81.87,130.79a10.13,10.13,0,0,1,1.43,1.26c.84.81,2,1.95,3.24,3.22s2.37,2.43,3.17,3.29A9,9,0,0,1,90.94,140a9.36,9.36,0,0,1-1.43-1.26c-.84-.81-2-1.94-3.25-3.22s-2.37-2.44-3.16-3.29A8.88,8.88,0,0,1,81.87,130.79Z" style="fill:#e0e0e0"></path><path d="M81.73,78.11A10.13,10.13,0,0,1,83,76.68c.81-.84,2-2,3.22-3.24s2.43-2.37,3.29-3.17A9.76,9.76,0,0,1,90.94,69a9.36,9.36,0,0,1-1.26,1.43c-.81.84-1.94,2-3.22,3.25S84,76.09,83.17,76.89A9.65,9.65,0,0,1,81.73,78.11Z" style="fill:#e0e0e0"></path><path d="M31.27,78.24A10.13,10.13,0,0,1,29.84,77c-.84-.81-2-2-3.24-3.21s-2.37-2.44-3.17-3.29A9.32,9.32,0,0,1,22.2,69a10.13,10.13,0,0,1,1.43,1.26c.84.81,2,1.95,3.25,3.22S29.25,76,30,76.81A9.13,9.13,0,0,1,31.27,78.24Z" style="fill:#e0e0e0"></path><path d="M81.73,130.57s0-.09,0-.25,0-.42,0-.73c0-.66,0-1.61,0-2.84,0-2.49,0-6.11,0-10.72,0-9.21-.05-22.34-.08-38.06l.16.17-50.32,0h0L31.6,78c0,19.31,0,37.37,0,52.6l-.16-.16,36.44.08,10.24,0,2.7,0h0l-2.68,0-10.19,0-36.55.08h-.16v-.16c0-15.23,0-33.29,0-52.6v-.19h.19l50.32,0h.17V78c0,15.77-.07,28.93-.09,38.17,0,4.59,0,8.2,0,10.68,0,1.22,0,2.15,0,2.8,0,.31,0,.54,0,.72A1.85,1.85,0,0,1,81.73,130.57Z" style="fill:#e0e0e0"></path><path d="M44.73,100s-1.08,13,13,13C57.75,106,52,100.53,44.73,100Z" style="fill:#ebebeb"></path><path d="M70.53,100s-13-1.08-13,13C64.46,113,70,107.25,70.53,100Z" style="fill:#ebebeb"></path><path d="M57.12,92.83s-10.63,9.55.59,20.14C62.93,107.44,62.48,98.77,57.12,92.83Z" style="fill:#e0e0e0"></path><rect x="409.13" y="86.28" width="68.01" height="70.89" style="fill:#e0e0e0"></rect><rect x="404.52" y="86.28" width="68.01" height="70.89" style="fill:#ebebeb"></rect><rect x="413.66" y="95.81" width="49.72" height="51.83" style="fill:#fff"></rect><path d="M413.66,148a7.91,7.91,0,0,1-1.22,1.43c-.8.84-1.91,2-3.17,3.2s-2.4,2.33-3.24,3.11a8.33,8.33,0,0,1-1.44,1.2,8.54,8.54,0,0,1,1.22-1.42c.79-.84,1.91-2,3.17-3.21s2.4-2.34,3.25-3.12A8.12,8.12,0,0,1,413.66,148Z" style="fill:#e0e0e0"></path><path d="M463.38,147.85a8.9,8.9,0,0,1,1.43,1.23c.84.8,2,1.91,3.21,3.16s2.33,2.4,3.1,3.25a7.91,7.91,0,0,1,1.2,1.44,8.54,8.54,0,0,1-1.42-1.22c-.84-.8-2-1.92-3.21-3.17s-2.34-2.41-3.11-3.26A8.09,8.09,0,0,1,463.38,147.85Z" style="fill:#e0e0e0"></path><path d="M463.25,95.94a8.37,8.37,0,0,1,1.23-1.42c.79-.84,1.91-2,3.16-3.21S470,89,470.88,88.2A7.42,7.42,0,0,1,472.32,87a8,8,0,0,1-1.22,1.42c-.79.84-1.91,2-3.17,3.21s-2.4,2.33-3.25,3.11A7.58,7.58,0,0,1,463.25,95.94Z" style="fill:#e0e0e0"></path><path d="M413.53,96.07a7.76,7.76,0,0,1-1.43-1.23c-.84-.79-2-1.91-3.2-3.16s-2.33-2.4-3.11-3.24a8.33,8.33,0,0,1-1.2-1.44A8,8,0,0,1,406,88.22c.84.79,2,1.91,3.21,3.17s2.34,2.4,3.12,3.25A8.74,8.74,0,0,1,413.53,96.07Z" style="fill:#e0e0e0"></path><path d="M463.25,147.64s0-.09,0-.25,0-.42,0-.73c0-.65,0-1.58,0-2.8,0-2.45,0-6-.05-10.56,0-9.08,0-22-.09-37.49l.19.19-49.58,0h0l.22-.22c0,19,0,36.82,0,51.83l-.19-.19,35.91.09,10.08.05,2.67,0h0l-2.63,0-10,0-36,.1h-.19v-.19c0-15,0-32.81,0-51.83v-.22h.23l49.58,0h.19v.2c0,15.53-.07,28.51-.1,37.61,0,4.52,0,8.08,0,10.52,0,1.2,0,2.12,0,2.76,0,.3,0,.54,0,.71A2.07,2.07,0,0,1,463.25,147.64Z" style="fill:#e0e0e0"></path><path d="M429.36,135.77a11,11,0,0,1-.49-14.47c1.38-1.59,3.22-2.74,4.5-4.41,2.77-3.62,2.73-9.31,6.59-11.73,2.81-1.77,6.85-.76,8.91,1.85a9.46,9.46,0,0,1,.89,9.45c-1,2.25-2.7,4.16-3.4,6.51s-.31,5-1.05,7.43c-.91,2.89-4,4.72-6.81,5.77a12.68,12.68,0,0,1-9.14-.4" style="fill:#f5f5f5"></path><path d="M443.34,111.89a8.33,8.33,0,0,1-.48,1.37c-.33.87-.86,2.12-1.54,3.64a101.13,101.13,0,0,1-6.15,11.52,103.21,103.21,0,0,1-7.57,10.63c-1.06,1.29-2,2.31-2.58,3a9.43,9.43,0,0,1-1,1,9.13,9.13,0,0,1,.88-1.15c.59-.72,1.43-1.78,2.46-3.09a124.19,124.19,0,0,0,7.44-10.67A122.84,122.84,0,0,0,441,116.77c.72-1.5,1.29-2.73,1.67-3.58A9.47,9.47,0,0,1,443.34,111.89Z" style="fill:#e0e0e0"></path><path d="M433.06,120.87a18.14,18.14,0,0,1,.39,2.62c.2,1.64.44,3.92.7,6.5l-.34-.17,1.08-.63c2.48-1.45,4.74-2.74,6.39-3.66a21.93,21.93,0,0,1,2.72-1.4,21.61,21.61,0,0,1-2.56,1.68c-1.61,1-3.84,2.31-6.33,3.76l-1.07.63-.3.17,0-.34c-.23-2.58-.42-4.86-.54-6.51A15.6,15.6,0,0,1,433.06,120.87Z" style="fill:#e0e0e0"></path><path d="M446.12,117a9,9,0,0,1-1.68.94c-1.06.52-2.53,1.23-4.17,2l-.52.23-.26.12-.05-.29c-.26-1.65-.47-3.13-.6-4.2a6.81,6.81,0,0,1-.12-1.73,7.09,7.09,0,0,1,.42,1.68c.21,1.06.47,2.53.74,4.18l-.31-.17.51-.23c1.64-.75,3.14-1.41,4.23-1.86A7.47,7.47,0,0,1,446.12,117Z" style="fill:#e0e0e0"></path><rect x="117.59" y="44.99" width="258.6" height="239.35" style="fill:#e0e0e0"></rect><path d="M392,296.29c0-2.62-.11-104.48-.27-263.24l.27.31-286.09.07h0l.33-.38c0,94.94,0,184.71,0,263.24l-.29-.35,286.12.35-286.12.34h-.29v-.34c0-78.53,0-168.3,0-263.24v-.38h.35L392,32.73h.27v.32C392.08,191.81,392,293.67,392,296.29Z" style="fill:#e0e0e0"></path><rect x="246.86" y="40.52" width="6.7" height="243.87" style="fill:#fff"></rect><rect x="242.77" y="36.04" width="8.25" height="258.6" transform="translate(81.56 412.23) rotate(-90)" style="fill:#fff"></rect><path d="M218.51,132.33a33.69,33.69,0,0,1-26.7-54.27,33.69,33.69,0,1,0,47.24,47.24A33.51,33.51,0,0,1,218.51,132.33Z" style="fill:#fafafa"></path><path d="M323.17,119.46l1.57.87-1.58.85a4.92,4.92,0,0,0-2,1.94l-.86,1.56-.86-1.57a4.83,4.83,0,0,0-1.93-2l-1.57-.87,1.57-.85a4.88,4.88,0,0,0,2-1.94l.86-1.56.85,1.57A4.92,4.92,0,0,0,323.17,119.46Z" style="fill:#fafafa"></path><path d="M185.82,214.16l1.57.86-1.58.86a4.83,4.83,0,0,0-1.95,1.93l-.86,1.57-.86-1.57a4.79,4.79,0,0,0-1.93-2l-1.57-.86,1.57-.85a4.94,4.94,0,0,0,2-1.94l.86-1.57.85,1.58A4.92,4.92,0,0,0,185.82,214.16Z" style="fill:#fafafa"></path><path d="M289.25,210.81l1.57.86-1.57.85a4.94,4.94,0,0,0-2,1.94l-.86,1.57-.85-1.58a4.92,4.92,0,0,0-1.94-1.95l-1.56-.86,1.57-.86a4.83,4.83,0,0,0,2-1.93l.87-1.57.85,1.57A4.85,4.85,0,0,0,289.25,210.81Z" style="fill:#fafafa"></path><path d="M237.87,193.72l.62.34-.63.33a2,2,0,0,0-.77.77l-.34.62-.33-.62a2,2,0,0,0-.77-.78L235,194l.62-.33a1.84,1.84,0,0,0,.77-.77l.35-.62.33.62A1.93,1.93,0,0,0,237.87,193.72Z" style="fill:#fafafa"></path><path d="M344.88,229l.62.34-.62.33a2,2,0,0,0-.77.77l-.34.62-.34-.62a1.84,1.84,0,0,0-.77-.77l-.61-.35.62-.33a2,2,0,0,0,.77-.77l.34-.62.34.63A1.94,1.94,0,0,0,344.88,229Z" style="fill:#fafafa"></path><path d="M290.36,128.88l.61.34-.62.34a2,2,0,0,0-.77.77l-.34.62-.34-.63a1.94,1.94,0,0,0-.76-.77l-.62-.34.62-.34a1.88,1.88,0,0,0,.77-.76l.34-.62.34.62A1.9,1.9,0,0,0,290.36,128.88Z" style="fill:#fafafa"></path><path d="M338.37,64.63,339,65l-.62.33a2,2,0,0,0-.78.77l-.34.62-.33-.62a2,2,0,0,0-.77-.78l-.62-.34.62-.33a1.93,1.93,0,0,0,.78-.77l.34-.62.33.62A2,2,0,0,0,338.37,64.63Z" style="fill:#fafafa"></path><path d="M253,132l.62.34-.62.34a1.94,1.94,0,0,0-.77.76l-.34.62-.34-.62a1.94,1.94,0,0,0-.76-.77l-.62-.34.62-.34a1.94,1.94,0,0,0,.77-.76l.34-.62.34.62A1.94,1.94,0,0,0,253,132Z" style="fill:#fafafa"></path><path d="M392,296.29l-1.05-.75-3.06-2.27-11.75-8.81.08,0-128,.14-130.61-.15.1-.05-9,9.1-2.33,2.33c-.52.52-.8.77-.8.77s.25-.29.75-.82l2.28-2.38,8.9-9.18,0-.05h.06l130.61-.15,128,.15h.05l0,0L388,293.15l3,2.33C391.64,296,392,296.29,392,296.29Z" style="fill:#e0e0e0"></path></g><g id="freepik--Plant--inject-132"><path d="M227.9,367.42c0-2.68,12-73.47,12-73.47l-6-22.1h33.14l-5.8,21.2,12.62,74.37Z" style="fill:#f5f5f5"></path><path d="M227.9,367.42s.29,0,.83,0l2.4,0,9.18-.05,33.58-.11-.19.23c-3.41-20-7.81-45.8-12.69-74.36V293l0,0c1.31-4.78,2.69-9.84,4.09-15,.58-2.09,1.14-4.17,1.71-6.23l.25.33H233.93l.24-.31,6,22.1v.1c-3.7,21.85-6.81,40.2-9,53.1-1.06,6.44-1.9,11.51-2.47,15-.27,1.73-.48,3.06-.63,4-.05.44-.1.77-.13,1s0,.36,0,.36,0-.45.11-1.38.29-2.24.55-4c.51-3.48,1.31-8.56,2.35-15,2.07-12.91,5.12-31.27,8.82-53.14v.1c-1.91-7-3.93-14.36-6-22.09l-.09-.32h33.81l-.09.33q-.84,3.09-1.71,6.23c-1.4,5.12-2.78,10.18-4.09,15V293c4.83,28.57,9.19,54.42,12.56,74.39l0,.22h-.23l-33.7-.1-9.13-.05-2.37,0Z" style="fill:#263238"></path><path d="M249.37,265.44c1-7.6,4.67-14.18,9.66-20a40,40,0,0,1,19.05-12.26,36,36,0,0,1-16.67,22.57c-2.27,1.32-4.7,2.4-6.89,3.85a12.88,12.88,0,0,0-5.15,5.84" style="fill:#455a64"></path><path d="M252.8,285c1-7-.77-13.54-4.19-17.3s-8.06-6.15-12.62-8.4-9.25-4.53-12.8-8.16a35.29,35.29,0,0,0,16.32,21.27c2.63,1.51,5.47,2.69,7.87,4.54A16.59,16.59,0,0,1,252.8,285" style="fill:#455a64"></path><path d="M253.83,344.87a1,1,0,0,1,0-.3c0-.22,0-.51,0-.87,0-.76.09-1.88.1-3.33.08-2.9.09-7.1,0-12.28s-.39-11.35-.72-18.19-.68-14.39-.65-22.31c0-2,0-3.93-.05-5.85a54,54,0,0,0-.54-5.63,62.78,62.78,0,0,0-2.62-10.38c-.52-1.64-1.08-3.21-1.53-4.78a39.32,39.32,0,0,1-1-4.64,57.8,57.8,0,0,1-.63-8.48,59.33,59.33,0,0,1,1.18-12.23c.14-.71.3-1.34.44-1.88s.26-1,.38-1.36l.27-.83c.06-.19.1-.28.1-.28a1.2,1.2,0,0,1-.05.29c-.06.22-.13.5-.22.85s-.21.82-.33,1.37-.26,1.17-.39,1.88a62.68,62.68,0,0,0-1,12.19,58.68,58.68,0,0,0,.7,8.41,37.63,37.63,0,0,0,1,4.58c.45,1.55,1,3.13,1.54,4.76A61.65,61.65,0,0,1,252.44,276a52.46,52.46,0,0,1,.56,5.69c.08,1.93.05,3.9.05,5.87,0,7.9.33,15.43.61,22.28s.54,13,.61,18.22,0,9.39-.14,12.28c0,1.45-.15,2.58-.19,3.34,0,.36-.05.64-.07.87A1.36,1.36,0,0,1,253.83,344.87Z" style="fill:#455a64"></path><path d="M252.68,215.05c-1.33-4.16-4.85-7.77-9.17-8.42a12.42,12.42,0,0,1-.66,9.6c-1.22,2.39-3.22,4.37-4.11,6.91a11.5,11.5,0,0,0,1.08,9c1.47,2.76,4.47,5.29,7.08,7a42.64,42.64,0,0,1,2-4.39c1.06-2.23,2-4.31,2.92-6.87C253.4,223.81,254,219.22,252.68,215.05Z" style="fill:#FF725E"></path><path d="M266.15,212.91a22.16,22.16,0,0,0-9.83,2.32,11.49,11.49,0,0,0-5.86,7c-.65,2.61-.07,5.36-.36,8-.36,3.28-1.52,6.25-4.13,8.26,2.46,2.52,8.3.87,11.7-1.89s5.41-6.92,6.37-11.18,1-7.74,2.11-12.51" style="fill:#FF725E"></path><path d="M259.71,208.63a1.37,1.37,0,0,0-1.17-.29,9.76,9.76,0,0,0-3.94,1.19,5.19,5.19,0,0,0-1.07-2.27,1.78,1.78,0,0,0-2.28-.36,2.35,2.35,0,0,0-.69,1.09,15.93,15.93,0,0,0-1,4.81l4.81,7.13a6.38,6.38,0,0,0,4.53-4,19,19,0,0,0,1.08-6.19A1.49,1.49,0,0,0,259.71,208.63Z" style="fill:#FF725E"></path><path d="M257.27,208.15a2,2,0,0,0-3.48-.62l-.84.19a10,10,0,0,0,.55,3.51l3.3-1.92a1.33,1.33,0,0,0,.43-.35A1,1,0,0,0,257.27,208.15Z" style="fill:#FF725E"></path><path d="M249.37,209.68s.1,0,.26.19a8,8,0,0,1,.66.66,12,12,0,0,1,1.87,2.87,14.65,14.65,0,0,1,1.3,4.92,20.86,20.86,0,0,1-.46,6.2,45.1,45.1,0,0,1-3.92,10.53c-.64,1.29-1.2,2.31-1.59,3a6.18,6.18,0,0,1-.66,1.07,5.79,5.79,0,0,1,.48-1.16l1.43-3.07a50.85,50.85,0,0,0,3.75-10.48,21.43,21.43,0,0,0,.49-6.06,15.16,15.16,0,0,0-1.16-4.81A17.82,17.82,0,0,0,249.37,209.68Z" style="fill:#263238"></path><path d="M266.2,212.79c0,.09-.88,0-2.25.22a14.59,14.59,0,0,0-9.25,5.07c-.89,1.06-1.31,1.82-1.39,1.78a5.93,5.93,0,0,1,1.1-2,13.24,13.24,0,0,1,9.5-5.21A6,6,0,0,1,266.2,212.79Z" style="fill:#263238"></path><path d="M252.71,215.14a6.71,6.71,0,0,1,1.89-5.71c.13.09-.61,1.23-1.12,2.8S252.86,215.15,252.71,215.14Z" style="fill:#263238"></path><path d="M260,209a1.63,1.63,0,0,0-1.26-.59,8.24,8.24,0,0,0-3.42,1.14c-.23.12-.46.22-.68.32l-.32.13,0-.33a3.59,3.59,0,0,0-1.34-2.63c-.64-.41-1.18-.25-1.18-.35s.11-.09.34-.13a1.7,1.7,0,0,1,1,.18,3.65,3.65,0,0,1,1.68,2.86l-.36-.2.67-.31a7.17,7.17,0,0,1,3.66-1.05,1.46,1.46,0,0,1,1.09.54C260,208.82,260,209,260,209Z" style="fill:#263238"></path><g style="opacity:0.30000000000000004"><path d="M256,218.8c-.48-3.8-2.77-7.49-6.3-9a17.68,17.68,0,0,1,3.54,10.69,29.39,29.39,0,0,1-2.82,11.35l-3.55,7.29a53.66,53.66,0,0,0,6.63-9.3A18.51,18.51,0,0,0,256,218.8Z"></path></g><g style="opacity:0.30000000000000004"><path d="M253.78,207.39a2.31,2.31,0,0,1,1.06,1.22,3.58,3.58,0,0,1,1.22-.44,2.1,2.1,0,0,1,1.26.19,8.43,8.43,0,0,0-2.84,1.22,6.53,6.53,0,0,0-.7-2.19"></path></g></g><g id="freepik--Bottle--inject-132"><rect x="294.04" y="243.46" width="7.34" height="17.44" style="fill:#455a64"></rect><path d="M280.88,367.37V303.23a16.88,16.88,0,0,1,16.88-16.88h0a16.88,16.88,0,0,1,16.88,16.88v64.14Z" style="fill:#263238"></path><rect x="292.75" y="253.06" width="10.01" height="53.78" style="fill:#263238"></rect><rect x="285.8" y="307.78" width="21.89" height="42.61" style="fill:#ebebeb"></rect><path d="M314.64,367.37s-.44-.25-1.27-.63a32.89,32.89,0,0,0-3.6-1.37,53.24,53.24,0,0,0-5.52-1.49,35,35,0,0,0-6.91-.88,42.15,42.15,0,0,0-7,.51,27.35,27.35,0,0,0-5.48,1.5,37.31,37.31,0,0,0-4.68,2.41,5.6,5.6,0,0,1,1.12-.89,19.56,19.56,0,0,1,3.42-1.86A26,26,0,0,1,290.3,363a39.06,39.06,0,0,1,7.05-.56,33.47,33.47,0,0,1,7,.93,46.1,46.1,0,0,1,5.53,1.61,25.76,25.76,0,0,1,3.57,1.54A4.07,4.07,0,0,1,314.64,367.37Z" style="fill:#455a64"></path><path d="M313.57,303.51c.15,0,.26,12.66.26,28.27s-.11,28.27-.26,28.27-.26-12.66-.26-28.27S313.43,303.51,313.57,303.51Z" style="fill:#455a64"></path><path d="M295.66,287.41c0,.09-1.32.25-3.29,1.08a15.13,15.13,0,0,0-9.3,12.73c-.19,2.13.07,3.45,0,3.46a3,3,0,0,1-.22-.91,12.66,12.66,0,0,1-.12-2.58,14.66,14.66,0,0,1,9.54-13,12.69,12.69,0,0,1,2.48-.67A2.69,2.69,0,0,1,295.66,287.41Z" style="fill:#455a64"></path><path d="M294,285.45c-.14,0-.26-6.51-.26-14.54s.12-14.54.26-14.54.26,6.51.26,14.54S294.19,285.45,294,285.45Z" style="fill:#455a64"></path><rect x="292.75" y="264.03" width="10.01" height="15.26" style="fill:#FF725E"></rect><path d="M299.29,321.3a80.21,80.21,0,0,1-9.22.26,80.21,80.21,0,0,1-9.22-.26,83,83,0,0,1,9.22-.26A83,83,0,0,1,299.29,321.3Z" style="fill:#455a64"></path><rect x="280.88" y="325.71" width="16.55" height="16.55" style="fill:#e0e0e0"></rect></g><g id="freepik--Candles--inject-132"><rect x="213.15" y="263.9" width="6.95" height="43.84" style="fill:#fff"></rect><path d="M220.1,307.74s0-.09,0-.24,0-.4,0-.67c0-.61,0-1.45,0-2.52,0-2.22,0-5.38-.07-9.29,0-7.87-.07-18.78-.12-31.12l.26.26h-6.95c.52-.52.14-.14.26-.25h0v6.91q0,3.41,0,6.65c0,4.32,0,8.4,0,12.17,0,7.51-.07,13.75-.09,18.09l-.13-.13,5.12.07,1.35,0,.48,0-.43,0-1.32,0-5.2.08H213v-.13c0-4.34-.06-10.58-.1-18.09,0-3.77,0-7.85,0-12.17,0-2.16,0-4.38,0-6.65v-6.91h0c.12-.12-.26.25.26-.27h7.21v.26c0,12.41-.08,23.38-.11,31.31,0,3.88-.06,7-.08,9.22,0,1.05,0,1.87,0,2.47l0,.63A.85.85,0,0,1,220.1,307.74Z" style="fill:#263238"></path><path d="M210.09,301.61v7.12a6,6,0,0,0,4.11,5.66v53H219v-53a6,6,0,0,0,4.14-5.67v-7.12Z" style="fill:#e0e0e0"></path><path d="M210.09,301.61h.85l2.53,0,9.69-.08h.15v.14c0,2,0,4.26,0,6.7a6.32,6.32,0,0,1-1,3.74,6.22,6.22,0,0,1-3.29,2.55l.14-.2c0,13.09,0,30.2.06,48.88v4.4h-5.34v-.26c.05-21.85.08-40.86.11-53l.1.15a6.11,6.11,0,0,1-4-4.49,11.12,11.12,0,0,1-.13-2.53c0-.77,0-1.47,0-2.1,0-1.22,0-2.18.05-2.85,0-.3,0-.54,0-.72a1.1,1.1,0,0,1,0-.24s0,.1,0,.27,0,.43,0,.74c0,.68,0,1.63,0,2.86,0,.62,0,1.31,0,2.06a11.12,11.12,0,0,0,.16,2.46,5.86,5.86,0,0,0,3.9,4.25l.1,0v.11c0,12.17.07,31.18.11,53l-.26-.26H219l-.26.26v-4.14c0-18.68.05-35.79.06-48.88v-.14l.14-.05a5.86,5.86,0,0,0,3.1-2.36,6,6,0,0,0,.93-3.54c0-2.44,0-4.68,0-6.7l.14.15-9.61-.08-2.56,0h-.67Z" style="fill:#263238"></path><path d="M214.84,260.83a2.92,2.92,0,0,0,3.62-.05A4.51,4.51,0,0,0,220,257.3a10.31,10.31,0,0,0-.82-3.82,31.4,31.4,0,0,1-1.3-3.71,1.94,1.94,0,0,0-.61-1.24c-.57-.38-1.32,0-1.81.48a7.49,7.49,0,0,0-2.06,4.08,14.61,14.61,0,0,0,0,4.62c.21,1.53.59,2.86,1.91,3.45" style="fill:#FF725E"></path><path d="M216.63,256.55a25.61,25.61,0,0,1,0,7.28,25.61,25.61,0,0,1,0-7.28Z" style="fill:#263238"></path><rect x="196.01" y="245.25" width="8.21" height="51.73" style="fill:#fff"></rect><path d="M204.22,297a1.39,1.39,0,0,1,0-.27c0-.21,0-.46,0-.78,0-.72,0-1.71,0-3,0-2.6-.05-6.33-.08-10.95,0-9.29-.07-22.17-.11-36.75l.26.26H196c.52-.52.15-.13.26-.24h0v8.15c0,2.68,0,5.3,0,7.85,0,5.1,0,9.92,0,14.37,0,8.86-.08,16.23-.1,21.33l-.13-.13,6.05.08,1.6,0,.56,0a3.2,3.2,0,0,1-.52,0l-1.56,0-6.13.07h-.13V297c0-5.1,0-12.47-.09-21.33,0-4.45,0-9.27,0-14.37q0-3.82,0-7.85v-8.15h0c.12-.12-.26.24.26-.28h8.47v.26c0,14.65-.09,27.6-.12,36.93,0,4.6-.05,8.3-.07,10.9l0,2.92c0,.3,0,.55,0,.74S204.22,297,204.22,297Z" style="fill:#263238"></path><path d="M192.4,289.76v8.39a7,7,0,0,0,4.85,6.69v62.58h5.69V304.86a7,7,0,0,0,4.89-6.71v-8.39Z" style="fill:#e0e0e0"></path><path d="M192.4,289.76h.25l.75,0,3,0,11.44-.08H208v.14c0,2.37,0,5,0,7.91a7.26,7.26,0,0,1-5,7.38l.14-.19c0,15.43,0,35.63.06,57.67v5.15H197v-.26c0-25.79.09-48.23.11-62.58l.11.15a7.21,7.21,0,0,1-4.76-5.28,13.4,13.4,0,0,1-.15-3c0-.9,0-1.73,0-2.47,0-1.46,0-2.58.05-3.37,0-.36,0-.64,0-.85a1.45,1.45,0,0,1,0-.28s0,.11,0,.31,0,.51,0,.88c0,.78,0,1.91,0,3.36,0,.74,0,1.55,0,2.45a12.76,12.76,0,0,0,.19,2.9,6.81,6.81,0,0,0,1.49,3,7,7,0,0,0,3.12,2.08l.11,0v.11c0,14.35.06,36.79.1,62.58l-.26-.26h5.69l-.26.26v-4.89c0-22,0-42.24.06-57.67v-.15l.14,0a6.93,6.93,0,0,0,4.78-7c0-2.89,0-5.54,0-7.91l.14.15-11.35-.08-3,0h-.79Z" style="fill:#263238"></path><path d="M198,241.63a3.47,3.47,0,0,0,4.28-.06,5.33,5.33,0,0,0,1.83-4.11,12.22,12.22,0,0,0-1-4.51,36.06,36.06,0,0,1-1.53-4.38,2.26,2.26,0,0,0-.73-1.46c-.66-.44-1.56,0-2.13.57a8.77,8.77,0,0,0-2.43,4.81,17.24,17.24,0,0,0,0,5.46c.25,1.81.69,3.38,2.24,4.07" style="fill:#FF725E"></path><path d="M200.11,236.58a34.3,34.3,0,0,1,0,8.59,35.61,35.61,0,0,1,0-8.59Z" style="fill:#263238"></path></g><g id="freepik--Characters--inject-132"><path d="M364.35,163.93c-16.9-8.25-25.15,1-28.8,6.1s-5.33,11.33-6.94,17.41c-7.13,26.86-3.44,53.49-2,81.24.65,12.63-7.79,26.06-9.39,38.61-.83,6.49-2.62,13.58.73,19.21,2.66,4.48,7.88,6.67,12.74,8.57l73.55,28.72Z" style="fill:#263238"></path><path d="M335.32,185.29c2.28-11.52,16.29-21.49,27.66-18.74l36.46,12.07-1,6.24-11.86,80.56L344.5,276.81l.91-28.95s-14.46-4.41-15-24.19C330.21,213.84,332.8,198.1,335.32,185.29Z" style="fill:#ffbe9d"></path><path d="M336.54,200.08a2.5,2.5,0,0,0,2,2.82,2.4,2.4,0,0,0,2.85-1.91,2.51,2.51,0,0,0-2.05-2.82A2.39,2.39,0,0,0,336.54,200.08Z" style="fill:#263238"></path><path d="M337.64,194c.27.37,2.33-.78,5-.42s4.43,2,4.77,1.66c.16-.13-.08-.75-.85-1.49a6.78,6.78,0,0,0-3.76-1.73,6.56,6.56,0,0,0-4,.74C337.87,193.25,337.51,193.8,337.64,194Z" style="fill:#263238"></path><path d="M360.7,203.75a2.49,2.49,0,0,0,2.05,2.82,2.4,2.4,0,0,0,2.85-1.9,2.51,2.51,0,0,0-2.05-2.83A2.39,2.39,0,0,0,360.7,203.75Z" style="fill:#263238"></path><path d="M362.53,198.34c.26.36,2.32-.78,5-.42s4.44,2,4.77,1.66c.16-.13-.07-.75-.84-1.49a6.85,6.85,0,0,0-3.77-1.73,6.58,6.58,0,0,0-4,.74C362.75,197.62,362.39,198.17,362.53,198.34Z" style="fill:#263238"></path><path d="M351.45,216.46c0-.15-1.58-.65-4.22-1.35-.67-.16-1.29-.38-1.35-.86a3.54,3.54,0,0,1,.73-2q1.27-2.35,2.7-4.94c3.77-7,6.6-12.85,6.32-13s-3.57,5.43-7.35,12.46c-.91,1.74-1.79,3.39-2.62,5a4,4,0,0,0-.71,2.63,1.75,1.75,0,0,0,1,1.15,4.29,4.29,0,0,0,1.13.31C349.75,216.38,351.42,216.62,351.45,216.46Z" style="fill:#263238"></path><path d="M345.41,247.86a49.41,49.41,0,0,0,26.76-3.51s-7.85,12.9-26.92,8.55Z" style="fill:#eb996e"></path><path d="M351.72,223.06a4.83,4.83,0,0,1,4.54-1.23,4.46,4.46,0,0,1,2.81,2,2.84,2.84,0,0,1-.21,3.22,3.25,3.25,0,0,1-3.61.42,10,10,0,0,1-3.13-2.48,2.91,2.91,0,0,1-.66-.9.89.89,0,0,1,.14-1" style="fill:#eb996e"></path><path d="M359,219.35c-.43-.09-.82,2.82-3.57,4.55s-5.78,1-5.85,1.41c-.07.18.61.66,1.9.86a7.2,7.2,0,0,0,4.87-1,6.41,6.41,0,0,0,2.81-3.84C359.47,220.12,359.24,219.36,359,219.35Z" style="fill:#263238"></path><path d="M361.06,190.47c.21.75,2.91.59,6,1.18s5.6,1.64,6.07,1c.2-.3-.19-1-1.16-1.8a10.69,10.69,0,0,0-9.22-1.67C361.59,189.58,361,190.11,361.06,190.47Z" style="fill:#263238"></path><path d="M337.72,186.6c.43.68,2.54.31,5,.61s4.44,1,5,.42c.25-.28,0-.93-.82-1.62a7.85,7.85,0,0,0-8-.83C337.89,185.69,337.53,186.28,337.72,186.6Z" style="fill:#263238"></path><path d="M374.92,212.37c-.32-.91-1.41-1.26-2.36-1.43a35.72,35.72,0,0,0-7.15-.53,8.47,8.47,0,0,0-2.66.37,3.3,3.3,0,0,0-2,1.72c-.35.82.3,1.71,1,2.24,3,1.51,6.54,1,9.84.52a5.72,5.72,0,0,0,2.38-.74A2,2,0,0,0,374.92,212.37Z" style="fill:#ffad8a"></path><path d="M338.09,206.9a1.27,1.27,0,0,1,.18.06h.05Z" style="fill:#ffad8a"></path><path d="M341.85,209.3a7.35,7.35,0,0,0-3.58-2.34,6.15,6.15,0,0,0-3.12-.22c-1.4.23-2.68,1.18-2.57,2.35a2.62,2.62,0,0,0,1.56,1.89,7.51,7.51,0,0,0,2.75.67,15.5,15.5,0,0,0,4.31-.26,1.87,1.87,0,0,0,.86-.33C342.6,210.62,342.29,209.84,341.85,209.3Z" style="fill:#ffad8a"></path><path d="M410.23,364.47a27,27,0,0,0,22.5-17.91c1.86-5.57,1.8-11.57,1.73-17.44-.12-9.32-.24-18.68-1.68-27.9-2.13-13.73-7.13-26.84-10.79-40.25-6.53-23.88-8.85-48.76-15.31-72.66-2.44-9-5.8-18.37-13-24.27-9.59-7.8-29.62-9.48-36.62-.95,0,0,16.88,28.63,24.83,47.66,10.38,24.81-14.15,42.87,7.88,65.14C408.34,294.69,410.23,364.47,410.23,364.47Z" style="fill:#263238"></path><path d="M385.82,251.93s16.61,7.13,23.68,21.11c6.6,13,9.43,31.61,8.61,57.79-.95,30.15,5.69,37.07,5.69,37.07s9.08,10.54,25.89,33.84C467.66,426.63,469,469,469,469h-96l-25-110.12S331.33,335.36,331,323.4s13.49-47.28,13.49-47.28l41-28.14Z" style="fill:#FF725E"></path><g style="opacity:0.30000000000000004"><path d="M377.61,330.4a262.63,262.63,0,0,1-30.16,32.41h1a110.06,110.06,0,0,0,57.19-70.67C396.8,304,386.69,318.79,377.61,330.4Z"></path></g><path d="M407,275.14c-2.52-7.93-14.83-14.33-22.39-10.85-6.34,2.91-10.1,7.56-20.76,23.5-19.47,29.14-31.33,45.68-31.33,45.68l-70.21-31.82-6.67,10L249,322.68s59,37.9,69.18,41.92c8.12,3.21,16.05,6.39,22.91,3.86s13.51-11.52,21.68-20c6.68-6.94,21.19-22.38,28.19-32.9,5.47-8.22,9.67-12.31,14-21.8C408.24,286.46,409.28,282.29,407,275.14Z" style="fill:#ffbe9d"></path><path d="M423.8,367.9a2.26,2.26,0,0,1-.47.25l-1.37.61c-1.2.53-2.93,1.29-5.06,2.26-4.26,1.93-10.09,4.71-16.54,7.78s-12.32,5.8-16.62,7.64c-2.15.93-3.91,1.64-5.13,2.11l-1.41.53a1.64,1.64,0,0,1-.51.15,2.39,2.39,0,0,1,.47-.25l1.37-.61c1.2-.53,2.93-1.29,5.06-2.26,4.26-1.93,10.1-4.71,16.55-7.78s12.31-5.8,16.61-7.64c2.15-.93,3.91-1.65,5.13-2.12l1.41-.52A1.64,1.64,0,0,1,423.8,367.9Z" style="fill:#263238"></path><path d="M336.81,355.12c-.08,0,0-1.26-.09-3.26a48.62,48.62,0,0,0-.87-7.78,49.69,49.69,0,0,0-2.15-7.52c-.71-1.88-1.23-3-1.16-3.05s.2.25.47.74.63,1.24,1,2.17a39.19,39.19,0,0,1,2.32,7.56,38.76,38.76,0,0,1,.73,7.87c0,1-.06,1.84-.13,2.4A2.7,2.7,0,0,1,336.81,355.12Z" style="fill:#eb996e"></path><path d="M425.35,412.22a9.32,9.32,0,0,1-.92-1.37l-2.37-3.79c-2-3.2-4.83-7.59-8.12-12.32s-6.41-8.92-8.71-11.91l-2.72-3.55a8.63,8.63,0,0,1-1-1.34,10.2,10.2,0,0,1,1.11,1.21c.7.8,1.68,2,2.86,3.45,2.38,2.94,5.55,7.1,8.85,11.84s6.08,9.17,8,12.42c1,1.63,1.73,3,2.23,3.89A10.38,10.38,0,0,1,425.35,412.22Z" style="fill:#263238"></path><path d="M424.19,385.57a21.3,21.3,0,0,1-2.37-1.65c-1.44-1.05-3.46-2.47-5.77-3.91s-4.46-2.63-6-3.47a20.09,20.09,0,0,1-2.53-1.4,13.58,13.58,0,0,1,2.7,1.07,61.16,61.16,0,0,1,6.15,3.36,58.42,58.42,0,0,1,5.71,4.05A12.69,12.69,0,0,1,424.19,385.57Z" style="fill:#263238"></path><path d="M361.16,287.19l36.95,21.93s23.28-29.86,2.5-43.86C380.94,252,361.16,287.19,361.16,287.19Z" style="fill:#FF725E"></path><path d="M398.11,309.12a11.17,11.17,0,0,1-1.49-.78l-4-2.29-13-7.75-13-7.74-3.94-2.34a9.64,9.64,0,0,1-1.41-.92,12.48,12.48,0,0,1,1.51.74c1,.51,2.33,1.26,4,2.2,3.38,1.89,8,4.58,13.08,7.62s9.63,5.83,12.92,7.87l3.88,2.44A9.5,9.5,0,0,1,398.11,309.12Z" style="fill:#263238"></path><path d="M377.93,267.48c.05.06-1,1-2.68,2.65a75.2,75.2,0,0,0-6,6.85c-2.17,2.82-4.07,5.43-5.52,7.26-.72.92-1.32,1.65-1.75,2.15a3.72,3.72,0,0,1-.7.73,30.87,30.87,0,0,1,2.16-3.1c1.37-1.89,3.22-4.53,5.4-7.36a57.39,57.39,0,0,1,6.12-6.79c.87-.79,1.58-1.41,2.1-1.81A3.84,3.84,0,0,1,377.93,267.48Z" style="fill:#263238"></path><path d="M415.38,259c-1.9-7.93-3.94-15.72-6.18-23.56-3.26-11.47-3.23-24.22-8.55-34.65l1-8c.63-4.89,1.23-10-.58-14.62a18.59,18.59,0,0,0-8.73-9.18A38.23,38.23,0,0,0,380,165.29a82.13,82.13,0,0,0-22.53-.29l-.39,1.09c3.79,8.14,7.72,16.5,14.24,22.68,2.75,2.6,5.95,4.81,8.06,7.95a95.9,95.9,0,0,1,5,8.71,12.13,12.13,0,0,1,.85,2.13,67.7,67.7,0,0,1,1,8.2c0,1.92,0,3.91-.05,5.87A33,33,0,0,1,382.53,235c-2.8,5.22-7.17,9.38-11,13.87s-7.37,9.7-7.82,15.6c-.17,2.22.2,4.66,1.82,6.18s4.5,1.74,6.75.93a23.47,23.47,0,0,0,6-3.82,26.61,26.61,0,0,1,12.88-5.62c7.24-1.08,13.69,1.64,16.62,5.77a41,41,0,0,1,4.79,8.35c.63,1.35,2.73-8.91,3.47-10.21C417.37,263.73,416,261.47,415.38,259Z" style="fill:#263238"></path><path d="M410.35,214.66a4.5,4.5,0,0,1,0-.76c0-.5,0-1.24-.06-2.18a25.64,25.64,0,0,0-1.89-7.72,35.53,35.53,0,0,0-6.36-9.91,66.57,66.57,0,0,0-11-9.45c-4.21-3-8.36-5.66-12-8.33a66.37,66.37,0,0,1-9-7.79,37.82,37.82,0,0,1-4.9-6.37c-.48-.82-.83-1.47-1-1.92a3.61,3.61,0,0,1-.31-.7,4.64,4.64,0,0,1,.4.65c.24.43.62,1.06,1.12,1.86a40.88,40.88,0,0,0,5,6.23,70.76,70.76,0,0,0,9.05,7.66c3.61,2.63,7.77,5.28,12,8.29a65.16,65.16,0,0,1,11,9.55,35,35,0,0,1,6.34,10.1,24.33,24.33,0,0,1,1.75,7.84,15.92,15.92,0,0,1,0,2.19A3.51,3.51,0,0,1,410.35,214.66Z" style="fill:#455a64"></path><path d="M130.19,188.45c-1.36-7.79-2.68-15.63-2.69-23.53S128.89,149,132.66,142c.57-1.06,5.15-8,6.32-7.73.83.2-2.33,6.85-2,7.65,3.08,7.57,3,16.13,1.19,24.11a107.61,107.61,0,0,1-8,22.39" style="fill:#263238"></path><path d="M154.75,284.13c-12.09-2-33.14-40.49-31.42-52.63l10.33-73c2.16-19.7,15.42-34.88,35.06-32.18l1.8.36a35.43,35.43,0,0,1,28.35,38.8c-2,17.07-4.35,35.91-6.24,44.9-3.91,18.61-23.15,17.83-23.15,17.83s-.72,4.35-1.57,9.87C166,250.45,166.39,286,154,284Z" style="fill:#ffbe9d"></path><path d="M169.48,228.19s-11.9-1.63-22.88-12c0,0,3.08,15.19,22,17.18Z" style="fill:#eb996e"></path><path d="M192.16,178.75a2.71,2.71,0,0,1-3.1,2.18,2.6,2.6,0,0,1-2.27-3,2.72,2.72,0,0,1,3.1-2.18A2.6,2.6,0,0,1,192.16,178.75Z" style="fill:#263238"></path><path d="M193.27,172.92c-.4.28-2.12-1.61-5-2.17s-5.25.46-5.49.05c-.13-.19.33-.75,1.38-1.23a7.45,7.45,0,0,1,4.49-.47,7.09,7.09,0,0,1,3.88,2.16C193.29,172.11,193.47,172.8,193.27,172.92Z" style="fill:#263238"></path><path d="M165.15,173.94a2.72,2.72,0,0,1-3.1,2.18,2.59,2.59,0,0,1-2.27-2.94,2.71,2.71,0,0,1,3.1-2.18A2.59,2.59,0,0,1,165.15,173.94Z" style="fill:#263238"></path><path d="M165,168c-.4.28-2.12-1.61-5-2.17s-5.25.46-5.5,0c-.12-.19.34-.75,1.39-1.24a7.5,7.5,0,0,1,4.48-.46,7.09,7.09,0,0,1,3.89,2.16C165.05,167.23,165.23,167.91,165,168Z" style="fill:#263238"></path><path d="M171,192.1c0-.16,1.86-.12,4.82.08.75.07,1.47.06,1.7-.42a3.89,3.89,0,0,0-.06-2.26q-.51-2.87-1.07-6C174.92,175,174,168,174.37,168s1.8,6.82,3.24,15.35c.33,2.1.66,4.1,1,6a4.28,4.28,0,0,1-.18,3,1.89,1.89,0,0,1-1.42.83,5.11,5.11,0,0,1-1.28-.07C172.76,192.61,171,192.27,171,192.1Z" style="fill:#263238"></path><path d="M166.89,157.27c-.53.65-3.16-.66-6.54-1.41s-6.3-.77-6.49-1.59c-.08-.39.62-.94,1.93-1.3a11.63,11.63,0,0,1,9.93,2.29C166.74,156.15,167.13,157,166.89,157.27Z" style="fill:#263238"></path><path d="M193.92,166.08c-.72.54-2.94-.56-5.75-1.1s-5.28-.51-5.7-1.29c-.18-.38.31-1,1.47-1.39a9.21,9.21,0,0,1,4.87-.22,8.94,8.94,0,0,1,4.35,2.15C194,165.08,194.24,165.81,193.92,166.08Z" style="fill:#263238"></path><path d="M132.46,172.6c-.29-.2-12.07-6.32-14.18,6.52s11.21,12.3,11.29,11.94S132.46,172.6,132.46,172.6Z" style="fill:#ffbe9d"></path><path d="M126.45,185.55c0-.05-.25.12-.65.23a2.26,2.26,0,0,1-1.68-.24c-1.28-.72-2.06-3.06-1.75-5.38a7.39,7.39,0,0,1,1.16-3.1,2.6,2.6,0,0,1,2-1.44,1.15,1.15,0,0,1,1.22.83c.11.38,0,.63.05.66s.31-.17.3-.72a1.42,1.42,0,0,0-.37-.88,1.66,1.66,0,0,0-1.19-.53,3.17,3.17,0,0,0-2.66,1.6,7.53,7.53,0,0,0-1.36,3.45c-.35,2.6.58,5.24,2.35,6.08a2.4,2.4,0,0,0,2.1,0C126.38,185.86,126.49,185.58,126.45,185.55Z" style="fill:#eb996e"></path><path d="M193.86,142.87c2.26-.82-2.94-8.53-7.69-11.64-7.19-4.71-18.65-8.7-26.09-7.79-9,1.1-16.75,4.26-22.27,11.4s-8.55,16-9.68,24.94c-.35,2.73-.51,5.61.59,8.13,1.35,3.13,4.52,5.45,3.76,9.35a5.44,5.44,0,0,0,.73,4.13c2,2.87,5.2,1,6.89-1.19,3.61-4.59,4.86-10.56,6-16.29.82-4.07,1.63-8.23,1.09-12.35-.3-2.24-1-4.42-1.16-6.68s.27-4.71,1.9-6.27a8,8,0,0,1,1.21-.9,13.57,13.57,0,0,1,13.7-.46c6.84,3.68,18.61,9.43,22.22,7.47,5.19-2.81,6.66-4.94,6.66-4.94Z" style="fill:#263238"></path><path d="M162.8,192.42c-.18,0-.4.69-.32,1.84a7.24,7.24,0,0,0,1.74,4.13,11.82,11.82,0,0,0,3.41,2.75c1,.53,1.63.75,1.73.6s-.37-.67-1.17-1.39a27.67,27.67,0,0,1-2.92-2.83C163.23,195.18,163.22,192.4,162.8,192.42Z" style="fill:#263238"></path><polygon points="242.69 324.99 186.29 321.34 173.91 281.3 167.72 311.48 161.82 351.92 183.2 355.98 246.91 349.78 242.69 324.99" style="fill:#263238"></polygon><path d="M167.42,242.19s8.81,30.21,8.43,31.75,2.23,24.75-4.9,63.34C164.49,372.22,157,401.83,157,401.83H134.44s24.38-71,26.32-88,5.42-58.59,5.42-58.59Z" style="fill:#263238"></path><path d="M142.14,233.57s11.79,12.43,16.43,16.12a7.15,7.15,0,0,0,8.5.24l-3.55,65.2-18.29,57-21.71-1.08-2.66-93.21Z" style="fill:#e0e0e0"></path><path d="M126.31,210l-10.15,8.62s-15.3,2-25.74,11.71c-11.63,10.82-21.37,34.69-27.95,60.22s-14.31,66.56-17.79,78.55-17.42,82-17.42,82L42,453.75,42.77,469l65.4-.26,37.11-146.41a184.78,184.78,0,0,0,4.84-57.58C147.71,233,126.31,210,126.31,210Z" style="fill:#263238"></path><path d="M137.68,317.32s0-.1,0-.3l.2-.86c.19-.8.45-1.91.79-3.32s.66-3.22,1-5.29.74-4.43,1-7.06a112.29,112.29,0,0,0,.51-18.53,113.65,113.65,0,0,0-3.5-22.42,105.67,105.67,0,0,0-5.67-16.27c-.5-1.26-1.13-2.44-1.55-3.73a5.54,5.54,0,0,1,0-3.95,7.56,7.56,0,0,1,2.39-3,22.37,22.37,0,0,1,3-1.93l.11.4-12.57-.27h-.08l0-.06c-1.4-1.6-2.68-3-3.72-4.33A33.06,33.06,0,0,1,117.2,223c-.61-1-1-1.78-1.28-2.32l-.3-.62a.79.79,0,0,1-.08-.21s0,.06.12.19l.34.6c.29.52.73,1.3,1.35,2.26a36.19,36.19,0,0,0,2.5,3.41c1.06,1.28,2.35,2.68,3.76,4.27l-.12-.05,12.57.17h.8l-.69.39a21.78,21.78,0,0,0-2.94,1.92,7.07,7.07,0,0,0-2.23,2.76,5.1,5.1,0,0,0,0,3.63c.4,1.22,1,2.42,1.55,3.68a105.54,105.54,0,0,1,5.72,16.34,112.35,112.35,0,0,1,3.47,22.52,109.86,109.86,0,0,1-.62,18.6c-.27,2.64-.72,5-1.06,7.08s-.8,3.83-1.13,5.28-.68,2.5-.89,3.29c-.1.35-.18.64-.25.86A.87.87,0,0,1,137.68,317.32Z" style="fill:#455a64"></path><path d="M164.67,331.61a5.48,5.48,0,0,1,.1-.86c.09-.6.22-1.41.38-2.43.35-2.12.81-5.18,1.32-9s1-8.32,1.51-13.36.83-10.6,1-16.44.22-11.4.14-16.47-.31-9.61-.56-13.44-.48-6.91-.68-9q-.13-1.54-.21-2.46a4.65,4.65,0,0,1,0-.86,5.92,5.92,0,0,1,.14.85c.07.61.17,1.42.3,2.45.26,2.13.56,5.22.85,9s.53,8.38.67,13.45.1,10.65-.09,16.5S168.93,301,168.46,306s-1.05,9.58-1.62,13.37-1.08,6.86-1.49,9c-.2,1-.36,1.82-.48,2.42A4.49,4.49,0,0,1,164.67,331.61Z" style="fill:#455a64"></path><path d="M98,389.15l0,.28c0,.21-.07.48-.11.82-.12.77-.28,1.86-.48,3.25-.45,2.87-1.09,7-1.9,12.2l0,.23-.21-.1-46.39-22-2.2-1.05-.26-.12.15-.25,9-15.5.11-.19.21.09c12.67,5.66,23.24,11.26,30.6,15.45,3.68,2.09,6.58,3.82,8.55,5,1,.61,1.72,1.08,2.26,1.41l.57.37.18.13L97.8,389l-.6-.34-2.28-1.31c-2-1.16-4.91-2.85-8.61-4.9-7.4-4.11-18-9.65-30.65-15.27l.31-.1c-2.8,4.86-5.83,10.09-9,15.51l-.12-.36,2.21,1.05,46.31,22.2-.24.13c.87-5.14,1.56-9.25,2-12.1.24-1.4.43-2.49.57-3.26l.16-.85A.92.92,0,0,1,98,389.15Z" style="fill:#455a64"></path><path d="M216.5,315.82l11.88-5.22,6.44-15.91,5.33-6.36s7.31-3.39,9.1-3.6,3.66.76,3.9,2.29c.1.66.38,1.65.38,1.65s5.89-2.22,6.74,3.68c0,0,4.59.14,5.2,5.52l1.88,1a4.39,4.39,0,0,1,2,2.1l2.49,5.51-2.67-1.58-4-.52-4.93,2.53S253,320.72,248.42,323a20.44,20.44,0,0,1-9.58,1.91l-17.73,10.45Z" style="fill:#ffbe9d"></path><path d="M254.94,288.33a6.11,6.11,0,0,1-1.42.51l-3.43,1.2a15.37,15.37,0,0,1-3.58.82,2.92,2.92,0,0,1-1.53-.14,10.41,10.41,0,0,1,1.48-.23,24.31,24.31,0,0,0,3.47-.95c1.34-.45,2.57-.85,3.49-1.05A3.41,3.41,0,0,1,254.94,288.33Z" style="fill:#eb996e"></path><path d="M260.31,292.34a20.19,20.19,0,0,1-4.15,1.76,10,10,0,0,1-3.13.76c-.86,0-1.34-.26-1.32-.31s.51.05,1.29-.06a14,14,0,0,0,3-.88A19,19,0,0,1,260.31,292.34Z" style="fill:#eb996e"></path><path d="M265.45,297.88a11.1,11.1,0,0,1-1.38.11,15.11,15.11,0,0,0-3.21.82,15.54,15.54,0,0,1-3.3.86,2.66,2.66,0,0,1-1.43-.09,8.35,8.35,0,0,1,1.37-.27,29.71,29.71,0,0,0,3.19-1,10.61,10.61,0,0,1,3.36-.7C264.94,297.61,265.47,297.82,265.45,297.88Z" style="fill:#eb996e"></path><path d="M234.82,316.43a22.07,22.07,0,0,1-3.28-2.85,28.32,28.32,0,0,1-3.16-3,13.48,13.48,0,0,1,3.51,2.6A15.38,15.38,0,0,1,234.82,316.43Z" style="fill:#eb996e"></path><path d="M271.8,306.48s-.55-.3-1.53-.81-2.47-1-4.27-1.86h.19l-5.86,3.33.11-.11c-.54,1.07-1.14,2.19-1.79,3.31-1.16,2-2.38,3.89-3.53,5.56a47.6,47.6,0,0,1-3.22,4.32,12.31,12.31,0,0,1-2.79,2.33,4.79,4.79,0,0,1-1.2.59,18,18,0,0,0,3.72-3.16c1-1.15,2-2.69,3.09-4.35s2.32-3.54,3.48-5.55c.65-1.12,1.24-2.22,1.79-3.28l0-.07.08,0,5.88-3.24.1-.05.1.05c1.73.83,3.26,1.41,4.2,2,.48.29.84.54,1.07.71A1.61,1.61,0,0,1,271.8,306.48Z" style="fill:#eb996e"></path><path d="M174.16,318.59c-.14,0,.05-7.21.43-16.08s.8-16.07.94-16.07-.05,7.21-.42,16.09S174.31,318.6,174.16,318.59Z" style="fill:#455a64"></path><path d="M96.52,463.15c0,.14-15.49-2.4-34.54-5.68s-34.48-6.05-34.46-6.2S43,453.68,62.06,457,96.54,463,96.52,463.15Z" style="fill:#455a64"></path><path d="M108,225.37s-30.95-2.31-29.4,44.51,27.53,96,36.82,98,110.28-23.11,110.28-23.11,2.65-26.11-10.17-31.24l-40.91,7.83-1.26,1.51-32.42.29-7.79-37.39S143.24,231.17,108,225.37Z" style="fill:#263238"></path><path d="M108,225.37s.43.07,1.25.24l1.54.32c.62.11,1.3.39,2.09.62l1.25.4,1.33.6c.46.21,1,.41,1.45.66l1.51.88.8.46.78.57c.51.39,1.08.77,1.61,1.22l1.6,1.45c.54.5,1,1.11,1.56,1.68,4.16,4.76,7.37,12.07,8.8,20.92a84,84,0,0,1,1.07,14.31,103.9,103.9,0,0,1-1.31,16.08v-.07c2.34,11.18,5,23.8,7.82,37.39l-.21-.17,32.41-.31-.17.08c.38-.46.82-1,1.25-1.51l.06-.06.08,0,40.92-7.84.07,0,.07,0a13.22,13.22,0,0,1,6.29,5.65,27.3,27.3,0,0,1,3.07,8.12,62.42,62.42,0,0,1,1,17.73l0,.18-.18,0c-9,2.24-18.64,4.55-28.37,6.86-16.87,4-33.37,7.79-49.37,11.15-8,1.66-15.88,3.26-23.67,4.43-1.94.3-3.89.54-5.84.7a16.29,16.29,0,0,1-3,0,6.33,6.33,0,0,1-2.67-1.32,25,25,0,0,1-4-4.13c-1.2-1.49-2.29-3-3.33-4.61a138.13,138.13,0,0,1-10.35-19.37,206,206,0,0,1-7.44-19.34,191.38,191.38,0,0,1-8.26-36.21c-1.34-11.28-1.56-21.69.18-30.59a44.25,44.25,0,0,1,4-11.93A30.51,30.51,0,0,1,90,232.17,26.88,26.88,0,0,1,97,227.56a27.5,27.5,0,0,1,5.91-1.82,23.25,23.25,0,0,1,3.79-.41,9.08,9.08,0,0,1,1.29,0s-.44,0-1.29,0a24,24,0,0,0-3.77.45,27.47,27.47,0,0,0-5.87,1.86,26.75,26.75,0,0,0-7,4.62,30.64,30.64,0,0,0-6.26,8.4A44.61,44.61,0,0,0,80,252.59c-1.7,8.86-1.45,19.24-.09,30.49a192.2,192.2,0,0,0,8.3,36.12,203.25,203.25,0,0,0,7.45,19.29,137.1,137.1,0,0,0,10.33,19.29c1,1.56,2.12,3.1,3.31,4.57a24.1,24.1,0,0,0,4,4,6,6,0,0,0,2.45,1.23,15.94,15.94,0,0,0,2.85,0c1.92-.15,3.86-.39,5.8-.69,7.76-1.18,15.64-2.78,23.63-4.44,16-3.36,32.49-7.16,49.36-11.15,9.73-2.31,19.31-4.62,28.37-6.86l-.2.23a61.66,61.66,0,0,0-.95-17.57,27.06,27.06,0,0,0-3-8,12.71,12.71,0,0,0-6.05-5.44h.14l-40.92,7.82.14-.08c-.44.52-.88,1-1.26,1.51l-.07.08h-.11l-32.42.27h-.17l0-.17L133,285.78v-.07a104.23,104.23,0,0,0,1.34-16,85.66,85.66,0,0,0-1-14.26c-1.4-8.82-4.57-16.1-8.67-20.84-.54-.57-1-1.17-1.55-1.67l-1.57-1.46c-.53-.45-1.09-.82-1.6-1.22l-.77-.56-.79-.47-1.49-.88c-.49-.26-1-.46-1.45-.68l-1.32-.6-1.23-.41c-.79-.24-1.46-.53-2.08-.65l-1.53-.34C108.45,225.48,108,225.37,108,225.37Z" style="fill:#455a64"></path><path d="M133.36,285.19a6.55,6.55,0,0,1-1.36-.37c-.86-.26-2.09-.71-3.58-1.31-3-1.18-7-3.09-11.43-5.28s-8.38-4.15-11.33-5.41c-1.47-.64-2.67-1.14-3.51-1.46a6.58,6.58,0,0,1-1.29-.57,7.17,7.17,0,0,1,1.35.38c.87.26,2.09.71,3.59,1.31,3,1.18,7,3.08,11.43,5.28s8.38,4.15,11.33,5.41c1.47.64,2.67,1.14,3.51,1.46A8,8,0,0,1,133.36,285.19Z" style="fill:#455a64"></path><path d="M110.38,259.74a5.31,5.31,0,0,1,1.08.57c.68.4,1.65,1,2.82,1.77A87.51,87.51,0,0,1,131,276.29c.95,1,1.71,1.9,2.21,2.5a6,6,0,0,1,.74,1,5.4,5.4,0,0,1-.89-.83l-2.32-2.38c-2-2-4.74-4.72-8-7.49s-6.39-5.06-8.68-6.67l-2.73-1.91A5.78,5.78,0,0,1,110.38,259.74Z" style="fill:#455a64"></path><path d="M134.44,351.71c-.14,0,1.33-6.53,3.29-14.49s3.66-14.4,3.79-14.37-1.33,6.52-3.29,14.49S134.58,351.74,134.44,351.71Z" style="fill:#455a64"></path><path d="M124.28,338.32a2.92,2.92,0,0,1,.47-.8c.33-.49.84-1.18,1.5-2a51.37,51.37,0,0,1,12.27-11c.89-.56,1.63-1,2.16-1.27a3.38,3.38,0,0,1,.83-.39,29,29,0,0,1-2.79,2,66.39,66.39,0,0,0-12.18,10.93C125.15,337.34,124.35,338.36,124.28,338.32Z" style="fill:#455a64"></path><path d="M169.47,344.75c-.07-.05.69-1,1.78-2.64a43.41,43.41,0,0,0,3.68-6.71,44.26,44.26,0,0,0,2.41-7.27c.45-1.91.63-3.12.72-3.11a3.15,3.15,0,0,1,0,.86,22.72,22.72,0,0,1-.33,2.33,35.29,35.29,0,0,1-6.14,14.11c-.59.8-1.1,1.42-1.47,1.83S169.5,344.78,169.47,344.75Z" style="fill:#455a64"></path><path d="M113.37,367.42H376.06a9.54,9.54,0,0,1,9.48,8.48L396.37,469H94.62l13.78-97.42A5.05,5.05,0,0,1,113.37,367.42Z" style="fill:#fafafa"></path><path d="M113.37,367.42l-.46,0a5.84,5.84,0,0,0-1.33.32,5.08,5.08,0,0,0-1.85,1.25,5,5,0,0,0-1.32,2.76c-.65,4.71-1.62,11.66-2.87,20.64-2.52,18-6.18,44.06-10.75,76.58l-.17-.2,283.31-.08h18.44l-.25.29c-3-25.63-5.89-50.6-8.68-74.67q-1.05-9-2.08-17.88a9.39,9.39,0,0,0-4.17-7.24,9.17,9.17,0,0,0-4-1.48,17.19,17.19,0,0,0-2.16-.08h-36.3l-117.63,0-78.92-.08-21.4,0-5.55,0c-1.25,0-1.89,0-1.89,0l1.89,0,5.55,0,21.4-.05,78.92-.08,117.63-.06h36.3a16.69,16.69,0,0,1,2.22.09,9.53,9.53,0,0,1,4.19,1.55,9.88,9.88,0,0,1,4.38,7.59q1,8.85,2.09,17.88c2.8,24.07,5.71,49,8.69,74.67l0,.29H377.93l-283.31-.09h-.21l0-.2c4.63-32.51,8.35-58.59,10.91-76.56,1.29-9,2.29-15.92,3-20.63a5,5,0,0,1,1.36-2.79,5,5,0,0,1,1.88-1.24,4.93,4.93,0,0,1,1.34-.3Z" style="fill:#263238"></path><path d="M212,378.51c5,26.35-1.18,53.7-11.23,78.56l10.53-78.81" style="fill:#e0e0e0"></path><path d="M182,459.3c-.14,0,3.81-17.68,8.83-39.4s9.21-39.31,9.35-39.28-3.82,17.67-8.84,39.4S182.18,459.33,182,459.3Z" style="fill:#263238"></path><path d="M202.81,440.85c-.14,0,1.73-14.28,4.18-31.84s4.55-31.78,4.69-31.76-1.72,14.27-4.18,31.84S203,440.87,202.81,440.85Z" style="fill:#263238"></path><path d="M242,448.62c-.14,0,.36-15.12,1.12-33.76s1.51-33.74,1.65-33.73-.36,15.11-1.13,33.75S242.11,448.62,242,448.62Z" style="fill:#263238"></path><path d="M262.79,388a68,68,0,0,0-2.19-8.93l.61,43.94q-.36,8.58-.73,17.14l-.81,19.11A158.34,158.34,0,0,0,262.79,388Z" style="fill:#e0e0e0"></path><path d="M259.67,463.79a5.52,5.52,0,0,1,0-.89c0-.64.06-1.49.1-2.57.07-2.27.17-5.48.3-9.43.22-8,.41-19,.48-31.11s0-23.16-.19-31.12c-.09-4-.19-7.21-.27-9.43,0-1.08-.07-1.93-.1-2.56s0-.9,0-.9a5,5,0,0,1,.11.89c0,.63.11,1.48.19,2.56.14,2.22.3,5.44.43,9.43.28,8,.4,19,.35,31.13s-.31,23.16-.63,31.13c-.16,4-.33,7.2-.47,9.42-.08,1.08-.15,1.93-.19,2.56A7.74,7.74,0,0,1,259.67,463.79Z" style="fill:#263238"></path><path d="M289.71,429.65c-.14,0-.84-11.72-1.57-26.19s-1.19-26.21-1-26.21.84,11.71,1.56,26.19S289.86,429.65,289.71,429.65Z" style="fill:#263238"></path><path d="M297.64,387.72a174,174,0,0,1,8.48,71.06q-4.35-36.48-8.69-72.95" style="fill:#e0e0e0"></path><path d="M300.38,406.87c-.14,0-1.24-6-2.45-13.54s-2.07-13.6-1.93-13.62,1.24,6,2.45,13.54S300.52,406.84,300.38,406.87Z" style="fill:#263238"></path></g><g id="freepik--Glasses--inject-132"><path d="M217.46,366.61l-12.88-2.89s-.07-16.09.12-18.41a5.71,5.71,0,0,1,2-3.73h0c3.85-2.06,8.14-6.41,9.62-9.95,3-7.11,0-18,0-18H187.77s-3,10.88,0,18c1.56,3.75,6.14,8,10.16,9.92h0a5.75,5.75,0,0,1,2.33,3.86c.12,2.33.37,18.47.37,18.47l-12.81,3a.26.26,0,0,0,.06.52h29.49C217.68,367.41,217.76,366.68,217.46,366.61Z" style="fill:#f5f5f5"></path><path d="M217.46,366.61s.1,0,.16.13a.63.63,0,0,1-.05.6.28.28,0,0,1-.2.12h-2.15l-9,.06-14,0-4.2,0a.82.82,0,0,1-.34-.05.46.46,0,0,1-.26-.36.48.48,0,0,1,.19-.42,1.09,1.09,0,0,1,.32-.11l1.08-.25,2.19-.52,9.37-2.23-.17.22c-.07-3.51-.15-7.21-.23-11.07q-.08-2.91-.13-5.92l0-1.51a4,4,0,0,0-.36-1.38,6.19,6.19,0,0,0-1.87-2.26l-.37-.27.42-.16h0l0,.45a24.62,24.62,0,0,1-6-4.29,17.19,17.19,0,0,1-4.43-6.3,21.88,21.88,0,0,1-1.14-7.86,42.78,42.78,0,0,1,.93-8.08c.12-.56.24-1.11.39-1.67l0-.19h15.08v.26h0l-.26-.26h14.15l.05.18a44.56,44.56,0,0,1,1.28,8.74,24,24,0,0,1-.93,8.33,12.74,12.74,0,0,1-1.81,3.61,23.46,23.46,0,0,1-2.49,3,24.35,24.35,0,0,1-5.81,4.5l0,0a5.68,5.68,0,0,0-1.8,2.68,14.68,14.68,0,0,0-.25,3.18q0,3.17-.07,6c0,3.81,0,7.19,0,10.1l-.1-.12,9.55,2.2,2.47.59c.56.13.83.22.83.22s-.29,0-.84-.15l-2.49-.53-9.58-2.08-.1,0v-.1c0-2.91,0-6.29,0-10.1,0-1.91,0-3.92,0-6,0-.53,0-1.06,0-1.61a6.5,6.5,0,0,1,.22-1.67,6.1,6.1,0,0,1,1.92-2.88h0a24,24,0,0,0,5.69-4.45,22.57,22.57,0,0,0,2.43-2.95,12.35,12.35,0,0,0,1.75-3.5,23.72,23.72,0,0,0,.88-8.17,44,44,0,0,0-1.28-8.63l.24.18H202.14v-.25h0l.25.25H187.77l.25-.2c-.14.54-.27,1.1-.38,1.65a42.55,42.55,0,0,0-.92,8,21.11,21.11,0,0,0,1.1,7.67,16.6,16.6,0,0,0,4.3,6.11,24,24,0,0,0,5.92,4.22l.52.25-.54.2h0l0-.43a6.53,6.53,0,0,1,2,2.46,4.38,4.38,0,0,1,.4,1.55l0,1.52c0,2,.08,4,.11,5.92.07,3.87.14,7.57.2,11.08v.17l-.17,0-9.37,2.19-2.2.51L188,367c-.24.06-.21,0-.22.12s0,.07.22.07h4.2l14,.05,9,.06,1.37,0h.54c.17,0,.32,0,.39-.08a.6.6,0,0,0,.07-.55A.23.23,0,0,0,217.46,366.61Z" style="fill:#263238"></path><path d="M202.46,325.35h-14.2s.41,11.63,14,15.79l.31-.09a18.78,18.78,0,0,0,13.72-15.82Z" style="fill:#FF725E"></path><path d="M190.59,330.52a5.57,5.57,0,0,1-1-1.94,18.71,18.71,0,0,1-1.08-5.18,25.52,25.52,0,0,1,.15-5.27,7.37,7.37,0,0,1,.47-2.14c.17,0-.41,3.32-.1,7.37a24,24,0,0,0,.91,5.1C190.31,329.73,190.66,330.48,190.59,330.52Z" style="fill:#fff"></path><path d="M215,327.37a6.57,6.57,0,0,1-.52,2.25,15.31,15.31,0,0,1-2.83,4.79,15.13,15.13,0,0,1-4.35,3.45,6.51,6.51,0,0,1-2.16.82c0-.08.78-.41,2-1.14a17.49,17.49,0,0,0,7-8.06A21.27,21.27,0,0,1,215,327.37Z" style="fill:#fff"></path><path d="M215.09,320.05a7,7,0,0,1,.64,3,6.83,6.83,0,0,1-.24,3.08,15.12,15.12,0,0,1-.28-3A13.43,13.43,0,0,1,215.09,320.05Z" style="fill:#fff"></path><path d="M194.75,335.2c-.1.1-.48-.11-.84-.48s-.58-.74-.48-.84.48.11.85.47S194.86,335.1,194.75,335.2Z" style="fill:#fff"></path><g style="opacity:0.30000000000000004"><path d="M206.7,338.38a9.89,9.89,0,0,1-6-.09,32.28,32.28,0,0,1-5.61-2.49c-.66-.35-1.55-.67-2.1-.15a20.59,20.59,0,0,0,6.57,4.51,18.14,18.14,0,0,0,2.67,1s1.06-.3,1.94-.61a19.5,19.5,0,0,0,6.16-3.69A33.42,33.42,0,0,1,206.7,338.38Z"></path></g><path d="M309.08,366.61l-12.89-2.89s-.07-16.09.12-18.41a5.7,5.7,0,0,1,2-3.73h0c3.85-2.06,8.14-6.41,9.61-9.95,3-7.11,0-18,0-18H279.38s-3,10.88,0,18c1.56,3.75,6.14,8,10.16,9.92h0a5.75,5.75,0,0,1,2.33,3.86c.13,2.33.37,18.47.37,18.47l-12.81,3a.26.26,0,0,0,.06.52H309C309.29,367.41,309.38,366.68,309.08,366.61Z" style="fill:#f5f5f5"></path><path d="M309.08,366.61s.09,0,.16.13a.64.64,0,0,1-.06.6.28.28,0,0,1-.2.12h-2.14l-9,.06-14,0-4.2,0a.86.86,0,0,1-.35-.05.46.46,0,0,1-.26-.36.48.48,0,0,1,.19-.42,1.09,1.09,0,0,1,.32-.11l1.08-.25,2.2-.52,9.36-2.23-.17.22c-.07-3.51-.15-7.21-.23-11.07q-.06-2.91-.13-5.92l0-1.51a4,4,0,0,0-.36-1.38,6.09,6.09,0,0,0-1.87-2.26l-.36-.27.41-.16h0l0,.45a24.25,24.25,0,0,1-6.05-4.29,17.09,17.09,0,0,1-4.44-6.3,21.88,21.88,0,0,1-1.14-7.86,43.62,43.62,0,0,1,.93-8.08c.12-.56.24-1.11.39-1.67l.05-.19h15.08v.26h0l-.25-.26h14.14l.05.18a44.56,44.56,0,0,1,1.28,8.74,24,24,0,0,1-.93,8.33,12.74,12.74,0,0,1-1.81,3.61,25.42,25.42,0,0,1-8.3,7.5l0,0a5.66,5.66,0,0,0-1.79,2.68,14.09,14.09,0,0,0-.26,3.18c0,2.11-.05,4.12-.07,6,0,3.81,0,7.19,0,10.1l-.1-.12,9.55,2.2,2.47.59c.56.13.84.22.84.22s-.29,0-.85-.15l-2.49-.53-9.58-2.08-.1,0v-.1c0-2.91,0-6.29,0-10.1q0-2.87,0-6c0-.53,0-1.06,0-1.61a7,7,0,0,1,.21-1.67,6.1,6.1,0,0,1,1.92-2.88h0A24.26,24.26,0,0,0,304,337a22.5,22.5,0,0,0,2.42-2.95,12.35,12.35,0,0,0,1.75-3.5,23.72,23.72,0,0,0,.88-8.17,44,44,0,0,0-1.28-8.63l.24.18H293.75v-.25h0l.25.25H279.38l.25-.2c-.14.54-.26,1.1-.38,1.65a43.39,43.39,0,0,0-.92,8,21.33,21.33,0,0,0,1.1,7.67,16.62,16.62,0,0,0,4.31,6.11,23.8,23.8,0,0,0,5.91,4.22l.52.25-.54.2h0l.05-.43a6.53,6.53,0,0,1,2,2.46,4.18,4.18,0,0,1,.4,1.55l0,1.52c0,2,.08,4,.11,5.92.08,3.87.14,7.57.21,11.08v.17l-.17,0-9.37,2.19-2.2.51-1.08.25c-.23.06-.21,0-.22.12s0,.07.23.07h4.2l14,.05,9,.06,1.37,0h.54c.17,0,.33,0,.39-.08a.64.64,0,0,0,.08-.55C309.16,366.63,309.07,366.62,309.08,366.61Z" style="fill:#263238"></path><path d="M294.07,325.35h-14.2s.42,11.63,14,15.79l.31-.09a18.76,18.76,0,0,0,13.72-15.82Z" style="fill:#FF725E"></path><path d="M282.2,330.52a5.78,5.78,0,0,1-1-1.94,18.71,18.71,0,0,1-1.08-5.18,25.43,25.43,0,0,1,.16-5.27,7.2,7.2,0,0,1,.46-2.14c.17,0-.4,3.32-.1,7.37a24,24,0,0,0,.91,5.1C281.92,329.73,282.27,330.48,282.2,330.52Z" style="fill:#fff"></path><path d="M306.6,327.37a6.38,6.38,0,0,1-.51,2.25,15.51,15.51,0,0,1-2.83,4.79,15.29,15.29,0,0,1-4.36,3.45,6.51,6.51,0,0,1-2.15.82c0-.08.77-.41,2-1.14a17.77,17.77,0,0,0,4.14-3.48,17.42,17.42,0,0,0,2.88-4.58C306.3,328.2,306.52,327.35,306.6,327.37Z" style="fill:#fff"></path><path d="M306.7,320.05a6.86,6.86,0,0,1,.64,3,7.09,7.09,0,0,1-.23,3.08,13.91,13.91,0,0,1-.29-3A14.15,14.15,0,0,1,306.7,320.05Z" style="fill:#fff"></path><path d="M286.37,335.2c-.11.1-.48-.11-.85-.48s-.58-.74-.48-.84.48.11.85.47S286.47,335.1,286.37,335.2Z" style="fill:#fff"></path><g style="opacity:0.30000000000000004"><path d="M298.31,338.38a9.89,9.89,0,0,1-6-.09,32.18,32.18,0,0,1-5.6-2.49c-.67-.35-1.56-.67-2.1-.15a20.55,20.55,0,0,0,6.56,4.51,17.8,17.8,0,0,0,2.68,1s1.05-.3,1.93-.61a19.5,19.5,0,0,0,6.16-3.69A33.42,33.42,0,0,1,298.31,338.38Z"></path></g></g></svg>