<svg xmlns="http://www.w3.org/2000/svg" viewBox="0 0 500 500"><g id="freepik--Floor--inject-69"><path id="freepik--floor--inject-69" d="M420.74,447.06c94.3-58.06,94.3-152.2,0-210.26s-247.18-58.06-341.48,0S-15,389,79.26,447.06,326.44,505.12,420.74,447.06Z" style="fill:#f5f5f5"></path></g><g id="freepik--Shadows--inject-69"><ellipse id="freepik--Shadow--inject-69" cx="404.32" cy="366.21" rx="56.67" ry="32.72" style="fill:#e0e0e0"></ellipse><ellipse id="freepik--shadow--inject-69" cx="92.83" cy="358.96" rx="56.67" ry="32.72" style="fill:#e0e0e0"></ellipse><ellipse id="freepik--shadow--inject-69" cx="193.38" cy="422.81" rx="46.31" ry="26.73" style="fill:#e0e0e0"></ellipse><ellipse id="freepik--shadow--inject-69" cx="288.17" cy="382.96" rx="46.31" ry="26.73" style="fill:#e0e0e0"></ellipse></g><g id="freepik--Garlands--inject-69"><g id="freepik--Flags--inject-69"><g id="freepik--flags--inject-69"><path d="M41.36,116.32s1.66,16.79.32,21.53,10.46-13.47,12.53-24.57C54.21,113.28,45.57,115.2,41.36,116.32Z" style="fill:#f5f5f5"></path><path d="M84.49,105s1.41,14.34.07,19.08,9.71-12.22,11.79-23.32C96.35,100.75,87.76,103.84,84.49,105Z" style="fill:#f5f5f5"></path><path d="M64.18,110.71s.39,15-1.18,19.68,10.41-12.31,13-23.3C76,107.09,68.35,109.59,64.18,110.71Z" style="fill:#e0e0e0"></path><path d="M105.52,97.68s1.2,14.11-.12,18.86S115,104.47,117,93.36C117,93.36,110.42,96,105.52,97.68Z" style="fill:#e0e0e0"></path><path d="M125.82,89.78s2.07,15.52,1.69,20.43S138,95.57,137.82,84.27C137.82,84.27,129.73,87.86,125.82,89.78Z" style="fill:#f5f5f5"></path><path d="M165.86,70.17s2,15.68,1.6,20.58,9.35-15.78,9.2-27.08C176.66,63.67,168.85,68.4,165.86,70.17Z" style="fill:#f5f5f5"></path><path d="M147.08,79.79s1,15.47.38,20.35,10.13-15,10.53-26.25C158,73.89,151,77.86,147.08,79.79Z" style="fill:#e0e0e0"></path><path d="M203.19,46.89s5.73,15.6,6.33,20.49,6.74-17.22,4.36-28.27C213.88,39.11,206.65,44.23,203.19,46.89Z" style="fill:#f5f5f5"></path><path d="M221.1,33.62s5.07,15,5.69,19.9,5.83-17.29,3.41-28.32C230.2,25.2,224.37,30.79,221.1,33.62Z" style="fill:#e0e0e0"></path><path d="M185,58.85s3,15.58,2.67,20.49,8-15.7,7.76-27C195.47,52.35,189.51,56.26,185,58.85Z" style="fill:#e0e0e0"></path><path d="M239.8,15.26C233.08,22.19,215,39.5,185,58.4c-33.62,21.19-89,48.47-165.9,61.72v1c77.13-13.27,132.75-40.65,166.47-61.92,30.93-19.5,49.26-37.41,55.52-44Z" style="fill:#f5f5f5"></path></g><g id="freepik--flags--inject-69"><path d="M25,75.73s.57,15.37-.24,20.54C24,101.13,35,84.5,37.09,73.41,37.09,73.41,28,75.28,25,75.73Z" style="fill:#e0e0e0"></path><path d="M45.42,71.76s1.66,16.8.33,21.53S56.2,79.83,58.28,68.72C58.28,68.72,49.64,70.64,45.42,71.76Z" style="fill:#f5f5f5"></path><path d="M88.55,60.43s1.41,14.34.07,19.08,9.72-12.21,11.79-23.32C100.41,56.19,91.83,59.28,88.55,60.43Z" style="fill:#f5f5f5"></path><path d="M68.24,66.15s.39,15-1.17,19.68,10.4-12.31,13-23.3C80.1,62.53,72.41,65,68.24,66.15Z" style="fill:#e0e0e0"></path><path d="M109.58,53.12s1.2,14.11-.12,18.86,9.6-12.07,11.63-23.18C121.09,48.8,114.48,51.46,109.58,53.12Z" style="fill:#e0e0e0"></path><path d="M129.88,45.23s2.07,15.51,1.69,20.42S142,51,141.88,39.71C141.88,39.71,133.79,43.3,129.88,45.23Z" style="fill:#f5f5f5"></path><path d="M169.93,25.61s2,15.68,1.59,20.59,9.36-15.79,9.2-27.09C180.72,19.11,172.91,23.84,169.93,25.61Z" style="fill:#f5f5f5"></path><path d="M151.15,35.23s1,15.47.37,20.35,10.13-14.95,10.53-26.24C162.05,29.34,155,33.3,151.15,35.23Z" style="fill:#e0e0e0"></path><path d="M186.79,15.26c-34.43,21.35-90.43,48.3-167.69,61v1c78.52-12.87,135.17-40.45,169.57-62Z" style="fill:#f5f5f5"></path></g><g id="freepik--flags--inject-69"><path d="M479,120.29s-.57,15.37.24,20.54c.77,4.86-10.17-11.77-12.31-22.86C467,118,476.11,119.84,479,120.29Z" style="fill:#e0e0e0"></path><path d="M458.64,116.32s-1.66,16.79-.32,21.53-10.46-13.47-12.53-24.57C445.79,113.28,454.43,115.2,458.64,116.32Z" style="fill:#f5f5f5"></path><path d="M415.51,105s-1.41,14.34-.07,19.08-9.71-12.22-11.79-23.32C403.65,100.75,412.24,103.84,415.51,105Z" style="fill:#f5f5f5"></path><path d="M435.82,110.71s-.39,15,1.18,19.68-10.41-12.31-13-23.3C424,107.09,431.65,109.59,435.82,110.71Z" style="fill:#e0e0e0"></path><path d="M394.48,97.68s-1.2,14.11.12,18.86S385,104.47,383,93.36C383,93.36,389.58,96,394.48,97.68Z" style="fill:#e0e0e0"></path><path d="M374.18,89.78s-2.07,15.52-1.69,20.43S362,95.57,362.18,84.27C362.18,84.27,370.27,87.86,374.18,89.78Z" style="fill:#f5f5f5"></path><path d="M334.14,70.17s-2,15.68-1.6,20.58-9.35-15.78-9.2-27.08C323.34,63.67,331.15,68.4,334.14,70.17Z" style="fill:#f5f5f5"></path><path d="M352.92,79.79s-1,15.47-.38,20.35-10.13-15-10.53-26.25C342,73.89,349.05,77.86,352.92,79.79Z" style="fill:#e0e0e0"></path><path d="M296.81,46.89s-5.73,15.6-6.33,20.49-6.74-17.22-4.36-28.27C286.12,39.11,293.35,44.23,296.81,46.89Z" style="fill:#f5f5f5"></path><path d="M278.9,33.62s-5.07,15-5.69,19.9-5.83-17.29-3.41-28.32C269.8,25.2,275.63,30.79,278.9,33.62Z" style="fill:#e0e0e0"></path><path d="M315,58.85s-3,15.58-2.67,20.49-8-15.7-7.76-27C304.53,52.35,310.49,56.26,315,58.85Z" style="fill:#e0e0e0"></path><path d="M260.2,15.26C266.92,22.19,285,39.5,315,58.4c33.62,21.19,89.05,48.47,165.9,61.72v1c-77.13-13.27-132.75-40.65-166.47-61.92-30.93-19.5-49.26-37.41-55.52-44Z" style="fill:#f5f5f5"></path></g><g id="freepik--flags--inject-69"><path d="M475,75.73s-.57,15.37.24,20.54c.77,4.86-10.17-11.77-12.31-22.86C462.91,73.41,472,75.28,475,75.73Z" style="fill:#e0e0e0"></path><path d="M454.58,71.76s-1.66,16.8-.33,21.53S443.8,79.83,441.72,68.72C441.72,68.72,450.36,70.64,454.58,71.76Z" style="fill:#f5f5f5"></path><path d="M411.45,60.43s-1.41,14.34-.07,19.08-9.72-12.21-11.79-23.32C399.59,56.19,408.17,59.28,411.45,60.43Z" style="fill:#f5f5f5"></path><path d="M431.76,66.15s-.39,15,1.17,19.68-10.4-12.31-13-23.3C419.91,62.53,427.59,65,431.76,66.15Z" style="fill:#e0e0e0"></path><path d="M390.42,53.12s-1.2,14.11.12,18.86-9.6-12.07-11.63-23.18C378.91,48.8,385.52,51.46,390.42,53.12Z" style="fill:#e0e0e0"></path><path d="M370.12,45.23s-2.07,15.51-1.69,20.42S358,51,358.12,39.71C358.12,39.71,366.21,43.3,370.12,45.23Z" style="fill:#f5f5f5"></path><path d="M330.07,25.61s-2,15.68-1.59,20.59-9.36-15.79-9.2-27.09C319.28,19.11,327.09,23.84,330.07,25.61Z" style="fill:#f5f5f5"></path><path d="M348.85,35.23s-1,15.47-.37,20.35S338.35,40.63,338,29.34C338,29.34,345,33.3,348.85,35.23Z" style="fill:#e0e0e0"></path><path d="M313.21,15.26c34.43,21.35,90.43,48.3,167.69,61v1c-78.52-12.87-135.17-40.45-169.57-62Z" style="fill:#f5f5f5"></path></g></g></g><g id="freepik--character-4--inject-69"><g id="freepik--Character--inject-69"><g id="freepik--Bottom--inject-69"><path d="M438.51,344.23c-.84-11.57.46-20.43-.5-38.49h0c-.09-4.63-.26-9.59-.57-14-1-14.83-3.33-19.89-3.54-22.75,0,0-.39-23.07-1.36-55.5-.45-15.25-4.87-19.87-8.41-28h-42c-4.69,20-6,63.56-5.88,84.15.07,10.5,4.31,66.67,4.39,68,.3,4.59-.1,6.39-1.89,8.32-3.77,4-9.22,7.88-13.93,11.4.68,1.8,6.35,1.74,9.16.37a71.56,71.56,0,0,0,10.46-6.68c3.87-2.86,8.82-5.16,8.89-9.53a3.86,3.86,0,0,1,.13-.78c.07-2.54,6-40.12,6.5-48.84.43-7.49-.48-20.21-.48-20.21l4.83-31.76s3,18.77,6,31.59c2.46,10.43,6.51,28.23,9.27,41.07h0c2.65,14.79,6.55,25.31,7.23,32.72.2,1.77,2.2,19.12,3,23.09s9.49,4.08,10-2.76C440.26,361.09,438.67,346.41,438.51,344.23Z" style="fill:#c8856a"></path><path d="M404.32,239.93,400.79,217s-13.67-1.62-18.65-6.4c0,0,6.27,8.85,15.55,10.29l3.9,19-2.06,31.51Z" style="fill:#9a4a4d"></path><path d="M356.8,362a3.73,3.73,0,0,0,.66,3.77c1.49,1.32,5.88,3.49,11.72,2.8s9-2.46,11.37-4.39,5.65-4.64,8.29-5.2c2.46-.51,5.13-1.59,5.92-2.34s.72-4.12.72-4.12Z" style="fill:#263238"></path><path d="M393.59,339.51s.44,0,.58.8.34,3.63.7,5.16a26.93,26.93,0,0,1,.49,8.18c-.34,1.72-4.35,2.88-6.91,3.82a32.66,32.66,0,0,0-8.32,5.13,24,24,0,0,1-12.35,4.45c-5.8,0-9.54-1.59-10.68-3.68-1.41-2.6-.27-4.08,6.43-7.1,1.27-.57,5.73-3.15,7.25-4.08a34,34,0,0,0,4.57-3.33,25.78,25.78,0,0,0,2.06-2,9,9,0,0,0,1.71-2.14c.08-.17.13-.38.2-.56a9.29,9.29,0,0,0,.45-1.56c.12-.55.19-1.36.72-1.68a4.4,4.4,0,0,1,2.39-.26,18.54,18.54,0,0,1,2.57.39c1,.23,2.11.33,2.68,1.26a4.79,4.79,0,0,1,.52,2.42c0,.39,0,.78,0,1.17,0,.17-.07.46.16.4s.48-.64.56-.84c.19-.44.32-.9.52-1.33a7.69,7.69,0,0,1,.85-1.4,6,6,0,0,1,1.07-1.06A11.06,11.06,0,0,0,393,341,2.7,2.7,0,0,0,393.59,339.51Z" style="fill:#37474f"></path><path d="M362.45,356.77c8.39.67,11,5.88,11.3,9.09a19.42,19.42,0,0,1-6,1.19c-5.8,0-9.78-1.59-10.92-3.68C355.53,360.92,356.47,359,362.45,356.77Z" style="fill:#fafafa"></path><path d="M375,357a.43.43,0,0,0,.26-.09.41.41,0,0,0,.06-.58,9.87,9.87,0,0,0-7.56-3.07.41.41,0,0,0-.37.45.41.41,0,0,0,.45.36,9.13,9.13,0,0,1,6.84,2.78A.41.41,0,0,0,375,357Z" style="fill:#f0f0f0"></path><path d="M378.68,354.92a.43.43,0,0,0,.26-.09.41.41,0,0,0,.06-.58,9.83,9.83,0,0,0-7.56-3.07.41.41,0,0,0-.37.45.42.42,0,0,0,.45.37,9.09,9.09,0,0,1,6.84,2.77A.41.41,0,0,0,378.68,354.92Z" style="fill:#f0f0f0"></path><path d="M382.06,352.55a.43.43,0,0,0,.26-.09.42.42,0,0,0,.06-.58,9.9,9.9,0,0,0-7.56-3.07.41.41,0,0,0-.37.45.4.4,0,0,0,.45.36,9.15,9.15,0,0,1,6.84,2.78A.41.41,0,0,0,382.06,352.55Z" style="fill:#f0f0f0"></path><path d="M385.36,350.18a.43.43,0,0,0,.26-.09.4.4,0,0,0,.07-.57c-1.58-2-5.2-3.43-8.26-3.13a.41.41,0,0,0,.08.82c2.75-.27,6.13,1,7.53,2.81A.42.42,0,0,0,385.36,350.18Z" style="fill:#f0f0f0"></path><path d="M427.13,371.5c.23,4,.84,6.58,2.25,8.91s4.06,3,6.74,2.37,6.13-2.5,6.9-5.92,1.21-5.75.6-9.43Z" style="fill:#263238"></path><path d="M438.42,342.82c1.1.08,1.43,5.4,2.07,10.72.68,5.71,2.39,8.07,3,12.75.69,5.35-.19,7.74-2.06,11s-8.51,6.41-11.78,1.78c-2.66-3.78-2.77-8-2.53-13.3a118,118,0,0,0-.36-13.53c-.21-4-1.1-8-.14-8.49.08.59.15,1.34.23,1.91a9.13,9.13,0,0,0,.36,2.14c.11.3.35.61.46.12a3.29,3.29,0,0,0,0-1c-.16-1.48.59-1.6,1-1.71a49.08,49.08,0,0,1,5.13-.73c.84-.06,3.76-.18,4.14.3a3.24,3.24,0,0,1,.37,1.54c.1.81.28,1.4.31,1.15,0-.58-.06-2.08-.08-2.44s-.07-.82-.07-1.17S438.44,343.16,438.42,342.82Z" style="fill:#37474f"></path><path d="M443.79,369.39a13.33,13.33,0,0,1-2.07,8.13c-1.87,3.23-9,6.41-12.3,1.78-1.63-2.3-2.07-5-2.29-7.81C429.09,367.93,440.7,366.35,443.79,369.39Z" style="fill:#fafafa"></path><path d="M429.54,365.68a.33.33,0,0,0,.14,0,18.88,18.88,0,0,1,10.15-1,.41.41,0,1,0,.18-.8,19.26,19.26,0,0,0-10.68,1,.42.42,0,0,0-.2.55A.41.41,0,0,0,429.54,365.68Z" style="fill:#f0f0f0"></path><path d="M439.58,360.67a.42.42,0,0,0,.35-.27.41.41,0,0,0-.26-.52c-5-1.68-10.46.84-10.67.95a.4.4,0,0,0-.17.55.41.41,0,0,0,.55.17c.05,0,5.41-2.47,10-.9A.32.32,0,0,0,439.58,360.67Z" style="fill:#f0f0f0"></path><path d="M439.4,356.92a.43.43,0,0,0,.35-.27.41.41,0,0,0-.25-.53c-5.45-1.95-10.68.8-10.87.92a.41.41,0,1,0,.42.7c.05,0,5.1-2.66,10.17-.85A.4.4,0,0,0,439.4,356.92Z" style="fill:#f0f0f0"></path><path d="M439.13,353.22a.44.44,0,0,0,.35-.27.41.41,0,0,0-.24-.53c-5.12-1.91-10.74.92-10.95,1a.41.41,0,0,0-.15.56.4.4,0,0,0,.56.15c.05,0,5.5-2.76,10.25-1A.38.38,0,0,0,439.13,353.22Z" style="fill:#ebebeb"></path><path d="M425.26,185.66c5,9.07,8.66,16.49,9.17,43.46s.42,34.53.52,37.78,2,9.07,3.67,25.09-.31,35.11-.31,35.11-1.15,2.58-7.27,3.13c-5.65.5-8.45-1.62-8.45-1.62s-7.75-31.2-9.9-40.85-8.37-41.38-8.37-41.38l-3.69,25.74s1.72,8.84,0,22.89-4.76,28.44-4.76,28.44a25.6,25.6,0,0,1-8.68,1.42,16.42,16.42,0,0,1-7.9-2s-4.52-41.8-4.52-57.73,0-54.65,4.19-78.67Z" style="fill:#37474f"></path><path d="M421.69,325c3.29,2.31,13.33,2.39,17-1.88l-.19,6.47s-1.25,2.75-7.4,3.45-8-2.26-8-2.26Z" style="fill:#263238"></path><path d="M379.1,321.23c3,2.69,13.14,3.62,17.25-.19l-1,6.4s-1.57,2.58-7.77,2.55-8-3.26-8-3.26Z" style="fill:#263238"></path><path d="M404.32,246.38l-5-30.62s-10.65-.76-16.57-6.95c2.4,6.58,11.14,11.18,15,12.1L402.2,246l-1.57,26.08Z" style="fill:#263238"></path><path d="M412.7,223.35c.6,4.17,1.1,8.35,1.67,12.53l1.57,12.53c1.1,8.35,2.18,16.69,3.72,24.94s3.16,16.54,4.61,24.83l2.17,12.46c.66,4.16,1.38,8.31,2,12.48-1-4.1-1.87-8.22-2.81-12.33L423,298.44c-1.75-8.25-3.37-16.49-5-24.79s-2.55-16.7-3.34-25.09q-.58-6.3-1.11-12.6C413.26,231.76,412.92,227.56,412.7,223.35Z" style="fill:#263238"></path><path d="M382.71,223.35l-1.38,22-.6,11c-.17,3.65-.38,7.33-.32,10.94s.3,7.3.48,11l.54,11,.52,11c.11,3.67.29,7.33.37,11-.46-3.64-.81-7.29-1.2-10.94l-1-11c-.62-7.32-1.17-14.62-1.42-22,0-7.43.64-14.72,1.32-22q.54-5.49,1.16-11C381.67,230.62,382.12,227,382.71,223.35Z" style="fill:#263238"></path></g><g id="freepik--Top--inject-69"><polygon points="425.19 108.91 425.19 166.78 387.77 166.78 387.77 108.97 425.19 108.91" style="fill:#263238"></polygon><g id="freepik--Arm--inject-69"><path d="M391.87,135.13c-6.05-.33-9.84.12-14.66,5.21s-13.45,13.87-20.9,21.89l-19.89-11.29c-5.46,2.53-8.89,5.17-6.47,9.69,0,0,20,16.46,24.65,18.08s5.76.52,9.76-2.44c4.46-3.29,19.93-16.53,19.93-16.53Z" style="fill:#c8856a"></path><path d="M392,134.92c-5.24.12-9.35-.39-14.33,4.56s-21.41,22.33-21.41,22.33L352.06,160a18.81,18.81,0,0,1-1.44,8.34,9.38,9.38,0,0,1-5.1,4.91s2.47,1.87,5.9,4,6.53,4.11,10.51,1.23,25.42-20.31,25.42-20.31Z" style="fill:#BA68C8"></path><path d="M320.78,122.74h0l1.41-.88v0a1.37,1.37,0,0,1,1.25,0l12.05,5.25a4.27,4.27,0,0,1,2.29,3.11l3.32,28.18a1.34,1.34,0,0,1-.48,1.35h0l-1.45.9v0a1.33,1.33,0,0,1-1.26,0l-12-5.24a4.26,4.26,0,0,1-2.29-3.11c-.65-5.54-2.67-22.64-3.32-28.18A1.29,1.29,0,0,1,320.78,122.74Z" style="fill:#455a64"></path><path d="M335.29,129a4.23,4.23,0,0,1,1,2.18l3.33,28.17a1.39,1.39,0,0,1-.43,1.33l1.37-.84h0a1.32,1.32,0,0,0,.48-1.35l-3.32-28.19a4.27,4.27,0,0,0-1-2.06Z" style="fill:#263238"></path><path d="M339.66,159.31l-3.32-28.18a4.29,4.29,0,0,0-2.28-3.11L322,122.78c-1.12-.49-1.9.12-1.76,1.35.65,5.54,2.67,22.64,3.32,28.18a4.29,4.29,0,0,0,2.29,3.11l12,5.24C339,161.15,339.81,160.55,339.66,159.31Z" style="fill:#37474f"></path><path d="M335.09,136.78l-.63-5.27a.77.77,0,0,0-.42-.58l-2.26-1c-.21-.09-.36,0-.33.26.12,1,.5,4.23.62,5.27a.8.8,0,0,0,.43.58l2.26,1C335,137.13,335.11,137,335.09,136.78Z" style="fill:#455a64"></path><path d="M334.08,132.7a2,2,0,0,0-1.1-1.44c-.54-.24-.92,0-.85.59a2,2,0,0,0,1.09,1.44C333.76,133.52,334.15,133.26,334.08,132.7Z" style="fill:#263238"></path><path d="M334.36,135.35a2,2,0,0,0-1.1-1.44c-.54-.23-.92,0-.85.59a2,2,0,0,0,1.1,1.45C334.05,136.18,334.43,135.92,334.36,135.35Z" style="fill:#263238"></path><path d="M320.1,145.17c-1.18-1.88-1.05-2.11-.29-3a5.69,5.69,0,0,1,4.76-2.08c1.58.15,3.18.22,4,.69s0,2.15-2.1,2.48c-3.3.53-3.33,1.41-3.33,1.41a40.83,40.83,0,0,1,4.24-.47,29.85,29.85,0,0,1,4.73,1c1.35.3,1.52,2.08-.85,2.55l2.49.56c1.74.39,2.28,1.36.83,2.36a2.58,2.58,0,0,1-1.63.5s1.88.12,1.88.74c0,1.8-1.19,2.19-5,3.06-.85.19-2.46,1.06-.48,1.91,3.41,1.49,5.68,7.5,3.64,6.13-2.26-1.51-3.51-.83-6-2.21a15.72,15.72,0,0,1-4.54-3.58c-.76-.87-.84-1.56-.32-3,0,0-2.06-.09-2.11-1.38a6.52,6.52,0,0,1,.67-2.7,2.25,2.25,0,0,1-1-2.19,3.67,3.67,0,0,1,.89-2.19Z" style="fill:#c8856a"></path><path d="M331.23,147.78a11.86,11.86,0,0,0-2.26-.39,7.42,7.42,0,0,0-2.26.56,27.71,27.71,0,0,0-4.11,1.89,27.72,27.72,0,0,0,4.34-1.26,11.75,11.75,0,0,1,2.06-.67C329.69,147.84,330.48,147.87,331.23,147.78Z" style="fill:#af6152"></path><path d="M332.92,151.2a5.13,5.13,0,0,0-2.46-.23,13.82,13.82,0,0,0-2.4.6,23.42,23.42,0,0,0-4.44,2,48.21,48.21,0,0,0,4.66-1.4A12.84,12.84,0,0,1,332.92,151.2Z" style="fill:#af6152"></path></g><g id="freepik--Chest--inject-69"><path d="M398.8,134.35s15.5.43,20.29,1c.87.1,6.52.87,6.52.87,1.66,2.29,5.52,10.69,5.65,19.2.06,4.15-1.58,15.73-2.5,20.91-.36,4.72,4.4,21.4,4.4,21.4-11,9.46-51.4,9-57.82-2.87,0,0,3.18-20.59,3.31-26.74,0,0-2.22-4.72-2.18-8.58.07-5.66,1.12-7.73,5.9-14.35A56.79,56.79,0,0,1,392,134.94Z" style="fill:#BA68C8"></path><path d="M398.8,134.35s15.5.43,20.29,1c.87.1,6.52.87,6.52.87,1.66,2.29,5.52,10.69,5.65,19.2.06,4.15-1.58,15.73-2.5,20.91-.36,4.72,4.4,21.4,4.4,21.4-11,9.46-51.4,9-57.82-2.87,0,0,3.18-20.59,3.31-26.74,0,0-2.22-4.72-2.18-8.58.07-5.66,1.12-7.73,5.9-14.35A56.79,56.79,0,0,1,392,134.94Z" style="fill:#fff;opacity:0.30000000000000004"></path><path d="M408.07,173.16a3,3,0,0,1-3.37,2.5,3.64,3.64,0,0,1-.73-.15,4.64,4.64,0,0,1-.89-.37,3.64,3.64,0,0,1-.26,3,3.09,3.09,0,0,1-3.8,1.11,4.72,4.72,0,0,1-2.23-1.57,7.4,7.4,0,0,1-1.42-3.53c-.15-1-.27-2.94-.36-4.8a.25.25,0,0,0-.2-.22h0a.16.16,0,0,0-.2.14v.1h0A44.46,44.46,0,0,1,394,175a3.17,3.17,0,0,1-4.33,2.37,5.1,5.1,0,0,1-3.14-3.54h0a2.74,2.74,0,0,1-.08-.5,3.5,3.5,0,0,1,.18-1.58,4.29,4.29,0,0,1-3.09-.93,4.65,4.65,0,0,1-1.91-4.2c.26-2,1.9-2.86,4.33-2.73.93.05,2.88.34,4.72.64a.15.15,0,0,0,.18-.15h0a.25.25,0,0,0-.18-.23,56.52,56.52,0,0,1-5.8-1.82c-2.05-1-3.61-3-3.3-5a3,3,0,0,1,3.37-2.51,4.55,4.55,0,0,1,1.62.53,3.87,3.87,0,0,1-.08-2.21,2.95,2.95,0,0,1,4.14-1.92c2.08.7,3.27,2.59,3.65,5.1.13.82.23,2.37.32,3.95v.07h0c0,.26,0,.52,0,.77a.26.26,0,0,0,.2.23h0a.16.16,0,0,0,.2-.14,46.43,46.43,0,0,1,.58-5.67,3.81,3.81,0,0,1,1.36-2.07h0a3.08,3.08,0,0,1,3-.31,5,5,0,0,1,3.22,4.05,3.5,3.5,0,0,1-.18,1.58,4.2,4.2,0,0,1,3,.84l.12.08a4.68,4.68,0,0,1,1.91,4.21c-.26,2-1.9,2.86-4.32,2.72-.23,0-.51,0-.84-.07h0c-1-.12-2.49-.34-3.88-.56a.15.15,0,0,0-.19.15h0a.26.26,0,0,0,.18.24c1.07.29,2.19.61,3.17.91h0a24.25,24.25,0,0,1,2.62.9C406.83,169.12,408.38,171.09,408.07,173.16Z" style="fill:#fff;opacity:0.5"></path></g><g id="freepik--Head--inject-69"><path d="M403.76,127.16c-13.94,2.16-11.74-10.93-17.4-22.35C377.15,86.24,411.24,76.7,416.43,93c8.47.29,11.29,11.12,7.92,18.17a58.13,58.13,0,0,1-5,9.16c-1.92,2.78-3.59,5.65-5.16,6.8Z" style="fill:#263238"></path><path d="M414.11,131.61c0-1.71.15-10.17.15-10.17.68.9,4.33,2.15,6.84-1.37,2.89-4.06,2.44-7,.43-8.91-2.3-2.23-6.32-1.66-8,1.86-2.69.61-3.89-3.51-1.8-7.41-.14-5-5.28-4.78-7.81-11.26-6.48,3.34-12.45.62-16.59,5.46a29.68,29.68,0,0,0-1.88,12.74c.49,11.3,3,13.48,5.31,14.85,1.69,1,4,1.58,7.41,1.32l-.19,2.86h0c-.07,1.44.05,2-1.35,2.51-.94.3-2.81.69-2.81.69s-4.07,3.8,4.8,5.07c13.25,1.89,18.38-4.67,18.38-4.67s-.82-.12-1.43-.26C414.1,134.57,414.11,133.33,414.11,131.61Z" style="fill:#c8856a"></path><path d="M401.64,118.4l-4.8,1.49a2.47,2.47,0,0,0,3.1,1.74A2.62,2.62,0,0,0,401.64,118.4Z" style="fill:#af6152"></path><path d="M401.33,119.51a2.77,2.77,0,0,0-2.79,2.13,2.39,2.39,0,0,0,1.4,0,2.58,2.58,0,0,0,1.76-2.07A1.5,1.5,0,0,0,401.33,119.51Z" style="fill:#ffa8a7"></path><path d="M387.78,103.89l3.84-.39a1.85,1.85,0,0,0-2-1.75A2,2,0,0,0,387.78,103.89Z" style="fill:#263238"></path><path d="M406,104.28l-3.84-.79a1.87,1.87,0,0,1,2.24-1.55A2.05,2.05,0,0,1,406,104.28Z" style="fill:#263238"></path><path d="M392.08,108.76a1.66,1.66,0,0,1-1.5,1.75,1.56,1.56,0,0,1-1.72-1.44,1.67,1.67,0,0,1,1.5-1.75A1.56,1.56,0,0,1,392.08,108.76Z" style="fill:#263238"></path><path d="M403.76,109.15a1.65,1.65,0,0,1-1.5,1.74,1.55,1.55,0,0,1-1.72-1.44,1.65,1.65,0,0,1,1.5-1.74A1.56,1.56,0,0,1,403.76,109.15Z" style="fill:#263238"></path><polygon points="390.63 115.36 395.94 117.17 396.44 106.25 390.63 115.36" style="fill:#af6152"></polygon><path d="M398.18,128.72c6.13-.56,12-2.52,13.42-5.3a5.54,5.54,0,0,1-2.51,4.49c-3.5,2-11,3-11,3Z" style="fill:#af6152"></path><path d="M408.26,105a20.45,20.45,0,0,0-5.36-.39c-3.42.12-5,1.44-7,1.44-1.59,0-3.11-1.72-6.39-2a25.45,25.45,0,0,0-6,0c-.39.16-.39,1.51-.11,2s.75.78.83,1.73.27,3.78,2,5.23a5.74,5.74,0,0,0,5.39.73l2.9-4.57s.16-1.2,1.18-1.2,1.17,1.13,1.41,2.18a5.45,5.45,0,0,0,1.91,3.46c1.56,1.34,5.18,1.7,7.08-.09,2.19-2.06,1.83-5.77,2.19-6l7.18,3.15a6,6,0,0,1,3-.83ZM392,112.28c-1.46.93-4.31,1-5.63-.62s-1.71-4.9-1-5.88,3-.89,4.35-.62,3.27,1,3.62,2.68C393.66,109.12,393.49,111.35,392,112.28Zm14.61-1.7c-.34,1.51-1.39,3-4.11,3a4,4,0,0,1-3.94-2.84c-.25-.77-.58-3.16.12-3.83a7.12,7.12,0,0,1,4.11-1.33c2.07-.1,3.19.27,3.82.83S407,109.08,406.64,110.58Z" style="fill:#BA68C8"></path><path d="M406.64,110.58c-.34,1.51-1.39,3-4.11,3a4,4,0,0,1-3.94-2.84c-.25-.77-.58-3.16.12-3.83a7.12,7.12,0,0,1,4.11-1.33c2.07-.1,3.19.27,3.82.83S407,109.08,406.64,110.58Z" style="fill:#37474f"></path><path d="M401.18,113.38a4.67,4.67,0,0,0,4.74-1.21,1.38,1.38,0,0,1-.95-.59c-.53-1,.85-1.94.49-2.9-.49-1.36-3.09.83-3.14-1.05a3,3,0,0,1,1.47-2c-.3,0-.62,0-1,0a9.44,9.44,0,0,0-2.91.62c0,.08,0,.17-.05.26a10.37,10.37,0,0,0-.72,2.5,2.24,2.24,0,0,0,.51,2.07,2.55,2.55,0,0,0,1.28.41c.31,0,.46,0,.57.3a3,3,0,0,1-.24,1.24A3,3,0,0,0,401.18,113.38Z" style="fill:#455a64"></path><path d="M392,112.28c-1.46.93-4.31,1-5.63-.62s-1.71-4.9-1-5.88,3-.89,4.35-.62,3.27,1,3.62,2.68C393.66,109.12,393.49,111.35,392,112.28Z" style="fill:#37474f"></path><path d="M392.78,111.53a2.19,2.19,0,0,1-1.16-1.8c0-.64.29-1.15-.28-1.65s-1.12-.4-1.12-1.35a2.37,2.37,0,0,1,.51-1.31c-.33-.11-.65-.19-.94-.26a8.39,8.39,0,0,0-3.09,0c-.7,1.2-1.05,2.77-.41,3.83.44.72,1.41.67,1.91,1.28s.28,1.73.78,2.43a2.37,2.37,0,0,0,.25.29,4.94,4.94,0,0,0,2.8-.66A2.68,2.68,0,0,0,392.78,111.53Z" style="fill:#455a64"></path></g><g id="freepik--arm--inject-69"><path d="M422.57,135.91a12.13,12.13,0,0,0,4.6-2.83,38.73,38.73,0,0,0,5.65-6.21c4.42-6.63,10.95-16.33,10.95-16.33s-1.1-18.14-1.62-22a28.16,28.16,0,0,0-1.46-7.13c-1-1.45-3.77-3.2-4.93-5a19.94,19.94,0,0,1-2.46-5.14A13.58,13.58,0,0,0,431.67,68c-.82-1.32.79-1.83,1.79-1.58a4.46,4.46,0,0,1,2.27,1.36c.79,1,1.67,3.09,3.07,3.24,1.08.11.49-1.87.4-2.48a17.71,17.71,0,0,0-.83-3.2c-.39-1.17-1.21-3.86-1.72-6a14,14,0,0,1-.4-4.59,2.73,2.73,0,0,1,1.14-2.22c.92-.54,1.46.53,1.79,1.37a7.76,7.76,0,0,1,1.36.05,2.26,2.26,0,0,1,1.73,1.39A3.62,3.62,0,0,1,446,57.27c.27.58.32.53.94.65,1.14.22,1.47,1.22,2,2.13a30.1,30.1,0,0,1,3.57,8.48c.94,4.26.35,7.68.58,12a26.72,26.72,0,0,0,1.19,5.54c1.44,5,2,7.22,3.22,11.41a103.14,103.14,0,0,1,2.92,11.29c.86,5.19,1,6.65-4.11,14.72-10,15.72-23.66,29.4-25.48,37.68C425.7,158.19,418.6,144.84,422.57,135.91Z" style="fill:#c8856a"></path><path d="M443.77,110.54c.34,1.83,2.36,8,5.17,9.11-4.1-.37-5.95-5.68-6.2-7.58Z" style="fill:#af6152"></path><path d="M442.71,71c2.61,2,4,6.45,3.29,10.61C448.23,79.2,447.94,72.26,442.71,71Z" style="fill:#af6152"></path><path d="M421.46,135.68c1.89-.88,3.84-1,6.91-4.53s15-20.65,15-20.65l-.26-10.72a18,18,0,0,0,7.61.7c4.83-.43,6.82-3,6.82-3s2.41,7.68,3.43,11.78.67,5.74-3.74,13.74-20,29.52-23.19,34.36a33.45,33.45,0,0,0-3.4,6.41s-7-6.31-9.15-13.8C419.73,144.12,420.47,138.21,421.46,135.68Z" style="fill:#BA68C8"></path></g></g></g></g><g id="freepik--character-1--inject-69"><g id="freepik--Chartacter--inject-69"><path d="M76.88,196.37c0,8.74-6.6,34.44-8.3,49s-1.36,23.25-.85,28c1,9.35,16-18.24,27.58-28.55.6.71,6,20.38,7.69,29s13.21-9.73,17.68-25.72a266.08,266.08,0,0,0,9.13-51.75Z" style="fill:#BA68C8"></path><g id="freepik--Legs--inject-69"><path d="M131.41,205.67c-6.75,5.87-23.39,21-23.39,21l-8.1,9.51s-2.47,25.7-2.87,35.87c-6.83,2.08-14.33,7.55-19.79,15.58-5,7.42-7.23,10.94-9.62,14.5s-3.87,5.47-5.19,6.32a20.94,20.94,0,0,1-5.2,2.42,5.52,5.52,0,0,0-3.29,4.8c-.07,3.71,2,5.2,2.42,8.48a51.54,51.54,0,0,1,.13,7c0,2.67,0,5.82,1.43,7.69a13.51,13.51,0,0,0,6,4.59c6.36,2.61,11.68,1.55,12.35-1,.44-1.65-1.47-3.88-3-5.34-2.37-2.26-3.16-6.6-3-9.36.21-5,1-6.27,3.6-9.56s5.77-4.9,12.9-10.13c7.56-5.55,17-11.84,25.36-17.7,3.62-2.54,8.84-7.24,11.52-17.87,2.73-10.81,4.49-17.38,6-28.31C132.76,220.25,131.41,205.67,131.41,205.67Z" style="fill:#f0f0f0"></path><path d="M99.92,236.22s-2.47,25.7-2.87,35.87a33.77,33.77,0,0,0-11.15,6.16,31.58,31.58,0,0,0,4.81,12,48.93,48.93,0,0,0-.34,15.24c6.82-4.86,14.64-10.11,21.7-15.06,3.4-2.38,8.21-6.67,11-16-1.78-14.32-6.7-38.68-6.7-38.68,5.59-4.23,11.19-12.17,12.51-16.17l-5.71-.69a34.16,34.16,0,0,1-10.41,3.55L108,226.71Z" style="fill:#e0e0e0"></path><path d="M131.41,205.67s.79,10.05-.25,28.77-5.88,36.82-7.47,42.3c-2.11,7.33-3.27,9.9-9.31,14.51-7.45,5.68-9.55,7.68-13.71,7,0,0-10.93-9.48-12.58-21.53,0-3.26,7.56-6.43,7.56-6.43l5.85-64.64Z" style="fill:#37474f"></path><path d="M52.28,324.12l3,1-1.64-2.31S52.5,323.22,52.28,324.12Z"></path><path d="M74.29,348.12c.15.2-.69,1.13-2.44,1.28-8.57.74-12.9-3-15-6.64-2.79-4.82-2.37-7.82-2.27-11s.28-6.45-.91-9c0,0-.7.62-1.36,1.35-1.31-2.07-2.53-6.36-2.17-7.26.69-1.69,3.9-4.17,3.9-4.17Z" style="fill:#263238"></path><path d="M68.58,300.79a1.22,1.22,0,0,0-1.39-.07c-.85.45-2.32,4.17-7.24,7.8-1.81,1.34-5.54,3.52-6.72,4.9s1.14,6.22,2,8.94.81,5.19.86,8.77c0,3,.06,6.16,1.25,8.92a12.55,12.55,0,0,0,5.54,5.71,27.17,27.17,0,0,0,3.74,1.67,13.25,13.25,0,0,0,6.92.83A8.62,8.62,0,0,0,79,345.55a10.38,10.38,0,0,0,2.32-3c1.13-2.36,1.45-5.93-.41-7.54-.33-.28-1.09-.6-1.35,0s.22,1.46.12,2.11c-.21,1.29-1.84,1.8-2.94,1.68-1.47-.16-2.88-1.65-3.73-2.79a7.89,7.89,0,0,1-1.42-4.3,23.47,23.47,0,0,1,.14-5.36,11.89,11.89,0,0,1,1-3.9,17.45,17.45,0,0,1,2.85-3.86,27,27,0,0,1,5.35-4.14c.76-.48,1.75-.83,1.68-1.86s-1.28-2.08-2-2.69a10.89,10.89,0,0,0-5.23-2.58,12,12,0,0,0-5.24.24,19.46,19.46,0,0,0-3,1.11,14.6,14.6,0,0,0,1.44-3.23,4.71,4.71,0,0,0,.07-2.08c-.08-.41-.81-1.33-.57-1.74S68.58,300.79,68.58,300.79Z" style="fill:#37474f"></path><path d="M75.21,320c.69-1.31.85-2-.4-3.06a22,22,0,0,0-4.06-2.64c-2.23-1.08-2.31-.37-3.09,1.36s-1.8,3.3-2.27,4.23.14,1.6,1.51,2.37a30,30,0,0,1,3.09,1.8c1.51,1,2.08,1,2.9-.19A41.69,41.69,0,0,0,75.21,320Zm-4.35,2.69a21.91,21.91,0,0,0-2.26-1.35l-.94-.51a5.63,5.63,0,0,1-.69-.44l0,0,.49-.86c.51-.89,1.15-2,1.68-3.17,0,0,.3-.7.37-.83l.58.26a19.8,19.8,0,0,1,3.22,2c.18.13.36.28.53.42a2.58,2.58,0,0,1,.32.3,5.14,5.14,0,0,1-.32.73A42.84,42.84,0,0,1,71.58,323l-.09.12A7.32,7.32,0,0,1,70.86,322.7Z" style="fill:#fafafa"></path><path d="M127.76,368c-3.29-2.61-4.7-3.92-7.75-6.49-4.91-4.15-6.68-8.43-6.79-12.28.32-3.81,1-8.79,1.31-12.83s2-14.35,3.31-28c1.25-13.28.83-25-.65-38.67L96.44,286.3c-1.89,7.05-2.84,19.17-1,34.66,1.4,11.87,3.34,20.83,3.19,25.47-.15,1.74-1,2.65-2.43,6.64-.5,1.43-1.59,3.81-1.42,5.39.19,1.73,4.53,4.2,7.36,5.66,4,2.07,4,3.15,7.06,6.73a15.43,15.43,0,0,0,7.51,4.82c4.47,1.13,8.41,1.14,11.35-.61S130.83,370.4,127.76,368Z" style="fill:#f0f0f0"></path><path d="M94.15,303.52s-.35,2.81.32,4c3.42,2.49,17.41,5.24,23.37.79a18.61,18.61,0,0,0,.69-4.67Z" style="fill:#37474f"></path><path d="M78.8,205.67c-1.38,9.63-2.44,16.37-1.61,24.66.55,5.5,2.23,16.08,9.12,33.22,1.91,4.75,8.63,20.93,8.44,22.76-.55,5.29-3.31,16.07,0,18.3,2,2.14,16.7,5,23.7,1,2.43-.89,2.52-9.39,2.74-20.42s-6.37-51.81-6.37-51.81,17.4-9.22,16.18-27.68Z" style="fill:#455a64"></path><path d="M100.58,367.73l2.88-1.29-2.72-.64A2.49,2.49,0,0,0,100.58,367.73Z"></path><path d="M130,373.66a3.91,3.91,0,0,1-1.42,3.72c-2.81,1.63-6.88,2.57-12.29.76-5.22-1.75-7.11-3.72-9.08-6.18s-3.94-5-6.47-6.16c0,0-.13.94-.16,1.93-2.32-.68-6-3.08-6.31-4-.57-1.73.25-5.75.25-5.75Z" style="fill:#263238"></path><path d="M98,339.27a1.3,1.3,0,0,0-1.27.82c-.36.91.93,4.7-.43,10.74-.5,2.22-1.9,6.38-1.91,8.21s4.87,3.91,7.24,5.4a25.08,25.08,0,0,1,6.3,6,20.55,20.55,0,0,0,10,6.39c4,1,9.05.79,12.57-2.49a7.88,7.88,0,0,0,2.88-5.27,16.14,16.14,0,0,0-.88-7.53c-.59-1.59-2.43-4.69-4.51-5-1.26-.18-.28,1.16.13,2,.67,1.43,1,3.24-.3,4.27-2.8,2.3-6-.65-7.89-2.4a23,23,0,0,1-3.34-4.13,11.73,11.73,0,0,1-1.79-3.59,17.76,17.76,0,0,1-.34-4.82,27.85,27.85,0,0,1,1.36-6.72c.26-.87.79-1.8.07-2.53s-2.31-.71-3.23-.69a10.84,10.84,0,0,0-5.6,1.57,12.58,12.58,0,0,0-3.78,3.7,20.28,20.28,0,0,0-1.57,2.88,14.8,14.8,0,0,0-1-3.4,4.39,4.39,0,0,0-1.29-1.61c-.32-.26-1.29-.66-1.37-1.13S98,339.27,98,339.27Z" style="fill:#37474f"></path><path d="M115.2,349.22c-.33-1.45-.68-2.11-2.28-2a21.15,21.15,0,0,0-4.75.75c-2.38.68-2,1.27-1.45,3.09s.77,3.7,1,4.71,1.14,1.12,2.66.78a30.84,30.84,0,0,1,3.49-.73c1.77-.26,2.23-.63,2.06-2.09A40.05,40.05,0,0,0,115.2,349.22Zm-1.54,4.95a21.05,21.05,0,0,0-2.58.5l-1,.25a5.21,5.21,0,0,1-.8.13h0c-.06-.28-.12-.61-.19-1-.18-1-.42-2.26-.77-3.51l-.26-.87.61-.2a19.46,19.46,0,0,1,3.72-.64l.67,0a2.54,2.54,0,0,1,.44,0,6,6,0,0,1,.22.77,40.38,40.38,0,0,1,.71,4.29.86.86,0,0,1,0,.15A5.8,5.8,0,0,1,113.66,354.17Z" style="fill:#fafafa"></path></g><g id="freepik--top--inject-69"><g id="freepik--arm--inject-69"><path d="M122.09,140.82c5.57,1.61,9.25,1.62,14.48,13.44,3.45,7.81,9.35,21.75,9.35,21.75l-1.43,21.39c-2.11-.17-6.63-3-11.57-11.09-5.91-9.71-6.55-10.91-6.55-10.91Z" style="fill:#ebebeb"></path><g id="freepik--arm--inject-69"><path d="M172.28,167a75.32,75.32,0,0,1-9.51,15.74c-7.73,10.32-15.08,17-20.16,14-3-1.8-5.24-17-.07-20.28,6.43-4.08,11-6.22,17.6-12.3,4.25-3.89,4.8-6.05,4.8-6.05Z" style="fill:#ebebeb"></path><path d="M122.13,140.42c5.09,1.1,9.07,2,12.79,9.18s11,24.34,11,24.34l14.22-9.79s-.73,3.85,4,6.75c3.67,2.27,6,.57,6,.57s-1,3.54-6.73,11.17-9.52,12.27-14.87,14.76-8.15-.33-11.78-4.23-12-18.48-12-18.48Z" style="fill:#BA68C8"></path><path d="M122.13,140.42c5.09,1.1,9.07,2,12.79,9.18s11,24.34,11,24.34l14.22-9.79s-.73,3.85,4,6.75c3.67,2.27,6,.57,6,.57s-1,3.54-6.73,11.17-9.52,12.27-14.87,14.76-8.15-.33-11.78-4.23-12-18.48-12-18.48Z" style="opacity:0.25"></path><path d="M145.92,173.94c-2.56,1.47-6.24,8.18-4.79,14.31-2.07-4.29-2-11.07,4.06-16Z" style="opacity:0.25"></path></g></g><g id="freepik--chest--inject-69"><path d="M75.49,147.14s-2.15,1.76.39,14.47c2,10,4.29,22.65,4.46,27,.25,6.67-1.91,23.94-1.91,23.94,15.38,7.82,44.69,11.15,52.59-3.61,0,0-1.13-9.05-1.61-19.84-.55-12.19-.51-26.6-1.46-32.64-1.38-8.7-4.32-13.52-7.48-16l-9.14-1.56s-10.38-2.74-14.62-.55Z" style="fill:#f5f5f5"></path><path d="M90.74,140.38s12.37,23,22.8,35.53c4.29-14.36-.45-32-2.21-37,0,0,7.45.76,10.8,1.56,3.15,1.24,8.71,2.91,8.37,38.85,0,4.57.08,12.13.27,15.45.69,12.21,1.47,18.67,1.47,18.67-1.67,5.69-3.91,8.41-10.52,11.23l-6.26-7.79-5.88,10.86c-11.14,1.44-27.49-3-32.69-11.77V189.31s-5.94-40.07-3.59-42.42a9.11,9.11,0,0,1,3.46-2.27C82.39,142.48,90.74,140.38,90.74,140.38Z" style="fill:#BA68C8"></path><path d="M84.31,201.58l-.75,2.78c6.59,4.51,12,5.38,19.15,5.68l.29-2.77C95.8,207,90.9,206.09,84.31,201.58Z" style="opacity:0.25"></path><path d="M131.18,201.22a27.15,27.15,0,0,1-8.19,4l.48,2.74a27.23,27.23,0,0,0,7.94-3.51C131.34,203.43,131.26,202.36,131.18,201.22Z" style="opacity:0.25"></path><path d="M113.54,175.91a36.63,36.63,0,0,0-1.24,5,26.09,26.09,0,0,0,.18,5.14c.29,3.45.51,6.92.77,10.38s.41,6.92.56,10.39L114,212a10.14,10.14,0,0,0,.24,2.54,5.89,5.89,0,0,0,1.2,2.26,5.53,5.53,0,0,1-1.43-2.18,10.21,10.21,0,0,1-.45-2.6l-.46-5.18c-.3-3.45-.52-6.91-.78-10.37s-.41-6.92-.56-10.38a26.34,26.34,0,0,1,.08-5.25A29.84,29.84,0,0,1,113.54,175.91Z" style="opacity:0.25"></path></g><g id="freepik--Hat--inject-69"><path d="M118.32,98.05h0l-5.2-20.32h0a7.4,7.4,0,0,0-.26-.92C110.38,70.12,99.57,68,88.72,72S71.08,84.71,73.57,91.4a8.08,8.08,0,0,0,.37.79h0l9.36,18.9h0c2.6,5.52,11.94,7.23,21.33,3.74S120,103.94,118.32,98.05Z" style="fill:#BA68C8"></path><path d="M118.32,98.05h0l-5.2-20.32h0a7.4,7.4,0,0,0-.26-.92C110.38,70.12,99.57,68,88.72,72S71.08,84.71,73.57,91.4a8.08,8.08,0,0,0,.37.79h0l9.36,18.9h0c2.6,5.52,11.94,7.23,21.33,3.74S120,103.94,118.32,98.05Z" style="opacity:0.1"></path><ellipse cx="98.96" cy="99.51" rx="19.24" ry="11.85" transform="translate(-28.46 40.68) rotate(-20.38)" style="fill:#37474f"></ellipse><path d="M106.3,87.14c-.37-1.37-.72-2-2.29-1.89a21.22,21.22,0,0,0-4.63.85c-2.31.71-1.9,1.27-1.34,3s.85,3.52,1.12,4.49,1.14,1,2.62.66a33.1,33.1,0,0,1,3.4-.79c1.73-.3,2.16-.66,2-2A39.75,39.75,0,0,0,106.3,87.14Zm-1.39,4.79a21.78,21.78,0,0,0-2.5.55l-1,.26a5.35,5.35,0,0,1-.77.15h0c-.07-.27-.13-.58-.21-.93a33.11,33.11,0,0,0-.86-3.34s-.23-.69-.27-.83l.59-.21a20.19,20.19,0,0,1,3.62-.71c.22,0,.44,0,.66-.06a1.9,1.9,0,0,1,.43,0,5.2,5.2,0,0,1,.24.73,40.55,40.55,0,0,1,.81,4.09c0,.06,0,.1,0,.15S105.25,91.87,104.91,91.93Z" style="fill:#fafafa"></path><ellipse cx="102.71" cy="109.55" rx="28.36" ry="17.47" transform="translate(-31.72 42.62) rotate(-20.38)" style="fill:#BA68C8"></ellipse><ellipse cx="102.71" cy="109.55" rx="28.36" ry="17.47" transform="translate(-31.72 42.62) rotate(-20.38)" style="opacity:0.30000000000000004"></ellipse></g><g id="freepik--head--inject-69"><path d="M91.52,103.77c-2.29-1.11-4.51-1-6.13.83a4.6,4.6,0,0,0-.76,4.55c-3.22,1.15-3.49,5.69-1.07,7.16-2.28,2.3-.43,6.66,3,7,3.81.34,1.56,7.18,8.26,8.65-.13-2.78-.47-8.72-.74-11.45C97.9,114.89,99.47,107.21,91.52,103.77Z" style="fill:#b16668"></path><path d="M96.31,110.76a12.62,12.62,0,0,0,13,12.2c5.19-.17,9.43-3.62,11.78-8.1,1.72-.74,1.53-3.35.27-3.73,1.34-.69,1.74-3.09-.06-4.52a3.93,3.93,0,0,0,.64-1.74c.23-2.94-1.85-4.58-4.17-5.44a15.69,15.69,0,0,0-3.72-.78,24.77,24.77,0,0,1-2.5-.64,12.07,12.07,0,0,0-3.06-.27A12.62,12.62,0,0,0,96.31,110.76Z" style="fill:#b16668"></path><path d="M88.66,127.2c2.88.74,3.75-1.13,3.75-1.13l1,14.35a12.86,12.86,0,0,0,5.55,5.1c3.5,1.42,4.73,0,8.3,3.8,2.66-4.31,6.54-5.42,3.31-9.47l-.25-4.28a36.7,36.7,0,0,0,4.14-.58c3.35-.73,5.16-3.05,5.79-6.47,1-5.36,2-11.65-.72-14.79.79-3.16.78-4.48-.93-9.15-3.55-2.59-14.95-2.67-22.11,2.16.53,6.16-1.1,9-1,11.19a5.94,5.94,0,0,1-1.29,1.78c-1.1,1-1.66-1.44-3.08-2.47A4.13,4.13,0,0,0,85,119.11C83.56,122.49,85.79,126.46,88.66,127.2Z" style="fill:#ffa8a7"></path><path d="M107.26,149.32c-1.83-1-4.29-3.22-6.42-1.28-1.41,1.28-1.93,4.25-2.25,5.74a17.11,17.11,0,0,1-9-7.72c-1.47-2.86-2.26-4.77-2.26-4.77a28.59,28.59,0,0,0,3-3.62c1.32-2.12,1.59-2.7,2.72-2.81l.23,3.15s1.13,1.43,4.64,3.13C104.21,144.2,106.57,142.1,107.26,149.32Z" style="fill:#ebebeb"></path><path d="M107.26,149.32c1-1,3.13-3.76,4.9-3.31s2.88,1.41,4.52,3.31a14.49,14.49,0,0,0-2.38-9.87c-2.73-3.9-3.06-4-4-3.88l.25,4.28a4.92,4.92,0,0,1-2,3.18C107.32,144,107.44,147.78,107.26,149.32Z" style="fill:#ebebeb"></path><path d="M119.08,97.06c-.23-3.75-4.91-4.35-7.15-2.41-1.05-2.08-4-1.36-5.36,0-1.27-2-5.16-1.34-5.33,1.13-3-1.9-8.43-1.29-7.93,3.24-5.56-1.51-5.49,6.93-.09,6.3.08,2.86,3.92,3.51,5.52,1.46,1.36,1.68,5.3,2.35,6.37-.08.64,1.55,3.91,1.44,3.31,3.55,1.63-.55,1-2.76,0-3.64a3.31,3.31,0,0,0,4.51-.82c1.18,1.07,4.06,1.37,4.37-.68,1.65,1.2,4.49-.79,2.67-3.3C122.37,101,121.43,96.52,119.08,97.06Z" style="fill:#b16668"></path><path d="M105.46,116.24a1.53,1.53,0,1,1-1.52-1.6A1.58,1.58,0,0,1,105.46,116.24Z" style="fill:#263238"></path><path d="M103.46,111.82l-3.28,1.78A2,2,0,0,1,101,111,1.81,1.81,0,0,1,103.46,111.82Z" style="fill:#9a4a4d"></path><path d="M117.7,112.36,114.2,111a1.81,1.81,0,0,1,2.38-1.1A2,2,0,0,1,117.7,112.36Z" style="fill:#9a4a4d"></path><path d="M116.88,115a1.54,1.54,0,0,1-1.53,1.57,1.59,1.59,0,1,1,1.53-1.57Z" style="fill:#263238"></path><polygon points="108.15 111.58 109.56 121.7 115.04 119.48 108.15 111.58" style="fill:#f28f8f"></polygon><path d="M95.35,117.13c.84,6.59,3.12,8.65,5.49,8.93,3.19.38,5-1.51,9.24-2.54,2.8-.68,5.85.11,7.88.57.39.09.84.17,1.27.23a1.51,1.51,0,0,0,1.67-1.43c.24-1.84.3-6.58-1.37-9.16l1.43.43c.31.1.57,2.17.62,2.42.37,2,.11,3.81,1.6,5.36a2.35,2.35,0,0,1,.82,2.16,2.52,2.52,0,0,1-.45,1.05,3.43,3.43,0,0,0-.25,2,9,9,0,0,1,.2,3.61c-.34,1.2-1.09,1.58-1.9,2.37S121,135,120.48,136a2.8,2.8,0,0,1-2.63,1.6,3.94,3.94,0,0,0-2.75.92,3.26,3.26,0,0,1-2.62.93c-1.18-.05-2.21-.55-3.41-.5-.73,0-1,.44-1.61.63a4.07,4.07,0,0,1-1.93-.1c-1.22-.26-1.65-1-2.53-1.7s-1.86-.33-2.93-.43c-1.35-.12-1.89-1-2.42-2.08s-1.65-1-2.43-1.79a2.49,2.49,0,0,1-1-2.54c.14-.69.5-1.3.62-2a3.12,3.12,0,0,0-.64-2.65,3.24,3.24,0,0,1-1-1.74,5,5,0,0,1,.24-1.89,4.45,4.45,0,0,0-.57-3.2,7.71,7.71,0,0,0-1.31-1.82A17.23,17.23,0,0,1,95.35,117.13Z" style="fill:#b16668"></path><path d="M106.6,126.46l4.39.84a2.19,2.19,0,0,1-2.56,1.85A2.35,2.35,0,0,1,106.6,126.46Z" style="fill:#9a4a4d"></path><path d="M107.15,127.16a3.33,3.33,0,0,0-.55,0,2.33,2.33,0,0,0,1.83,2,2.12,2.12,0,0,0,.71,0A2,2,0,0,0,107.15,127.16Z" style="fill:#ffa8a7"></path></g><g id="freepik--Tie--inject-69"><path d="M106.86,149.29c-2.5-2.78-5.79-3.92-9.73-3.94s-.88,3.51-1.12,6.92c-.21,2.88-1,4.51.24,5.52,1.91,1.54,4.54-.11,6.24-2.11a20.43,20.43,0,0,1,3.56-3.26S107.61,150.83,106.86,149.29Z" style="fill:#BA68C8"></path><path d="M106.86,149.29c-2.5-2.78-5.79-3.92-9.73-3.94s-.88,3.51-1.12,6.92c-.21,2.88-1,4.51.24,5.52,1.91,1.54,4.54-.11,6.24-2.11a20.43,20.43,0,0,1,3.56-3.26S107.61,150.83,106.86,149.29Z" style="opacity:0.25"></path><path d="M96,152.27a35,35,0,0,0-.41,4.26c.35-1.89,1.55-3.46,1.93-4.63.55-1.75-1-2.65-2.42-5.19C95.07,148.05,96.16,150.18,96,152.27Z" style="opacity:0.15"></path><path d="M108,148.79c2.11-3.08,5.23-4.63,9.13-5.17s1.33,3.37,2,6.72c.58,2.83,1.26,4.67.15,5.84-1.69,1.77-4.18.14-6.13-1.62a20.26,20.26,0,0,0-4-2.77S107.45,150.41,108,148.79Z" style="fill:#BA68C8"></path><path d="M108,148.79c2.11-3.08,5.23-4.63,9.13-5.17s1.33,3.37,2,6.72c.58,2.83,1.26,4.67.15,5.84-1.69,1.77-4.18.14-6.13-1.62a20.26,20.26,0,0,0-4-2.77S107.45,150.41,108,148.79Z" style="opacity:0.25"></path><path d="M119.14,150.34a16.89,16.89,0,0,1,.19-4.67c-.14,1.15-1.56,2.55-1.3,4.39s1.51,3.72,1.8,5C120,153.94,119.56,152.41,119.14,150.34Z" style="opacity:0.15"></path><path d="M108.47,150.64c0,.24.3.21.42.11l.06-.07a3.23,3.23,0,0,0,.69-.13,5,5,0,0,1,1-.08,6.51,6.51,0,0,1,1.85.3,12.86,12.86,0,0,1,1.86.74l.86.44a6.78,6.78,0,0,1,.9.61s.08,0,.06,0a3.55,3.55,0,0,0-1.46-1.44,7.89,7.89,0,0,0-1.9-1,6.52,6.52,0,0,0-2.05-.38,5.84,5.84,0,0,0-1,.08h-.06a5.45,5.45,0,0,1,.37-.47,7.23,7.23,0,0,1,1.14-1,7.67,7.67,0,0,1,1.41-.83c.52-.24,1.06-.38,1.58-.6.11,0,0-.23-.08-.24a3.75,3.75,0,0,0-1.62.25,7.22,7.22,0,0,0-1.58.77,7.82,7.82,0,0,0-1.35,1.15A2.83,2.83,0,0,0,108.47,150.64Z" style="opacity:0.15"></path><path d="M101.09,148.76a2.53,2.53,0,0,0,.55,0,5.89,5.89,0,0,1,2.31.35,7,7,0,0,1,1.25.55l.35.26-.47.07a6.08,6.08,0,0,0-1.64.59,8.07,8.07,0,0,0-1.48,1,3.48,3.48,0,0,0-1.11,1.33c-.06.14.08.2.16.08a5.22,5.22,0,0,1,1.71-1.41,8.77,8.77,0,0,1,1.21-.65,5.11,5.11,0,0,1,1.33-.4,5.34,5.34,0,0,1,.69-.05,1.83,1.83,0,0,0,.66,0,.36.36,0,0,0,.19-.13.22.22,0,0,0,0-.33,4.14,4.14,0,0,0-1.27-1,6.13,6.13,0,0,0-1.43-.58,7,7,0,0,0-1.57-.15,3.22,3.22,0,0,0-1.44.27C101.07,148.6,101,148.74,101.09,148.76Z" style="opacity:0.15"></path><path d="M107.28,148c1.38-.09,1.91.44,2.06,2.24s-.32,2.47-1.46,2.71-2.38-.1-2.57-2C105,148.1,105.45,148.06,107.28,148Z" style="fill:#BA68C8"></path></g><g id="freepik--arm--inject-69"><path d="M138.09,207.67c.43,2,2.9,1.43,2.9,1.43l1.9-3.79a2.57,2.57,0,0,1,1.31,1.32,17.77,17.77,0,0,1,1.64,5.36,2.14,2.14,0,0,1-1.24,1.82s1.19,2.73-1,3.84c.33,1.59-.13,2.73-1.48,3.09a2.86,2.86,0,0,1-.94,2.2c-.67.58-4,2.61-6.75,2.31-3.44-.37-12.77-3.9-16.87-5.76-.65-5.74-.45-11,4.39-13.29,0,0,4.87,1.53,7.33,1,1.46-.31,3.49-.89,5.68-1.58,3.57-1.12,4.38-.58,4.38-.58Z" style="fill:#ffbda7"></path><path d="M115.2,203.41l7.9,2.4a16,16,0,0,0-3.46,8.13c-.77,5.22.69,7.29.69,7.29l-9.24-2Z" style="fill:#f0f0f0"></path><path d="M118.33,203.77,90.09,194s-4.26-19-6.22-28.46c-3.32-16-7.12-20.89-7.12-20.89a51.08,51.08,0,0,0-6.69,2.92c-3.14,2.06-9.81,4.58-5.62,23.82,3.09,14.21,6.4,27.39,7.61,31.21,2.76,8.74,1.51,8.56,16,12.53,11.45,3.13,26.21,5.57,26.21,5.57C113.72,214.76,114.54,208.62,118.33,203.77Z" style="fill:#BA68C8"></path><path d="M118.33,203.77,90.09,194s-4.26-19-6.22-28.46c-3.32-16-7.12-20.89-7.12-20.89a51.08,51.08,0,0,0-6.69,2.92c-3.14,2.06-9.81,4.58-5.62,23.82,3.09,14.21,6.4,27.39,7.61,31.21,2.76,8.74,1.51,8.56,16,12.53,11.45,3.13,26.21,5.57,26.21,5.57C113.72,214.76,114.54,208.62,118.33,203.77Z" style="opacity:0.25"></path><path d="M90.09,194c-3.81-.59-10.85,1.84-11.65,5.25,0-4.23,5.93-7.4,11.24-7.07Z" style="opacity:0.25"></path></g><g id="freepik--Flag--inject-69"><g id="freepik--Pole--inject-69"><path d="M221.94,39.72a1.62,1.62,0,0,1,2.17-.73h0a1.62,1.62,0,0,1,.73,2.17L105.45,280.27h0a.8.8,0,0,1-.72.38,2.51,2.51,0,0,1-2-1,.8.8,0,0,1-.13-.8h0Z" style="fill:#37474f"></path><path d="M254.25,150.13c1.22-26,4-44.58-4.79-68.42-10-26.91-26.41-35.62-26.41-35.62l-3.3-2-47.32,94.77,2.79,1.68s17.51,9.3,20.62,34.41c3.8,30.7.67,52.95,3.65,78.76S233.31,310,251.1,311.85l21.54-89.76C260.47,206.23,252.3,191.74,254.25,150.13Z" style="fill:#BA68C8"></path><path d="M254.25,150.13c1.22-26,4-44.58-4.79-68.42-10-26.91-26.41-35.62-26.41-35.62l-3.3-2-47.32,94.77,2.79,1.68s17.51,9.3,20.62,34.41c3.8,30.7.67,52.95,3.65,78.76S233.31,310,251.1,311.85l21.54-89.76C260.47,206.23,252.3,191.74,254.25,150.13Z" style="fill:#fff;opacity:0.7000000000000001"></path><polygon points="175.22 140.55 222.53 45.78 174.15 139.9 175.22 140.55" style="fill:#BA68C8"></polygon><path d="M224.11,39h0a1.62,1.62,0,0,1,.73,2.17L224,42.88a4.5,4.5,0,0,1-1.58-.44,4.59,4.59,0,0,1-1.32-1l.86-1.71A1.62,1.62,0,0,1,224.11,39Z" style="fill:#263238"></path><path d="M220.81,35.52a4.5,4.5,0,1,0,6-2A4.5,4.5,0,0,0,220.81,35.52Z" style="fill:#455a64"></path></g></g><path id="freepik--Hand--inject-69" d="M161.69,160.39c-1,1-2.4,1.09-2.68-.37-.37-2-1.49-6.54-1.1-8.53a4.44,4.44,0,0,1,1.48-2c.59-.56.92-.53,1-1.38a3,3,0,0,1,2.33-3.07c.14-1.39.29-2.7,1.66-3.42,1.71-.9,6.77.55,7.75,2.22,2.7,4.63,6.64,10.37,5.37,13.59a94.2,94.2,0,0,1-5.18,9.53c-4.74,1.51-8-2.66-8.65-3.22l1.15-2.3a2,2,0,0,0-.82-1.91c-1.08-.94-1.62-.47-1.62-.47Z" style="fill:#ffbda7"></path></g></g></g><g id="freepik--character-3--inject-69"><g id="freepik--character-boy--inject-69"><g id="freepik--legs--inject-69"><path d="M310.54,272.39c-4.88,5.37-15.41,15.28-15.41,15.28l-5.59,8.4s.62,20.66,1.33,28.78c-5.32,2.37-9.07,7.32-11.75,13-3.08,6.53-4.74,9.44-6.32,12.51s-2.58,4.76-3.57,5.57a17.25,17.25,0,0,1-4,2.47,4.39,4.39,0,0,0-2.18,4.15c.31,2.95,2.15,3.92,2.83,6.49a41.31,41.31,0,0,1,.82,5.55c.24,2.12.58,4.62,1.94,6a11.08,11.08,0,0,0,5.31,3c5.43,1.42,9.64,0,9.92-2.08.19-1.35-1.59-2.92-3-3.92-2.16-1.56-3.24-4.91-3.43-7.12-.33-4-.6-7.72,1.16-10.6s3.16-3.88,8.42-8.78c5.57-5.19,9.85-9.54,16-15.07,2.67-2.39,8.82-8.13,9.34-13.57.84-8.9,1.86-14.28,1.94-23.11C314.55,280,310.54,272.39,310.54,272.39Z" style="fill:#fafafa"></path><path d="M311.33,279.79l-4.7,0c-5.46,4.09-11.5,7.83-11.5,7.83l-5.59,8.4s.62,20.66,1.33,28.78a20.82,20.82,0,0,0-8.2,6.94l2.89,4c-1.85,6.52-1.13,13.38-.48,17.08l2-1.85c5.57-5.19,9.85-9.54,16-15.07a49.08,49.08,0,0,0,4.12-4.05c-.08-2-.2-3.9-.4-6.56-.54-6.94-4-31.44-4-31.44C306.94,290,310.67,283.11,311.33,279.79Z" style="fill:#e0e0e0"></path><path d="M310.54,272.39s3.09,4,4.17,19-.48,30.41-2.09,34-5.38,8.07-10,12.21-5.17,3.54-5.17,3.54a24,24,0,0,1-10.7-13.78,2.78,2.78,0,0,1,2.79-2.95L287.69,272Z" style="fill:#37474f"></path><path d="M262.57,369.22l2.53.45L263.54,368S262.65,368.48,262.57,369.22Z"></path><path d="M283.29,383.22c.14.14.42.91-.8,1.85-3.32,1.12-10.13.9-13.73-2.27-3.11-2.74-3.17-5.55-3.41-8.08s-.59-4.82-1.81-6.71a14.35,14.35,0,0,0-1,1.21c-1.27-1.52-2.69-4.79-2.49-5.55.39-1.41,2.74-3.71,2.74-3.71Z" style="fill:#263238"></path><path d="M277.77,376.92q-4.32-4.08-5.21-14.36a2.83,2.83,0,0,1,2.7-.43,3.18,3.18,0,0,1,1.84,1.43C276,367.61,276.69,372.21,277.77,376.92Z" style="fill:#263238"></path><path d="M270.65,354.22a.93.93,0,0,0-1,0c-.65.45-1.05,1.3-2.16,2.12-1.46,1.09-4.36,3-5.19,4.27s1.56,4.82,2.5,6.9a19.46,19.46,0,0,1,1.58,6.88c.35,4,1.05,6.51,3.78,8.13,4.29,2.54,10.82,2.12,12.67,1.39,1.14-.44,3.1-3.14-.84-6.17-1.37-1.05-2.65-2.05-3.13-3.46a21.67,21.67,0,0,1-.94-4.36c-.14-.89-.14-2.57-.19-3.59a17.57,17.57,0,0,1,.44-3.95c.23-1.31.76-1.77.31-2.16a6.31,6.31,0,0,0-.66,1.6c-.1.31-.61.42-1,.52-1,.25-.66,4.24-.66,6.22a25.92,25.92,0,0,0,1.44,7.81c-2.55-3.43-2.83-7.87-3-10s.29-4.45-1-5c-1-.45-1.84-.84-2.78-3.53a8.41,8.41,0,0,1-.73-2.71A5,5,0,0,0,270.65,354.22Z" style="fill:#37474f"></path><path d="M282,377.75l-.7-.55a7.58,7.58,0,0,0-3.71-.82c-3.61.16-4,1.43-5.68-.36-1-1.12-1.87-5.83-4.21-7.78s-2.89-.72-2.89-.72a19.46,19.46,0,0,1,1.58,6.88c.35,4,1.05,6.51,3.78,8.13,4.29,2.54,10.82,2.12,12.67,1.39C283.93,383.48,285.89,380.78,282,377.75Z" style="fill:#455a64"></path><path d="M279.1,375.48c-.07-.24-.34-.35-.54-.47a4.94,4.94,0,0,0-.7-.33,4.31,4.31,0,0,0-1.46-.33,3.43,3.43,0,0,0-1.19.17c-.39.14-.87.36-1,.77,0,.08,0,.18.07.19a.79.79,0,0,0,.44-.16,4,4,0,0,1,.57-.22,3.58,3.58,0,0,1,1.26-.11,5.42,5.42,0,0,1,1.38.31c.21.07.43.16.64.25s.33.18.49.06A.11.11,0,0,0,279.1,375.48Z"></path><path d="M278.15,372.62c-.07-.24-.34-.34-.54-.46a5,5,0,0,0-.7-.34,4.31,4.31,0,0,0-1.46-.33,3.43,3.43,0,0,0-1.19.17,1.52,1.52,0,0,0-1,.78c0,.07,0,.18.07.19a.79.79,0,0,0,.44-.16,2.49,2.49,0,0,1,.57-.22,3.58,3.58,0,0,1,1.26-.12,5.42,5.42,0,0,1,1.38.31l.64.25c.17.07.33.19.49.07A.13.13,0,0,0,278.15,372.62Z"></path><path d="M277.61,369.45c-.08-.24-.35-.35-.55-.47a4.94,4.94,0,0,0-.7-.33,4.31,4.31,0,0,0-1.45-.33,3.26,3.26,0,0,0-1.2.17,1.58,1.58,0,0,0-1,.77c0,.07,0,.18.07.19a.79.79,0,0,0,.44-.16,4,4,0,0,1,.57-.22A3.58,3.58,0,0,1,275,369a5.42,5.42,0,0,1,1.38.31,5.64,5.64,0,0,1,.64.25c.17.07.33.18.5.06A.15.15,0,0,0,277.61,369.45Z"></path><path d="M277.43,366.88c-.05-.25-.3-.39-.49-.53a4.5,4.5,0,0,0-.65-.42,4.14,4.14,0,0,0-1.4-.51,3.51,3.51,0,0,0-1.21,0,1.55,1.55,0,0,0-1.1.65c0,.06-.05.17.05.19a.84.84,0,0,0,.46-.1,3,3,0,0,1,.59-.15,3.55,3.55,0,0,1,1.26,0,5.72,5.72,0,0,1,1.33.48c.2.1.41.21.61.33s.3.22.48.12A.15.15,0,0,0,277.43,366.88Z"></path><path d="M315.85,394c-2.74-2-3.93-3-6.48-5-4.1-3.21-5.65-6.6-5.82-9.68a91.9,91.9,0,0,1,.3-10.3c.19-3.24.67-13.39,1-22.56.45-10.67.64-14.08-.87-25-.85-6.14-2.27-17.73-3.62-29.07,0,0,4-1.93,8.51-8.52,2.43-3.53,2.1-7.93,1.62-11.49a27.49,27.49,0,0,1-19,6.57c-12.64-.42-18.89-5.5-18.89-5.5a22.92,22.92,0,0,0-2.92,9.74,52.07,52.07,0,0,0,1.15,13.88c1.7,8,12.71,30.87,16.5,38.17-1.39,5.68-1.58,10.88,1.18,23.07a170.15,170.15,0,0,1,2.94,19.14c-.09,1.4-.8,2.15-1.84,5.37-.38,1.15-1.22,3.08-1,4.34s3.79,3.26,6.14,4.37c3.32,1.57,3.35,2.43,5.92,5.23a12.7,12.7,0,0,0,6.25,3.69c3.68.8,6.91.72,9.27-.75S318.42,395.92,315.85,394Z" style="fill:#fafafa"></path><path d="M285.93,343.43a10,10,0,0,0,.69,3.37c2.85,1.92,13.5,3.37,18.28-.33a16.92,16.92,0,0,0,.36-3.88Z" style="fill:#37474f"></path><path d="M271.23,271.63c-.91,7.75-3.08,19.36-2.5,25.09.67,6.7,5.28,15.67,9.43,23.16,2,3.6,8.56,14.11,7.88,15.41s-2.36,7.29.42,9c1.66,1.67,12.9,3.42,18.54,0,2-2,1.54-6.49,1.31-9.74s-5-42.1-5-42.1,10-7.52,9.23-20.06Z" style="fill:#455a64"></path><path d="M293.62,394.47l2.32-1.1-2.24-.45A1.94,1.94,0,0,0,293.62,394.47Z"></path><path d="M317.81,398.55a3.1,3.1,0,0,1-1.08,3,13.39,13.39,0,0,1-10,.64c-4.7-1.4-5.89-2.58-7.55-4.5s-3.34-3.95-5.44-4.78c0,0-.08.75-.08,1.55-1.91-.5-5-2.34-5.25-3.07-.51-1.38.08-4.61.08-4.61Z" style="fill:#263238"></path><path d="M309.57,392.62l-11.69-9.38s.2-1.95,3-2.23,2.8.44,2.8.44Z" style="fill:#263238"></path><path d="M291.54,377.46a1.19,1.19,0,0,0-.9.72c-.27.74-.1,1.66-.53,3-.55,1.74-1.77,5-1.74,6.48s4.07,3,6.05,4.17a20.31,20.31,0,0,1,5.28,4.68,15.07,15.07,0,0,0,8.36,4.69c3.71.57,8.08,0,9.31-1.52,1.53-1.94,2-4-3.05-7.39-1-.65-3.87-3-5-4A24.34,24.34,0,0,1,306,384.7a8.18,8.18,0,0,1-1.32-2.66,16.59,16.59,0,0,1-.45-2.5c-.15-1-.13-1.85-.72-1.91a10.61,10.61,0,0,0,.06,1.7,1.12,1.12,0,0,1-.28.82c-1,1.53.37,4.48,1.16,5.78a44.42,44.42,0,0,0,5.14,6.69,100.24,100.24,0,0,1-7.93-7.87c-1.48-1.74-1.17-2.64-3.67-3-1.13-.19-2,.38-4.32-1.26a8.27,8.27,0,0,1-2.09-1.85A5.46,5.46,0,0,0,291.54,377.46Z" style="fill:#37474f"></path><path d="M317.37,399.66c1.53-1.94,2-4-3.05-7.39-.23-.15-.57-.41-1-.72h0a6.85,6.85,0,0,0-4.78,0c-2.92.9-3,3-7.6-.16s-7.17-2.89-7.49,0h0c.34.17.66.34.94.5a20.31,20.31,0,0,1,5.28,4.68,15.07,15.07,0,0,0,8.36,4.69C311.77,401.75,316.14,401.22,317.37,399.66Z" style="fill:#455a64"></path><path d="M309.9,390.05c-.15-.2-.44-.21-.67-.26a5,5,0,0,0-.77-.08,4.33,4.33,0,0,0-1.48.17,3.14,3.14,0,0,0-1.07.56,1.54,1.54,0,0,0-.7,1.06c0,.08,0,.18.13.16s.26-.19.37-.3a2.54,2.54,0,0,1,.46-.4,3.74,3.74,0,0,1,1.15-.52,5.48,5.48,0,0,1,1.4-.17l.69,0c.19,0,.37.07.49-.09A.16.16,0,0,0,309.9,390.05Z"></path><path d="M308,388.26c-.15-.2-.44-.21-.67-.26a5,5,0,0,0-.77-.09,4.33,4.33,0,0,0-1.48.18,3.3,3.3,0,0,0-1.07.55,1.56,1.56,0,0,0-.7,1.07c0,.07,0,.18.13.16s.26-.19.37-.3a2.54,2.54,0,0,1,.46-.4,3.76,3.76,0,0,1,1.15-.53,6,6,0,0,1,1.4-.16l.69,0c.19,0,.37.07.49-.1A.14.14,0,0,0,308,388.26Z"></path><path d="M306.13,386c-.16-.21-.44-.21-.68-.26a4.91,4.91,0,0,0-.77-.09,4.39,4.39,0,0,0-1.48.18,3.4,3.4,0,0,0-1.07.55,1.58,1.58,0,0,0-.69,1.07c0,.07,0,.17.12.15s.27-.18.37-.29a2.55,2.55,0,0,1,.47-.4,3.6,3.6,0,0,1,1.14-.53,5.15,5.15,0,0,1,1.4-.16c.23,0,.47,0,.7,0s.37.07.48-.1A.14.14,0,0,0,306.13,386Z"></path><path d="M304.35,383.11c-.15-.2-.44-.21-.67-.26a4.9,4.9,0,0,0-.77-.08,4.33,4.33,0,0,0-1.48.17,3.14,3.14,0,0,0-1.07.56,1.54,1.54,0,0,0-.7,1.06c0,.08,0,.18.13.16s.26-.19.37-.3a3.47,3.47,0,0,1,.46-.4,3.74,3.74,0,0,1,1.15-.52,5.48,5.48,0,0,1,1.4-.17c.23,0,.46,0,.69,0s.37.06.49-.1A.16.16,0,0,0,304.35,383.11Z"></path></g><g id="freepik--top--inject-69"><g id="freepik--arm--inject-69"><path d="M353.77,283.45c1.06,0,2.86-.54,2.55-2s-1.36-1.68-.12-2.62,3.09-2.54,1.5-4.06-2.34-1.94-1.95-2.89,1.4-2.75-.34-3.78-2.15-1.13-1.91-2.27-.51-3.46-2.81-3-5.56,4.92-6.06,7.38C343.68,275,348.84,281.86,353.77,283.45Z" style="fill:#e0e0e0"></path><path d="M343.15,279.13a51.73,51.73,0,0,0,5.6-.9c1.44-.31,2.31-.56,3-.7.94-.19,2.09-.17,3-.27,2.42-.26,3.3-.36,5.52-.48a2.63,2.63,0,0,0,2.1-.77,23.35,23.35,0,0,0,2.92-3.92,2.51,2.51,0,0,0,.54-1.84c-.15-.58-.66-1.07-.67-1.7a3.72,3.72,0,0,1,.29-1.06,2.26,2.26,0,0,0-.46-2.08,1.68,1.68,0,0,1-.51-.76,1.29,1.29,0,0,1,.06-.47,4.27,4.27,0,0,0-.93-3.17,5,5,0,0,0-2.49-1.13,9.39,9.39,0,0,0-3.34-.28c-.83,0-2.26-.11-3,.36a2.73,2.73,0,0,0-.37.32c-.26.25-.52.52-.76.8-.82.94-1.45,2-2.23,3a24.08,24.08,0,0,1-2,2.27,3.68,3.68,0,0,1-1.61.94c-.91.27-4.56.45-7.18,1C340.26,268.94,339.32,276.86,343.15,279.13Z" style="fill:#ffa8a7"></path><path d="M309.14,231.87c-2.88,2.26-4.26,4.26-4.73,7.81-.42,3.21-.54,6.28,1.53,14.4,1.68,6.63,2.06,8.09,5.42,18.43,2,6,4.12,7.48,11.37,9.46,11,3,22.59,3.52,22.21-3.07-3.09-1-4.77-8.57-2-10.87-.25-1.83-7.08-2.95-15.21-4.43,0,0-1.77-6-4.33-13.71-1.56-4.68-1.94-13.2-4.74-16.57C316.58,230.81,312.48,233,309.14,231.87Z" style="fill:#fafafa"></path><path d="M327.73,263.6c-2.35.09-5.74,2.47-7.47,5.21a10.59,10.59,0,0,1,7.05-6.64Z" style="fill:#e0e0e0"></path><path d="M342.94,268c-2.77,2.3-1.05,10.93,2,11.88,0,0,5.86,3,8.8,3.54-1.61-.87-2.87-2.41-2.36-3.49,1-2.08,2-4.18.2-5.36s-2.63-2.9-1.67-3.94a2.73,2.73,0,0,0-.14-3.91c-1.24-.91-.09-3.3.89-3.86C349,263,344.59,266.26,342.94,268Z" style="fill:#f0f0f0"></path></g><g id="freepik--chest--inject-69"><path d="M271.54,262.67c-.81-8.11-2.81-17.17-3.3-20.06-1.21-7.15,2.54-9.5,4.71-10.19l12.12-3.19s11.23-.21,13.39,0c4.39.45,10.25,3.21,10.25,3.21,2.54,2.28,3.53,5.49,3.91,16.37.12,3.52.3,24.51.3,34.9-8,7.18-33,7.28-43.38.16C269.54,283.89,272.47,271.94,271.54,262.67Z" style="fill:#e0e0e0"></path><path d="M284.52,228.15v1.23a20.51,20.51,0,0,0,4.93,6.69c4.51,4.29,9.43,9.57,9.43,9.57s4.33-10,.5-16.06v-1.19s8.43,2.84,9.77,3.48,3.61,2,4.15,18.32.32,32.42,1.22,37.39S316,295.4,316,295.4s-6.66,3-11.06,3.24l-4.69-17.89-5.14,18.41s-17.78,2.47-27.94-6.1c1.21-6.46,3.66-18.59,3.84-24.68s-4.67-22.26-4.37-28.54c.2-4.09,1.81-6.65,4-7.63S284.52,228.15,284.52,228.15Z" style="fill:#BA68C8"></path><path d="M300.92,277.79s1-16-1.55-30.34c3.19-4,4.3-12.14,1.81-18.45l-1.81-.61v1.19c3.83,6-.5,16.06-.5,16.06s-4.92-5.28-9.43-9.57a20.51,20.51,0,0,1-4.93-6.69v-1.23l-1.15.3c-.39,1.85-.39,2.91,1.72,5.51,2.38,2.93,11.32,11.11,12.85,13.59,0,0,2.36,15.88,1.43,30.24l-5.52,19.57a44.24,44.24,0,0,1-13.94-.64,34.49,34.49,0,0,1-12.34-5.64c-.14.7-.26,1.37-.38,2,10.16,8.57,27.94,6.1,27.94,6.1l5.14-18.41L305,298.64c4.4-.25,11.06-3.24,11.06-3.24s-.11-.52-.31-1.51a35.16,35.16,0,0,1-9.4,2.85Z" style="fill:#ebebeb"></path></g><g id="freepik--head--inject-69"><path d="M284.64,222.59c-1.27-3.48-4.84-6.42-7.52-11.64-3.46-6.73-1.87-13.74,3.09-15.74,1.07-6,7.84-9.84,16.14-8.86s17.72,5.55,13.63,16.48c-1.07,1-1.57,1.66-3.06,1.8,0,0-.89,3-1,3.23a12.1,12.1,0,0,1-4.7,5.15,17.15,17.15,0,0,1-3.73,1.29,11.62,11.62,0,0,0-2.19.78,7.75,7.75,0,0,0-1.23,1.2l-7,6.81C286.46,223.61,285.25,222.58,284.64,222.59Z" style="fill:#263238"></path><path d="M284.36,211.51a.9.9,0,0,1-.18.15c-1,.66-1-1.11-2-2.28a2.64,2.64,0,0,0-2.18-.86,3.37,3.37,0,0,0-3.17,2,5,5,0,0,0,3,6.45,4,4,0,0,0,4.33-.9l.36,13.33s2.59,4.94,11,4.37c5.33-.35,4.76-3.06,3.87-4.17l0-3.76a16.8,16.8,0,0,0,5.22-.79,10,10,0,0,0,6.43-7.87c.46-2.56-.34-4.82-.34-7.41,0-1.54.09-4,0-5-.06-1.23-.64-6.1-2-7.75-2,3.39-11.48,4.34-18.39,1.57a10.77,10.77,0,0,1-1.25,5.3c-1,1.81-2.53,2.75-4.28,3.88a6,6,0,0,1,0,2.89A2,2,0,0,1,284.36,211.51Z" style="fill:#ffa8a7"></path><path d="M295.78,205.15l-3.52,1.37a2,2,0,0,1,1.11-2.5A1.84,1.84,0,0,1,295.78,205.15Z" style="fill:#263238"></path><path d="M295.74,216,301.1,218a3,3,0,0,1-3.81,1.69A2.81,2.81,0,0,1,295.74,216Z" style="fill:#b16668"></path><path d="M298.88,219.84a3.44,3.44,0,0,0-3.37-2.76,2.78,2.78,0,0,0,1.78,2.64A2.89,2.89,0,0,0,298.88,219.84Z" style="fill:#f28f8f"></path><path d="M294,208.86a1.55,1.55,0,1,0,1.42-1.67A1.54,1.54,0,0,0,294,208.86Z" style="fill:#263238"></path><path d="M304.78,208.07a1.48,1.48,0,1,0,1.36-1.6A1.48,1.48,0,0,0,304.78,208.07Z" style="fill:#263238"></path><path d="M308.6,205.64l-3.54-1.38a1.83,1.83,0,0,1,2.4-1.12A2,2,0,0,1,308.6,205.64Z" style="fill:#263238"></path><polygon points="300.15 205.89 301.18 214.68 305.54 212.75 300.15 205.89" style="fill:#f28f8f"></polygon><path d="M299.35,225.82a26.34,26.34,0,0,1-9.76-2.89,9.74,9.74,0,0,1-3.61-4.58,12.36,12.36,0,0,0,2.2,4.77c4,4.27,11.19,4.59,11.19,4.59Z" style="fill:#f28f8f"></path></g><g id="freepik--Neck--inject-69"><path d="M306.3,245.66c-1.94-3-5.43-7.67-7.25-9.24l-4.24.76c-.42.9-1.46,3.94-1.95,5.13a38.74,38.74,0,0,0-2.06,7,14.09,14.09,0,0,0-.28,2.14,1.79,1.79,0,0,0,1,1.65,3.34,3.34,0,0,0,2.47.11,4.43,4.43,0,0,1,1.53-.22c1.33.07,2.39,1,3.74,1.07a4.73,4.73,0,0,0,2.19-.48,5.08,5.08,0,0,0,1.42-1.35,2.4,2.4,0,0,1,1.58-.89,7.47,7.47,0,0,1,1.57.16,2,2,0,0,0,2.22-2.17C308.08,247.94,307,246.8,306.3,245.66Z" style="fill:#e0e0e0"></path><path d="M304.86,241.88a50.57,50.57,0,0,0-6.52-8.31l-3.81.68c-.39.81-1.32,3.55-1.75,4.61a34.17,34.17,0,0,0-1.86,6.32,12.46,12.46,0,0,0-.25,1.92,1.6,1.6,0,0,0,.87,1.49,3,3,0,0,0,2.22.09,4,4,0,0,1,1.38-.19c1.19.06,2.15.92,3.36,1a4.2,4.2,0,0,0,2-.43,4.38,4.38,0,0,0,1.28-1.22,2.18,2.18,0,0,1,1.42-.8,6.69,6.69,0,0,1,1.41.15,1.76,1.76,0,0,0,2-2C306.46,243.93,305.51,242.9,304.86,241.88Z" style="fill:#ebebeb"></path><path d="M284.39,224.57c-1.23.06-1.52,2-1.62,4s.36,2.79,3.21,4.36c3.42,1.88,8.2,1.65,8.2,1.65s-3.68,6.57-3.41,9.37,3.41.17,4.74.55,1.33,2.31,3.37,1.64c1.51-.49.73-2,2.22-2.62s3.13.66,4.14-1.11c.7-1.22-6.36-8.65-6.36-8.65a4.51,4.51,0,0,0,1.94-3,19.56,19.56,0,0,0-.49-5,9,9,0,0,1-1,0v.86s-.81,2.71-4.8,2.46c-8.34-.52-10.14-3.45-10.14-3.45Z" style="fill:#f5f5f5"></path></g><g id="freepik--Drum--inject-69"><path d="M316.2,341.51v0h0l-14.87-35.81,51.9-17.7s6.92,25.16,10.33,37.62c.24,3.08-1.16,6.49-4.1,9.77-7.6,8.45-22.84,13.57-34,11.4C321.17,345.93,317.89,344.05,316.2,341.51Z" style="fill:#BA68C8"></path><path d="M316.2,341.51v0h0l-14.87-35.81,51.9-17.7s6.92,25.16,10.33,37.62c.24,3.08-1.16,6.49-4.1,9.77-7.6,8.45-22.84,13.57-34,11.4C321.17,345.93,317.89,344.05,316.2,341.51Z" style="fill:#fff;opacity:0.5"></path><path d="M363.54,325.59l-1-3.74c.24,3.11-1.17,6.55-4.15,9.86-7.66,8.55-23.06,13.71-34.33,11.53-4.31-.85-7.61-2.81-9.31-5.37l1.49,3.64c1.69,2.54,5,4.42,9.24,5.25,11.16,2.17,26.4-2.95,34-11.4C362.38,332.08,363.78,328.67,363.54,325.59Z" style="fill:#BA68C8"></path><path d="M363.54,325.59l-1-3.74c.24,3.11-1.17,6.55-4.15,9.86-7.66,8.55-23.06,13.71-34.33,11.53-4.31-.85-7.61-2.81-9.31-5.37l1.49,3.64c1.69,2.54,5,4.42,9.24,5.25,11.16,2.17,26.4-2.95,34-11.4C362.38,332.08,363.78,328.67,363.54,325.59Z" style="opacity:0.30000000000000004"></path><path d="M322,351.41h0Z" style="fill:#455a64"></path><path d="M340.87,276c-12.14-2.46-28.62,3.07-36.82,12.35-4.08,4.62-5.34,9.3-4.07,13.14.09.27.84,2.94.93,3.19,1.29,3.85,5.12,6.84,11.19,8.07,12.13,2.46,28.62-3.06,36.82-12.34,4.09-4.64,5.34-9.34,4.06-13.19-.09-.25-.84-2.92-.93-3.19C350.74,280.18,346.92,277.2,340.87,276Z" style="fill:#BA68C8"></path><path d="M340.87,276c-12.14-2.46-28.62,3.07-36.82,12.35-4.08,4.62-5.34,9.3-4.07,13.14.09.27.84,2.94.93,3.19,1.29,3.85,5.12,6.84,11.19,8.07,12.13,2.46,28.62-3.06,36.82-12.34,4.09-4.64,5.34-9.34,4.06-13.19-.09-.25-.84-2.92-.93-3.19C350.74,280.18,346.92,277.2,340.87,276Z" style="opacity:0.30000000000000004"></path><path d="M311.18,309.59c-12.14-2.46-15.33-12-7.13-21.26s24.68-14.81,36.82-12.35,15.33,12,7.13,21.26S323.32,312.05,311.18,309.59Z" style="fill:#BA68C8"></path><path d="M330.48,306.06c-6.76,2.26-13.6,2.88-19.27,1.73-5.43-1.1-9.09-3.69-10.3-7.28s.16-7.86,3.83-12c3.83-4.33,9.66-8,16.41-10.23s13.61-2.88,19.27-1.73c5.44,1.1,9.09,3.68,10.3,7.27s-.15,7.87-3.83,12C343.07,300.15,337.23,303.79,330.48,306.06Z" style="fill:#BA68C8"></path><g style="opacity:0.30000000000000004"><path d="M330.48,306.06c-6.76,2.26-13.6,2.88-19.27,1.73-5.43-1.1-9.09-3.69-10.3-7.28s.16-7.86,3.83-12c3.83-4.33,9.66-8,16.41-10.23s13.61-2.88,19.27-1.73c5.44,1.1,9.09,3.68,10.3,7.27s-.15,7.87-3.83,12C343.07,300.15,337.23,303.79,330.48,306.06Z"></path></g><path d="M311.21,307.79c5.67,1.15,12.51.53,19.27-1.73s12.59-5.91,16.41-10.24c3.15-3.56,4.59-7.2,4.18-10.43-1.73-2.52-4.92-4.33-9.25-5.21-5.66-1.15-12.51-.53-19.27,1.73s-12.58,5.91-16.41,10.24c-3.15,3.56-4.59,7.2-4.18,10.43C303.69,305.1,306.89,306.91,311.21,307.79Z" style="fill:#fafafa"></path><path d="M324.82,343.8a.36.36,0,0,1-.33-.22L311.54,315l2.64,21.18a.36.36,0,0,1-.72.09l-2.94-23.56a.37.37,0,0,1,.7-.2l12.93,28.55-3.56-27.7a.36.36,0,0,1,.25-.4.37.37,0,0,1,.43.18l14.44,28-4.25-30.19a.38.38,0,0,1,.25-.4.36.36,0,0,1,.43.17l15.39,26.39-5.95-30.84a.36.36,0,0,1,.23-.41.37.37,0,0,1,.44.15l14.4,24-7.38-29.92a.36.36,0,0,1,.21-.42.35.35,0,0,1,.45.14l12.49,20.29a.37.37,0,0,1-.63.38l-11.25-18.3,7.4,30a.37.37,0,0,1-.21.42.35.35,0,0,1-.45-.15l-14.59-24.33,6,30.92a.37.37,0,0,1-.23.41.35.35,0,0,1-.44-.15l-15.54-26.65,4.29,30.48a.39.39,0,0,1-.25.4.37.37,0,0,1-.44-.18l-14.47-28,3.61,28.07a.35.35,0,0,1-.26.39Z" style="fill:#263238"></path></g><g id="freepik--arm--inject-69"><path d="M269.71,300.53c.76.75,2.35,1.72,3.19.52s.3-2.13,1.83-1.86,4,.53,4-1.67-.17-3,.8-3.4,3-.84,2.53-2.82-.63-2.34.37-2.94,2.19-2.73.26-4.08-7.39-.73-9.53.58C269,287.4,267.53,295.84,269.71,300.53Z" style="fill:#e0e0e0"></path><g id="freepik--arm--inject-69"><path d="M318.59,296.39a1,1,0,0,1,.26-1.78,3.45,3.45,0,0,1,3.08.46c.77.61.65,1.4-.27,1.77A3.46,3.46,0,0,1,318.59,296.39Z" style="fill:#37474f"></path><path d="M318.5,296.3c-3.51-.42-11.8-1.69-15-2.31s-12.35-2.2-15.56-2.83c-.19,0-.35-.19-.45-.47a2,2,0,0,1,.36-1.79.62.62,0,0,1,.59-.26c2.81.6,11.59,2.06,14.42,2.61s13,2.75,15.94,3.34C319.75,294.78,319.37,296.47,318.5,296.3Z" style="fill:#455a64"></path></g><path d="M265.66,289.81a52.92,52.92,0,0,0,4.47,3.49c1.2.84,2,1.31,2.58,1.75.78.56,1.55,1.41,2.28,2.05,1.83,1.6,2.5,2.18,4.1,3.72a2.66,2.66,0,0,0,2,1,23.42,23.42,0,0,0,4.86-.54,2.5,2.5,0,0,0,1.72-.85c.32-.5.33-1.21.79-1.65a3.3,3.3,0,0,1,1-.5,2.26,2.26,0,0,0,1.21-1.76,1.75,1.75,0,0,1,.21-.89,1.39,1.39,0,0,1,.39-.28,4.69,4.69,0,0,0,1.72-3.3l-2.29-.41-1.35-.26a3.08,3.08,0,0,1-1.14-.46,1.06,1.06,0,0,1-.37-.85,2.09,2.09,0,0,1,.1-.75.83.83,0,0,1,.45-.59,1,1,0,0,1,.58,0l2.85.52c.06-.24-.52-.68-.67-.8a11.79,11.79,0,0,1-1.55-1.53c-.27-.32-.52-.65-.81-.94a2.47,2.47,0,0,0-1-.62,3.86,3.86,0,0,0-.49-.06c-.36,0-.73,0-1.1,0-1.26,0-2.48.33-3.73.42a25.12,25.12,0,0,1-3,.07,3.82,3.82,0,0,1-1.79-.54c-.81-.48-3.43-3-5.61-4.59C271.16,280.75,264.71,285.46,265.66,289.81Z" style="fill:#ffa8a7"></path><path d="M275.87,230.54c-3.06.62-8.23-.2-10.85.56-3.1.9-4.72,3.29-5.88,7.21-1.81,6.15-7.14,15.37-10.26,23.7-2.23,5.93-2.68,8.11.8,14.77,5.3,10.14,12.8,19,17.36,14.18-1.4-2.91,3-9.33,6.61-8.86,1.17-1.43-2.66-7.2-7.1-14.16,0,0,3.22-5.41,7.09-12.5C277.77,247.89,279.23,238.1,275.87,230.54Z" style="fill:#fafafa"></path><path d="M266.55,267.94c-1.67-1.67-5.72-2.53-8.91-1.93a10.59,10.59,0,0,1,9.66.64Z" style="fill:#e0e0e0"></path><path d="M273.65,282.1c-3.57-.47-8.72,6.67-7.33,9.57,0,0,1.81,6.32,3.39,8.86-.44-1.78-.18-3.74,1-4.1,2.18-.7,4.39-1.41,4.05-3.5s.34-3.91,1.75-3.91a2.74,2.74,0,0,0,2.78-2.76c-.18-1.53,2.36-2.32,3.43-2C281.48,283.07,276.07,282.1,273.65,282.1Z" style="fill:#f0f0f0"></path></g><g id="freepik--hand--inject-69"><g id="freepik--arm--inject-69"><path d="M339.46,288.86c.18-1-.43-1.5-1.36-1.17a3.45,3.45,0,0,0-2,2.35c-.18,1,.43,1.49,1.36,1.17A3.45,3.45,0,0,0,339.46,288.86Z" style="fill:#37474f"></path><path d="M339.47,288.72c2.38-2.61,7.82-9,9.8-11.53s7.89-9.76,9.9-12.33a.64.64,0,0,0,0-.65,2,2,0,0,0-1.43-1.12.66.66,0,0,0-.63.19c-1.73,2.3-7.41,9.14-9.18,11.41s-8,10.62-9.86,13C337.53,288.39,338.92,289.42,339.47,288.72Z" style="fill:#455a64"></path></g><path d="M352.94,262.17a4.41,4.41,0,0,1,4.13-3c2.31-.05,5.73-.43,6.12,0,.77.86,0,3-1.84,3.29-3.58.64-4.55,1.34-7.37,4.81Z" style="fill:#ffa8a7"></path><path d="M363.19,259.16a1.63,1.63,0,0,1,.26,1.64,2.82,2.82,0,0,1-1.05,1.41,3.84,3.84,0,0,1-1.65.57c-.54.13-1.08.25-1.6.43a7.59,7.59,0,0,0-2.81,1.66c-.82.74-1.58,1.58-2.36,2.39a19.78,19.78,0,0,1,2.11-2.65,7,7,0,0,1,2.91-1.84,14.07,14.07,0,0,1,1.67-.42,4,4,0,0,0,1.54-.44,2.53,2.53,0,0,0,1-1.19A1.6,1.6,0,0,0,363.19,259.16Z" style="fill:#f28f8f"></path></g></g></g></g><g id="freepik--character-2--inject-69"><g id="freepik--character-girl--inject-69"><g id="freepik--arm--inject-69"><path d="M226.63,326.81c-.26-.43-.49-1.28-1.1-1.24a2.24,2.24,0,0,0-1.6,1.43c-.61,1.37-.3,4.16,1.8,3.25.67-.29,1.36-.68,1.41-1.46A5.82,5.82,0,0,0,226.63,326.81Z" style="fill:#ffa8a7"></path><path d="M216,285.35c5,.58,7.36,1.68,12.91,7.21,5.89,5.85,10.93,10.42,13.83,14.15,2,2.55,3.81,4.44.44,7.75-4,3.93-17.1,8.27-17.64,9.37-.43.85-.35,2.66-.35,4a4.18,4.18,0,0,1-.56,1.94l1.81-.71s-1.11-2,.21-3.05c.53-.31,1,.4,1.68,1.93a6.38,6.38,0,0,1,.18,3.21c-.18.65-3.4,2.94-5.13,2.64s-5.86-3.09-6.71-4.24-.24-5.86,0-7.18,1.12-2.6,3.6-4.27c2-1.32,10.59-7.34,10.59-7.34l-13.66-10.47C215,299.07,211.9,290.8,216,285.35Z" style="fill:#ffc4c3"></path><path d="M214.71,285c1.85-.57,2.26-2.37,6.18-1.3s4,4.56,6.25,6.49,15.5,14.35,17.29,17.79,1.8,4.41-.49,6.62-13.72,7.06-13.72,7.06.86-1.47-.27-4.21-3.68-3.55-4.4-3l4.67-3.66L216.1,300.26S210.47,292.58,214.71,285Z" style="fill:#BA68C8"></path><path d="M214.71,285c1.85-.57,2.26-2.37,6.18-1.3s4,4.56,6.25,6.49,15.5,14.35,17.29,17.79,1.8,4.41-.49,6.62-13.72,7.06-13.72,7.06.86-1.47-.27-4.21-3.68-3.55-4.4-3l4.67-3.66L216.1,300.26S210.47,292.58,214.71,285Z" style="opacity:0.30000000000000004"></path><path d="M234.36,319.86l-4.54,3.78s-2.14-.34-1.61-2.23a1.75,1.75,0,0,1-2.09-2.25,1.5,1.5,0,0,1-1.28-2.52,1.47,1.47,0,0,1-1.65-2.14l4.41-1.66a6.59,6.59,0,0,1,5,2.55C234.52,318,234.36,319.86,234.36,319.86Z" style="fill:#fafafa"></path></g><g id="freepik--bottom--inject-69"><g id="freepik--legs--inject-69"><path d="M218.31,323.05c-4.61,4.8-14.51,13.6-14.51,13.6l-5.35,7.55s0,19,.47,26.42c-4.94,2-8.5,6.47-11.1,11.6-3,5.91-4.6,8.53-6.12,11.3s-2.49,4.29-3.41,5a16,16,0,0,1-3.7,2.16,4,4,0,0,0-2.11,3.75c.22,2.71,1.87,3.65,2.42,6a35.68,35.68,0,0,1,.61,5.1c.17,1.95.42,4.25,1.63,5.51a10.19,10.19,0,0,0,4.79,2.91c4.93,1.44,8.83.26,9.14-1.65.2-1.24-1.38-2.72-2.63-3.68-1.94-1.47-2.84-4.58-2.95-6.61-.21-3.65-.36-7.09,1.33-9.68s3-3.47,7.94-7.82c5.24-4.61,9.28-8.49,15.09-13.39,2.52-2.13,8.3-7.23,8.92-12.2,1-8.13,2.08-13,2.37-21.13C221.79,330.09,218.31,323.05,218.31,323.05Z" style="fill:#455a64"></path><path d="M218.85,329.85l-4.32-.07c-5.1,3.6-10.73,6.87-10.73,6.87l-5.35,7.55s0,19,.47,26.42a19,19,0,0,0-7.69,6.14l2.54,3.78c-1.87,5.92-1.38,12.23-.88,15.64l1.87-1.64c5.24-4.61,9.28-8.49,15.09-13.39a46.58,46.58,0,0,0,3.89-3.61c0-1.81-.08-3.58-.2-6-.31-6.38-2.85-28.92-2.85-28.92C214.55,339.09,218.15,332.88,218.85,329.85Z" style="fill:#37474f"></path><path d="M171.83,410.54l2.31.48-1.39-1.57S171.93,409.86,171.83,410.54Z"></path><path d="M190.46,423.91c.12.13.36.84-.79,1.67-3.07.94-9.31.56-12.52-2.44-2.78-2.59-2.76-5.17-2.91-7.49a13.39,13.39,0,0,0-1.49-6.2,13,13,0,0,0-.92,1.09c-1.12-1.43-2.34-4.47-2.13-5.15.39-1.29,2.61-3.33,2.61-3.33Z" style="fill:#263238"></path><path d="M185.56,418q-3.85-3.86-4.4-13.3a2.6,2.6,0,0,1,2.48-.32,2.93,2.93,0,0,1,1.66,1.36C184.16,409.41,184.69,413.64,185.56,418Z" style="fill:#263238"></path><path d="M179.63,397a.82.82,0,0,0-.95,0c-.61.39-1,1.15-2,1.88-1.37,1-4.08,2.68-4.86,3.77s1.29,4.47,2.1,6.39a17.85,17.85,0,0,1,1.28,6.35c.21,3.63.79,6,3.25,7.55,3.86,2.44,9.85,2.22,11.57,1.61,1.06-.38,2.92-2.8-.61-5.69a7.47,7.47,0,0,1-2.78-3.25,19.55,19.55,0,0,1-.74-4c-.11-.83-.06-2.36-.08-3.3a16.12,16.12,0,0,1,.5-3.61c.25-1.19.74-1.6.34-2a5.89,5.89,0,0,0-.65,1.44c-.1.28-.57.37-1,.45-.91.21-.71,3.87-.77,5.68a24.06,24.06,0,0,0,1.12,7.2c-2.24-3.21-2.38-7.29-2.49-9.25s.38-4.07-.8-4.62c-.95-.44-1.66-.82-2.45-3.31a7.55,7.55,0,0,1-.6-2.5A5,5,0,0,0,179.63,397Z" style="fill:#37474f"></path><path d="M189.37,418.85l-.63-.51a6.8,6.8,0,0,0-3.38-.85c-3.31.05-3.72,1.2-5.19-.48-.93-1.05-1.56-5.39-3.65-7.24s-2.64-.74-2.64-.74a17.85,17.85,0,0,1,1.28,6.35c.21,3.63.79,6,3.25,7.55,3.86,2.44,9.85,2.22,11.57,1.61C191,424.16,192.9,421.74,189.37,418.85Z" style="fill:#455a64"></path><path d="M186.82,416.7c-.06-.22-.31-.32-.49-.44a4.71,4.71,0,0,0-.63-.33,4.07,4.07,0,0,0-1.32-.33,3.13,3.13,0,0,0-1.1.12,1.42,1.42,0,0,0-.95.69c0,.06,0,.16.06.17a.76.76,0,0,0,.41-.13,2.1,2.1,0,0,1,.53-.19,3.42,3.42,0,0,1,1.15-.08,5.42,5.42,0,0,1,1.26.32l.58.25c.16.07.3.18.45.07A.11.11,0,0,0,186.82,416.7Z"></path><path d="M186,414.06c-.07-.22-.31-.32-.49-.44a5.54,5.54,0,0,0-.64-.33,4,4,0,0,0-1.32-.33,2.91,2.91,0,0,0-1.1.12,1.42,1.42,0,0,0-.94.68c0,.07,0,.17.05.18a.73.73,0,0,0,.42-.14,2.28,2.28,0,0,1,.52-.18,3.48,3.48,0,0,1,1.16-.08,5.34,5.34,0,0,1,1.25.32l.59.25c.15.07.29.18.45.07A.13.13,0,0,0,186,414.06Z"></path><path d="M185.61,411.14c-.07-.23-.31-.33-.49-.44a4.31,4.31,0,0,0-.64-.33,4,4,0,0,0-1.32-.34,2.92,2.92,0,0,0-1.1.13,1.38,1.38,0,0,0-.94.68c0,.07,0,.16,0,.18a.81.81,0,0,0,.42-.14,2.92,2.92,0,0,1,.52-.19,3.48,3.48,0,0,1,1.16-.07,4.89,4.89,0,0,1,1.25.32l.59.25c.15.07.29.18.45.07A.13.13,0,0,0,185.61,411.14Z"></path><path d="M185.51,408.78c0-.23-.27-.36-.43-.5a4.7,4.7,0,0,0-.59-.4,4,4,0,0,0-1.27-.5,3,3,0,0,0-1.11,0,1.39,1.39,0,0,0-1,.56c0,.06-.05.15,0,.18a.7.7,0,0,0,.42-.09,3.37,3.37,0,0,1,.55-.12,3.42,3.42,0,0,1,1.15.07,4.85,4.85,0,0,1,1.21.48l.55.31c.14.09.27.22.43.13A.14.14,0,0,0,185.51,408.78Z"></path><path d="M220,434.66c-2.46-1.92-3.52-2.88-5.8-4.77-3.68-3.05-5-6.19-5.09-9a82.7,82.7,0,0,1,.55-9.43c.25-3,1-12.26,1.55-20.65.69-9.76.95-12.88-.15-22.93-.62-5.65-1.62-16.3-2.56-26.74,0,0,3.7-1.66,8-7.58,2.32-3.17,2.13-7.21,1.78-10.49a25.17,25.17,0,0,1-17.55,5.53c-11.57-.71-17.16-5.53-17.16-5.53a21,21,0,0,0-2.93,8.85,47.79,47.79,0,0,0,.69,12.75c1.35,7.39,10.85,28.61,14.13,35.4-1.42,5.17-1.73,9.93.48,21.17a156.5,156.5,0,0,1,2.19,17.62c-.11,1.28-.78,2-1.82,4.87-.38,1.05-1.2,2.8-1.07,4s3.4,3.08,5.52,4.16c3,1.52,3,2.31,5.29,4.94a11.56,11.56,0,0,0,5.63,3.55c3.35.83,6.31.84,8.51-.44S222.32,436.46,220,434.66Z" style="fill:#455a64"></path><path d="M199.63,434.48l2.16-1-2-.47A1.79,1.79,0,0,0,199.63,434.48Z"></path><path d="M221.69,438.85a2.87,2.87,0,0,1-1.06,2.74,12.33,12.33,0,0,1-9.22.32c-4.28-1.41-5.34-2.52-6.81-4.32s-2.95-3.71-4.85-4.53a13.91,13.91,0,0,0-.12,1.42c-1.74-.5-4.5-2.27-4.73-3-.43-1.27.19-4.22.19-4.22Z" style="fill:#263238"></path><path d="M214.29,433.2l-10.46-8.89s.23-1.79,2.77-2,2.56.48,2.56.48Z" style="fill:#263238"></path><path d="M198.16,418.84a1.1,1.1,0,0,0-.83.64c-.27.67-.15,1.52-.57,2.71-.55,1.58-1.76,4.56-1.76,5.9s3.65,2.88,5.43,4a18.6,18.6,0,0,1,4.72,4.42,13.71,13.71,0,0,0,7.54,4.51c3.38.62,7.4.26,8.57-1.15,1.45-1.73,2-3.56-2.61-6.84-.86-.62-3.46-2.9-4.46-3.83a21.9,21.9,0,0,1-3-3.33,7.23,7.23,0,0,1-1.14-2.47,15.12,15.12,0,0,1-.35-2.3c-.11-.95-.07-1.7-.61-1.77a10.14,10.14,0,0,0,0,1.56,1,1,0,0,1-.27.74c-1,1.38.22,4.11.91,5.33a40.51,40.51,0,0,0,4.53,6.26,94.62,94.62,0,0,1-7.06-7.41c-1.31-1.64-1-2.45-3.28-2.89-1-.2-1.84.3-3.92-1.26a7.29,7.29,0,0,1-1.87-1.75A5.26,5.26,0,0,0,198.16,418.84Z" style="fill:#37474f"></path><path d="M221.26,439.85c1.45-1.73,2-3.56-2.61-6.84-.2-.15-.51-.4-.86-.69h0a6.23,6.23,0,0,0-4.38-.16c-2.7.74-2.84,2.69-7-.34s-6.49-2.84-6.86-.24h0c.31.17.6.33.85.49a18.6,18.6,0,0,1,4.72,4.42,13.71,13.71,0,0,0,7.54,4.51C216.07,441.62,220.09,441.26,221.26,439.85Z" style="fill:#455a64"></path><path d="M214.66,430.86c-.13-.19-.39-.21-.61-.26a5.36,5.36,0,0,0-.7-.1,3.91,3.91,0,0,0-1.36.13,2.85,2.85,0,0,0-1,.48,1.4,1.4,0,0,0-.67,1c0,.06,0,.16.11.14a.68.68,0,0,0,.34-.26,3.55,3.55,0,0,1,.44-.35,3.5,3.5,0,0,1,1.07-.46,5,5,0,0,1,1.28-.11l.64,0c.17,0,.33.07.45-.08A.12.12,0,0,0,214.66,430.86Z"></path><path d="M213,429.17c-.13-.19-.4-.21-.61-.26a5.36,5.36,0,0,0-.7-.1,4.14,4.14,0,0,0-1.36.12,3.08,3.08,0,0,0-1,.48,1.41,1.41,0,0,0-.66,1c0,.07,0,.17.11.15s.24-.17.34-.26a2.56,2.56,0,0,1,.44-.36,3.68,3.68,0,0,1,1.06-.45,5.08,5.08,0,0,1,1.29-.11l.64,0c.16,0,.33.07.44-.08A.11.11,0,0,0,213,429.17Z"></path><path d="M211.31,427.07c-.13-.19-.4-.2-.61-.25a3.38,3.38,0,0,0-.7-.1,3.87,3.87,0,0,0-1.36.12,3,3,0,0,0-1,.48,1.43,1.43,0,0,0-.67,1c0,.07,0,.16.12.15s.24-.17.34-.27a2.51,2.51,0,0,1,.44-.35,3.12,3.12,0,0,1,1.06-.45,5.09,5.09,0,0,1,1.29-.12l.63,0c.17,0,.34.08.45-.08A.12.12,0,0,0,211.31,427.07Z"></path><path d="M209.76,424.35c-.13-.19-.4-.2-.61-.25a5.62,5.62,0,0,0-.7-.1,4.11,4.11,0,0,0-1.36.12,3,3,0,0,0-1,.48,1.46,1.46,0,0,0-.67,1c0,.07,0,.16.12.15s.24-.17.34-.27a2.51,2.51,0,0,1,.44-.35,3.33,3.33,0,0,1,1.06-.45,4.66,4.66,0,0,1,1.29-.11c.21,0,.43,0,.63,0s.34.08.45-.07A.14.14,0,0,0,209.76,424.35Z"></path></g><g id="freepik--Skirt--inject-69"><polygon points="188.06 324.86 170.22 359.19 176.05 368.85 187.3 366.35 194.22 327.02 188.06 324.86" style="fill:#fafafa"></polygon><path d="M184.66,343.24a3,3,0,0,1,.48-2.69c.9-1.13,3.22-1.6,3.9-.33.49-.15.48-1.63-.19-2a2.83,2.83,0,0,0,.45-2.58c-.21-.52-1.24-1.63-1.83-1.7.87,4.17-6.14,2.85-5.17,10.08Zm4.73.94c.07-.48.15-.87-.26-1.07s-1.22-.17-3,.4c-2.52.77-4.45,1.18-6.18,2.41a6.26,6.26,0,0,0-2.36,3.25.63.63,0,0,1-1.21-.11,1,1,0,0,0,1.13,1.38,3.27,3.27,0,0,0,1.18,3c1.37.95,3.62,1,4.19-.91-1.21.4-2.5-.73-2.54-2.33,0-1.17.22-2.87,3.81-4.36,1.15-.48,2.23-.79,3.42-1.16.11.49-.51,6.34-1,6-1.08-.48-1.3-2.3-1.64-4.44l-2.31,1a13,13,0,0,0,1.46,4.16c.46.76,1.9,2.58,3,1.46a8.77,8.77,0,0,0,1.54-3.93A45.39,45.39,0,0,0,189.39,344.18Z" style="fill:#ebebeb"></path><polygon points="176.76 366.27 172.5 358.72 175.32 352.76 180.26 357.8 187.02 357.44 185.51 364.24 176.76 366.27" style="fill:#BA68C8"></polygon><polygon points="174.59 358.64 175.86 355.97 179.52 359.7 184.67 359.43 183.94 362.69 177.7 364.14 174.59 358.64" style="fill:#fafafa"></polygon><polygon points="213.35 325.06 231.37 359.39 225.54 369.05 214.29 366.54 207.36 327.13 213.35 325.06" style="fill:#fafafa"></polygon><path d="M219.29,344.22c1-7.22-6-5.9-5.17-10.07a3.6,3.6,0,0,0-1.83,1.7,2.82,2.82,0,0,0,.45,2.57c-.67.36-.68,1.84-.19,2,.67-1.27,3-.8,3.9.32a3.05,3.05,0,0,1,.48,2.7ZM213,349.14a8.94,8.94,0,0,0,1.53,3.94c1.12,1.12,2.56-.7,3-1.47a13,13,0,0,0,1.46-4.15l-2.31-1c-.34,2.15-.56,4-1.64,4.44-.52.32-1.14-5.52-1-6,1.19.37,2.27.69,3.42,1.17,3.59,1.48,3.84,3.19,3.81,4.36,0,1.59-1.33,2.72-2.54,2.32.57,1.87,2.82,1.87,4.19.92a3.28,3.28,0,0,0,1.18-3,1,1,0,0,0,1.13-1.38.62.62,0,0,1-1.21.1,6.29,6.29,0,0,0-2.36-3.24c-1.73-1.24-3.66-1.65-6.18-2.42-1.76-.56-2.57-.59-3-.39s-.33.59-.26,1.06A45.39,45.39,0,0,0,213,349.14Z" style="fill:#ebebeb"></path><polygon points="224.83 366.46 229.09 358.92 226.27 352.96 221.33 357.99 214.57 357.64 216.08 364.44 224.83 366.46" style="fill:#BA68C8"></polygon><polygon points="227 358.84 225.73 356.17 222.07 359.9 216.92 359.63 217.65 362.89 223.89 364.33 227 358.84" style="fill:#fafafa"></polygon><polygon points="204.16 328.41 210.84 368.5 202.1 374.6 192.16 368.75 197.72 327.91 204.16 328.41" style="fill:#fafafa"></polygon><path d="M203.8,347.85c3.15-6.58-3.92-7.48-1.81-11.18a3.64,3.64,0,0,0-2.27,1.05,2.81,2.81,0,0,0-.36,2.59c-.75.14-1.21,1.54-.8,1.84,1-1,3.11.16,3.61,1.51a3,3,0,0,1-.38,2.71Zm-7.53,2.73a8.83,8.83,0,0,0,.25,4.21c.71,1.41,2.64.12,3.31-.46a12.72,12.72,0,0,0,2.68-3.5l-1.88-1.68c-1,1.94-1.76,3.6-2.94,3.72-.58.14.63-5.61.88-6.05a35.87,35.87,0,0,1,2.9,2.17c2.95,2.52,2.67,4.22,2.28,5.32-.53,1.5-2.11,2.18-3.14,1.43,0,1.95,2.11,2.64,3.71,2.16a3.28,3.28,0,0,0,2-2.48,1,1,0,0,0,1.5-1,.62.62,0,0,1-1.18-.27,6.23,6.23,0,0,0-1.25-3.81c-1.26-1.71-3-2.7-5.13-4.2-1.5-1.08-2.26-1.36-2.72-1.3s-.49.46-.57.93A44.83,44.83,0,0,0,196.27,350.58Z" style="fill:#ebebeb"></path><polygon points="202.22 371.92 209.18 366.92 207.75 359.51 201.5 362.78 195.17 360.36 194.52 367.3 202.22 371.92" style="fill:#BA68C8"></polygon><polygon points="207.29 366 206.47 362.01 201.59 364.53 196.68 362.69 196.48 366.31 201.98 369.61 207.29 366" style="fill:#fafafa"></polygon><polygon points="191.88 326.2 181.25 363.25 188.43 371.95 198.61 367.34 199.55 327.86 191.88 326.2" style="fill:#BA68C8"></polygon><polygon points="191.88 326.2 181.25 363.25 188.43 371.95 198.61 367.34 199.55 327.86 191.88 326.2" style="fill:#fff;opacity:0.5"></polygon><path d="M192.7,344.57a3,3,0,0,1,0-2.74c.67-1.27,2.88-2.15,3.77-1,.45-.24.18-1.69-.54-1.93a2.82,2.82,0,0,0,0-2.61,3.59,3.59,0,0,0-2.1-1.34c1.6,3.94-5.53,3.9-3.28,10.84Zm4.82.07c0-.48,0-.88-.45-1s-1.23.05-2.86.92c-2.34,1.21-4.17,2-5.65,3.49a6.22,6.22,0,0,0-1.74,3.62.63.63,0,0,1-1.21.11,1,1,0,0,0,1.37,1.15,3.27,3.27,0,0,0,1.69,2.73c1.52.69,3.73.29,4-1.65-1.13.61-2.6-.27-2.93-1.83-.24-1.14-.3-2.87,3-5,1-.68,2-1.18,3.15-1.76.2.47.64,6.33.08,6.11-1.16-.27-1.7-2-2.42-4.07l-2.09,1.41a13,13,0,0,0,2.19,3.83c.59.66,2.33,2.2,3.22.9a8.83,8.83,0,0,0,.8-4.15A43.58,43.58,0,0,0,197.52,344.64Z" style="fill:#fafafa"></path><polygon points="189.32 368.53 183.51 361.98 185.22 355.61 190.99 359.68 197.57 358.11 197.3 365.08 189.32 368.53" style="fill:#fafafa"></polygon><polygon points="185.56 361.53 186.33 358.67 190.6 361.68 195.62 360.49 195.49 363.83 189.6 366.38 185.56 361.53" style="fill:#BA68C8"></polygon><polygon points="183.6 323.05 161.87 351.41 165.75 362.01 177.27 361.7 190.12 325.58 183.6 323.05" style="fill:#BA68C8"></polygon><polygon points="183.6 323.05 161.87 351.41 165.75 362.01 177.27 361.7 190.12 325.58 183.6 323.05" style="fill:#fff;opacity:0.5"></polygon><path d="M179.11,338.52a3.06,3.06,0,0,1,1-2.55c1.09-.94,3.47-1,3.89.43.5-.06.77-1.52.19-2a2.78,2.78,0,0,0,.93-2.44,3.57,3.57,0,0,0-1.46-2c0,4.25-6.57,1.61-7,8.89Zm4.46,1.83c.16-.46.32-.83,0-1.1s-1.17-.4-3-.18c-2.62.27-4.6.3-6.53,1.18a6.25,6.25,0,0,0-2.94,2.73.63.63,0,0,1-1.17-.33,1,1,0,0,0,.85,1.57,3.28,3.28,0,0,0,.58,3.16c1.17,1.2,3.37,1.63,4.3-.09-1.27.16-2.32-1.2-2.06-2.77.19-1.15.77-2.78,4.58-3.55a35.81,35.81,0,0,1,3.58-.49c0,.51-1.72,6.13-2.16,5.71-1-.67-.84-2.5-.77-4.67l-2.46.55a13,13,0,0,0,.65,4.36c.3.84,1.36,2.9,2.67,2a9,9,0,0,0,2.26-3.57A46,46,0,0,0,183.57,340.35Z" style="fill:#fafafa"></path><polygon points="166.94 359.61 164.2 351.38 168.12 346.07 172 351.96 178.71 352.91 175.91 359.3 166.94 359.61" style="fill:#fafafa"></polygon><polygon points="166.28 351.71 168.03 349.33 170.91 353.69 176.01 354.41 174.68 357.47 168.27 357.69 166.28 351.71" style="fill:#BA68C8"></polygon><polygon points="209.8 326.33 220.3 363.25 213.12 371.95 202.94 367.34 202.01 327.86 209.8 326.33" style="fill:#BA68C8"></polygon><polygon points="209.8 326.33 220.3 363.25 213.12 371.95 202.94 367.34 202.01 327.86 209.8 326.33" style="fill:#fff;opacity:0.5"></polygon><path d="M211,345.77c2.25-6.94-4.88-6.9-3.28-10.84a3.59,3.59,0,0,0-2.1,1.34,2.82,2.82,0,0,0,0,2.61c-.72.24-1,1.69-.55,1.93.9-1.13,3.1-.25,3.78,1a3,3,0,0,1,0,2.74Zm-7.1,3.7a9,9,0,0,0,.8,4.15c.89,1.3,2.64-.24,3.23-.9a13,13,0,0,0,2.19-3.83l-2.09-1.41c-.73,2-1.27,3.8-2.42,4.07-.56.22-.12-5.64.07-6.11,1.11.58,2.11,1.08,3.16,1.76,3.26,2.11,3.2,3.84,3,5-.33,1.56-1.8,2.44-2.92,1.83.23,1.94,2.44,2.34,4,1.65a3.3,3.3,0,0,0,1.7-2.73,1,1,0,0,0,1.36-1.15.63.63,0,0,1-1.21-.11,6.22,6.22,0,0,0-1.74-3.62c-1.48-1.53-3.3-2.28-5.64-3.49-1.63-.87-2.42-1-2.86-.92s-.43.52-.45,1A43.16,43.16,0,0,0,203.94,349.47Z" style="fill:#fafafa"></path><polygon points="212.24 368.53 218.04 361.98 216.33 355.61 210.57 359.68 203.98 358.11 204.25 365.08 212.24 368.53" style="fill:#fafafa"></polygon><polygon points="215.99 361.53 215.23 358.67 210.96 361.68 205.94 360.49 206.07 363.83 211.95 366.38 215.99 361.53" style="fill:#BA68C8"></polygon><polygon points="218.33 323.05 239.68 351.41 235.81 362.01 224.28 361.7 211.37 325.73 218.33 323.05" style="fill:#BA68C8"></polygon><polygon points="218.33 323.05 239.68 351.41 235.81 362.01 224.28 361.7 211.37 325.73 218.33 323.05" style="fill:#fff;opacity:0.5"></polygon><path d="M224.92,338.84c-.44-7.28-7.06-4.64-7-8.89a3.63,3.63,0,0,0-1.47,2,2.83,2.83,0,0,0,.93,2.44c-.58.48-.31,1.94.2,2,.42-1.38,2.8-1.37,3.89-.43a3.06,3.06,0,0,1,1,2.55Zm-5.26,6a8.74,8.74,0,0,0,2.26,3.57c1.3.88,2.37-1.18,2.67-2a12.76,12.76,0,0,0,.64-4.36l-2.46-.55c.08,2.17.21,4-.76,4.67-.44.42-2.18-5.2-2.16-5.71,1.24.13,2.35.24,3.58.49,3.81.77,4.38,2.4,4.57,3.55.27,1.57-.78,2.93-2.05,2.77.93,1.72,3.13,1.29,4.29.09a3.24,3.24,0,0,0,.58-3.16,1,1,0,0,0,.85-1.57.62.62,0,0,1-1.16.33,6.25,6.25,0,0,0-2.94-2.73c-1.94-.88-3.91-.91-6.53-1.18-1.84-.22-2.63-.09-3,.18s-.21.64-.06,1.1A46.48,46.48,0,0,0,219.66,344.88Z" style="fill:#fafafa"></path><polygon points="234.62 359.61 237.35 351.38 233.44 346.07 229.56 351.96 222.85 352.91 225.64 359.3 234.62 359.61" style="fill:#fafafa"></polygon><polygon points="235.28 351.71 233.52 349.33 230.65 353.69 225.54 354.41 226.88 357.47 233.29 357.69 235.28 351.71" style="fill:#BA68C8"></polygon></g></g><g id="freepik--top--inject-69"><path id="freepik--Hair--inject-69" d="M191.5,248.33a21.9,21.9,0,0,1,8.07.34,8.33,8.33,0,0,1,5.2,3c.71.86,1.22,1.86,1.91,2.74A8.75,8.75,0,0,0,209,256a9.38,9.38,0,0,0,1.86.9,8.65,8.65,0,0,1,3.58,2.35,6.13,6.13,0,0,1,1.33,3.47c.15,1,.18,2.4.83,3.2.51.62,1.44.63,2.15.81a6.21,6.21,0,0,1,2.77,1.26,5.56,5.56,0,0,1,1.82,4.12,7.8,7.8,0,0,1-.54,2.61,4.27,4.27,0,0,0,.77,3.54c1.55,2.11,3,4,2.34,6.74-.5,2.24-2.37,5.24-4.46,6.19-2.37,1.07-4.38.47-6.8.34a9,9,0,0,0-5.43,1.48c-1.66,1.14-3.54,2.92-5.55,3.39-2.45.58-4.52-.49-6.68-1.5s-4.24-1.9-6.65-1.24c-1.87.51-3.68,1.66-5.67,1s-3-2.6-4.21-4.22c-2-2.6-6-2.47-7.33-5.74a7.85,7.85,0,0,1-.33-4.05c.36-2.8,4-4.06,3.64-7-.22-1.83-.84-3-.38-4.86.36-1.47,1.38-2.27,2.47-3.29,1.35-1.26,2.87-2.16,3.36-4.05.56-2.15-.36-4.36.41-6.53,1.28-3.56,5.43-5.73,8.87-6.59Z" style="fill:#f0997a"></path><g id="freepik--chest--inject-69"><path d="M185.83,310.47c-1.76-6.65-3.78-15.06-3.83-16.83-.09-3.57-.75-6.83,3.82-8.7l9.17-2.22h13.59c2.13.39,8.35,2.3,8.35,2.3,2.34,2.11,3.39,5.79,3.39,15.83,0,7.85-1.23,13,.83,25.87-2.52,0-7,1.79-11.35,8.1-8.14-7.81-18.11-3.49-28.25-9.59a22.94,22.94,0,0,0,2.23-5.17C184.63,317.32,186.5,313,185.83,310.47Z" style="fill:#BA68C8"></path><path d="M220.69,323.53a16.37,16.37,0,0,0-10.88,6.28,11.28,11.28,0,0,1,.11-2.32c.17-.95.56-1.83.78-2.77a4.32,4.32,0,0,0,0-2.34,2.66,2.66,0,0,0-.48-.91c-.11-.14-.27-.24-.38-.38s-.13-.2.06-.39a3.12,3.12,0,0,0,1.08-1.63,2.92,2.92,0,0,0-.23-1.95c-.16-.3-.42-.5-.59-.78s.34-.74.56-1a3.67,3.67,0,0,0,.68-1.81,4.09,4.09,0,0,0-1.33-3.46,3.6,3.6,0,0,0,.2-5.18,3.24,3.24,0,0,0-.08-4.43c-.18-.18-.49-.43-.37-.67s.38-.3.51-.45a1.58,1.58,0,0,0,.32-1.24,2.48,2.48,0,0,0-1.53-1.85,2.91,2.91,0,0,0,.51-2,2.76,2.76,0,0,0,2.53-.53,2.62,2.62,0,0,0,.66-2.79,1.92,1.92,0,0,0,1.67-1.33,2.89,2.89,0,0,0-.8-2.58c1.15-.25,1.13-1.36.85-2.58,0,0,0-.05,0-.07l-.79-.23c.35,1,.53,2.35-.74,2.11-.3-.05-.68.28-.43.54.75.75,1.48,1.8,1.23,2.56a1.19,1.19,0,0,1-1.56.73c-.31-.11-.82.14-.56.52,1.1,1.6-.71,3.84-2.44,2.61-.34-.23-.89,0-.68.44a2.06,2.06,0,0,1,0,1.78,1.3,1.3,0,0,0-.27.9c.09.32.43.44.66.64.5.42,1,1.09.6,1.75-.21.32-.64.37-.8.76a1.07,1.07,0,0,0,.19,1c.46.69,1,1.06,1.12,1.95a2.38,2.38,0,0,1-.89,2.11c-.23.19-.08.51.09.65a2.82,2.82,0,0,1-.27,4.5.42.42,0,0,0,0,.72,3.14,3.14,0,0,1,1.32,3.33,4,4,0,0,1-1,1.7c-.52.67-.13,1.16.32,1.71a2,2,0,0,1,.32,1.88,1.81,1.81,0,0,1-.52.84,2.78,2.78,0,0,0-.69.72c-.34.76.59,1.12.87,1.68a3.31,3.31,0,0,1,.09,2.36,27.85,27.85,0,0,0-.8,3c0,.18,0,.37-.05.56-.27-.48-.56-.94-.77-1.34a4.21,4.21,0,0,1-.54-2.6,4,4,0,0,1,.45-1.37,2.1,2.1,0,0,0,.38-1.13c-.13-1.42-2.26-1.27-2.25-2.79a2.33,2.33,0,0,1,1-1.87,1.05,1.05,0,0,0,.41-1.56c-.54-.8-1.48-1.08-1.76-2.09a2.32,2.32,0,0,1,1.13-2.64c.39-.22.23-.68-.15-.79a3,3,0,0,1-.71-5.26c.26-.18.11-.58-.14-.68a2.31,2.31,0,0,1-.82-3.74c.26-.28.09-.62-.25-.73a1.48,1.48,0,0,1-1-1.54c0-.62.61-1.4.09-2-.25-.28-.65-.3-.94-.53a2,2,0,0,1-.7-1.95c.07-.36-.54-.62-.79-.41a2.42,2.42,0,0,1-2.78.31,2.49,2.49,0,0,1-1.05-2.58c.07-.43-.56-.53-.83-.39a2.48,2.48,0,0,1-3.5-2.89.49.49,0,0,0-.49-.57,2.67,2.67,0,0,1-2.63-3.14l-1,.25a3.63,3.63,0,0,0,3.08,3.68,3.47,3.47,0,0,0,1.3,3.05,3.53,3.53,0,0,0,3.07.6,3.41,3.41,0,0,0,4.69,2.83c-.22.1.64,1.34.74,1.45a3.19,3.19,0,0,0,.68.53c.36.18.55.21.34.63a2.31,2.31,0,0,0-.26,1.15,2.6,2.6,0,0,0,1.22,2,3.09,3.09,0,0,0,.83,4.35,3.73,3.73,0,0,0-1.11,3.4,3.87,3.87,0,0,0,2,2.62,3,3,0,0,0-.73,3.62,3.19,3.19,0,0,0,.72.95c.26.23.87.52,1,.88s-.46.59-.69.81a2.85,2.85,0,0,0-.64.89,2.65,2.65,0,0,0-.17,2,2.75,2.75,0,0,0,1.4,1.39c.24.14.64.31.72.59s-.39,1-.54,1.38a4.67,4.67,0,0,0-.19,2.64,9,9,0,0,0,1.24,2.59,7.19,7.19,0,0,1,.83,1.87c-2.59-2.05-6.66-3.4-12.43-4.1-6.16-.75-10.53-2-13.31-4-.11.33-.22.63-.32.91,2.91,1.94,7.36,3.25,13.51,4,6.32.76,10.68,2.37,13,4.76l.45.48.3-.59a14.75,14.75,0,0,1,10.77-7C220.53,324.21,220.73,323.84,220.69,323.53Z" style="fill:#fafafa"></path></g><g id="freepik--head--inject-69"><path d="M192.84,241.1c2.78,2.92.33,4.48-2.85,7.51s-5.88,6.39-8.67,3.46-2.46-7.74.72-10.77S190.05,238.17,192.84,241.1Z" style="fill:#f0997a"></path><path d="M186.24,244.61c-4.23-1.19-8.21-.26-12.14,2.19s1.33,4,3.23,7.59c1.6,3,1.36,6.6,3.25,6.82,2.86.33,4.9-4.44,5.34-7.5a23.75,23.75,0,0,1,1.48-5.48S188,245.67,186.24,244.61Z" style="fill:#BA68C8"></path><path d="M186.24,244.61c-4.23-1.19-8.21-.26-12.14,2.19s1.33,4,3.23,7.59c1.6,3,1.36,6.6,3.25,6.82,2.86.33,4.9-4.44,5.34-7.5a23.75,23.75,0,0,1,1.48-5.48S188,245.67,186.24,244.61Z" style="opacity:0.25"></path><path d="M172.94,249.42c3.05,1.62,4.66,1.73,5.66,3.65.69,1.32.22,3.94.39,6.24a26.74,26.74,0,0,0-1.67-4.92C176.16,252.22,173.73,250.78,172.94,249.42Z" style="opacity:0.15"></path><path d="M187.07,243.4c.16-4.39,2.28-7.89,5.83-10.87s3.44,2.51,6.22,5.41c2.35,2.45,5.86,3.34,5.48,5.19-.57,2.83-5.73,3.3-8.78,2.77a23.78,23.78,0,0,0-5.67-.28S187.54,245.35,187.07,243.4Z" style="fill:#BA68C8"></path><path d="M187.07,243.4c.16-4.39,2.28-7.89,5.83-10.87s3.44,2.51,6.22,5.41c2.35,2.45,5.86,3.34,5.48,5.19-.57,2.83-5.73,3.3-8.78,2.77a23.78,23.78,0,0,0-5.67-.28S187.54,245.35,187.07,243.4Z" style="opacity:0.25"></path><path d="M204.07,241.71c-1.09-1.11-4.85-1.7-6.24-3.35s-.86-4-1.46-5.2c.73,1.37,1.4,3.37,2.75,4.78C200.79,239.68,203,240.64,204.07,241.71Z" style="opacity:0.15"></path><path d="M188.7,244.94c.15.23.42,0,.48-.16,0,0,0-.06,0-.1.23-.12.41-.4.6-.56a5.91,5.91,0,0,1,.9-.68,7.83,7.83,0,0,1,2-.86,14,14,0,0,1,2.32-.43c.38-.05.76-.07,1.14-.1a6.64,6.64,0,0,1,1.26,0c.05,0,.1,0,.05-.07a4.26,4.26,0,0,0-2.36-.51,9.52,9.52,0,0,0-2.49.24,7.72,7.72,0,0,0-2.27.91,6.77,6.77,0,0,0-1,.72l-.05,0a5.38,5.38,0,0,1,.07-.69,8.39,8.39,0,0,1,.5-1.71,9,9,0,0,1,.89-1.72c.36-.55.82-1,1.19-1.58.08-.12-.13-.24-.23-.19a4.2,4.2,0,0,0-1.45,1.27,8.13,8.13,0,0,0-1.09,1.75,9.39,9.39,0,0,0-.63,2A3.38,3.38,0,0,0,188.7,244.94Z" style="opacity:0.15"></path><path d="M180.18,247.71a2.67,2.67,0,0,0,.54-.36,7,7,0,0,1,.74-.46,7.9,7.9,0,0,1,1.78-.65,7.61,7.61,0,0,1,1.58-.22l.51,0-.42.38a7.23,7.23,0,0,0-1.26,1.6,10.73,10.73,0,0,0-.84,1.94,4.15,4.15,0,0,0-.27,2c0,.18.21.14.21,0a6.53,6.53,0,0,1,.81-2.48,13.09,13.09,0,0,1,.8-1.41,6,6,0,0,1,1.07-1.23,5,5,0,0,1,.66-.48,2,2,0,0,0,.64-.44.48.48,0,0,0,.11-.24.26.26,0,0,0-.18-.35,4.85,4.85,0,0,0-1.86-.16,6.81,6.81,0,0,0-1.79.33,7.36,7.36,0,0,0-1.66.83,4,4,0,0,0-1.26,1.16C180.06,247.56,180.07,247.75,180.18,247.71Z" style="opacity:0.15"></path><path d="M185.81,243c1.33-1,2.19-.76,3.47.94s1.24,2.66.25,3.61-2.44,1.4-3.83-.39C183.68,244.58,184.07,244.27,185.81,243Z" style="fill:#BA68C8"></path><path d="M204.59,275.2c2.65-1.86,4.65-4.44,6.76-6.84,1.9-2.16,4.37-3.37,5.85-5.87,2.68-4.5,3.3-11-.87-14.87-2.83-2.6-4.81-3.57-10.17-3.27-3.45-1.58-4.19-1.64-6.56-1.78a18.56,18.56,0,0,0-9.52,2.33,16.16,16.16,0,0,0-6.11,7.58,18.07,18.07,0,0,0,3.66,18.82c1.38,1.52,4.08,3.67,6.05,6.29C194,278,201.9,277.08,204.59,275.2Z" style="fill:#f0997a"></path><path d="M216.91,262.88c.2,1.74.51,2.42.73,5.25a10.89,10.89,0,0,1-1.71,7.2c-1.54,2.23-4.54,3.59-7.52,3.91l-.72.06.11,4.1c2.89,2.62,2,6.14-2.69,6.4s-9.18-3-11.26-5.94l-.6-12.16s-1.27,1.38-3.49.18c-1.52-.82-3.24-3-2.51-5.28a3.14,3.14,0,0,1,3.47-2.11c1.83.35,2.15,2.32,2.24,3.87a8.45,8.45,0,0,0,.14,1.32,1.81,1.81,0,0,0,.92,1.43c.79.38,1.8.12,1.9-.57-.71.42-1.34-.14-1.42-.85-.13-1.14.66-1.81,1.18-2.71a2.36,2.36,0,0,0-1.4-3.42,8.26,8.26,0,0,0,2.82-2.4,12.53,12.53,0,0,0,1.45-4.59c.09-.54,0-1.44.24-1.88s.8-.51,1.17-.8a5.25,5.25,0,0,1,1.27-.83,6.25,6.25,0,0,1,6.45.94c3.91-4.22,7.29-1.52,8.32,2.74A36.73,36.73,0,0,1,216.91,262.88Z" style="fill:#ffc4c3"></path><path d="M204.32,263.22a1.44,1.44,0,1,1-1.64-1.29A1.46,1.46,0,0,1,204.32,263.22Z" style="fill:#263238"></path><path d="M200.08,261.23l2.61-1.34a1.47,1.47,0,1,0-2.61,1.34Z" style="fill:#b16668"></path><path d="M212.09,258.5l2.85.85a1.49,1.49,0,0,0-2.85-.85Z" style="fill:#b16668"></path><path d="M204.7,271.45l3.72.84a1.89,1.89,0,0,1-2.24,1.51A2,2,0,0,1,204.7,271.45Z" style="fill:#b16668"></path><path d="M204.82,272h-.14a2,2,0,0,0,1.5,1.75,1.83,1.83,0,0,0,.84,0A2.26,2.26,0,0,0,204.82,272Z" style="fill:#f28f8f"></path><path d="M215,262.61a1.46,1.46,0,0,1-1.22,1.68,1.5,1.5,0,1,1,1.22-1.68Z" style="fill:#263238"></path><polygon points="208.03 262.12 208.77 268.68 212.6 267.49 208.03 262.12" style="fill:#ffa8a7"></polygon><path d="M207.69,279.28a20.93,20.93,0,0,1-8.89-1.81,9.62,9.62,0,0,1-3.49-3,8.27,8.27,0,0,0,2.14,3.56c3.41,3,10.28,2.86,10.28,2.86Z" style="fill:#ffa8a7"></path></g><g id="freepik--arm--inject-69"><path d="M175.15,326.4c.26-.43.49-1.28,1.11-1.24a2.26,2.26,0,0,1,1.6,1.43c.6,1.37.29,4.17-1.81,3.25-.67-.29-1.36-.68-1.41-1.46A6.13,6.13,0,0,1,175.15,326.4Z" style="fill:#ffa8a7"></path><path d="M185.82,284.94c-5,.58-7.36,1.69-12.91,7.21C167,298,162,302.57,159.09,306.3c-2,2.56-3.81,4.45-.45,7.75,4,3.93,17.1,8.27,17.65,9.37.42.86.35,2.66.35,4a4.18,4.18,0,0,0,.56,1.94l-1.82-.71s1.11-2-.2-3c-.54-.32-1,.4-1.68,1.92a6.48,6.48,0,0,0-.19,3.21c.18.65,3.4,2.94,5.14,2.64s5.85-3.08,6.7-4.23.24-5.86,0-7.19-1.12-2.6-3.6-4.27c-2-1.32-10.58-7.34-10.58-7.34l13.65-10.46C186.77,298.67,189.89,290.39,185.82,284.94Z" style="fill:#ffc4c3"></path><path d="M187.08,284.63c-1.85-.57-2.26-2.36-6.19-1.3s-4,4.56-6.25,6.49-15.49,14.36-17.29,17.79-1.8,4.41.49,6.62,13.73,7.06,13.73,7.06-.86-1.47.26-4.21,3.68-3.54,4.4-3l-4.66-3.66,14.12-10.53S191.31,292.18,187.08,284.63Z" style="fill:#BA68C8"></path><path d="M187.08,284.63c-1.85-.57-2.26-2.36-6.19-1.3s-4,4.56-6.25,6.49-15.49,14.36-17.29,17.79-1.8,4.41.49,6.62,13.73,7.06,13.73,7.06-.86-1.47.26-4.21,3.68-3.54,4.4-3l-4.66-3.66,14.12-10.53S191.31,292.18,187.08,284.63Z" style="opacity:0.30000000000000004"></path><path d="M167.42,319.46l4.54,3.78s2.15-.35,1.61-2.24a1.74,1.74,0,0,0,2.09-2.24,1.5,1.5,0,0,0,1.28-2.53,1.48,1.48,0,0,0,1.66-2.14l-4.41-1.66a6.63,6.63,0,0,0-5,2.55C167.26,317.56,167.42,319.46,167.42,319.46Z" style="fill:#fafafa"></path></g></g></g></g></svg>